<svg width="211" height="55" viewBox="0 0 211 55" fill="none" xmlns="http://www.w3.org/2000/svg">
<path d="M0 7.81481C0 3.49881 3.49881 0 7.81482 0H203.185C207.501 0 211 3.49881 211 7.81482V46.8889C211 51.2049 207.501 54.7037 203.185 54.7037H7.81481C3.49881 54.7037 0 51.2049 0 46.8889V7.81481Z" fill="black"/>
<path d="M42.5216 27.4443C42.5387 26.115 42.8911 24.8115 43.5461 23.6553C44.201 22.499 45.1372 21.5276 46.2676 20.8313C45.5495 19.8037 44.6022 18.9581 43.5009 18.3615C42.3996 17.765 41.1746 17.4339 39.9233 17.3947C37.254 17.114 34.6662 18.9951 33.306 18.9951C31.9195 18.9951 29.8252 17.4226 27.57 17.4691C26.1113 17.5163 24.6896 17.9413 23.4436 18.7027C22.1976 19.4641 21.1696 20.536 20.4599 21.8138C17.3857 27.1469 19.6788 34.9847 22.6237 39.2956C24.097 41.4065 25.819 43.7644 28.0722 43.6808C30.277 43.5892 31.1005 42.2721 33.7619 42.2721C36.3986 42.2721 37.1712 43.6808 39.4701 43.6277C41.836 43.5892 43.3266 41.5074 44.7483 39.3765C45.807 37.8724 46.6216 36.21 47.162 34.451C45.7875 33.8685 44.6145 32.8934 43.7893 31.6475C42.9641 30.4015 42.5232 28.9397 42.5216 27.4443Z" fill="#E6E6E6"/>
<path d="M38.1794 14.5596C39.4694 13.0079 40.1049 11.0136 39.951 9C37.9802 9.2074 36.1597 10.1512 34.8523 11.6433C34.2131 12.3722 33.7235 13.2202 33.4115 14.1389C33.0996 15.0575 32.9714 16.0287 33.0343 16.997C34.0201 17.0072 34.9953 16.7931 35.8865 16.3709C36.7777 15.9487 37.5617 15.3294 38.1794 14.5596Z" fill="#E6E6E6"/>
<path d="M68.484 36.0863H62.1069L60.5755 40.6173H57.8744L63.9147 23.8541H66.721L72.7613 40.6173H70.0141L68.484 36.0863ZM62.7674 33.9956H67.8223L65.3304 26.6422H65.2607L62.7674 33.9956Z" fill="#E6E6E6"/>
<path d="M85.8062 34.5071C85.8062 38.305 83.7774 40.7451 80.7158 40.7451C79.9403 40.7858 79.169 40.6068 78.4903 40.2286C77.8115 39.8505 77.2528 39.2884 76.878 38.6069H76.8201V44.6604H74.3163V28.3956H76.7399V30.4283H76.7859C77.1779 29.7501 77.7461 29.1909 78.43 28.8105C79.1139 28.43 79.888 28.2424 80.6698 28.2677C83.7655 28.2677 85.8062 30.7197 85.8062 34.5071ZM83.2327 34.5071C83.2327 32.0327 81.9565 30.4059 80.0093 30.4059C78.0963 30.4059 76.8096 32.067 76.8096 34.5071C76.8096 36.9696 78.0963 38.6188 80.0093 38.6188C81.9565 38.6188 83.2327 37.0039 83.2327 34.5071Z" fill="#E6E6E6"/>
<path d="M99.2314 34.5071C99.2314 38.305 97.2026 40.7451 94.141 40.7451C93.3655 40.7858 92.5942 40.6068 91.9155 40.2286C91.2367 39.8505 90.678 39.2884 90.3032 38.6069H90.2453V44.6604H87.7415V28.3956H90.165V30.4283H90.2111C90.6031 29.7501 91.1712 29.1909 91.8551 28.8105C92.5391 28.43 93.3131 28.2424 94.095 28.2677C97.1908 28.2677 99.2314 30.7197 99.2314 34.5071ZM96.6579 34.5071C96.6579 32.0327 95.3817 30.4059 93.4345 30.4059C91.5215 30.4059 90.2348 32.067 90.2348 34.5071C90.2348 36.9696 91.5215 38.6188 93.4345 38.6188C95.3817 38.6188 96.6579 37.0039 96.6579 34.5071Z" fill="#E6E6E6"/>
<path d="M108.104 35.9466C108.29 37.609 109.902 38.7005 112.104 38.7005C114.214 38.7005 115.733 37.6089 115.733 36.11C115.733 34.8089 114.817 34.0298 112.649 33.4959L110.48 32.9726C107.408 32.229 105.982 30.7895 105.982 28.4535C105.982 25.5612 108.498 23.5746 112.07 23.5746C115.605 23.5746 118.028 25.5612 118.11 28.4535H115.583C115.431 26.7806 114.051 25.7708 112.034 25.7708C110.017 25.7708 108.637 26.7925 108.637 28.2795C108.637 29.4646 109.519 30.162 111.675 30.6958L113.518 31.1493C116.951 31.9627 118.377 33.3443 118.377 35.7962C118.377 38.9324 115.884 40.8966 111.918 40.8966C108.208 40.8966 105.703 38.9785 105.541 35.9465L108.104 35.9466Z" fill="#E6E6E6"/>
<path d="M123.781 25.5033V28.3956H126.1V30.3822H123.781V37.1199C123.781 38.1666 124.245 38.6544 125.265 38.6544C125.54 38.6496 125.815 38.6302 126.088 38.5963V40.5711C125.63 40.6569 125.164 40.6958 124.698 40.6871C122.228 40.6871 121.265 39.7577 121.265 37.3875V30.3822H119.492V28.3956H121.265V25.5033H123.781Z" fill="#E6E6E6"/>
<path d="M127.444 34.5071C127.444 30.6617 129.704 28.2453 133.229 28.2453C136.765 28.2453 139.015 30.6616 139.015 34.5071C139.015 38.363 136.777 40.7689 133.229 40.7689C129.681 40.7689 127.444 38.363 127.444 34.5071ZM136.464 34.5071C136.464 31.8692 135.257 30.3124 133.229 30.3124C131.2 30.3124 129.995 31.8811 129.995 34.5071C129.995 37.1555 131.2 38.7005 133.229 38.7005C135.257 38.7005 136.464 37.1555 136.464 34.5071Z" fill="#E6E6E6"/>
<path d="M141.079 28.3956H143.467V30.4758H143.525C143.687 29.8261 144.066 29.2519 144.601 28.8498C145.135 28.4477 145.791 28.2421 146.459 28.2677C146.747 28.2667 147.035 28.2981 147.317 28.3613V30.7078C146.953 30.5963 146.573 30.5451 146.192 30.5562C145.828 30.5414 145.465 30.6057 145.129 30.7446C144.792 30.8835 144.49 31.0937 144.242 31.3608C143.994 31.628 143.807 31.9457 143.693 32.2922C143.579 32.6386 143.542 33.0057 143.583 33.3681V40.6173H141.079L141.079 28.3956Z" fill="#E6E6E6"/>
<path d="M158.861 37.0276C158.524 39.2463 156.367 40.7689 153.608 40.7689C150.06 40.7689 147.858 38.3868 147.858 34.5651C147.858 30.7316 150.072 28.2453 153.503 28.2453C156.878 28.2453 159 30.5681 159 34.2738V35.1333H150.385V35.2849C150.345 35.7347 150.401 36.1878 150.55 36.6141C150.698 37.0405 150.936 37.4303 151.246 37.7577C151.556 38.0852 151.933 38.3427 152.35 38.5132C152.767 38.6837 153.216 38.7633 153.666 38.7466C154.258 38.8022 154.852 38.6649 155.359 38.3552C155.867 38.0454 156.261 37.5798 156.483 37.0276L158.861 37.0276ZM150.397 33.38H156.495C156.517 32.9755 156.456 32.5708 156.315 32.1912C156.174 31.8116 155.956 31.4653 155.675 31.174C155.395 30.8828 155.057 30.6528 154.683 30.4987C154.309 30.3445 153.907 30.2694 153.503 30.2781C153.095 30.2756 152.691 30.3541 152.314 30.509C151.937 30.6639 151.594 30.8921 151.305 31.1805C151.016 31.4689 150.787 31.8117 150.631 32.1892C150.475 32.5668 150.396 32.9714 150.397 33.38Z" fill="#E6E6E6"/>
<path d="M58.918 18C58.858 18 58.807 17.979 58.765 17.937C58.723 17.895 58.702 17.844 58.702 17.784V11.925C58.702 11.859 58.723 11.805 58.765 11.763C58.807 11.721 58.858 11.7 58.918 11.7H61.114C61.72 11.7 62.218 11.793 62.608 11.979C63.004 12.165 63.301 12.441 63.499 12.807C63.703 13.173 63.808 13.62 63.814 14.148C63.826 14.412 63.832 14.646 63.832 14.85C63.832 15.054 63.826 15.285 63.814 15.543C63.802 16.101 63.7 16.563 63.508 16.929C63.316 17.289 63.025 17.559 62.635 17.739C62.251 17.913 61.759 18 61.159 18H58.918ZM59.953 16.965H61.114C61.45 16.965 61.723 16.917 61.933 16.821C62.143 16.725 62.296 16.572 62.392 16.362C62.494 16.146 62.548 15.864 62.554 15.516C62.56 15.336 62.563 15.18 62.563 15.048C62.569 14.91 62.569 14.775 62.563 14.643C62.563 14.505 62.56 14.349 62.554 14.175C62.542 13.683 62.419 13.32 62.185 13.086C61.951 12.852 61.579 12.735 61.069 12.735H59.953V16.965Z" fill="#E6E6E6"/>
<path d="M67.4512 18.09C66.9172 18.09 66.4582 18.003 66.0742 17.829C65.6902 17.649 65.3902 17.376 65.1742 17.01C64.9582 16.638 64.8412 16.176 64.8232 15.624C64.8172 15.366 64.8142 15.111 64.8142 14.859C64.8142 14.607 64.8172 14.349 64.8232 14.085C64.8412 13.539 64.9612 13.083 65.1832 12.717C65.4052 12.351 65.7082 12.075 66.0922 11.889C66.4822 11.703 66.9352 11.61 67.4512 11.61C67.9672 11.61 68.4202 11.703 68.8102 11.889C69.2002 12.075 69.5062 12.351 69.7282 12.717C69.9502 13.083 70.0702 13.539 70.0882 14.085C70.1002 14.349 70.1062 14.607 70.1062 14.859C70.1062 15.111 70.1002 15.366 70.0882 15.624C70.0702 16.176 69.9532 16.638 69.7372 17.01C69.5212 17.376 69.2182 17.649 68.8282 17.829C68.4442 18.003 67.9852 18.09 67.4512 18.09ZM67.4512 17.055C67.8412 17.055 68.1592 16.941 68.4052 16.713C68.6512 16.479 68.7832 16.101 68.8012 15.579C68.8132 15.315 68.8192 15.072 68.8192 14.85C68.8192 14.622 68.8132 14.379 68.8012 14.121C68.7892 13.773 68.7232 13.491 68.6032 13.275C68.4892 13.053 68.3332 12.894 68.1352 12.798C67.9372 12.696 67.7092 12.645 67.4512 12.645C67.1992 12.645 66.9742 12.696 66.7762 12.798C66.5782 12.894 66.4192 13.053 66.2992 13.275C66.1852 13.491 66.1222 13.773 66.1102 14.121C66.1042 14.379 66.1012 14.622 66.1012 14.85C66.1012 15.072 66.1042 15.315 66.1102 15.579C66.1282 16.101 66.2602 16.479 66.5062 16.713C66.7522 16.941 67.0672 17.055 67.4512 17.055Z" fill="#E6E6E6"/>
<path d="M72.2527 18C72.1627 18 72.0907 17.976 72.0367 17.928C71.9887 17.874 71.9557 17.808 71.9377 17.73L70.8667 11.961C70.8667 11.943 70.8637 11.928 70.8577 11.916C70.8577 11.904 70.8577 11.895 70.8577 11.889C70.8577 11.835 70.8757 11.79 70.9117 11.754C70.9537 11.718 70.9987 11.7 71.0467 11.7H71.8387C71.9887 11.7 72.0727 11.76 72.0907 11.88L72.8377 15.957L73.6477 13.32C73.6657 13.272 73.6957 13.224 73.7377 13.176C73.7857 13.122 73.8547 13.095 73.9447 13.095H74.4307C74.5267 13.095 74.5957 13.122 74.6377 13.176C74.6797 13.224 74.7067 13.272 74.7187 13.32L75.5377 15.948L76.2847 11.88C76.3027 11.76 76.3867 11.7 76.5367 11.7H77.3287C77.3767 11.7 77.4187 11.718 77.4547 11.754C77.4907 11.79 77.5087 11.835 77.5087 11.889C77.5087 11.895 77.5087 11.904 77.5087 11.916C77.5087 11.928 77.5057 11.943 77.4997 11.961L76.4287 17.73C76.4167 17.808 76.3837 17.874 76.3297 17.928C76.2757 17.976 76.2037 18 76.1137 18H75.5107C75.4207 18 75.3487 17.976 75.2947 17.928C75.2467 17.88 75.2137 17.829 75.1957 17.775L74.1877 14.769L73.1797 17.775C73.1557 17.829 73.1197 17.88 73.0717 17.928C73.0237 17.976 72.9517 18 72.8557 18H72.2527Z" fill="#E6E6E6"/>
<path d="M78.7813 18C78.7213 18 78.6703 17.979 78.6283 17.937C78.5863 17.895 78.5653 17.844 78.5653 17.784V11.925C78.5653 11.859 78.5863 11.805 78.6283 11.763C78.6703 11.721 78.7213 11.7 78.7813 11.7H79.4743C79.5583 11.7 79.6183 11.721 79.6543 11.763C79.6963 11.799 79.7233 11.826 79.7353 11.844L82.3273 15.876V11.925C82.3273 11.859 82.3453 11.805 82.3813 11.763C82.4233 11.721 82.4773 11.7 82.5433 11.7H83.2993C83.3653 11.7 83.4193 11.721 83.4613 11.763C83.5033 11.805 83.5243 11.859 83.5243 11.925V17.775C83.5243 17.841 83.5033 17.895 83.4613 17.937C83.4193 17.979 83.3683 18 83.3083 18H82.6063C82.5223 18 82.4623 17.979 82.4263 17.937C82.3903 17.895 82.3633 17.868 82.3453 17.856L79.7623 13.914V17.784C79.7623 17.844 79.7413 17.895 79.6993 17.937C79.6573 17.979 79.6033 18 79.5373 18H78.7813Z" fill="#E6E6E6"/>
<path d="M85.1446 18C85.0846 18 85.0336 17.979 84.9916 17.937C84.9496 17.895 84.9286 17.844 84.9286 17.784V11.916C84.9286 11.856 84.9496 11.805 84.9916 11.763C85.0336 11.721 85.0846 11.7 85.1446 11.7H85.9816C86.0416 11.7 86.0926 11.721 86.1346 11.763C86.1766 11.805 86.1976 11.856 86.1976 11.916V16.929H89.0506C89.1166 16.929 89.1706 16.95 89.2126 16.992C89.2546 17.034 89.2756 17.088 89.2756 17.154V17.784C89.2756 17.844 89.2546 17.895 89.2126 17.937C89.1706 17.979 89.1166 18 89.0506 18H85.1446Z" fill="#E6E6E6"/>
<path d="M92.4912 18.09C91.9572 18.09 91.4982 18.003 91.1142 17.829C90.7302 17.649 90.4302 17.376 90.2142 17.01C89.9982 16.638 89.8812 16.176 89.8632 15.624C89.8572 15.366 89.8542 15.111 89.8542 14.859C89.8542 14.607 89.8572 14.349 89.8632 14.085C89.8812 13.539 90.0012 13.083 90.2232 12.717C90.4452 12.351 90.7482 12.075 91.1322 11.889C91.5222 11.703 91.9752 11.61 92.4912 11.61C93.0072 11.61 93.4602 11.703 93.8502 11.889C94.2402 12.075 94.5462 12.351 94.7682 12.717C94.9902 13.083 95.1102 13.539 95.1282 14.085C95.1402 14.349 95.1462 14.607 95.1462 14.859C95.1462 15.111 95.1402 15.366 95.1282 15.624C95.1102 16.176 94.9932 16.638 94.7772 17.01C94.5612 17.376 94.2582 17.649 93.8682 17.829C93.4842 18.003 93.0252 18.09 92.4912 18.09ZM92.4912 17.055C92.8812 17.055 93.1992 16.941 93.4452 16.713C93.6912 16.479 93.8232 16.101 93.8412 15.579C93.8532 15.315 93.8592 15.072 93.8592 14.85C93.8592 14.622 93.8532 14.379 93.8412 14.121C93.8292 13.773 93.7632 13.491 93.6432 13.275C93.5292 13.053 93.3732 12.894 93.1752 12.798C92.9772 12.696 92.7492 12.645 92.4912 12.645C92.2392 12.645 92.0142 12.696 91.8162 12.798C91.6182 12.894 91.4592 13.053 91.3392 13.275C91.2252 13.491 91.1622 13.773 91.1502 14.121C91.1442 14.379 91.1412 14.622 91.1412 14.85C91.1412 15.072 91.1442 15.315 91.1502 15.579C91.1682 16.101 91.3002 16.479 91.5462 16.713C91.7922 16.941 92.1072 17.055 92.4912 17.055Z" fill="#E6E6E6"/>
<path d="M95.818 18C95.77 18 95.725 17.982 95.683 17.946C95.647 17.91 95.629 17.865 95.629 17.811C95.629 17.787 95.635 17.76 95.647 17.73L97.816 11.925C97.834 11.865 97.867 11.814 97.915 11.772C97.969 11.724 98.041 11.7 98.131 11.7H99.112C99.202 11.7 99.271 11.724 99.319 11.772C99.367 11.814 99.403 11.865 99.427 11.925L101.596 17.73C101.602 17.76 101.605 17.787 101.605 17.811C101.605 17.865 101.587 17.91 101.551 17.946C101.515 17.982 101.473 18 101.425 18H100.642C100.558 18 100.495 17.982 100.453 17.946C100.417 17.904 100.393 17.865 100.381 17.829L99.958 16.731H97.285L96.862 17.829C96.85 17.865 96.823 17.904 96.781 17.946C96.745 17.982 96.685 18 96.601 18H95.818ZM97.6 15.696H99.643L98.617 12.915L97.6 15.696Z" fill="#E6E6E6"/>
<path d="M102.661 18C102.601 18 102.55 17.979 102.508 17.937C102.466 17.895 102.445 17.844 102.445 17.784V11.925C102.445 11.859 102.466 11.805 102.508 11.763C102.55 11.721 102.601 11.7 102.661 11.7H104.857C105.463 11.7 105.961 11.793 106.351 11.979C106.747 12.165 107.044 12.441 107.242 12.807C107.446 13.173 107.551 13.62 107.557 14.148C107.569 14.412 107.575 14.646 107.575 14.85C107.575 15.054 107.569 15.285 107.557 15.543C107.545 16.101 107.443 16.563 107.251 16.929C107.059 17.289 106.768 17.559 106.378 17.739C105.994 17.913 105.502 18 104.902 18H102.661ZM103.696 16.965H104.857C105.193 16.965 105.466 16.917 105.676 16.821C105.886 16.725 106.039 16.572 106.135 16.362C106.237 16.146 106.291 15.864 106.297 15.516C106.303 15.336 106.306 15.18 106.306 15.048C106.312 14.91 106.312 14.775 106.306 14.643C106.306 14.505 106.303 14.349 106.297 14.175C106.285 13.683 106.162 13.32 105.928 13.086C105.694 12.852 105.322 12.735 104.812 12.735H103.696V16.965Z" fill="#E6E6E6"/>
<path d="M111.046 18C110.986 18 110.935 17.979 110.893 17.937C110.851 17.895 110.83 17.844 110.83 17.784V11.925C110.83 11.859 110.851 11.805 110.893 11.763C110.935 11.721 110.986 11.7 111.046 11.7H114.952C115.018 11.7 115.072 11.721 115.114 11.763C115.156 11.805 115.177 11.859 115.177 11.925V12.555C115.177 12.621 115.156 12.675 115.114 12.717C115.072 12.753 115.018 12.771 114.952 12.771H112.063V14.481H114.772C114.838 14.481 114.892 14.502 114.934 14.544C114.976 14.586 114.997 14.64 114.997 14.706V15.336C114.997 15.396 114.976 15.447 114.934 15.489C114.892 15.531 114.838 15.552 114.772 15.552H112.063V17.784C112.063 17.844 112.042 17.895 112 17.937C111.958 17.979 111.904 18 111.838 18H111.046Z" fill="#E6E6E6"/>
<path d="M118.612 18.09C118.078 18.09 117.619 18.003 117.235 17.829C116.851 17.649 116.551 17.376 116.335 17.01C116.119 16.638 116.002 16.176 115.984 15.624C115.978 15.366 115.975 15.111 115.975 14.859C115.975 14.607 115.978 14.349 115.984 14.085C116.002 13.539 116.122 13.083 116.344 12.717C116.566 12.351 116.869 12.075 117.253 11.889C117.643 11.703 118.096 11.61 118.612 11.61C119.128 11.61 119.581 11.703 119.971 11.889C120.361 12.075 120.667 12.351 120.889 12.717C121.111 13.083 121.231 13.539 121.249 14.085C121.261 14.349 121.267 14.607 121.267 14.859C121.267 15.111 121.261 15.366 121.249 15.624C121.231 16.176 121.114 16.638 120.898 17.01C120.682 17.376 120.379 17.649 119.989 17.829C119.605 18.003 119.146 18.09 118.612 18.09ZM118.612 17.055C119.002 17.055 119.32 16.941 119.566 16.713C119.812 16.479 119.944 16.101 119.962 15.579C119.974 15.315 119.98 15.072 119.98 14.85C119.98 14.622 119.974 14.379 119.962 14.121C119.95 13.773 119.884 13.491 119.764 13.275C119.65 13.053 119.494 12.894 119.296 12.798C119.098 12.696 118.87 12.645 118.612 12.645C118.36 12.645 118.135 12.696 117.937 12.798C117.739 12.894 117.58 13.053 117.46 13.275C117.346 13.491 117.283 13.773 117.271 14.121C117.265 14.379 117.262 14.622 117.262 14.85C117.262 15.072 117.265 15.315 117.271 15.579C117.289 16.101 117.421 16.479 117.667 16.713C117.913 16.941 118.228 17.055 118.612 17.055Z" fill="#E6E6E6"/>
<path d="M122.665 18C122.605 18 122.554 17.979 122.512 17.937C122.47 17.895 122.449 17.844 122.449 17.784V11.925C122.449 11.859 122.47 11.805 122.512 11.763C122.554 11.721 122.605 11.7 122.665 11.7H124.996C125.722 11.7 126.295 11.868 126.715 12.204C127.135 12.54 127.345 13.029 127.345 13.671C127.345 14.115 127.234 14.484 127.012 14.778C126.796 15.072 126.505 15.285 126.139 15.417L127.453 17.712C127.471 17.748 127.48 17.781 127.48 17.811C127.48 17.865 127.459 17.91 127.417 17.946C127.381 17.982 127.339 18 127.291 18H126.472C126.37 18 126.292 17.973 126.238 17.919C126.184 17.865 126.142 17.811 126.112 17.757L124.951 15.624H123.7V17.784C123.7 17.844 123.679 17.895 123.637 17.937C123.601 17.979 123.55 18 123.484 18H122.665ZM123.7 14.607H124.969C125.335 14.607 125.608 14.526 125.788 14.364C125.968 14.196 126.058 13.962 126.058 13.662C126.058 13.362 125.968 13.128 125.788 12.96C125.614 12.786 125.341 12.699 124.969 12.699H123.7V14.607Z" fill="#E6E6E6"/>
</svg>
