<svg width="20" height="11" viewBox="0 0 20 11" fill="none" xmlns="http://www.w3.org/2000/svg">
<path d="M7.15997 2.3999H13.32" stroke="#5A5A5A" stroke-width="1.5" stroke-miterlimit="10" stroke-linecap="round" stroke-linejoin="round"/>
<path d="M17.92 3.9998H14.68C14.086 3.9998 13.6 3.5678 13.6 3.0398V1.7598C13.6 1.2318 14.086 0.799805 14.68 0.799805H17.92C18.514 0.799805 19 1.2318 19 1.7598V3.0398C19 3.5678 18.514 3.9998 17.92 3.9998ZM17.92 9.9998H14.68C14.086 9.9998 13.6 9.5678 13.6 9.0398V7.7598C13.6 7.2318 14.086 6.7998 14.68 6.7998H17.92C18.514 6.7998 19 7.2318 19 7.7598V9.0398C19 9.5678 18.514 9.9998 17.92 9.9998Z" stroke="#5A5A5A" stroke-width="1.5" stroke-linecap="round" stroke-linejoin="round"/>
<path d="M5.32 4.2H2.08C1.486 4.2 1 3.768 1 3.24V1.96C1 1.432 1.486 1 2.08 1H5.32C5.914 1 6.4 1.432 6.4 1.96V3.24C6.4 3.768 5.914 4.2 5.32 4.2Z" stroke="#5A5A5A" stroke-width="1.5" stroke-linecap="round" stroke-linejoin="round"/>
<path d="M13.32 8.3998H10.24V2.7998" stroke="#5A5A5A" stroke-width="1.5" stroke-miterlimit="10" stroke-linecap="round" stroke-linejoin="round"/>
</svg>
