<svg width="24" height="24" viewBox="0 0 24 24" fill="none" xmlns="http://www.w3.org/2000/svg">
<rect width="24" height="24" rx="5" fill="#D9D9D9"/>
<g clip-path="url(#clip0_1976_6998)">
<path d="M15.5 14.3337C16.4665 14.3337 17.25 15.1171 17.25 16.0837C17.25 17.0502 16.4665 17.8337 15.5 17.8337C14.5335 17.8337 13.75 17.0502 13.75 16.0837C13.75 15.1171 14.5335 14.3337 15.5 14.3337ZM14.0417 7.33366C15.4914 7.33366 16.6667 8.50891 16.6667 9.95866C16.6667 11.4084 15.4914 12.5837 14.0417 12.5837H9.95833C9.15292 12.5837 8.5 13.2366 8.5 14.042C8.5 14.8474 9.15292 15.5003 9.95833 15.5003H12.5833C12.9055 15.5003 13.1667 15.7615 13.1667 16.0837C13.1667 16.4058 12.9055 16.667 12.5833 16.667H9.95833C8.50859 16.667 7.33333 15.4918 7.33333 14.042C7.33333 12.5922 8.50859 11.417 9.95833 11.417H14.0417C14.8471 11.417 15.5 10.7641 15.5 9.95866C15.5 9.15324 14.8471 8.50033 14.0417 8.50033H11.4167C11.0945 8.50033 10.8333 8.23916 10.8333 7.91699C10.8333 7.59483 11.0945 7.33366 11.4167 7.33366H14.0417ZM8.5 6.16699C9.4665 6.16699 10.25 6.9505 10.25 7.91699C10.25 8.88349 9.4665 9.66699 8.5 9.66699C7.5335 9.66699 6.75 8.88349 6.75 7.91699C6.75 6.9505 7.5335 6.16699 8.5 6.16699Z" fill="#535353"/>
</g>
<defs>
<clipPath id="clip0_1976_6998">
<rect width="14" height="14" fill="white" transform="translate(5 5)"/>
</clipPath>
</defs>
</svg>
