<svg width="17" height="11" viewBox="0 0 17 11" fill="none" xmlns="http://www.w3.org/2000/svg">
<path d="M14.5 10C15.445 8.7475 16 7.1875 16 5.5C16 3.8125 15.445 2.2525 14.5 1M2.5 1C1.555 2.2525 1 3.8125 1 5.5C1 7.1875 1.555 8.7475 2.5 10M12.1 8.2C12.6625 7.45 13 6.5125 13 5.5C13 4.4875 12.6625 3.55 12.1 2.8M4.9 2.8C4.3375 3.55 4 4.4875 4 5.5C4 6.5125 4.3375 7.45 4.9 8.2M8.5 7C8.89782 7 9.27936 6.84196 9.56066 6.56066C9.84196 6.27936 10 5.89782 10 5.5C10 5.10218 9.84196 4.72064 9.56066 4.43934C9.27936 4.15804 8.89782 4 8.5 4C8.10218 4 7.72064 4.15804 7.43934 4.43934C7.15804 4.72064 7 5.10218 7 5.5C7 5.89782 7.15804 6.27936 7.43934 6.56066C7.72064 6.84196 8.10218 7 8.5 7Z" stroke="#5A5A5A" stroke-width="1.5" stroke-linecap="round" stroke-linejoin="round"/>
</svg>
