<svg width="20" height="20" viewBox="0 0 20 20" fill="none" xmlns="http://www.w3.org/2000/svg">
<path d="M9.08203 4.37891C7.23828 4.55859 5.39844 5.32422 3.99219 6.50781L3.63281 6.8125L4.10156 7.28516L4.57031 7.75391L4.79297 7.625C5.58594 7.17188 6.47656 6.86328 7.35547 6.73828C7.98828 6.64844 9.20703 6.67188 9.58203 6.78125C9.64453 6.80078 9.64844 6.72656 9.64844 5.57031V4.33594L9.54297 4.33984C9.48047 4.34375 9.27734 4.36328 9.08203 4.37891Z" fill="black"/>
<path d="M10.3594 5.64453L10.3711 6.95703L10.707 7.08594L11.0469 7.21094L11.3711 6.90625C11.7734 6.53125 11.9336 6.44141 12.2031 6.44141C12.5469 6.44141 12.7852 6.57422 12.9531 6.85937C13.0977 7.10547 13.0938 7.33984 12.9297 7.84766L12.8008 8.25781L13.1133 8.55078C13.2812 8.71484 13.5195 8.95703 13.6367 9.08984L13.8477 9.33594L15.1094 8.07422L16.3711 6.80859L16.0078 6.50781C15.2383 5.86328 14.1719 5.25 13.2266 4.90234C12.4805 4.62891 11.5625 4.43359 10.6328 4.35547L10.3516 4.33203L10.3594 5.64453Z" fill="black"/>
<path d="M10.6911 8.52302C8.21454 10.9996 6.84735 12.5191 6.52314 13.1676C6.35907 13.484 6.30048 13.8668 6.35907 14.1871C6.48798 14.8785 6.99579 15.4254 7.67548 15.6051C8.47235 15.8121 9.27314 15.4449 9.70282 14.6793C9.92939 14.273 10.277 13.4527 10.6872 12.3551C11.1677 11.0738 12.3825 7.42927 12.3825 7.27302C12.3825 7.15583 12.3278 7.10896 12.1833 7.10896C12.1364 7.10896 11.57 7.64802 10.6911 8.52302ZM8.47626 12.7183C9.07392 12.8941 9.42548 13.4683 9.30439 14.0504C9.10126 15.0152 7.86689 15.3277 7.26532 14.566C7.07001 14.3199 7.01142 14.1441 7.01532 13.8082C7.01923 13.2847 7.33564 12.8785 7.87079 12.7105C8.08564 12.6441 8.23017 12.6441 8.47626 12.7183Z" fill="black"/>
<path d="M7.98816 13.3745C7.65223 13.523 7.56629 13.9292 7.8202 14.1792C8.1366 14.4995 8.65223 14.2769 8.65223 13.8199C8.65223 13.6128 8.54676 13.4644 8.33191 13.3745C8.17957 13.3081 8.1366 13.3081 7.98816 13.3745Z" fill="black"/>
<path d="M2.83569 7.66352C1.74976 8.9643 1.01538 10.6049 0.761476 12.2924C0.675538 12.8901 0.683351 13.1284 0.792726 13.2338C0.909913 13.3471 1.14038 13.351 1.24976 13.2416C1.33569 13.1557 1.34351 13.1205 1.40601 12.6557C1.61694 11.101 2.47632 9.49555 3.64429 8.4682C3.82007 8.31586 3.96851 8.17914 3.97632 8.16742C3.98023 8.1518 3.79273 7.95258 3.56226 7.72211L3.13648 7.30024L2.83569 7.66352Z" fill="black"/>
<path d="M15.5469 8.59766L14.2422 9.88672L14.3711 10.1094C14.8594 10.9609 15.1875 11.9453 15.2969 12.9063C15.3164 13.0742 15.3477 13.1641 15.4141 13.2305L15.5039 13.3203H17.3047H19.1055L19.1992 13.2227C19.3164 13.1055 19.3242 12.9219 19.2383 12.3086C19.0117 10.7578 18.375 9.24219 17.4336 8.00781C17.2773 7.80469 17.0859 7.5625 17.0039 7.47266L16.8555 7.30859L15.5469 8.59766Z" fill="black"/>
</svg>
