<svg width="18" height="18" viewBox="0 0 18 18" fill="none" xmlns="http://www.w3.org/2000/svg">
<path d="M16.9799 5.53675C16.9528 5.53675 16.9122 5.53675 16.8852 5.53675C12.2014 5.0765 7.54481 4.88698 2.92878 5.36077L1.11484 5.53675C0.546302 5.5909 0.05899 5.1848 0.00484304 4.6298C-0.0493039 4.07479 0.356796 3.57392 0.911802 3.51977L2.72572 3.34379C7.47711 2.87 12.2691 3.04599 17.0882 3.51977C17.6432 3.57392 18.0493 4.07479 17.9952 4.6298C17.941 5.14419 17.4943 5.53675 16.9799 5.53675Z" fill="#2A89E4"/>
<path d="M12.093 4.64309C11.6057 4.64309 11.1726 4.29114 11.0913 3.80382L10.9018 2.65319C10.8747 2.46367 10.8206 2.16586 10.7664 2.09818C10.7664 2.09818 10.6311 2.01696 10.1438 2.01696H7.81545C7.31459 2.01696 7.17922 2.09818 7.17922 2.09818C7.15214 2.15232 7.09799 2.45015 7.07092 2.63966L6.88141 3.80382C6.78665 4.35883 6.25872 4.72431 5.71725 4.64309C5.16224 4.54833 4.79676 4.0204 4.87798 3.47893L5.06749 2.31477C5.21639 1.44842 5.46005 0 7.81545 0H10.1438C12.5127 0 12.7564 1.5161 12.8917 2.3283L13.0812 3.47893C13.176 4.03394 12.797 4.56187 12.2555 4.64309C12.2149 4.64309 12.1472 4.64309 12.093 4.64309Z" fill="#2A89E4"/>
<path d="M11.8359 17.0568H6.13696C2.71217 17.0568 2.56326 14.9992 2.4685 13.632L1.88643 4.68421C1.84582 4.12921 2.27899 3.64188 2.834 3.60127C3.40254 3.56066 3.87633 3.99385 3.91694 4.54886L4.49901 13.4831C4.59377 14.8097 4.60731 15.0128 6.13696 15.0128H11.8359C13.3656 15.0128 13.3791 14.8097 13.4739 13.4831L14.056 4.54886C14.0966 3.99385 14.5568 3.56066 15.1389 3.60127C15.6939 3.64188 16.1271 4.11567 16.0865 4.68421L15.5044 13.6185C15.4096 14.9992 15.2743 17.0568 11.8359 17.0568Z" fill="#2A89E4"/>
</svg>
