<svg width="11" height="14" viewBox="0 0 11 14" fill="none" xmlns="http://www.w3.org/2000/svg">
<path d="M9.48895 4.20264L1.2825 1.07637C1.15424 1.02751 1.09011 1.00308 1.04506 1.03413C1 1.06518 1 1.13381 1 1.27105V7.82589L9.48895 4.59201C9.70402 4.51007 9.81156 4.46911 9.81156 4.39732C9.81156 4.32553 9.70402 4.28457 9.48895 4.20264Z" fill="#EBAF3C"/>
<path d="M1 7.82589V1.27105C1 1.13381 1 1.06518 1.04506 1.03413C1.09011 1.00308 1.15424 1.02751 1.2825 1.07637L9.48895 4.20264C9.70402 4.28457 9.81156 4.32553 9.81156 4.39732C9.81156 4.46911 9.70402 4.51007 9.48895 4.59201L1 7.82589ZM1 7.82589V11.7688V12.9688" stroke="#EBAF3C" stroke-width="2" stroke-linecap="round"/>
</svg>
