<svg width="15" height="16" viewBox="0 0 15 16" fill="none" xmlns="http://www.w3.org/2000/svg">
<circle cx="7.5" cy="8.46875" r="7" stroke="#EB3C3C"/>
<path d="M4.79004 10.6114C4.56229 10.6114 4.35162 10.5592 4.15803 10.4549C3.96729 10.3466 3.80075 10.1961 3.65841 10.0035C3.51891 9.81084 3.40931 9.58411 3.32959 9.32328C3.25273 9.06244 3.21429 8.77753 3.21429 8.46854C3.21429 8.15955 3.25273 7.87464 3.32959 7.61381C3.40931 7.35297 3.52033 7.12625 3.66268 6.93363C3.80502 6.74101 3.97156 6.59254 4.1623 6.4882C4.35589 6.37986 4.56656 6.32568 4.79431 6.32568C5.02206 6.32568 5.22988 6.37584 5.41778 6.47617C5.60852 6.57649 5.77079 6.72897 5.90459 6.93363L5.70816 7.21653C5.5829 7.03997 5.44482 6.91356 5.29394 6.83732C5.14305 6.76108 4.98078 6.72295 4.80712 6.72295C4.62208 6.72295 4.45126 6.7671 4.29468 6.85538C4.14095 6.93965 4.00573 7.06204 3.889 7.22255C3.77513 7.37905 3.68545 7.56365 3.61997 7.77633C3.55734 7.98499 3.52603 8.21573 3.52603 8.46854C3.52603 8.71734 3.55734 8.94807 3.61997 9.16076C3.68545 9.37344 3.77513 9.56003 3.889 9.72055C4.00573 9.87705 4.14095 9.99944 4.29468 10.0877C4.45126 10.172 4.62065 10.2141 4.80285 10.2141C4.97367 10.2141 5.13451 10.178 5.2854 10.1058C5.43913 10.0335 5.58005 9.91116 5.70816 9.73861L5.88751 10.0757C5.74517 10.2522 5.57863 10.3867 5.38789 10.479C5.19715 10.5673 4.99786 10.6114 4.79004 10.6114ZM5.58432 10.0215V8.46854H5.88751V10.0757L5.58432 10.0215Z" fill="black"/>
<path d="M6.78188 10.5753V6.3618H7.9007C8.15407 6.3618 8.37186 6.41999 8.55406 6.53636C8.73626 6.64872 8.87576 6.81324 8.97255 7.02994C9.07219 7.24262 9.12201 7.50145 9.12201 7.80642C9.12201 8.10337 9.07219 8.36019 8.97255 8.57689C8.87576 8.78957 8.73626 8.95409 8.55406 9.07047C8.37186 9.18684 8.15407 9.24503 7.9007 9.24503H6.95696L7.09788 9.03435V10.5753H6.78188ZM7.09788 9.07047L6.95696 8.85377H7.89216C8.19108 8.85377 8.41741 8.76348 8.57114 8.58291C8.72772 8.39832 8.80601 8.13949 8.80601 7.80642C8.80601 7.46934 8.72772 7.20851 8.57114 7.02392C8.41741 6.83933 8.19108 6.74703 7.89216 6.74703H6.95696L7.09788 6.53636V9.07047Z" fill="black"/>
<path d="M10.6712 10.6114C10.4491 10.6114 10.2356 10.5612 10.0306 10.4609C9.82849 10.3566 9.67192 10.2242 9.56089 10.0636L9.68473 9.72055C9.79006 9.86501 9.93098 9.9874 10.1075 10.0877C10.2868 10.184 10.4747 10.2322 10.6712 10.2322C10.8591 10.2322 11.0114 10.2001 11.1281 10.1359C11.2477 10.0677 11.3345 9.97737 11.3886 9.86501C11.4455 9.75265 11.474 9.62825 11.474 9.49181C11.474 9.32729 11.4398 9.19486 11.3715 9.09454C11.306 8.99422 11.2192 8.91597 11.111 8.85979C11.0028 8.7996 10.8833 8.74743 10.7523 8.70329C10.6213 8.65915 10.4904 8.613 10.3594 8.56485C10.2285 8.51268 10.1075 8.44446 9.99646 8.36019C9.88828 8.27592 9.80002 8.16557 9.7317 8.02914C9.66622 7.88869 9.63348 7.7061 9.63348 7.48138C9.63348 7.27271 9.67192 7.0821 9.74878 6.90955C9.82849 6.73299 9.94949 6.59254 10.1118 6.4882C10.274 6.37986 10.4819 6.32568 10.7352 6.32568C10.9032 6.32568 11.0697 6.35979 11.2349 6.42801C11.4 6.49222 11.5423 6.58251 11.6619 6.69888L11.5551 7.05401C11.427 6.93363 11.2904 6.84535 11.1452 6.78917C11.0028 6.73299 10.8648 6.7049 10.731 6.7049C10.5516 6.7049 10.4036 6.73901 10.2868 6.80722C10.1701 6.87544 10.0833 6.96774 10.0264 7.08411C9.97226 7.19647 9.94522 7.32488 9.94522 7.46934C9.94522 7.63387 9.97795 7.76629 10.0434 7.86661C10.1118 7.96694 10.2 8.04519 10.3082 8.10137C10.4192 8.15755 10.5402 8.20771 10.6712 8.25185C10.8021 8.29599 10.9317 8.34414 11.0598 8.39631C11.1907 8.44848 11.3103 8.51669 11.4185 8.60096C11.5295 8.68122 11.6178 8.78957 11.6832 8.926C11.7516 9.06244 11.7857 9.24101 11.7857 9.46172C11.7857 9.66637 11.7459 9.85698 11.6662 10.0335C11.5864 10.2061 11.464 10.3466 11.2989 10.4549C11.1366 10.5592 10.9274 10.6114 10.6712 10.6114Z" fill="black"/>
<line x1="0.78298" y1="10.9908" x2="13.6401" y2="5.63366" stroke="#EB3C3C" stroke-width="1.5"/>
</svg>
