<svg width="13" height="13" viewBox="0 0 13 13" fill="none" xmlns="http://www.w3.org/2000/svg">
<rect width="13" height="13" rx="2" fill="#2A89E4"/>
<path d="M3 10V2H5.99506C6.6145 2 7.14827 2.10497 7.59638 2.31492C8.04448 2.51809 8.39045 2.8127 8.63427 3.19873C8.87809 3.58476 9 4.04529 9 4.58032C9 5.10857 8.87809 5.56571 8.63427 5.95175C8.39045 6.33778 8.04448 6.63577 7.59638 6.84571C7.14827 7.04889 6.6145 7.15048 5.99506 7.15048H3.88962L4.60132 6.40889V10H3ZM4.60132 6.59175L3.88962 5.80952H5.9061C6.40033 5.80952 6.76936 5.70116 7.01318 5.48444C7.257 5.26772 7.37891 4.96635 7.37891 4.58032C7.37891 4.18751 7.257 3.88275 7.01318 3.66603C6.76936 3.44931 6.40033 3.34095 5.9061 3.34095H3.88962L4.60132 2.55873V6.59175Z" fill="white"/>
<path d="M6.00026 9.21995C6.03456 9.13407 6.08621 9.06534 6.18586 9.03973C6.33832 9.00058 6.49327 9.10648 6.49835 9.25686C6.50135 9.34821 6.49927 9.43981 6.4994 9.53128C6.4994 9.54793 6.4994 9.56446 6.4994 9.5836H6.75073C6.75073 9.48778 6.75607 9.39482 6.74955 9.3026C6.73847 9.14637 6.85767 9.01898 7.03662 9.03153C7.103 9.03613 7.16991 9.03315 7.23669 9.03203C7.29773 9.03103 7.32551 9.00618 7.3336 8.94913C7.35642 8.78831 7.44394 8.71498 7.61375 8.71473C7.74026 8.71448 7.8669 8.71473 7.99694 8.71473V8.47598C7.86756 8.47598 7.73961 8.47648 7.61153 8.47561C7.58088 8.47536 7.54932 8.47387 7.51984 8.46691C7.39698 8.4377 7.32199 8.3297 7.33646 8.20641C7.34977 8.09244 7.45215 8.00121 7.57527 8.00096C8.13649 7.99972 8.69771 7.9996 9.25893 8.00109C9.39301 8.00146 9.49709 8.10748 9.498 8.23561C9.49891 8.36549 9.39444 8.47188 9.25815 8.47486C9.1362 8.47759 9.01412 8.47561 8.89217 8.47573C8.87444 8.47573 8.85683 8.47573 8.8357 8.47573V8.71448C8.86518 8.71448 8.89387 8.71448 8.92269 8.71448C9.00564 8.71448 9.08872 8.71274 9.17154 8.71535C9.31071 8.71958 9.41218 8.81813 9.41609 8.95075C9.41753 8.99872 9.41609 9.04682 9.41661 9.09492C9.41727 9.16203 9.44687 9.19012 9.51848 9.19086C9.59008 9.19149 9.66168 9.19074 9.73315 9.19111C9.89475 9.19186 9.99779 9.28905 9.99948 9.44391C10.0007 9.55241 9.99974 9.66091 9.99974 9.76941C9.99974 9.78619 9.99974 9.80284 9.99974 9.82236H10.1667C10.1667 9.79725 10.166 9.77165 10.1667 9.74604C10.1705 9.60859 10.2745 9.50891 10.4183 9.50866C10.501 9.50866 10.5852 9.50543 10.6661 9.51835C10.8521 9.54818 10.9948 9.70739 10.9971 9.88773C11.0008 10.1636 11.0013 10.4397 10.9971 10.7155C10.9938 10.9219 10.8212 11.0811 10.5937 11.0943C10.5257 11.0983 10.4568 11.0986 10.3891 11.0923C10.2596 11.0802 10.1711 10.9854 10.1668 10.8615C10.1659 10.8356 10.1667 10.8097 10.1667 10.7807H10.0021C10.0012 10.798 9.99974 10.8144 9.99961 10.8308C9.99935 10.9161 10.0009 11.0013 9.99909 11.0866C9.99583 11.236 9.89266 11.3325 9.73576 11.3327C9.15668 11.3332 8.57746 11.3325 7.99837 11.3333C7.91868 11.3333 7.85334 11.3074 7.79765 11.2537C7.674 11.1348 7.5488 11.0174 7.42555 10.898C7.3962 10.8696 7.36464 10.8558 7.32212 10.8565C7.21804 10.8584 7.11396 10.8576 7.00975 10.857C6.85728 10.856 6.7519 10.7566 6.75086 10.6118C6.74994 10.4849 6.7506 10.3579 6.7506 10.2269H6.49914C6.49914 10.2621 6.49914 10.2985 6.49914 10.335C6.49914 10.4016 6.49979 10.4684 6.49888 10.535C6.49731 10.6567 6.41253 10.7554 6.29541 10.7734C6.16551 10.7934 6.05387 10.7283 6.01017 10.6075C6.0077 10.6005 6.00339 10.5942 6 10.5875C6 10.1316 6 9.6757 6 9.21982L6.00026 9.21995ZM8.86739 11.1743C9.14716 11.1743 9.42692 11.1743 9.70681 11.1743C9.81141 11.1743 9.8328 11.1541 9.8328 11.055C9.8328 10.6071 9.8328 10.159 9.8328 9.71112C9.8328 9.62275 9.83345 9.53439 9.83254 9.44602C9.83176 9.37704 9.80293 9.35007 9.73172 9.34958C9.6536 9.34908 9.57547 9.35094 9.49748 9.34895C9.35675 9.34547 9.25293 9.2448 9.25032 9.11107C9.24941 9.0677 9.25032 9.02432 9.25006 8.98082C9.2498 8.89817 9.22371 8.87344 9.13594 8.87344C8.62846 8.87344 8.12084 8.87344 7.61336 8.87344C7.52793 8.87344 7.50954 8.88947 7.49845 8.97163C7.48058 9.10424 7.38172 9.18888 7.24112 9.19074C7.16796 9.19173 7.09479 9.19074 7.02149 9.19099C6.94545 9.19136 6.91728 9.21709 6.91728 9.28793C6.91702 9.72504 6.91702 10.1621 6.91728 10.5994C6.91728 10.6706 6.9461 10.6984 7.01979 10.6988C7.11905 10.6993 7.2183 10.7013 7.31742 10.6982C7.41016 10.6953 7.48345 10.7268 7.54749 10.7898C7.66514 10.9056 7.78695 11.0176 7.90538 11.1327C7.93616 11.1626 7.96916 11.1753 8.01324 11.1751C8.29796 11.1738 8.58255 11.1744 8.86726 11.1744L8.86739 11.1743ZM10.3332 10.3038C10.3332 10.4837 10.3328 10.6635 10.3334 10.8434C10.3335 10.9071 10.3614 10.9352 10.4274 10.9364C10.4875 10.9376 10.548 10.9388 10.6078 10.9337C10.7329 10.923 10.8299 10.8278 10.8312 10.7084C10.8341 10.4371 10.8342 10.1658 10.8312 9.89444C10.8298 9.76854 10.7206 9.67048 10.5885 9.66675C10.5397 9.66538 10.4909 9.66625 10.442 9.66638C10.3604 9.66663 10.3334 9.69161 10.3332 9.76879C10.333 9.94714 10.3332 10.1254 10.3332 10.3037V10.3038ZM8.41482 8.15868C8.14993 8.15868 7.88503 8.15868 7.62001 8.15868C7.60371 8.15868 7.58714 8.15731 7.57136 8.15992C7.53184 8.16639 7.50693 8.18851 7.50224 8.22729C7.49741 8.26755 7.51502 8.29751 7.55571 8.31068C7.57358 8.31652 7.59392 8.31689 7.6131 8.31689C8.14784 8.31714 8.68258 8.31714 9.21719 8.31714C9.2318 8.31714 9.24667 8.31801 9.26102 8.31565C9.31201 8.30732 9.34318 8.26171 9.32832 8.21548C9.31423 8.1721 9.27941 8.15831 9.23389 8.15831C8.96078 8.15893 8.6878 8.15856 8.41469 8.15856L8.41482 8.15868ZM6.33298 9.90488C6.33298 9.69882 6.33311 9.49275 6.33298 9.28656C6.33298 9.22554 6.30376 9.19211 6.25185 9.19136C6.19851 9.19049 6.16694 9.22566 6.16694 9.28843C6.16668 9.69906 6.16668 10.1097 6.16694 10.5203C6.16694 10.5833 6.19799 10.6183 6.25133 10.6178C6.30454 10.6173 6.33311 10.5831 6.33311 10.5186C6.33337 10.314 6.33311 10.1095 6.33311 9.905L6.33298 9.90488ZM8.6625 8.71249V8.47871H8.1704V8.71249H8.6625ZM10.1623 10.616V9.98666H10.0033V10.616H10.1623ZM6.50292 9.74828V10.0614H6.74747V9.74828H6.50292Z" fill="white"/>
<path d="M8.8681 11.1743C8.58339 11.1743 8.2988 11.1737 8.01408 11.1749C7.97 11.1752 7.937 11.1625 7.90622 11.1325C7.78779 11.0175 7.66598 10.9053 7.54833 10.7896C7.48429 10.7266 7.411 10.6952 7.31826 10.698C7.21914 10.7011 7.11989 10.699 7.02063 10.6987C6.94694 10.6983 6.91812 10.6704 6.91812 10.5992C6.91799 10.1621 6.91786 9.72501 6.91812 9.28778C6.91812 9.21694 6.94629 9.19121 7.02233 9.19084C7.0955 9.19047 7.1688 9.19146 7.24196 9.19059C7.38256 9.18873 7.48142 9.10421 7.49929 8.97148C7.51038 8.88932 7.52864 8.87342 7.6142 8.87329C8.12168 8.87329 8.6293 8.87329 9.13678 8.87329C9.22455 8.87329 9.25064 8.89802 9.2509 8.98067C9.25103 9.02405 9.25025 9.06755 9.25116 9.11092C9.25377 9.24465 9.35759 9.34532 9.49832 9.3488C9.57631 9.35079 9.65444 9.34893 9.73256 9.34943C9.80377 9.34992 9.8326 9.37689 9.83338 9.44587C9.83442 9.53424 9.83364 9.6226 9.83364 9.71097C9.83364 10.1589 9.83364 10.6069 9.83364 11.0549C9.83364 11.154 9.81212 11.1742 9.70765 11.1742C9.42789 11.1742 9.14813 11.1742 8.86823 11.1742L8.8681 11.1743Z" fill="#50CE5A"/>
<path d="M10.3341 10.304C10.3341 10.1256 10.334 9.94741 10.3341 9.76906C10.3341 9.692 10.3611 9.6669 10.4429 9.66665C10.4917 9.66652 10.5406 9.66565 10.5894 9.66702C10.7215 9.67062 10.8307 9.76881 10.8321 9.89471C10.8352 10.166 10.835 10.4373 10.8321 10.7086C10.8308 10.8281 10.7338 10.9233 10.6087 10.934C10.5489 10.9391 10.4884 10.9378 10.4283 10.9367C10.3623 10.9355 10.3345 10.9074 10.3343 10.8436C10.3337 10.6638 10.3341 10.4839 10.334 10.3041L10.3341 10.304Z" fill="#50CE5A"/>
<path d="M8.41515 8.15845C8.68826 8.15845 8.96124 8.15882 9.23435 8.1582C9.27987 8.1582 9.31469 8.17187 9.32878 8.21537C9.34378 8.26161 9.31248 8.30722 9.26148 8.31555C9.24726 8.31791 9.23226 8.31704 9.21766 8.31704C8.68291 8.31704 8.14817 8.31704 7.61356 8.31679C7.59439 8.31679 7.57391 8.31642 7.55617 8.31058C7.51548 8.2974 7.498 8.26745 7.5027 8.22718C7.50726 8.1884 7.5323 8.16616 7.57182 8.15982C7.5876 8.15721 7.6043 8.15858 7.62047 8.15858C7.88536 8.15858 8.15026 8.15858 8.41528 8.15858L8.41515 8.15845Z" fill="#50CE5A"/>
<path d="M6.33237 9.90458C6.33237 10.1091 6.3325 10.3137 6.33237 10.5182C6.33237 10.5827 6.30368 10.6169 6.2506 10.6173C6.19725 10.6178 6.16634 10.5829 6.16621 10.5199C6.16595 10.1093 6.16595 9.69864 6.16621 9.288C6.16621 9.22524 6.19777 9.19006 6.25112 9.19093C6.30303 9.1918 6.33224 9.22524 6.33224 9.28614C6.3325 9.4922 6.33224 9.69826 6.33224 9.90445L6.33237 9.90458Z" fill="#50CE5A"/>
<path d="M8.66202 8.7123H8.16992V8.47852H8.66202V8.7123Z" fill="#50CE5A"/>
<path d="M10.1629 10.6159H10.0039V9.98657H10.1629V10.6159Z" fill="#50CE5A"/>
<path d="M6.50391 9.74805H6.74845V10.0611H6.50391V9.74805Z" fill="#50CE5A"/>
</svg>
