<svg width="18" height="12" viewBox="0 0 18 12" fill="none" xmlns="http://www.w3.org/2000/svg">
<path d="M0.000939052 4.39177C0.124424 4.08261 0.310357 3.83518 0.669075 3.74301C1.21795 3.60208 1.77575 3.98328 1.79406 4.52466C1.80486 4.85351 1.79735 5.18326 1.79782 5.51256C1.79782 5.57252 1.79782 5.63203 1.79782 5.70093H2.70259C2.70259 5.35597 2.72184 5.0213 2.69837 4.68931C2.65846 4.1269 3.0876 3.66829 3.73179 3.71348C3.97078 3.73004 4.21165 3.7193 4.45205 3.71527C4.67178 3.71169 4.77179 3.62221 4.8009 3.41684C4.88307 2.83788 5.19812 2.5739 5.80945 2.57301C6.26489 2.57211 6.7208 2.57301 7.18891 2.57301V1.71351C6.72314 1.71351 6.26254 1.7153 5.80146 1.71217C5.69113 1.71127 5.5775 1.70591 5.47139 1.68085C5.02909 1.57571 4.75912 1.1869 4.81123 0.743055C4.85913 0.33277 5.2277 0.00436236 5.67094 0.00346751C7.69131 -0.0010067 9.71168 -0.00145412 11.732 0.00391494C12.2147 0.0052572 12.5894 0.386907 12.5927 0.848199C12.596 1.31575 12.2199 1.69875 11.7292 1.70948C11.2902 1.71933 10.8507 1.71217 10.4117 1.71262C10.3479 1.71262 10.2845 1.71262 10.2084 1.71262V2.57211C10.3145 2.57211 10.4178 2.57211 10.5216 2.57211C10.8202 2.57211 11.1193 2.56585 11.4175 2.57524C11.9185 2.59046 12.2837 2.94526 12.2978 3.42266C12.303 3.59536 12.2978 3.76852 12.2997 3.94167C12.3021 4.18328 12.4086 4.28439 12.6664 4.28708C12.9242 4.28931 13.1819 4.28663 13.4392 4.28797C14.021 4.29066 14.3919 4.64054 14.398 5.19803C14.4022 5.58863 14.399 5.97922 14.399 6.36982C14.399 6.43022 14.399 6.49018 14.399 6.56043H15C15 6.47005 14.9976 6.37788 15 6.28571C15.0136 5.79086 15.3882 5.43203 15.9057 5.43113C16.2033 5.43113 16.5067 5.4195 16.7978 5.46603C17.4673 5.57341 17.981 6.14656 17.9894 6.79577C18.0026 7.78904 18.0044 8.78277 17.9894 9.77559C17.9777 10.5188 17.356 11.0919 16.5372 11.1393C16.2926 11.1537 16.0442 11.155 15.8005 11.1322C15.3343 11.0888 15.0159 10.7474 15.0004 10.3013C14.9971 10.2083 15 10.1147 15 10.0105H14.4074C14.4041 10.0727 14.399 10.1317 14.3985 10.1908C14.3975 10.4977 14.4032 10.8047 14.3966 11.1116C14.3849 11.6494 14.0135 11.997 13.4486 11.9975C11.3639 11.9993 9.27878 11.997 7.19408 11.9997C6.9072 11.9997 6.67197 11.9067 6.47148 11.7134C6.02637 11.2852 5.57562 10.8624 5.13192 10.4329C5.02628 10.3304 4.91265 10.2807 4.75959 10.2834C4.3849 10.2901 4.01022 10.2874 3.63507 10.2852C3.0862 10.2816 2.70682 9.92369 2.70306 9.40244C2.69978 8.94563 2.70212 8.48836 2.70212 8.01678H1.79688C1.79688 8.1434 1.79688 8.2745 1.79688 8.40604C1.79688 8.64585 1.79922 8.88612 1.79594 9.12594C1.7903 9.56396 1.48511 9.91922 1.06348 9.98409C0.595829 10.0561 0.193914 9.82168 0.036623 9.38678C0.027702 9.36173 0.0122077 9.33891 0 9.31475C0 7.67361 0 6.03247 0 4.39133L0.000939052 4.39177ZM10.3225 11.4275C11.3297 11.4275 12.3368 11.4275 13.3444 11.4275C13.721 11.4275 13.798 11.3545 13.798 10.9979C13.798 9.38544 13.798 7.77249 13.798 6.15998C13.798 5.84187 13.8003 5.52375 13.797 5.20563C13.7942 4.95731 13.6904 4.86022 13.4341 4.85843C13.1528 4.85664 12.8716 4.86336 12.5908 4.8562C12.0842 4.84367 11.7105 4.48126 11.7011 3.99983C11.6978 3.84368 11.7011 3.68753 11.7001 3.53094C11.6992 3.2334 11.6053 3.14436 11.2893 3.14436C9.46236 3.14436 7.63496 3.14436 5.80804 3.14436C5.5005 3.14436 5.4343 3.20208 5.39439 3.49783C5.33006 3.97523 4.97416 4.27992 4.46801 4.28663C4.20461 4.29021 3.9412 4.28663 3.67733 4.28753C3.40359 4.28887 3.30218 4.38148 3.30218 4.63651C3.30124 6.21009 3.30124 7.78367 3.30218 9.3577C3.30218 9.61407 3.40594 9.7143 3.67122 9.71564C4.02853 9.71743 4.38584 9.72459 4.74268 9.7134C5.07652 9.70311 5.34039 9.81631 5.57093 10.0432C5.99444 10.4601 6.43298 10.8633 6.85931 11.2776C6.97012 11.3854 7.08891 11.4311 7.24761 11.4302C8.27258 11.4257 9.29709 11.4279 10.3221 11.4279L10.3225 11.4275ZM15.5995 8.29373C15.5995 8.94115 15.5981 9.58857 15.6 10.236C15.6005 10.4655 15.701 10.5666 15.9385 10.5711C16.155 10.5751 16.3728 10.5796 16.5879 10.5613C17.0382 10.5228 17.3875 10.1801 17.3922 9.75009C17.4025 8.77337 17.403 7.79665 17.3922 6.81993C17.387 6.36669 16.994 6.01368 16.5184 6.00025C16.3428 5.99533 16.1672 5.99846 15.9911 5.99891C15.6972 5.99981 15.6 6.08974 15.5995 6.36759C15.5986 7.00964 15.5995 7.65124 15.5995 8.29329V8.29373ZM8.69328 0.571245C7.73967 0.571245 6.78606 0.571245 5.83198 0.571245C5.77329 0.571245 5.71366 0.566323 5.65685 0.575719C5.51458 0.598985 5.4249 0.678626 5.408 0.818222C5.39063 0.963186 5.45402 1.07101 5.60051 1.11844C5.66483 1.13947 5.73808 1.14081 5.8071 1.14081C7.73216 1.14171 9.65721 1.14171 11.5818 1.14171C11.6344 1.14171 11.6879 1.14484 11.7396 1.13634C11.9231 1.10636 12.0354 0.942157 11.9818 0.775716C11.9311 0.619566 11.8058 0.569903 11.6419 0.569903C10.6587 0.57214 9.67599 0.570798 8.69281 0.570798L8.69328 0.571245ZM1.1987 6.85751C1.1987 6.11569 1.19917 5.37386 1.1987 4.63159C1.1987 4.41191 1.09353 4.29155 0.906655 4.28887C0.714619 4.28574 0.600993 4.41236 0.600993 4.6383C0.600054 6.11658 0.600054 7.59486 0.600993 9.07314C0.600993 9.29998 0.712741 9.42571 0.904777 9.42392C1.09634 9.42213 1.19917 9.29909 1.19917 9.06688C1.20011 8.33042 1.19917 7.59397 1.19917 6.85796L1.1987 6.85751ZM9.58491 2.56495V1.72335H7.81338V2.56495H9.58491ZM14.984 9.41766V7.15192H14.4116V9.41766H14.984ZM1.81049 6.29376V7.42082H2.69085V6.29376H1.81049Z" fill="#EB3C3C"/>
<path d="M10.3251 11.4256C9.30014 11.4256 8.27563 11.4234 7.25066 11.4279C7.09196 11.4288 6.97317 11.3831 6.86236 11.2753C6.43603 10.861 5.99749 10.4574 5.57398 10.0409C5.34344 9.81403 5.07957 9.70084 4.74574 9.71113C4.3889 9.72231 4.03159 9.71471 3.67428 9.71336C3.40899 9.71202 3.30523 9.6118 3.30523 9.35543C3.30476 7.78185 3.30429 6.20827 3.30523 4.63424C3.30523 4.37921 3.40665 4.28659 3.68038 4.28525C3.94379 4.28391 4.20766 4.28749 4.47106 4.28436C4.97721 4.27765 5.33311 3.9734 5.39744 3.49555C5.43735 3.19981 5.50308 3.14254 5.81109 3.14209C7.63802 3.14209 9.46541 3.14209 11.2923 3.14209C11.6083 3.14209 11.7022 3.23113 11.7032 3.52866C11.7036 3.68481 11.7008 3.84141 11.7041 3.99756C11.7135 4.47898 12.0872 4.8414 12.5939 4.85392C12.8746 4.86108 13.1559 4.85437 13.4371 4.85616C13.6935 4.85795 13.7973 4.95504 13.8001 5.20336C13.8038 5.52148 13.801 5.83959 13.801 6.15771C13.801 7.77021 13.801 9.38317 13.801 10.9957C13.801 11.3527 13.7235 11.4252 13.3475 11.4252C12.3403 11.4252 11.3332 11.4252 10.3256 11.4252L10.3251 11.4256Z" fill="white"/>
<path d="M15.6021 8.2943C15.6021 7.65225 15.6016 7.01065 15.6021 6.3686C15.6021 6.0912 15.6993 6.00082 15.9937 5.99993C16.1693 5.99948 16.3454 5.99635 16.521 6.00127C16.9966 6.01425 17.3896 6.36771 17.3948 6.82095C17.406 7.79767 17.4051 8.77439 17.3948 9.75111C17.3901 10.1811 17.0407 10.5238 16.5905 10.5623C16.3754 10.5806 16.1576 10.5762 15.9411 10.5721C15.7035 10.5677 15.6035 10.4665 15.6026 10.237C15.6007 9.58959 15.6021 8.94217 15.6016 8.29475L15.6021 8.2943Z" fill="white"/>
<path d="M8.69374 0.570231C9.67692 0.570231 10.6596 0.571573 11.6428 0.569336C11.8067 0.569336 11.9321 0.618552 11.9828 0.77515C12.0368 0.94159 11.9241 1.10579 11.7405 1.13577C11.6893 1.14427 11.6353 1.14114 11.5827 1.14114C9.65767 1.14114 7.73262 1.14114 5.80803 1.14025C5.73901 1.14025 5.66529 1.1389 5.60144 1.11787C5.45494 1.07045 5.39203 0.962619 5.40893 0.817655C5.42536 0.678059 5.51551 0.597971 5.65778 0.575152C5.71459 0.565757 5.77469 0.570678 5.83291 0.570678C6.78652 0.570678 7.74013 0.570678 8.69421 0.570678L8.69374 0.570231Z" fill="white"/>
<path d="M1.20044 6.85626C1.20044 7.59271 1.20091 8.32917 1.20044 9.06518C1.20044 9.29739 1.09715 9.42043 0.90605 9.42222C0.714014 9.42401 0.602736 9.29828 0.602267 9.07144C0.601328 7.59316 0.601328 6.11488 0.602267 4.6366C0.602267 4.41065 0.715892 4.28403 0.907928 4.28717C1.0948 4.2903 1.19997 4.41065 1.19997 4.62989C1.20091 5.37172 1.19997 6.11354 1.19997 6.85581L1.20044 6.85626Z" fill="white"/>
<path d="M9.58598 2.56426H7.81445V1.72266H9.58598V2.56426Z" fill="white"/>
<path d="M14.9864 9.41564H14.4141V7.1499H14.9864V9.41564Z" fill="white"/>
<path d="M1.81055 6.29297H2.69091V7.42002H1.81055V6.29297Z" fill="white"/>
</svg>
