<svg width="21" height="15" viewBox="0 0 21 15" fill="none" xmlns="http://www.w3.org/2000/svg">
<rect width="15" height="15" rx="2" fill="#2A89E4"/>
<path d="M4 12V3H7.49423C8.21691 3 8.83965 3.1181 9.36244 3.35429C9.88523 3.58286 10.2889 3.91429 10.5733 4.34857C10.8578 4.78286 11 5.30095 11 5.90286C11 6.49714 10.8578 7.01143 10.5733 7.44571C10.2889 7.88 9.88523 8.21524 9.36244 8.45143C8.83965 8.68 8.21691 8.79429 7.49423 8.79429H5.03789L5.8682 7.96V12H4ZM5.8682 8.16571L5.03789 7.28571H7.39044C7.96705 7.28571 8.39758 7.16381 8.68204 6.92C8.9665 6.67619 9.10873 6.33714 9.10873 5.90286C9.10873 5.46095 8.9665 5.1181 8.68204 4.87429C8.39758 4.63048 7.96705 4.50857 7.39044 4.50857H5.03789L5.8682 3.62857V8.16571Z" fill="white"/>
<path d="M11.0005 10.4399C11.0691 10.2681 11.1724 10.1307 11.3717 10.0795C11.6766 10.0012 11.9865 10.2129 11.9967 10.5137C12.0027 10.6964 11.9985 10.8796 11.9988 11.0625C11.9988 11.0958 11.9988 11.1289 11.9988 11.1672H12.5014C12.5014 10.9755 12.5121 10.7896 12.4991 10.6052C12.4769 10.2927 12.7153 10.0379 13.0732 10.063C13.206 10.0722 13.3398 10.0663 13.4734 10.064C13.5954 10.0621 13.651 10.0123 13.6672 9.89825C13.7128 9.5766 13.8878 9.42995 14.2275 9.42945C14.4805 9.42895 14.7338 9.42945 14.9938 9.42945V8.95195C14.7351 8.95195 14.4792 8.95294 14.223 8.95121C14.1617 8.95071 14.0986 8.94773 14.0397 8.93381C13.7939 8.87539 13.644 8.65939 13.6729 8.41281C13.6995 8.18487 13.9043 8.00242 14.1505 8.00193C15.2729 7.99944 16.3954 7.99919 17.5178 8.00217C17.786 8.00292 17.9941 8.21495 17.9959 8.47122C17.9978 8.73097 17.7888 8.94375 17.5162 8.94971C17.2723 8.95518 17.0282 8.9512 16.7843 8.95145C16.7488 8.95145 16.7136 8.95145 16.6714 8.95145V9.42895C16.7303 9.42895 16.7877 9.42895 16.8453 9.42895C17.0112 9.42895 17.1774 9.42547 17.343 9.43069C17.6214 9.43914 17.8243 9.63626 17.8321 9.90148C17.835 9.99742 17.8321 10.0936 17.8332 10.1898C17.8345 10.324 17.8937 10.3802 18.0369 10.3817C18.1801 10.383 18.3233 10.3815 18.4662 10.3822C18.7894 10.3837 18.9955 10.5781 18.9989 10.8878C19.0012 11.1048 18.9994 11.3218 18.9994 11.5388C18.9994 11.5723 18.9994 11.6057 18.9994 11.6447H19.3333C19.3333 11.5945 19.332 11.5433 19.3333 11.4921C19.3409 11.2171 19.549 11.0178 19.8365 11.0173C20.0019 11.0173 20.1704 11.0108 20.3321 11.0367C20.7041 11.0963 20.9894 11.4148 20.9941 11.7754C21.0014 12.3272 21.0025 12.8793 20.9941 13.4309C20.9876 13.8438 20.6422 14.1622 20.1873 14.1885C20.0514 14.1965 19.9134 14.1972 19.7781 14.1845C19.519 14.1604 19.3422 13.9708 19.3336 13.723C19.3317 13.6712 19.3333 13.6193 19.3333 13.5614H19.0041C19.0023 13.5959 18.9994 13.6287 18.9992 13.6616C18.9986 13.8321 19.0018 14.0026 18.9981 14.1731C18.9916 14.4719 18.7853 14.665 18.4715 14.6653C17.3133 14.6663 16.1549 14.665 14.9967 14.6665C14.8373 14.6665 14.7066 14.6148 14.5953 14.5074C14.348 14.2696 14.0976 14.0347 13.8511 13.796C13.7924 13.7391 13.7293 13.7115 13.6442 13.713C13.4361 13.7167 13.2279 13.7152 13.0195 13.714C12.7146 13.712 12.5038 13.5132 12.5017 13.2236C12.4999 12.9698 12.5012 12.7158 12.5012 12.4538H11.9983C11.9983 12.5241 11.9983 12.5969 11.9983 12.67C11.9983 12.8033 11.9996 12.9367 11.9977 13.07C11.9946 13.3133 11.8251 13.5107 11.5908 13.5467C11.331 13.5867 11.1077 13.4565 11.0203 13.2149C11.0154 13.201 11.0068 13.1883 11 13.1749C11 12.2631 11 11.3514 11 10.4396L11.0005 10.4399ZM16.7347 14.3486C17.2943 14.3486 17.8538 14.3486 18.4136 14.3486C18.6228 14.3486 18.6655 14.3081 18.6655 14.11C18.6655 13.2141 18.6655 12.318 18.6655 11.4222C18.6655 11.2455 18.6668 11.0687 18.665 10.892C18.6634 10.7541 18.6058 10.7001 18.4634 10.6991C18.3071 10.6981 18.1509 10.7019 17.9949 10.6979C17.7134 10.6909 17.5058 10.4896 17.5006 10.2221C17.4988 10.1354 17.5006 10.0486 17.5001 9.96163C17.4995 9.79633 17.4474 9.74687 17.2718 9.74687C16.2569 9.74687 15.2416 9.74687 14.2267 9.74687C14.0558 9.74687 14.0191 9.77893 13.9969 9.94324C13.9611 10.2085 13.7634 10.3777 13.4822 10.3815C13.3359 10.3834 13.1896 10.3815 13.043 10.382C12.8909 10.3827 12.8345 10.4342 12.8345 10.5758C12.834 11.4501 12.834 12.3243 12.8345 13.1987C12.8345 13.3412 12.8922 13.3968 13.0396 13.3976C13.2381 13.3986 13.4366 13.4025 13.6348 13.3963C13.8203 13.3906 13.9669 13.4535 14.095 13.5795C14.3302 13.8112 14.5739 14.0352 14.8107 14.2653C14.8723 14.3252 14.9383 14.3506 15.0264 14.3501C15.5959 14.3476 16.165 14.3488 16.7345 14.3488L16.7347 14.3486ZM19.6664 12.6076C19.6664 12.9673 19.6656 13.327 19.6667 13.6867C19.6669 13.8142 19.7228 13.8704 19.8547 13.8728C19.975 13.8751 20.096 13.8776 20.2155 13.8674C20.4656 13.846 20.6597 13.6556 20.6623 13.4167C20.6681 12.8741 20.6683 12.3315 20.6623 11.7888C20.6595 11.5371 20.4411 11.3409 20.1769 11.3335C20.0793 11.3307 19.9818 11.3325 19.884 11.3327C19.7207 11.3332 19.6667 11.3832 19.6664 11.5375C19.6659 11.8942 19.6664 12.2507 19.6664 12.6074V12.6076ZM15.8296 8.31736C15.2998 8.31736 14.77 8.31736 14.24 8.31736C14.2074 8.31736 14.1743 8.31462 14.1427 8.31984C14.0637 8.33277 14.0138 8.37701 14.0044 8.45457C13.9948 8.5351 14.03 8.59501 14.1114 8.62136C14.1471 8.63304 14.1878 8.63378 14.2262 8.63378C15.2956 8.63428 16.3651 8.63428 17.4343 8.63428C17.4635 8.63428 17.4933 8.63602 17.522 8.6313C17.624 8.61464 17.6863 8.52342 17.6566 8.43095C17.6284 8.3442 17.5588 8.31661 17.4677 8.31661C16.9215 8.31786 16.3756 8.31711 15.8293 8.31711L15.8296 8.31736ZM11.6659 11.8097C11.6659 11.3976 11.6662 10.9855 11.6659 10.5731C11.6659 10.4511 11.6075 10.3842 11.5037 10.3827C11.397 10.381 11.3339 10.4513 11.3339 10.5768C11.3334 11.3981 11.3334 12.2194 11.3339 13.0406C11.3339 13.1667 11.396 13.2365 11.5027 13.2355C11.6091 13.2345 11.6662 13.1662 11.6662 13.0372C11.6667 12.628 11.6662 12.2189 11.6662 11.81L11.6659 11.8097ZM16.3249 9.42497V8.95742H15.3408V9.42497H16.3249ZM19.3244 13.232V11.9733H19.0065V13.232H19.3244ZM12.0058 11.4965V12.1227H12.4949V11.4965H12.0058Z" fill="white"/>
<path d="M16.7354 14.3478C16.166 14.3478 15.5968 14.3466 15.0273 14.3491C14.9392 14.3496 14.8732 14.3242 14.8116 14.2643C14.5748 14.0341 14.3311 13.8099 14.0959 13.5785C13.9678 13.4525 13.8212 13.3896 13.6357 13.3953C13.4375 13.4015 13.239 13.3973 13.0405 13.3966C12.8931 13.3958 12.8354 13.3401 12.8354 13.1977C12.8352 12.3235 12.8349 11.4493 12.8354 10.5748C12.8354 10.4331 12.8918 10.3817 13.0439 10.3809C13.1902 10.3802 13.3368 10.3822 13.4831 10.3804C13.7643 10.3767 13.962 10.2077 13.9978 9.94222C14.02 9.77791 14.0565 9.7461 14.2276 9.74585C15.2425 9.74585 16.2578 9.74585 17.2727 9.74585C17.4483 9.74585 17.5004 9.79531 17.501 9.96061C17.5012 10.0474 17.4997 10.1344 17.5015 10.2211C17.5067 10.4886 17.7143 10.6899 17.9958 10.6969C18.1518 10.7008 18.308 10.6971 18.4643 10.6981C18.6067 10.6991 18.6644 10.753 18.6659 10.891C18.668 11.0677 18.6664 11.2445 18.6664 11.4212C18.6664 12.317 18.6664 13.2131 18.6664 14.109C18.6664 14.3073 18.6234 14.3476 18.4145 14.3476C17.8549 14.3476 17.2954 14.3476 16.7356 14.3476L16.7354 14.3478Z" fill="#EB3C3C"/>
<path d="M19.6676 12.6077C19.6676 12.251 19.6673 11.8946 19.6676 11.5379C19.6676 11.3838 19.7216 11.3335 19.8851 11.333C19.9827 11.3328 20.0805 11.3311 20.1781 11.3338C20.4423 11.341 20.6606 11.5374 20.6635 11.7892C20.6698 12.3318 20.6693 12.8744 20.6635 13.417C20.6609 13.6559 20.4668 13.8463 20.2167 13.8677C20.0972 13.8779 19.9762 13.8754 19.8559 13.8732C19.7239 13.8707 19.6684 13.8145 19.6679 13.687C19.6668 13.3273 19.6676 12.9676 19.6673 12.608L19.6676 12.6077Z" fill="#EB3C3C"/>
<path d="M15.8304 8.31666C16.3766 8.31666 16.9226 8.3174 17.4688 8.31616C17.5598 8.31616 17.6295 8.3435 17.6576 8.4305C17.6876 8.52297 17.625 8.61419 17.5231 8.63085C17.4946 8.63557 17.4646 8.63383 17.4354 8.63383C16.3659 8.63383 15.2965 8.63383 14.2272 8.63333C14.1889 8.63333 14.1479 8.63259 14.1125 8.62091C14.0311 8.59456 13.9961 8.53465 14.0055 8.45412C14.0146 8.37656 14.0647 8.33207 14.1438 8.31939C14.1753 8.31417 14.2087 8.31691 14.2411 8.31691C14.7708 8.31691 15.3006 8.31691 15.8307 8.31691L15.8304 8.31666Z" fill="#EB3C3C"/>
<path d="M11.667 11.8094C11.667 12.2185 11.6673 12.6277 11.667 13.0366C11.667 13.1656 11.6096 13.2339 11.5034 13.2349C11.3968 13.2359 11.3349 13.1661 11.3347 13.04C11.3342 12.2188 11.3342 11.3975 11.3347 10.5762C11.3347 10.4507 11.3978 10.3804 11.5045 10.3821C11.6083 10.3839 11.6667 10.4507 11.6667 10.5725C11.6673 10.9846 11.6667 11.3968 11.6667 11.8091L11.667 11.8094Z" fill="#EB3C3C"/>
<path d="M16.3261 9.42459H15.3419V8.95703H16.3261V9.42459Z" fill="#EB3C3C"/>
<path d="M19.3249 13.2312H19.007V11.9724H19.3249V13.2312Z" fill="#EB3C3C"/>
<path d="M12.0066 11.4961H12.4957V12.1222H12.0066V11.4961Z" fill="#EB3C3C"/>
</svg>
