<svg width="17" height="18" viewBox="0 0 17 18" fill="none" xmlns="http://www.w3.org/2000/svg">
<path d="M6.73984 12.6464L6.73984 12.6464L6.73698 12.6463L3.69529 12.537C2.43994 12.4919 1.39835 11.6996 1.03219 10.5166C0.666541 9.33511 1.08025 8.1556 2.09927 7.48207L2.10017 7.48147L11.1113 1.49747L11.1126 1.49662C11.5289 1.21833 12.0196 1.05838 12.532 1.03635C13.0445 1.01432 13.5582 1.13124 14.0164 1.37536L14.0171 1.37575C14.9572 1.8746 15.5388 2.82711 15.5452 3.84899L15.5453 3.85028L15.6413 14.6654C15.6413 14.6657 15.6413 14.6659 15.6413 14.6662C15.6482 15.8877 14.9073 16.894 13.7266 17.2527L13.7263 17.2528C12.9752 17.4816 12.2076 17.3966 11.5546 17.0501C11.174 16.8481 10.8302 16.5553 10.5532 16.1761L8.75758 13.7185C8.28965 13.078 7.5357 12.6795 6.73984 12.6464ZM15.3831 14.6315L15.3831 14.6313L15.287 3.81467L15.287 3.81286C15.2752 2.86822 14.7532 2.0276 13.9089 1.5796C13.0641 1.13132 12.0746 1.17062 11.2816 1.6987C11.2814 1.69881 11.2813 1.69892 11.2811 1.69903L2.27058 7.68262L2.27043 7.68272C1.13921 8.43451 1.01656 9.64162 1.28878 10.4848C1.55658 11.3143 2.32293 12.2503 3.68039 12.3037L3.68207 12.3037L6.72377 12.413L6.72376 12.413L6.72732 12.4131C7.16666 12.4257 7.59335 12.5411 7.98271 12.7477C8.37173 12.9542 8.70831 13.2437 8.9706 13.5969C8.97094 13.5973 8.97128 13.5978 8.97162 13.5982L10.7641 16.0516C10.7643 16.0519 10.7645 16.0522 10.7647 16.0525C11.565 17.1547 12.7801 17.2722 13.6208 17.0128C14.4549 16.7556 15.3947 15.9947 15.3831 14.6315Z" fill="white" stroke="white"/>
</svg>
