<svg width="21" height="21" viewBox="0 0 21 21" fill="none" xmlns="http://www.w3.org/2000/svg">
<g clip-path="url(#clip0_1731_8732)">
<path d="M4 3C4.94281 3 5.41421 3 5.70711 3.29289C6 3.58579 6 4.05719 6 5C6 5.94281 6 6.41421 5.70711 6.70711C5.41421 7 4.94281 7 4 7C3.05719 7 2.58579 7 2.29289 6.70711C2 6.41421 2 5.94281 2 5C2 4.05719 2 3.58579 2.29289 3.29289C2.58579 3 3.05719 3 4 3Z" stroke="#797979" stroke-width="1.5"/>
<path d="M3 14C3.94281 14 4.41421 14 4.70711 14.2929C5 14.5858 5 15.0572 5 16C5 16.9428 5 17.4142 4.70711 17.7071C4.41421 18 3.94281 18 3 18C2.05719 18 1.58579 18 1.29289 17.7071C1 17.4142 1 16.9428 1 16C1 15.0572 1 14.5858 1.29289 14.2929C1.58579 14 2.05719 14 3 14Z" stroke="#797979" stroke-width="1.5"/>
<path d="M13 16C13.9428 16 14.4142 16 14.7071 16.2929C15 16.5858 15 17.0572 15 18C15 18.9428 15 19.4142 14.7071 19.7071C14.4142 20 13.9428 20 13 20C12.0572 20 11.5858 20 11.2929 19.7071C11 19.4142 11 18.9428 11 18C11 17.0572 11 16.5858 11.2929 16.2929C11.5858 16 12.0572 16 13 16Z" stroke="#797979" stroke-width="1.5"/>
<path d="M17 6C16.0572 6 15.5858 6 15.2929 5.70711C15 5.41421 15 4.94281 15 4V3C15 2.05719 15 1.58579 15.2929 1.29289C15.5858 1 16.0572 1 17 1H18C18.9428 1 19.4142 1 19.7071 1.29289C20 1.58579 20 2.05719 20 3V4C20 4.94281 20 5.41421 19.7071 5.70711C19.4142 6 18.9428 6 18 6H17Z" stroke="#797979" stroke-width="2"/>
<path d="M3 14L4 7L6 6.5V5L15 3V6H17.5L13 16L11 16.5V18L5 16L4.5 14.5L3 14Z" stroke="#797979"/>
</g>
<defs>
<clipPath id="clip0_1731_8732">
<rect width="21" height="21" fill="white"/>
</clipPath>
</defs>
</svg>
