<svg width="18" height="18" viewBox="0 0 18 18" fill="none" xmlns="http://www.w3.org/2000/svg">
<path fill-rule="evenodd" clip-rule="evenodd" d="M11.8978 1.2856C9.23847 1.2856 7.0802 3.44541 7.0802 6.1066C7.0802 6.54371 7.14445 6.97437 7.25365 7.37933L7.34994 7.73291L1.89004 13.2031C1.08711 14.0066 1.08711 15.3051 1.89004 16.1086C2.69296 16.9121 3.99051 16.9121 4.79343 16.1086L10.2469 10.6512L10.6066 10.754C11.0177 10.8697 11.4545 10.9276 11.8978 10.9276C14.5635 10.9276 16.7153 8.76779 16.7153 6.1066C16.7153 5.91376 16.7089 5.72098 16.6832 5.52814L14.5827 7.63011C13.3944 8.82572 11.4609 8.82572 10.2662 7.63011C9.07144 6.43451 9.07787 4.4931 10.279 3.30392L12.3024 1.3049C12.1675 1.29205 12.0327 1.2856 11.8978 1.2856ZM5.79552 6.1066C5.79552 2.7319 8.53189 0 11.8978 0C12.1547 0 12.4116 0.0128999 12.6621 0.04504C13.176 0.10932 13.5293 0.469175 13.6449 0.893423C13.7605 1.31124 13.6449 1.78058 13.3109 2.1084L11.1848 4.21681C10.4846 4.9046 10.4846 6.02944 11.1783 6.72367C11.8656 7.41146 12.9833 7.41146 13.6771 6.72367L15.8674 4.52534C16.2014 4.19751 16.6575 4.08179 17.0686 4.19107C17.4861 4.30035 17.8458 4.64102 17.9294 5.1424C17.9743 5.45737 18 5.77877 18 6.1066C18 9.4813 15.2701 12.2132 11.8978 12.2132C11.4674 12.2132 11.0435 12.1682 10.6388 12.0847L5.70558 17.0213C4.40163 18.3262 2.28192 18.3262 0.977964 17.0213C-0.325988 15.7165 -0.325988 13.5953 0.977964 12.2904L5.92396 7.34716C5.84045 6.9422 5.79552 6.53085 5.79552 6.1066Z" fill="black"/>
</svg>
