<svg width="211" height="55" viewBox="0 0 211 55" fill="none" xmlns="http://www.w3.org/2000/svg">
<path d="M0 7.81481C0 3.49881 3.49881 0 7.81482 0H203.185C207.501 0 211 3.49881 211 7.81482V46.8889C211 51.2049 207.501 54.7037 203.185 54.7037H7.81481C3.49881 54.7037 0 51.2049 0 46.8889V7.81481Z" fill="black"/>
<path d="M179.091 30.6708L176.123 37.992H176.034L172.937 30.6708H170.137L174.778 40.9052L172.126 46.5973H174.847L182 30.6708H179.091ZM158.117 24.5953H155.524V41.4801H158.117V24.5953ZM148.361 24.5953H142.128V41.4801H144.74V35.0884H148.371C149.103 35.1127 149.833 34.9959 150.518 34.7447C151.203 34.4936 151.83 34.1132 152.362 33.6255C152.894 33.1378 153.321 32.5527 153.617 31.904C153.914 31.2553 154.075 30.556 154.09 29.8467C154.075 29.1361 153.914 28.4355 153.617 27.7857C153.319 27.1358 152.892 26.5496 152.359 26.061C151.826 25.5725 151.198 25.1914 150.512 24.9397C149.826 24.6881 149.095 24.571 148.361 24.5953ZM148.431 32.7311H144.74V26.9814H148.441C149.228 26.9814 149.983 27.2843 150.539 27.8234C151.096 28.3626 151.409 29.0938 151.409 29.8562C151.409 30.6187 151.096 31.3499 150.539 31.8891C149.983 32.4282 149.228 32.7311 148.441 32.7311H148.431ZM164.508 30.3066C163.558 30.2539 162.614 30.4706 161.79 30.9301C160.965 31.3897 160.297 32.0722 159.868 32.894L162.183 33.8523C162.412 33.446 162.759 33.1134 163.181 32.8955C163.603 32.6776 164.081 32.5838 164.557 32.6257C164.884 32.5939 165.215 32.6251 165.529 32.7174C165.843 32.8097 166.136 32.9613 166.39 33.1634C166.643 33.3656 166.853 33.6143 167.008 33.8953C167.162 34.1764 167.257 34.4841 167.288 34.801V34.9734C166.459 34.5389 165.53 34.3116 164.587 34.3122C162.104 34.3122 159.571 35.6347 159.571 38.1453C159.571 40.4069 161.599 41.8634 163.895 41.8634C164.548 41.9036 165.2 41.7716 165.782 41.4813C166.364 41.1911 166.853 40.7535 167.199 40.2152H167.298V41.5185H169.831V35.0214C169.831 32.022 167.516 30.3546 164.528 30.3546L164.508 30.3066ZM164.201 39.5636C163.35 39.5636 162.163 39.1419 162.163 38.1262C162.163 36.8229 163.637 36.3246 164.923 36.3246C165.753 36.3031 166.573 36.4984 167.298 36.89C167.202 37.6228 166.836 38.2973 166.267 38.7888C165.698 39.2803 164.964 39.5555 164.201 39.5636ZM70.3891 41.8443C67.9272 41.8521 65.5612 40.9202 63.8038 39.2502C62.0464 37.5803 61.039 35.307 61 32.9227C61.039 30.5385 62.0464 28.2651 63.8038 26.5952C65.5612 24.9253 67.9272 23.9933 70.3891 24.0012C71.5622 23.9823 72.7274 24.1903 73.8164 24.6132C74.9054 25.0361 75.8963 25.6653 76.731 26.464L74.9402 28.1793C73.7256 27.0265 72.0896 26.3858 70.3891 26.3969C68.6127 26.3969 66.909 27.0804 65.6529 28.297C64.3968 29.5137 63.6911 31.1638 63.6911 32.8844C63.6911 34.605 64.3968 36.2551 65.6529 37.4718C66.909 38.6884 68.6127 39.3719 70.3891 39.3719C71.2536 39.4063 72.116 39.2646 72.9204 38.9559C73.7248 38.6472 74.4533 38.1785 75.059 37.58C75.8642 36.7391 76.3493 35.6574 76.4342 34.5135H70.3891V32.1465H78.8977C78.9905 32.6493 79.0336 33.1595 79.0263 33.6702C79.1118 35.7915 78.3255 37.8591 76.8398 39.4198C76.001 40.2405 74.993 40.8806 73.8814 41.2984C72.7699 41.7162 71.5799 41.9022 70.3891 41.8443ZM92.1849 36.0946C92.2174 36.8611 92.0896 37.6261 91.8092 38.3436C91.5287 39.061 91.1014 39.7162 90.553 40.2697C90.0045 40.8232 89.3462 41.2635 88.6176 41.5644C87.889 41.8652 87.1051 42.0203 86.313 42.0203C85.521 42.0203 84.7371 41.8652 84.0085 41.5644C83.2799 41.2635 82.6216 40.8232 82.0731 40.2697C81.5246 39.7162 81.0973 39.061 80.8169 38.3436C80.5365 37.6261 80.4086 36.8611 80.4411 36.0946C80.4086 35.3281 80.5365 34.5631 80.8169 33.8457C81.0973 33.1282 81.5246 32.4731 82.0731 31.9196C82.6216 31.3661 83.2799 30.9257 84.0085 30.6249C84.7371 30.324 85.521 30.169 86.313 30.169C87.1051 30.169 87.889 30.324 88.6176 30.6249C89.3462 30.9257 90.0045 31.3661 90.553 31.9196C91.1014 32.4731 91.5287 33.1282 91.8092 33.8457C92.0896 34.5631 92.2174 35.3281 92.1849 36.0946ZM89.6126 36.0946C89.6562 35.6495 89.6034 35.2004 89.4574 34.7762C89.3114 34.352 89.0756 33.9619 88.7649 33.6312C88.4543 33.3004 88.0757 33.0361 87.6535 32.8552C87.2313 32.6744 86.7747 32.581 86.313 32.581C85.8514 32.581 85.3948 32.6744 84.9726 32.8552C84.5503 33.0361 84.1718 33.3004 83.8611 33.6312C83.5505 33.9619 83.3146 34.352 83.1687 34.7762C83.0227 35.2004 82.9699 35.6495 83.0135 36.0946C82.9699 36.5398 83.0227 36.9889 83.1687 37.4131C83.3146 37.8373 83.5505 38.2273 83.8611 38.5581C84.1718 38.8889 84.5503 39.1532 84.9726 39.334C85.3948 39.5149 85.8514 39.6083 86.313 39.6083C86.7747 39.6083 87.2313 39.5149 87.6535 39.334C88.0757 39.1532 88.4543 38.8889 88.7649 38.5581C89.0756 38.2273 89.3114 37.8373 89.4574 37.4131C89.6034 36.9889 89.6562 36.5398 89.6126 36.0946ZM105.344 36.0946C105.344 37.6017 104.725 39.0471 103.625 40.1128C102.525 41.1785 101.033 41.7772 99.4766 41.7772C97.9206 41.7772 96.4283 41.1785 95.328 40.1128C94.2278 39.0471 93.6096 37.6017 93.6096 36.0946C93.6096 34.5875 94.2278 33.1421 95.328 32.0764C96.4283 31.0107 97.9206 30.412 99.4766 30.412C101.033 30.412 102.525 31.0107 103.625 32.0764C104.725 33.1421 105.344 34.5875 105.344 36.0946ZM102.781 36.0946C102.825 35.6495 102.772 35.2004 102.626 34.7762C102.48 34.352 102.244 33.9619 101.933 33.6312C101.623 33.3004 101.244 33.0361 100.822 32.8552C100.4 32.6744 99.9432 32.581 99.4816 32.581C99.0199 32.581 98.5633 32.6744 98.1411 32.8552C97.7189 33.0361 97.3403 33.3004 97.0297 33.6312C96.719 33.9619 96.4832 34.352 96.3372 34.7762C96.1912 35.2004 96.1384 35.6495 96.182 36.0946C96.1384 36.5398 96.1912 36.9889 96.3372 37.4131C96.4832 37.8373 96.719 38.2273 97.0297 38.5581C97.3403 38.8889 97.7189 39.1532 98.1411 39.334C98.5633 39.5149 99.0199 39.6083 99.4816 39.6083C99.9432 39.6083 100.4 39.5149 100.822 39.334C101.244 39.1532 101.623 38.8889 101.933 38.5581C102.244 38.2273 102.48 37.8373 102.626 37.4131C102.772 36.9889 102.825 36.5398 102.781 36.0946ZM118.186 30.6995V41.0202C118.186 45.2557 115.584 46.9998 112.517 46.9998C111.392 47.009 110.29 46.6953 109.35 46.0983C108.41 45.5014 107.673 44.648 107.233 43.6458L109.479 42.6876C109.712 43.2726 110.118 43.7782 110.646 44.1412C111.174 44.5042 111.8 44.7086 112.447 44.7287C114.426 44.7287 115.633 43.55 115.633 41.3556V40.5314H115.534C115.146 40.9509 114.67 41.285 114.137 41.5114C113.605 41.7379 113.029 41.8514 112.447 41.8443C110.873 41.8443 109.363 41.2385 108.25 40.1602C107.136 39.082 106.511 37.6195 106.511 36.0946C106.511 34.5697 107.136 33.1073 108.25 32.029C109.363 30.9507 110.873 30.345 112.447 30.345C113.033 30.3325 113.614 30.4405 114.153 30.6619C114.692 30.8832 115.176 31.2129 115.574 31.6291H115.673V30.6708H118.186V30.6995ZM115.88 36.1234C115.917 35.6897 115.863 35.2533 115.722 34.8402C115.581 34.4271 115.355 34.0457 115.059 33.7186C114.763 33.3915 114.402 33.1253 113.997 32.9359C113.593 32.7465 113.153 32.6378 112.704 32.6161C112.247 32.6308 111.797 32.7336 111.381 32.9187C110.965 33.1037 110.592 33.3673 110.282 33.6938C109.973 34.0204 109.733 34.4035 109.579 34.8206C109.424 35.2378 109.356 35.6807 109.38 36.1234C109.359 36.5631 109.429 37.0025 109.585 37.4158C109.742 37.8291 109.982 38.2079 110.291 38.5302C110.601 38.8524 110.974 39.1115 111.388 39.2922C111.803 39.473 112.25 39.5717 112.704 39.5828C113.15 39.566 113.588 39.4622 113.992 39.2775C114.396 39.0929 114.756 38.8312 115.053 38.5081C115.35 38.185 115.576 37.8073 115.718 37.3975C115.86 36.9877 115.915 36.5543 115.88 36.1234ZM122.766 24.6145V41.4897H120.154V24.6145H122.766ZM133.056 37.992L135.094 39.2953C134.55 40.0818 133.814 40.726 132.951 41.1707C132.088 41.6154 131.125 41.8467 130.147 41.8443C129.37 41.8551 128.598 41.7129 127.879 41.4264C127.159 41.1399 126.508 40.7151 125.963 40.1776C125.418 39.64 124.992 39.001 124.709 38.2992C124.427 37.5975 124.294 36.8474 124.32 36.0946C124.204 34.8004 124.584 33.5102 125.387 32.4699C126.19 31.4295 127.361 30.7119 128.675 30.4537C129.99 30.1955 131.356 30.4149 132.514 31.0699C133.673 31.725 134.542 32.7699 134.955 34.0056L135.223 34.6668L127.308 37.8387C127.554 38.3756 127.961 38.8287 128.476 39.1396C128.991 39.4504 129.59 39.6048 130.197 39.5828C130.773 39.574 131.338 39.4234 131.838 39.1452C132.339 38.8669 132.757 38.4701 133.056 37.992ZM126.813 35.9221L132.136 33.7948C131.93 33.4042 131.61 33.0808 131.216 32.8645C130.822 32.6481 130.371 32.5485 129.92 32.5778C129.488 32.596 129.064 32.6975 128.673 32.8763C128.282 33.055 127.931 33.3074 127.642 33.6188C127.353 33.9301 127.13 34.2942 126.988 34.6897C126.846 35.0851 126.786 35.5041 126.813 35.9221Z" fill="#E6E6E6"/>
<path d="M33.9286 25.5613L20.1234 40.0336C20.2784 40.5834 20.557 41.0904 20.9378 41.5159C21.3187 41.9414 21.7917 42.2741 22.3208 42.4887C22.8499 42.7032 23.421 42.7939 23.9904 42.7537C24.5599 42.7135 25.1126 42.5436 25.6064 42.257L41.1398 33.4048L33.9286 25.5613Z" fill="#EA4335"/>
<path d="M47.8883 23.1012L41.1708 19.2515L33.6098 25.8906L41.2017 33.3841L47.8677 29.5756C48.4582 29.2662 48.9529 28.801 49.2981 28.2303C49.6432 27.6597 49.8257 27.0054 49.8257 26.3384C49.8257 25.6714 49.6432 25.0171 49.2981 24.4464C48.9529 23.8758 48.4582 23.4105 47.8677 23.1012H47.8883Z" fill="#FBBC04"/>
<path d="M20.1235 12.5711C20.04 12.8798 19.9985 13.1983 20 13.5181V39.0866C20.0009 39.4062 20.0424 39.7245 20.1235 40.0336L34.4019 25.9318L20.1235 12.5711Z" fill="#4285F4"/>
<path d="M34.0315 26.3024L41.1707 19.2515L25.6578 10.3581C25.0742 10.0161 24.4104 9.83496 23.7341 9.83314C22.9173 9.83152 22.1224 10.0972 21.4705 10.5897C20.8186 11.0821 20.3455 11.7744 20.1234 12.5609L34.0315 26.3024Z" fill="#34A853"/>
<path d="M62.918 19C62.858 19 62.807 18.979 62.765 18.937C62.723 18.895 62.702 18.844 62.702 18.784V12.925C62.702 12.859 62.723 12.805 62.765 12.763C62.807 12.721 62.858 12.7 62.918 12.7H65.114C65.72 12.7 66.218 12.793 66.608 12.979C67.004 13.165 67.301 13.441 67.499 13.807C67.703 14.173 67.808 14.62 67.814 15.148C67.826 15.412 67.832 15.646 67.832 15.85C67.832 16.054 67.826 16.285 67.814 16.543C67.802 17.101 67.7 17.563 67.508 17.929C67.316 18.289 67.025 18.559 66.635 18.739C66.251 18.913 65.759 19 65.159 19H62.918ZM63.953 17.965H65.114C65.45 17.965 65.723 17.917 65.933 17.821C66.143 17.725 66.296 17.572 66.392 17.362C66.494 17.146 66.548 16.864 66.554 16.516C66.56 16.336 66.563 16.18 66.563 16.048C66.569 15.91 66.569 15.775 66.563 15.643C66.563 15.505 66.56 15.349 66.554 15.175C66.542 14.683 66.419 14.32 66.185 14.086C65.951 13.852 65.579 13.735 65.069 13.735H63.953V17.965Z" fill="#E6E6E6"/>
<path d="M71.4512 19.09C70.9172 19.09 70.4582 19.003 70.0742 18.829C69.6902 18.649 69.3902 18.376 69.1742 18.01C68.9582 17.638 68.8412 17.176 68.8232 16.624C68.8172 16.366 68.8142 16.111 68.8142 15.859C68.8142 15.607 68.8172 15.349 68.8232 15.085C68.8412 14.539 68.9612 14.083 69.1832 13.717C69.4052 13.351 69.7082 13.075 70.0922 12.889C70.4822 12.703 70.9352 12.61 71.4512 12.61C71.9672 12.61 72.4202 12.703 72.8102 12.889C73.2002 13.075 73.5062 13.351 73.7282 13.717C73.9502 14.083 74.0702 14.539 74.0882 15.085C74.1002 15.349 74.1062 15.607 74.1062 15.859C74.1062 16.111 74.1002 16.366 74.0882 16.624C74.0702 17.176 73.9532 17.638 73.7372 18.01C73.5212 18.376 73.2182 18.649 72.8282 18.829C72.4442 19.003 71.9852 19.09 71.4512 19.09ZM71.4512 18.055C71.8412 18.055 72.1592 17.941 72.4052 17.713C72.6512 17.479 72.7832 17.101 72.8012 16.579C72.8132 16.315 72.8192 16.072 72.8192 15.85C72.8192 15.622 72.8132 15.379 72.8012 15.121C72.7892 14.773 72.7232 14.491 72.6032 14.275C72.4892 14.053 72.3332 13.894 72.1352 13.798C71.9372 13.696 71.7092 13.645 71.4512 13.645C71.1992 13.645 70.9742 13.696 70.7762 13.798C70.5782 13.894 70.4192 14.053 70.2992 14.275C70.1852 14.491 70.1222 14.773 70.1102 15.121C70.1042 15.379 70.1012 15.622 70.1012 15.85C70.1012 16.072 70.1042 16.315 70.1102 16.579C70.1282 17.101 70.2602 17.479 70.5062 17.713C70.7522 17.941 71.0672 18.055 71.4512 18.055Z" fill="#E6E6E6"/>
<path d="M76.2527 19C76.1627 19 76.0907 18.976 76.0367 18.928C75.9887 18.874 75.9557 18.808 75.9377 18.73L74.8667 12.961C74.8667 12.943 74.8637 12.928 74.8577 12.916C74.8577 12.904 74.8577 12.895 74.8577 12.889C74.8577 12.835 74.8757 12.79 74.9117 12.754C74.9537 12.718 74.9987 12.7 75.0467 12.7H75.8387C75.9887 12.7 76.0727 12.76 76.0907 12.88L76.8377 16.957L77.6477 14.32C77.6657 14.272 77.6957 14.224 77.7377 14.176C77.7857 14.122 77.8547 14.095 77.9447 14.095H78.4307C78.5267 14.095 78.5957 14.122 78.6377 14.176C78.6797 14.224 78.7067 14.272 78.7187 14.32L79.5377 16.948L80.2847 12.88C80.3027 12.76 80.3867 12.7 80.5367 12.7H81.3287C81.3767 12.7 81.4187 12.718 81.4547 12.754C81.4907 12.79 81.5087 12.835 81.5087 12.889C81.5087 12.895 81.5087 12.904 81.5087 12.916C81.5087 12.928 81.5057 12.943 81.4997 12.961L80.4287 18.73C80.4167 18.808 80.3837 18.874 80.3297 18.928C80.2757 18.976 80.2037 19 80.1137 19H79.5107C79.4207 19 79.3487 18.976 79.2947 18.928C79.2467 18.88 79.2137 18.829 79.1957 18.775L78.1877 15.769L77.1797 18.775C77.1557 18.829 77.1197 18.88 77.0717 18.928C77.0237 18.976 76.9517 19 76.8557 19H76.2527Z" fill="#E6E6E6"/>
<path d="M82.7813 19C82.7213 19 82.6703 18.979 82.6283 18.937C82.5863 18.895 82.5653 18.844 82.5653 18.784V12.925C82.5653 12.859 82.5863 12.805 82.6283 12.763C82.6703 12.721 82.7213 12.7 82.7813 12.7H83.4743C83.5583 12.7 83.6183 12.721 83.6543 12.763C83.6963 12.799 83.7233 12.826 83.7353 12.844L86.3273 16.876V12.925C86.3273 12.859 86.3453 12.805 86.3813 12.763C86.4233 12.721 86.4773 12.7 86.5433 12.7H87.2993C87.3653 12.7 87.4193 12.721 87.4613 12.763C87.5033 12.805 87.5243 12.859 87.5243 12.925V18.775C87.5243 18.841 87.5033 18.895 87.4613 18.937C87.4193 18.979 87.3683 19 87.3083 19H86.6063C86.5223 19 86.4623 18.979 86.4263 18.937C86.3903 18.895 86.3633 18.868 86.3453 18.856L83.7623 14.914V18.784C83.7623 18.844 83.7413 18.895 83.6993 18.937C83.6573 18.979 83.6033 19 83.5373 19H82.7813Z" fill="#E6E6E6"/>
<path d="M89.1446 19C89.0846 19 89.0336 18.979 88.9916 18.937C88.9496 18.895 88.9286 18.844 88.9286 18.784V12.916C88.9286 12.856 88.9496 12.805 88.9916 12.763C89.0336 12.721 89.0846 12.7 89.1446 12.7H89.9816C90.0416 12.7 90.0926 12.721 90.1346 12.763C90.1766 12.805 90.1976 12.856 90.1976 12.916V17.929H93.0506C93.1166 17.929 93.1706 17.95 93.2126 17.992C93.2546 18.034 93.2756 18.088 93.2756 18.154V18.784C93.2756 18.844 93.2546 18.895 93.2126 18.937C93.1706 18.979 93.1166 19 93.0506 19H89.1446Z" fill="#E6E6E6"/>
<path d="M96.4912 19.09C95.9572 19.09 95.4982 19.003 95.1142 18.829C94.7302 18.649 94.4302 18.376 94.2142 18.01C93.9982 17.638 93.8812 17.176 93.8632 16.624C93.8572 16.366 93.8542 16.111 93.8542 15.859C93.8542 15.607 93.8572 15.349 93.8632 15.085C93.8812 14.539 94.0012 14.083 94.2232 13.717C94.4452 13.351 94.7482 13.075 95.1322 12.889C95.5222 12.703 95.9752 12.61 96.4912 12.61C97.0072 12.61 97.4602 12.703 97.8502 12.889C98.2402 13.075 98.5462 13.351 98.7682 13.717C98.9902 14.083 99.1102 14.539 99.1282 15.085C99.1402 15.349 99.1462 15.607 99.1462 15.859C99.1462 16.111 99.1402 16.366 99.1282 16.624C99.1102 17.176 98.9932 17.638 98.7772 18.01C98.5612 18.376 98.2582 18.649 97.8682 18.829C97.4842 19.003 97.0252 19.09 96.4912 19.09ZM96.4912 18.055C96.8812 18.055 97.1992 17.941 97.4452 17.713C97.6912 17.479 97.8232 17.101 97.8412 16.579C97.8532 16.315 97.8592 16.072 97.8592 15.85C97.8592 15.622 97.8532 15.379 97.8412 15.121C97.8292 14.773 97.7632 14.491 97.6432 14.275C97.5292 14.053 97.3732 13.894 97.1752 13.798C96.9772 13.696 96.7492 13.645 96.4912 13.645C96.2392 13.645 96.0142 13.696 95.8162 13.798C95.6182 13.894 95.4592 14.053 95.3392 14.275C95.2252 14.491 95.1622 14.773 95.1502 15.121C95.1442 15.379 95.1412 15.622 95.1412 15.85C95.1412 16.072 95.1442 16.315 95.1502 16.579C95.1682 17.101 95.3002 17.479 95.5462 17.713C95.7922 17.941 96.1072 18.055 96.4912 18.055Z" fill="#E6E6E6"/>
<path d="M99.818 19C99.77 19 99.725 18.982 99.683 18.946C99.647 18.91 99.629 18.865 99.629 18.811C99.629 18.787 99.635 18.76 99.647 18.73L101.816 12.925C101.834 12.865 101.867 12.814 101.915 12.772C101.969 12.724 102.041 12.7 102.131 12.7H103.112C103.202 12.7 103.271 12.724 103.319 12.772C103.367 12.814 103.403 12.865 103.427 12.925L105.596 18.73C105.602 18.76 105.605 18.787 105.605 18.811C105.605 18.865 105.587 18.91 105.551 18.946C105.515 18.982 105.473 19 105.425 19H104.642C104.558 19 104.495 18.982 104.453 18.946C104.417 18.904 104.393 18.865 104.381 18.829L103.958 17.731H101.285L100.862 18.829C100.85 18.865 100.823 18.904 100.781 18.946C100.745 18.982 100.685 19 100.601 19H99.818ZM101.6 16.696H103.643L102.617 13.915L101.6 16.696Z" fill="#E6E6E6"/>
<path d="M106.661 19C106.601 19 106.55 18.979 106.508 18.937C106.466 18.895 106.445 18.844 106.445 18.784V12.925C106.445 12.859 106.466 12.805 106.508 12.763C106.55 12.721 106.601 12.7 106.661 12.7H108.857C109.463 12.7 109.961 12.793 110.351 12.979C110.747 13.165 111.044 13.441 111.242 13.807C111.446 14.173 111.551 14.62 111.557 15.148C111.569 15.412 111.575 15.646 111.575 15.85C111.575 16.054 111.569 16.285 111.557 16.543C111.545 17.101 111.443 17.563 111.251 17.929C111.059 18.289 110.768 18.559 110.378 18.739C109.994 18.913 109.502 19 108.902 19H106.661ZM107.696 17.965H108.857C109.193 17.965 109.466 17.917 109.676 17.821C109.886 17.725 110.039 17.572 110.135 17.362C110.237 17.146 110.291 16.864 110.297 16.516C110.303 16.336 110.306 16.18 110.306 16.048C110.312 15.91 110.312 15.775 110.306 15.643C110.306 15.505 110.303 15.349 110.297 15.175C110.285 14.683 110.162 14.32 109.928 14.086C109.694 13.852 109.322 13.735 108.812 13.735H107.696V17.965Z" fill="#E6E6E6"/>
<path d="M115.046 19C114.986 19 114.935 18.979 114.893 18.937C114.851 18.895 114.83 18.844 114.83 18.784V12.925C114.83 12.859 114.851 12.805 114.893 12.763C114.935 12.721 114.986 12.7 115.046 12.7H118.952C119.018 12.7 119.072 12.721 119.114 12.763C119.156 12.805 119.177 12.859 119.177 12.925V13.555C119.177 13.621 119.156 13.675 119.114 13.717C119.072 13.753 119.018 13.771 118.952 13.771H116.063V15.481H118.772C118.838 15.481 118.892 15.502 118.934 15.544C118.976 15.586 118.997 15.64 118.997 15.706V16.336C118.997 16.396 118.976 16.447 118.934 16.489C118.892 16.531 118.838 16.552 118.772 16.552H116.063V18.784C116.063 18.844 116.042 18.895 116 18.937C115.958 18.979 115.904 19 115.838 19H115.046Z" fill="#E6E6E6"/>
<path d="M122.612 19.09C122.078 19.09 121.619 19.003 121.235 18.829C120.851 18.649 120.551 18.376 120.335 18.01C120.119 17.638 120.002 17.176 119.984 16.624C119.978 16.366 119.975 16.111 119.975 15.859C119.975 15.607 119.978 15.349 119.984 15.085C120.002 14.539 120.122 14.083 120.344 13.717C120.566 13.351 120.869 13.075 121.253 12.889C121.643 12.703 122.096 12.61 122.612 12.61C123.128 12.61 123.581 12.703 123.971 12.889C124.361 13.075 124.667 13.351 124.889 13.717C125.111 14.083 125.231 14.539 125.249 15.085C125.261 15.349 125.267 15.607 125.267 15.859C125.267 16.111 125.261 16.366 125.249 16.624C125.231 17.176 125.114 17.638 124.898 18.01C124.682 18.376 124.379 18.649 123.989 18.829C123.605 19.003 123.146 19.09 122.612 19.09ZM122.612 18.055C123.002 18.055 123.32 17.941 123.566 17.713C123.812 17.479 123.944 17.101 123.962 16.579C123.974 16.315 123.98 16.072 123.98 15.85C123.98 15.622 123.974 15.379 123.962 15.121C123.95 14.773 123.884 14.491 123.764 14.275C123.65 14.053 123.494 13.894 123.296 13.798C123.098 13.696 122.87 13.645 122.612 13.645C122.36 13.645 122.135 13.696 121.937 13.798C121.739 13.894 121.58 14.053 121.46 14.275C121.346 14.491 121.283 14.773 121.271 15.121C121.265 15.379 121.262 15.622 121.262 15.85C121.262 16.072 121.265 16.315 121.271 16.579C121.289 17.101 121.421 17.479 121.667 17.713C121.913 17.941 122.228 18.055 122.612 18.055Z" fill="#E6E6E6"/>
<path d="M126.665 19C126.605 19 126.554 18.979 126.512 18.937C126.47 18.895 126.449 18.844 126.449 18.784V12.925C126.449 12.859 126.47 12.805 126.512 12.763C126.554 12.721 126.605 12.7 126.665 12.7H128.996C129.722 12.7 130.295 12.868 130.715 13.204C131.135 13.54 131.345 14.029 131.345 14.671C131.345 15.115 131.234 15.484 131.012 15.778C130.796 16.072 130.505 16.285 130.139 16.417L131.453 18.712C131.471 18.748 131.48 18.781 131.48 18.811C131.48 18.865 131.459 18.91 131.417 18.946C131.381 18.982 131.339 19 131.291 19H130.472C130.37 19 130.292 18.973 130.238 18.919C130.184 18.865 130.142 18.811 130.112 18.757L128.951 16.624H127.7V18.784C127.7 18.844 127.679 18.895 127.637 18.937C127.601 18.979 127.55 19 127.484 19H126.665ZM127.7 15.607H128.969C129.335 15.607 129.608 15.526 129.788 15.364C129.968 15.196 130.058 14.962 130.058 14.662C130.058 14.362 129.968 14.128 129.788 13.96C129.614 13.786 129.341 13.699 128.969 13.699H127.7V15.607Z" fill="#E6E6E6"/>
</svg>
