<svg width="15" height="15" viewBox="0 0 15 15" fill="none" xmlns="http://www.w3.org/2000/svg">
<g clip-path="url(#clip0_982_2801)">
<path d="M7.5 12.6562C4.65625 12.6562 2.34375 10.3438 2.34375 7.5C2.34375 4.65625 4.65625 2.34375 7.5 2.34375C10.3438 2.34375 12.6562 4.65625 12.6562 7.5C12.6562 10.3438 10.3438 12.6562 7.5 12.6562ZM7.5 3.28125C5.175 3.28125 3.28125 5.175 3.28125 7.5C3.28125 9.825 5.175 11.7188 7.5 11.7188C9.825 11.7188 11.7188 9.825 11.7188 7.5C11.7188 5.175 9.825 3.28125 7.5 3.28125Z" fill="black"/>
<path d="M7.5 9.84375C6.20625 9.84375 5.15625 8.79375 5.15625 7.5C5.15625 6.20625 6.20625 5.15625 7.5 5.15625C8.79375 5.15625 9.84375 6.20625 9.84375 7.5C9.84375 8.79375 8.79375 9.84375 7.5 9.84375ZM7.5 6.09375C6.725 6.09375 6.09375 6.725 6.09375 7.5C6.09375 8.275 6.725 8.90625 7.5 8.90625C8.275 8.90625 8.90625 8.275 8.90625 7.5C8.90625 6.725 8.275 6.09375 7.5 6.09375ZM7.5 2.96875C7.24375 2.96875 7.03125 2.75625 7.03125 2.5V1.25C7.03125 0.99375 7.24375 0.78125 7.5 0.78125C7.75625 0.78125 7.96875 0.99375 7.96875 1.25V2.5C7.96875 2.75625 7.75625 2.96875 7.5 2.96875ZM2.5 7.96875H1.25C0.99375 7.96875 0.78125 7.75625 0.78125 7.5C0.78125 7.24375 0.99375 7.03125 1.25 7.03125H2.5C2.75625 7.03125 2.96875 7.24375 2.96875 7.5C2.96875 7.75625 2.75625 7.96875 2.5 7.96875ZM7.5 14.2188C7.24375 14.2188 7.03125 14.0063 7.03125 13.75V12.5C7.03125 12.2437 7.24375 12.0312 7.5 12.0312C7.75625 12.0312 7.96875 12.2437 7.96875 12.5V13.75C7.96875 14.0063 7.75625 14.2188 7.5 14.2188ZM13.75 7.96875H12.5C12.2437 7.96875 12.0312 7.75625 12.0312 7.5C12.0312 7.24375 12.2437 7.03125 12.5 7.03125H13.75C14.0063 7.03125 14.2188 7.24375 14.2188 7.5C14.2188 7.75625 14.0063 7.96875 13.75 7.96875Z" fill="black"/>
</g>
<defs>
<clipPath id="clip0_982_2801">
<rect width="15" height="15" fill="white"/>
</clipPath>
</defs>
</svg>
