<svg width="19" height="19" viewBox="0 0 19 19" fill="none" xmlns="http://www.w3.org/2000/svg">
<g clip-path="url(#clip0_2171_9946)">
<path fill-rule="evenodd" clip-rule="evenodd" d="M9.49984 2.37533C5.56706 2.37533 2.37484 5.56755 2.37484 9.50033C2.37484 13.4331 5.56706 16.6253 9.49984 16.6253C13.4326 16.6253 16.6248 13.4331 16.6248 9.50033C16.6248 5.56755 13.4326 2.37533 9.49984 2.37533ZM0.791504 9.50033C0.791504 4.6931 4.69261 0.791992 9.49984 0.791992C14.3071 0.791992 18.2082 4.6931 18.2082 9.50033C18.2082 14.3075 14.3071 18.2087 9.49984 18.2087C4.69261 18.2087 0.791504 14.3075 0.791504 9.50033Z" fill="black"/>
<path fill-rule="evenodd" clip-rule="evenodd" d="M9.20719 5.15332C9.64442 5.15332 9.99886 5.50776 9.99886 5.94499V9.19082C9.99886 9.26977 10.0317 9.41233 10.1225 9.5715C10.2133 9.73073 10.3192 9.83148 10.3866 9.87142L10.3887 9.87267L12.8429 11.3373C13.2183 11.5613 13.3411 12.0473 13.117 12.4228C12.8929 12.7982 12.4069 12.9209 12.0315 12.6969L9.57943 11.2336L9.57832 11.2329C9.21875 11.0195 8.93714 10.6891 8.7471 10.3559C8.55683 10.0222 8.41553 9.61062 8.41553 9.19082V5.94499C8.41553 5.50776 8.76997 5.15332 9.20719 5.15332Z" fill="black"/>
</g>
<defs>
<clipPath id="clip0_2171_9946">
<rect width="19" height="19" fill="white"/>
</clipPath>
</defs>
</svg>
