<svg width="13" height="14" viewBox="0 0 13 14" fill="none" xmlns="http://www.w3.org/2000/svg">
<path d="M12.1964 2.38988C12.3517 2.22749 12.5705 2.05092 12.7937 1.83796L13 1.65724L12.4377 0.997655L12.2541 1.17719C11.4771 1.91515 11.0096 2.36119 10.7813 3.27543C10.5546 4.18435 10.5456 5.10451 10.5693 5.96463C10.5942 6.85137 10.6262 7.43642 10.8633 8.0889L10.9527 8.32937C11.1802 8.92772 11.5246 9.83162 11.5246 10.9943C11.5246 12.399 10.9802 13.1115 9.90662 13.1115C8.92982 13.1115 8.40294 12.43 8.34126 11.0836C8.31324 10.4871 8.4734 9.75058 8.64177 8.97239C8.7841 8.31547 8.93067 7.63577 9.00283 6.91437C9.08263 6.11903 8.98274 5.55055 8.69044 5.20922C8.31522 4.77117 7.73769 4.73243 7.22892 4.73243H7.07414V0.632666C7.07414 0.277734 6.82767 0 6.4901 0H0.649406C0.312394 0 0 0.277734 0 0.632666V13.6057H7.07414V5.61976H7.2292C7.57725 5.61976 7.93775 5.66057 8.06027 5.80344C8.12592 5.88034 8.22666 6.12938 8.16016 6.80109C8.0931 7.47073 7.95105 8.13297 7.81409 8.76386C7.63271 9.60357 7.46067 10.4022 7.49462 11.1221C7.5781 12.9497 8.45784 14 9.90662 14C11.4508 14 12.3727 12.8766 12.3727 10.9925C12.3727 9.65889 11.9779 8.61982 11.7411 7.99721L11.6556 7.77035C11.4853 7.30036 11.4471 6.86468 11.4236 6.10454C11.6961 6.09803 12.026 6.09123 12.1743 6.09123C12.5136 6.09123 12.6842 5.8833 12.7569 5.52304C12.7994 5.31304 12.7337 5.03767 12.7337 4.53781V4.4053C12.7334 3.08406 12.5402 2.70665 12.1964 2.38988ZM6.22524 5.0282H0.848896V1.18311H6.22524V5.0282ZM11.8846 4.53899C11.8846 4.7972 11.9496 5.04418 11.9414 5.20123C11.7722 5.2039 11.5775 5.20863 11.3795 5.21336C11.3868 4.64281 11.4474 4.0619 11.5869 3.50259C11.6248 3.35352 11.6135 3.22219 11.6706 3.09974C11.8214 3.25147 11.8846 3.47893 11.8846 4.40589V4.53899Z" fill="#5A5A5A"/>
</svg>
