<svg width="17" height="17" viewBox="0 0 17 17" fill="none" xmlns="http://www.w3.org/2000/svg">
<path d="M8.5 14.125C9.99184 14.125 11.4226 13.5324 12.4775 12.4775C13.5324 11.4226 14.125 9.99184 14.125 8.5C14.125 7.00816 13.5324 5.57742 12.4775 4.52252C11.4226 3.46763 9.99184 2.875 8.5 2.875C7.00816 2.875 5.57742 3.46763 4.52252 4.52252C3.46763 5.57742 2.875 7.00816 2.875 8.5C2.875 9.99184 3.46763 11.4226 4.52252 12.4775C5.57742 13.5324 7.00816 14.125 8.5 14.125Z" stroke="black" stroke-width="1.5" stroke-linecap="round" stroke-linejoin="round"/>
<path d="M8.5 10.75C9.09674 10.75 9.66903 10.5129 10.091 10.091C10.5129 9.66903 10.75 9.09674 10.75 8.5C10.75 7.90326 10.5129 7.33097 10.091 6.90901C9.66903 6.48705 9.09674 6.25 8.5 6.25C7.90326 6.25 7.33097 6.48705 6.90901 6.90901C6.48705 7.33097 6.25 7.90326 6.25 8.5C6.25 9.09674 6.48705 9.66903 6.90901 10.091C7.33097 10.5129 7.90326 10.75 8.5 10.75ZM8.5 2.5V1V2.5ZM2.5 8.5H1H2.5ZM8.5 14.5V16V14.5ZM14.5 8.5H16H14.5Z" fill="black"/>
<path d="M8.5 2.5V1M2.5 8.5H1M8.5 14.5V16M14.5 8.5H16M8.5 10.75C9.09674 10.75 9.66903 10.5129 10.091 10.091C10.5129 9.66903 10.75 9.09674 10.75 8.5C10.75 7.90326 10.5129 7.33097 10.091 6.90901C9.66903 6.48705 9.09674 6.25 8.5 6.25C7.90326 6.25 7.33097 6.48705 6.90901 6.90901C6.48705 7.33097 6.25 7.90326 6.25 8.5C6.25 9.09674 6.48705 9.66903 6.90901 10.091C7.33097 10.5129 7.90326 10.75 8.5 10.75Z" stroke="black" stroke-width="1.5" stroke-linecap="round" stroke-linejoin="round"/>
</svg>
