<svg width="16" height="18" viewBox="0 0 16 18" fill="none" xmlns="http://www.w3.org/2000/svg">
<path d="M7.8683 10.1057C8.1947 10.1057 8.5179 10.0415 8.81946 9.91655C9.12101 9.79164 9.39501 9.60856 9.62581 9.37776C9.8566 9.14696 10.0397 8.87296 10.1646 8.57141C10.2895 8.26986 10.3538 7.94665 10.3538 7.62025C10.3538 7.29386 10.2895 6.97065 10.1646 6.6691C10.0397 6.36755 9.8566 6.09355 9.62581 5.86275C9.39501 5.63195 9.12101 5.44887 8.81946 5.32396C8.5179 5.19905 8.1947 5.13477 7.8683 5.13477C7.20911 5.13477 6.57691 5.39663 6.1108 5.86275C5.64468 6.32887 5.38281 6.96106 5.38281 7.62025C5.38281 8.27945 5.64468 8.91164 6.1108 9.37776C6.57691 9.84388 7.20911 10.1057 7.8683 10.1057Z" stroke="black" stroke-width="1.5"/>
<path d="M1.19339 6.17014C2.76275 -0.728687 12.9835 -0.720721 14.5449 6.1781C15.461 10.225 12.9437 13.6505 10.737 15.7695C9.96595 16.5132 8.93644 16.9288 7.86517 16.9288C6.7939 16.9288 5.7644 16.5132 4.99332 15.7695C2.79462 13.6505 0.277261 10.217 1.19339 6.17014Z" stroke="black" stroke-width="1.5"/>
</svg>
