<svg width="14" height="17" viewBox="0 0 14 17" fill="none" xmlns="http://www.w3.org/2000/svg">
<path d="M8.40242 1.9425C7.49785 1.68487 6.53933 1.68487 5.63477 1.9425C5.85169 1.38897 6.39026 1 7.01859 1C7.64692 1 8.18549 1.38897 8.40242 1.9425Z" stroke="#5A5A5A" stroke-width="1.5" stroke-miterlimit="10" stroke-linecap="round" stroke-linejoin="round"/>
<path d="M7.01849 1.72559C4.54257 1.72559 2.53041 3.73774 2.53041 6.21367V8.37543C2.53041 8.83172 2.33593 9.52737 2.10404 9.91634L1.24383 11.345C0.712738 12.2277 1.07926 13.2076 2.05168 13.5367C5.27562 14.6139 8.75389 14.6139 11.9778 13.5367C12.8829 13.2375 13.2794 12.1679 12.7857 11.345L11.9255 9.91634C11.7011 9.52737 11.5066 8.83172 11.5066 8.37543V6.21367C11.5066 3.74522 9.48694 1.72559 7.01849 1.72559Z" stroke="#5A5A5A" stroke-width="1.5" stroke-miterlimit="10" stroke-linecap="round"/>
<path d="M9.26152 13.8062C9.26152 15.0404 8.2517 16.0502 7.01748 16.0502C6.40411 16.0502 5.83562 15.7959 5.43169 15.3919C5.01142 14.971 4.77478 14.4009 4.77344 13.8062" stroke="#5A5A5A" stroke-width="1.5" stroke-miterlimit="10"/>
</svg>
