<svg width="29" height="29" viewBox="0 0 29 29" fill="none" xmlns="http://www.w3.org/2000/svg">
<path d="M14.3374 4.57083C12.8298 4.14146 11.2322 4.14146 9.72461 4.57083C10.0861 3.64828 10.9838 3 12.031 3C13.0782 3 13.9758 3.64828 14.3374 4.57083Z" fill="#959595" stroke="#959595" stroke-width="1.5" stroke-miterlimit="10" stroke-linecap="round" stroke-linejoin="round"/>
<path d="M12.0308 4.20947C7.90428 4.20947 4.55069 7.56307 4.55069 11.6896V15.2925C4.55069 16.053 4.22655 17.2124 3.84007 17.8607L2.40638 20.2419C1.52123 21.713 2.13211 23.3462 3.7528 23.8947C9.12604 25.6899 14.9231 25.6899 20.2964 23.8947C21.8049 23.396 22.4656 21.6133 21.6428 20.2419L20.2091 17.8607C19.8351 17.2124 19.511 16.053 19.511 15.2925V11.6896C19.511 7.57553 16.1449 4.20947 12.0308 4.20947Z" fill="#959595" stroke="#959595" stroke-width="1.5" stroke-miterlimit="10" stroke-linecap="round"/>
<path d="M15.7692 24.3438C15.7692 26.4008 14.0862 28.0838 12.0291 28.0838C11.0068 28.0838 10.0594 27.6599 9.38615 26.9867C8.6857 26.2852 8.2913 25.3351 8.28906 24.3438" fill="#959595"/>
<path d="M15.7692 24.3438C15.7692 26.4008 14.0862 28.0838 12.0291 28.0838C11.0068 28.0838 10.0594 27.6599 9.38615 26.9867C8.6857 26.2852 8.2913 25.3351 8.28906 24.3438" stroke="#959595" stroke-width="1.5" stroke-miterlimit="10"/>
<line x1="1.03966" y1="1.91875" x2="27.0397" y2="26.9188" stroke="#F5F5F5" stroke-width="3"/>
<line x1="0.519832" y1="1.45938" x2="26.5198" y2="26.4594" stroke="#959595" stroke-width="1.5"/>
</svg>
