<svg width="30" height="21" viewBox="0 0 30 21" fill="none" xmlns="http://www.w3.org/2000/svg">
<path d="M10.3801 18.5536C9.80005 20.1642 8.69712 21 7.17099 21C5.64568 21 4.53377 20.1565 3.95698 18.5397C3.36956 18.5397 2.7699 18.5466 2.17023 18.5366C1.92759 18.5327 1.67759 18.5212 1.44393 18.464C0.611425 18.2624 0.0411703 17.5733 0.00522295 16.7576C0.00277199 16.6997 0.00113802 16.6417 0.00113802 16.5838C0.000321039 11.6979 -0.00131293 6.81208 0.00195501 1.92622C0.00277199 0.967592 0.589367 0.247652 1.524 0.0460376C1.71027 0.00586927 1.9088 0.00200693 2.10079 0.00200693C7.21756 -0.000310473 12.3343 -0.000310473 17.4511 0.000461995C18.7624 0.000461995 19.5671 0.76366 19.5704 2.00347C19.5728 2.96828 19.5704 3.9331 19.5704 4.93885C19.6954 4.93885 19.8032 4.93885 19.9119 4.93885C21.1047 4.93885 22.2966 4.94348 23.4894 4.93653C24.0932 4.93344 24.6014 5.12579 25.0278 5.53056C26.4747 6.90478 27.9232 8.27746 29.3742 9.64781C29.7925 10.0433 30.0016 10.5122 30 11.0746C29.9951 12.9192 30.0033 14.7631 29.9959 16.6078C29.9918 17.7549 29.1707 18.5235 27.9559 18.5397C27.5681 18.5448 27.3045 18.7153 27.1651 19.0511C26.6479 20.2955 25.3865 21.0533 23.9322 20.9946C22.5875 20.9398 21.3939 20.0414 21.0025 18.7753C20.9527 18.6138 20.9012 18.5358 20.7019 18.5358C17.3073 18.542 13.9136 18.5405 10.519 18.5412C10.479 18.5412 10.4389 18.5482 10.3793 18.5536H10.3801ZM1.30014 12.3383H18.2419C18.2477 12.2472 18.2558 12.1715 18.2558 12.0965C18.2558 8.72703 18.2575 5.35753 18.2558 1.98802C18.2558 1.43571 18.0295 1.23178 17.4299 1.23178C12.3343 1.23178 7.2388 1.23178 2.14327 1.23178C1.51828 1.23178 1.30096 1.43957 1.30096 2.03514C1.30096 5.36602 1.30096 8.69691 1.30096 12.0278C1.30096 12.1236 1.30096 12.2186 1.30096 12.3391L1.30014 12.3383ZM1.30505 13.6021C1.30505 14.665 1.29688 15.7063 1.31076 16.7468C1.31485 17.0326 1.56485 17.2736 1.85896 17.2806C2.55993 17.2976 3.26172 17.286 3.96433 17.286C3.99211 17.2056 4.01498 17.1431 4.03541 17.079C4.46677 15.721 5.69715 14.8373 7.16282 14.8342C8.63013 14.8311 9.86704 15.7055 10.2968 17.0658C10.354 17.2474 10.4365 17.2999 10.6334 17.2991C13.0794 17.2922 15.5255 17.2952 17.9715 17.2937C18.0589 17.2937 18.1472 17.2813 18.2354 17.2752V13.6021H1.30505ZM28.6904 13.5866C28.54 13.5866 28.4191 13.5866 28.299 13.5866C26.3317 13.5866 24.3652 13.5897 22.3979 13.5851C21.4601 13.5828 20.8735 13.022 20.871 12.1359C20.8686 11.0452 20.8686 9.95371 20.871 8.86299C20.8735 7.97851 21.4617 7.42156 22.4004 7.41693C23.2256 7.41229 24.0515 7.41693 24.8767 7.41461C24.9478 7.41461 25.0188 7.39993 25.1324 7.38757C24.7435 7.01756 24.3987 6.6769 24.0376 6.35247C23.9478 6.27136 23.8072 6.19411 23.6896 6.19334C22.3277 6.18252 20.9658 6.18638 19.5965 6.18638V17.2945C19.9674 17.2945 20.3138 17.2821 20.6586 17.2991C20.871 17.3092 20.9486 17.2412 21.0091 17.0442C21.389 15.7982 22.5924 14.896 23.9184 14.8403C25.3759 14.7793 26.634 15.5278 27.161 16.7692C27.3178 17.1395 27.6084 17.3138 28.0327 17.2922C28.0629 17.2906 28.094 17.2891 28.1242 17.286C28.4101 17.252 28.6503 17.0596 28.6822 16.7893C28.71 16.5552 28.6879 16.3158 28.6879 16.0624C28.4649 16.0624 28.2729 16.067 28.0801 16.0616C27.6789 16.0493 27.4093 15.8052 27.4036 15.4568C27.3971 15.0891 27.6601 14.8458 28.0858 14.8334C28.2851 14.8272 28.4845 14.8326 28.6912 14.8326V13.5859L28.6904 13.5866ZM28.6985 12.3553C28.6985 11.9096 28.7263 11.5033 28.6871 11.1024C28.6667 10.8992 28.5735 10.6636 28.4289 10.5176C27.8448 9.9259 27.232 9.35891 26.6169 8.79424C26.5278 8.71236 26.3734 8.65442 26.2484 8.65365C25.0058 8.64361 23.7623 8.65365 22.5189 8.64283C22.2558 8.64052 22.161 8.71004 22.1643 8.96881C22.1774 9.98229 22.179 10.9958 22.1635 12.0092C22.1586 12.2966 22.2656 12.363 22.5524 12.3615C24.4886 12.3507 26.424 12.3561 28.3603 12.3561H28.6985V12.3553ZM7.17344 19.7702C8.25268 19.7695 9.13176 18.9306 9.12685 17.907C9.12277 16.8967 8.24941 16.0686 7.18325 16.0632C6.10156 16.0578 5.21677 16.8882 5.21432 17.9117C5.21186 18.936 6.09257 19.771 7.17263 19.7702H7.17344ZM26.0817 17.9248C26.0858 16.8936 25.2174 16.0647 24.1332 16.0639C23.0564 16.0632 22.1676 16.9067 22.1733 17.9233C22.179 18.9321 23.0532 19.7641 24.1161 19.7702C25.201 19.7772 26.0785 18.9537 26.0817 17.9248Z" fill="black"/>
</svg>
