<svg width="19" height="25" viewBox="0 0 19 25" fill="none" xmlns="http://www.w3.org/2000/svg">
<path d="M0 25V0H9.48435C11.4459 0 13.1362 0.328042 14.5552 0.984127C15.9742 1.61905 17.0697 2.53968 17.8418 3.74603C18.6139 4.95238 19 6.39153 19 8.06349C19 9.71429 18.6139 11.1429 17.8418 12.3492C17.0697 13.5556 15.9742 14.4868 14.5552 15.1429C13.1362 15.7778 11.4459 16.0952 9.48435 16.0952H2.81713L5.07084 13.7778V25H0ZM5.07084 14.3492L2.81713 11.9048H9.20263C10.7677 11.9048 11.9363 11.5661 12.7084 10.8889C13.4805 10.2116 13.8666 9.26984 13.8666 8.06349C13.8666 6.83598 13.4805 5.8836 12.7084 5.20635C11.9363 4.5291 10.7677 4.19048 9.20263 4.19048H2.81713L5.07084 1.74603V14.3492Z" fill="white"/>
</svg>
