<svg width="26" height="28" viewBox="0 0 26 28" fill="none" xmlns="http://www.w3.org/2000/svg">
<path d="M24.3928 4.77975C24.7035 4.45499 25.1409 4.10183 25.5874 3.67591L26 3.31447L24.8755 1.99531L24.5082 2.35438C22.9542 3.83031 22.0192 4.72237 21.5625 6.55086C21.1092 8.36871 21.0911 10.209 21.1387 11.9293C21.1885 13.7027 21.2524 14.8728 21.7267 16.1778L21.9055 16.6587C22.3605 17.8554 23.0492 19.6632 23.0492 21.9886C23.0492 24.7979 21.9604 26.223 19.8132 26.223C17.8596 26.223 16.8059 24.86 16.6825 22.1673C16.6265 20.9741 16.9468 19.5012 17.2835 17.9448C17.5682 16.6309 17.8613 15.2715 18.0057 13.8287C18.1653 12.2381 17.9655 11.1011 17.3809 10.4184C16.6304 9.54235 15.4754 9.46486 14.4578 9.46486H14.1483V1.26533C14.1483 0.555469 13.6553 0 12.9802 0H1.29881C0.624788 0 0 0.555469 0 1.26533V27.2115H14.1483V11.2395H14.4584C15.1545 11.2395 15.8755 11.3211 16.1205 11.6069C16.2518 11.7607 16.4533 12.2588 16.3203 13.6022C16.1862 14.9415 15.9021 16.2659 15.6282 17.5277C15.2654 19.2071 14.9213 20.8043 14.9892 22.2442C15.1562 25.8994 16.9157 28 19.8132 28C22.9015 28 24.7453 25.7533 24.7453 21.9851C24.7453 19.3178 23.9559 17.2396 23.4822 15.9944L23.3113 15.5407C22.9706 14.6007 22.8942 13.7294 22.8472 12.2091C23.3922 12.1961 24.0521 12.1825 24.3486 12.1825C25.0272 12.1825 25.3684 11.7666 25.5139 11.0461C25.5988 10.6261 25.4675 10.0753 25.4675 9.07561V8.8106C25.4669 6.16813 25.0804 5.41331 24.3928 4.77975ZM12.4505 10.0564H1.69779V2.36621H12.4505V10.0564ZM23.7691 9.07798C23.7691 9.59441 23.8993 10.0884 23.8829 10.4025C23.5444 10.4078 23.1551 10.4173 22.7589 10.4267C22.7736 9.28561 22.8947 8.1238 23.1737 7.00518C23.2496 6.70703 23.2269 6.44438 23.3413 6.19948C23.6429 6.50295 23.7691 6.95785 23.7691 8.81178V9.07798Z" fill="#50CE5A"/>
</svg>
