<svg width="29" height="30" viewBox="0 0 29 30" fill="none" xmlns="http://www.w3.org/2000/svg">
<g clip-path="url(#clip0_1902_6964)">
<path d="M21.9168 19.7226C23.8729 19.7226 25.4585 21.3082 25.4585 23.2643C25.4585 25.2203 23.8729 26.8059 21.9168 26.8059C19.9608 26.8059 18.3752 25.2203 18.3752 23.2643C18.3752 21.3082 19.9608 19.7226 21.9168 19.7226ZM18.9654 5.55594C21.8995 5.55594 24.2779 7.93442 24.2779 10.8684C24.2779 13.8025 21.8995 16.1809 18.9654 16.1809H10.7016C9.07155 16.1809 7.75016 17.5023 7.75016 19.1323C7.75016 20.7623 9.07155 22.0837 10.7016 22.0837H16.0141C16.6661 22.0837 17.1946 22.6122 17.1946 23.2643C17.1946 23.9163 16.6661 24.4448 16.0141 24.4448H10.7016C7.76754 24.4448 5.38905 22.0664 5.38905 19.1323C5.38905 16.1983 7.76754 13.8198 10.7016 13.8198H18.9654C20.5954 13.8198 21.9168 12.4984 21.9168 10.8684C21.9168 9.23843 20.5954 7.91705 18.9654 7.91705H13.6529C13.0009 7.91705 12.4724 7.38849 12.4724 6.73649C12.4724 6.08449 13.0009 5.55594 13.6529 5.55594H18.9654ZM7.75016 3.19482C9.70617 3.19482 11.2918 4.78049 11.2918 6.73649C11.2918 8.69249 9.70617 10.2782 7.75016 10.2782C5.79416 10.2782 4.2085 8.69249 4.2085 6.73649C4.2085 4.78049 5.79416 3.19482 7.75016 3.19482Z" fill="black"/>
</g>
<defs>
<clipPath id="clip0_1902_6964">
<rect width="28.3333" height="28.3333" fill="white" transform="translate(0.666748 0.833496)"/>
</clipPath>
</defs>
</svg>
