<svg width="13" height="13" viewBox="0 0 13 13" fill="none" xmlns="http://www.w3.org/2000/svg">
<rect width="13" height="13" rx="2" fill="#C7C7C7"/>
<circle cx="6.5" cy="6.5" r="4.15" fill="white" stroke="#EB3C3C" stroke-width="0.7"/>
<path d="M4.91919 8C4.78633 8 4.66344 7.96348 4.55052 7.89045C4.43925 7.81461 4.3421 7.70927 4.25907 7.57444C4.17769 7.43961 4.11376 7.2809 4.06726 7.09831C4.02242 6.91573 4 6.71629 4 6.5C4 6.28371 4.02242 6.08427 4.06726 5.90169C4.11376 5.7191 4.17852 5.56039 4.26156 5.42556C4.34459 5.29073 4.44174 5.1868 4.55301 5.11376C4.66593 5.03792 4.78882 5 4.92168 5C5.05453 5 5.17576 5.03511 5.28537 5.10534C5.39663 5.17556 5.49129 5.2823 5.56934 5.42556L5.45476 5.6236C5.38169 5.5 5.30114 5.41152 5.21313 5.35815C5.12511 5.30478 5.03045 5.27809 4.92915 5.27809C4.82121 5.27809 4.72157 5.30899 4.63023 5.37079C4.54055 5.42978 4.46167 5.51545 4.39358 5.62781C4.32715 5.73736 4.27484 5.86657 4.23665 6.01545C4.20011 6.16152 4.18184 6.32303 4.18184 6.5C4.18184 6.67416 4.20011 6.83567 4.23665 6.98455C4.27484 7.13343 4.32715 7.26405 4.39358 7.3764C4.46167 7.48596 4.54055 7.57163 4.63023 7.63343C4.72157 7.69242 4.82038 7.72191 4.92666 7.72191C5.0263 7.72191 5.12013 7.69663 5.20814 7.64607C5.29782 7.59551 5.38002 7.50983 5.45476 7.38905L5.55938 7.625C5.47634 7.7486 5.37919 7.8427 5.26793 7.9073C5.15666 7.9691 5.04042 8 4.91919 8ZM5.38252 7.58708V6.5H5.55938V7.625L5.38252 7.58708Z" fill="black"/>
<path d="M6.08109 7.97472V5.02528H6.73374C6.88154 5.02528 7.00858 5.06601 7.11486 5.14747C7.22115 5.22612 7.30252 5.34129 7.35898 5.49298C7.41711 5.64185 7.44617 5.82303 7.44617 6.03652C7.44617 6.24438 7.41711 6.42416 7.35898 6.57584C7.30252 6.72472 7.22115 6.83989 7.11486 6.92135C7.00858 7.00281 6.88154 7.04354 6.73374 7.04354H6.18322L6.26543 6.89607V7.97472H6.08109ZM6.26543 6.92135L6.18322 6.76966H6.72876C6.90313 6.76966 7.03515 6.70646 7.12483 6.58006C7.21616 6.45084 7.26183 6.26966 7.26183 6.03652C7.26183 5.80056 7.21616 5.61798 7.12483 5.48876C7.03515 5.35955 6.90313 5.29494 6.72876 5.29494H6.18322L6.26543 5.14747V6.92135Z" fill="black"/>
<path d="M8.34984 8C8.22031 8 8.09576 7.96489 7.97619 7.89466C7.85828 7.82163 7.76695 7.72893 7.70218 7.61657L7.77442 7.3764C7.83586 7.47753 7.91807 7.5632 8.02103 7.63343C8.12565 7.70084 8.23526 7.73455 8.34984 7.73455C8.45945 7.73455 8.5483 7.71208 8.61638 7.66714C8.68613 7.61938 8.73678 7.55618 8.76834 7.47753C8.80155 7.39888 8.81816 7.3118 8.81816 7.21629C8.81816 7.10112 8.79823 7.00843 8.75837 6.9382C8.72018 6.86798 8.66953 6.8132 8.60642 6.77388C8.54331 6.73174 8.47356 6.69522 8.39717 6.66433C8.32078 6.63343 8.24439 6.60112 8.168 6.56742C8.09161 6.5309 8.02103 6.48315 7.95626 6.42416C7.89316 6.36517 7.84168 6.28792 7.80182 6.19242C7.76362 6.0941 7.74453 5.96629 7.74453 5.80899C7.74453 5.66292 7.76695 5.52949 7.81178 5.40871C7.85828 5.28511 7.92886 5.1868 8.02352 5.11376C8.11818 5.03792 8.23941 5 8.38721 5C8.48519 5 8.58234 5.02388 8.67866 5.07163C8.77498 5.11657 8.85801 5.17978 8.92776 5.26124L8.86548 5.50983C8.79075 5.42556 8.71104 5.36376 8.62635 5.32444C8.54331 5.28511 8.46277 5.26545 8.38472 5.26545C8.2801 5.26545 8.19374 5.28933 8.12565 5.33708C8.05756 5.38483 8.00691 5.44944 7.9737 5.5309C7.94215 5.60955 7.92637 5.69944 7.92637 5.80056C7.92637 5.91573 7.94547 6.00843 7.98366 6.07865C8.02352 6.14888 8.075 6.20365 8.13811 6.24298C8.20287 6.2823 8.27345 6.31742 8.34984 6.34831C8.42624 6.37921 8.5018 6.41292 8.57653 6.44944C8.65292 6.48596 8.72267 6.53371 8.78577 6.5927C8.85054 6.64888 8.90202 6.72472 8.94022 6.82022C8.98007 6.91573 9 7.04073 9 7.19523C9 7.33848 8.97675 7.47191 8.93025 7.59551C8.88375 7.71629 8.81234 7.81461 8.71602 7.89045C8.62137 7.96348 8.49931 8 8.34984 8Z" fill="black"/>
<line x1="2.85129" y1="7.96881" x2="9.85128" y2="4.68317" stroke="#EB3C3C" stroke-width="0.7"/>
</svg>
