<svg width="25" height="25" viewBox="0 0 25 25" fill="none" xmlns="http://www.w3.org/2000/svg">
<rect width="25" height="25" rx="2" fill="#2A89E4"/>
<path d="M7 20V5H12.4909C13.6266 5 14.6052 5.19683 15.4267 5.59048C16.2482 5.97143 16.8825 6.52381 17.3295 7.24762C17.7765 7.97143 18 8.83492 18 9.8381C18 10.8286 17.7765 11.6857 17.3295 12.4095C16.8825 13.1333 16.2482 13.6921 15.4267 14.0857C14.6052 14.4667 13.6266 14.6571 12.4909 14.6571H8.63097L9.93575 13.2667V20H7ZM9.93575 13.6095L8.63097 12.1429H12.3278C13.2339 12.1429 13.9105 11.9397 14.3575 11.5333C14.8045 11.127 15.028 10.5619 15.028 9.8381C15.028 9.10159 14.8045 8.53016 14.3575 8.12381C13.9105 7.71746 13.2339 7.51429 12.3278 7.51429H8.63097L9.93575 6.04762V13.6095Z" fill="white"/>
</svg>
