<svg width="13" height="13" viewBox="0 0 13 13" fill="none" xmlns="http://www.w3.org/2000/svg">
<rect width="13" height="13" rx="2" fill="#EBAF3C"/>
<path d="M9.55319 5.37994L4.2904 3.12446C4.15923 3.06824 4.09365 3.04013 4.04682 3.07101C4 3.10189 4 3.17324 4 3.31595V8.14286L9.55319 5.76292C9.74422 5.68105 9.83973 5.64012 9.83973 5.57143C9.83973 5.50274 9.74422 5.46181 9.55319 5.37994Z" fill="white"/>
<path d="M4 8.14286V3.31595C4 3.17324 4 3.10189 4.04682 3.07101C4.09365 3.04013 4.15923 3.06824 4.2904 3.12446L9.55319 5.37994C9.74422 5.46181 9.83973 5.50274 9.83973 5.57143C9.83973 5.64012 9.74422 5.68105 9.55319 5.76292L4 8.14286ZM4 8.14286V10" stroke="white" stroke-width="1.5" stroke-linecap="round"/>
</svg>
