<svg width="18" height="21" viewBox="0 0 18 21" fill="none" xmlns="http://www.w3.org/2000/svg">
<rect y="0.96875" width="15" height="15" rx="2" fill="#2A89E4"/>
<rect x="1" y="1.96875" width="13" height="13" rx="1" stroke="#2A89E4" stroke-width="2"/>
<path d="M4.82996 11.9688V4.96875H7.85996C8.48662 4.96875 9.02662 5.07208 9.47996 5.27875C9.93329 5.47875 10.2833 5.76875 10.53 6.14875C10.7766 6.52875 10.9 6.98208 10.9 7.50875C10.9 8.02875 10.7766 8.47875 10.53 8.85875C10.2833 9.23875 9.93329 9.53208 9.47996 9.73875C9.02662 9.93875 8.48662 10.0388 7.85996 10.0388H5.72996L6.44996 9.30875V11.9688H4.82996ZM6.44996 9.48875L5.72996 8.71875H7.76996C8.26996 8.71875 8.64329 8.61208 8.88996 8.39875C9.13662 8.18542 9.25996 7.88875 9.25996 7.50875C9.25996 7.12208 9.13662 6.82208 8.88996 6.60875C8.64329 6.39542 8.26996 6.28875 7.76996 6.28875H5.72996L6.44996 5.51875V9.48875Z" fill="white"/>
<circle cx="13" cy="15.9688" r="5" fill="white"/>
<g clip-path="url(#clip0_774_6767)">
<path d="M17 17.102C16.9881 17.1372 16.9775 17.1727 16.9643 17.2075C16.875 17.4448 16.6412 17.599 16.3431 17.6119C16.2368 17.6165 16.1291 17.6175 16.0233 17.608C15.8164 17.5894 15.6752 17.447 15.6685 17.2611C15.667 17.2224 15.6685 17.1835 15.6685 17.1403H15.401C15.401 17.1695 15.4012 17.1965 15.401 17.2235C15.3993 17.3675 15.4068 17.5123 15.3933 17.6556C15.3762 17.8365 15.2116 17.9675 15.0095 17.9679C14.0618 17.9695 13.1143 17.9688 12.1666 17.9684C12.0537 17.9684 11.9612 17.9254 11.8825 17.8549C11.6839 17.677 11.4837 17.5008 11.2868 17.3216C11.2358 17.2751 11.1814 17.2529 11.1077 17.2546C10.9437 17.2581 10.7798 17.2565 10.6156 17.2555C10.3716 17.254 10.2033 17.1048 10.2014 16.8876C10.1998 16.7015 10.2006 16.5156 10.2 16.3295C10.2 16.3251 10.1977 16.3208 10.1948 16.3104H9.79871C9.79871 16.3632 9.79871 16.4179 9.79871 16.4726C9.79871 16.5726 9.79976 16.6727 9.7983 16.7726C9.7958 16.955 9.66017 17.1031 9.47267 17.1301C9.26476 17.1601 9.08621 17.0625 9.01621 16.8811C9.01226 16.8707 9.00538 16.861 8.99976 16.851C8.99976 16.1671 8.99976 15.4832 8.99976 14.7993C9.05455 14.6706 9.13746 14.5673 9.29684 14.529C9.5408 14.4703 9.78892 14.6291 9.79684 14.8546C9.80184 14.9918 9.7983 15.1289 9.79851 15.2662C9.79851 15.2912 9.79851 15.3161 9.79851 15.345H10.2008C10.2008 15.1989 10.2089 15.0573 10.1989 14.9164C10.1831 14.6897 10.3727 14.4997 10.6504 14.5167C10.7591 14.5234 10.8689 14.5191 10.9783 14.5172C11.076 14.5157 11.1204 14.4785 11.1335 14.3929C11.1702 14.1514 11.31 14.0414 11.5818 14.041C11.7843 14.0407 11.987 14.041 12.1952 14.041V13.6828C12.1654 13.6828 12.1375 13.6828 12.1098 13.6828C11.9118 13.6828 11.7139 13.6858 11.5162 13.6815C11.2991 13.6767 11.1314 13.5144 11.1345 13.3203C11.1381 13.1279 11.3052 12.9708 11.5204 12.9703C12.4185 12.9682 13.3168 12.9682 14.215 12.9703C14.4298 12.9708 14.5962 13.1296 14.5979 13.3218C14.5995 13.5166 14.4325 13.6765 14.2143 13.6811C14.0191 13.6852 13.8239 13.6823 13.6285 13.6824C13.6002 13.6824 13.5718 13.6824 13.5379 13.6824V14.0407C13.5664 14.0407 13.5941 14.0407 13.6218 14.0407C13.7754 14.041 13.9291 14.0377 14.0827 14.0425C14.297 14.0492 14.4579 14.1957 14.4662 14.3877C14.4695 14.4644 14.4662 14.5412 14.4675 14.6179C14.4689 14.7098 14.5177 14.7538 14.622 14.7551C14.7391 14.7565 14.8564 14.7551 14.9735 14.7556C15.2325 14.7567 15.3975 14.9023 15.4002 15.1345C15.4023 15.2973 15.4006 15.4601 15.4006 15.6228C15.4006 15.6479 15.4006 15.6732 15.4006 15.7024H15.6677C15.6677 15.6674 15.667 15.6315 15.6677 15.5956C15.6723 15.3809 15.8383 15.2326 16.0779 15.2318C16.195 15.2314 16.3141 15.2233 16.4285 15.2398C16.7225 15.2822 16.9058 15.4406 16.9833 15.697C16.9873 15.7099 16.9939 15.722 16.9993 15.7344V17.1022L17 17.102ZM13.5845 17.7312C14.035 17.7312 14.4854 17.7312 14.9358 17.7312C15.0981 17.7312 15.1337 17.6999 15.1339 17.5559C15.1339 17.0745 15.1339 16.593 15.1339 16.1118C15.1339 15.7886 15.1345 15.4654 15.1335 15.1421C15.1331 15.0342 15.0873 14.9944 14.9685 14.9938C14.8435 14.9932 14.7185 14.996 14.5937 14.9927C14.3727 14.9867 14.2068 14.836 14.202 14.6397C14.2004 14.5723 14.2018 14.5048 14.2014 14.4374C14.2008 14.3181 14.1579 14.2796 14.0229 14.2796C13.2081 14.2794 12.3931 14.2794 11.5783 14.2796C11.4464 14.2796 11.4154 14.3051 11.3987 14.4231C11.37 14.6267 11.2123 14.7532 10.9827 14.7554C10.8656 14.7565 10.7483 14.7552 10.6312 14.7558C10.5118 14.7564 10.4681 14.796 10.4681 14.9045C10.4679 15.558 10.4679 16.2114 10.4681 16.8649C10.4681 16.9764 10.5133 17.0175 10.636 17.0179C10.7948 17.0184 10.9537 17.0214 11.1125 17.017C11.2579 17.013 11.3733 17.0592 11.4739 17.1517C11.6643 17.3268 11.8608 17.4969 12.0525 17.6709C12.0998 17.7139 12.1506 17.7325 12.2183 17.7321C12.6739 17.7304 13.1295 17.7312 13.5852 17.7312H13.5845ZM16.7339 16.4207C16.7339 16.2278 16.7339 16.0346 16.7339 15.8416C16.7339 15.837 16.7339 15.8323 16.7339 15.8277C16.7283 15.6239 16.5585 15.4728 16.3306 15.4694C16.2473 15.4683 16.1639 15.468 16.0806 15.4694C15.9858 15.4711 15.9356 15.5145 15.9356 15.5993C15.9348 16.1483 15.9348 16.6971 15.9356 17.246C15.9356 17.3279 15.9827 17.3702 16.0752 17.3739C16.1558 17.377 16.2366 17.3763 16.3173 17.3746C16.5714 17.369 16.7329 17.2209 16.7337 16.9928C16.7343 16.802 16.7339 16.6115 16.7339 16.4207ZM12.865 13.207C12.441 13.207 12.017 13.207 11.5929 13.207C11.5668 13.207 11.5404 13.2051 11.515 13.2089C11.4518 13.2182 11.4114 13.2511 11.4037 13.3093C11.3958 13.3698 11.4235 13.4148 11.4885 13.4349C11.517 13.4437 11.5495 13.4444 11.5804 13.4444C12.4387 13.445 13.2973 13.4448 14.1556 13.4448C14.1764 13.4448 14.1975 13.4457 14.2179 13.4428C14.2966 13.4309 14.3437 13.3689 14.3283 13.2997C14.315 13.2396 14.2635 13.2074 14.176 13.2072C13.7389 13.2068 13.302 13.2072 12.865 13.207ZM9.53246 15.8245C9.53246 15.5245 9.53246 15.2247 9.53246 14.9248C9.53246 14.9039 9.53371 14.8827 9.53101 14.8621C9.52351 14.8012 9.47392 14.7593 9.40788 14.7562C9.34205 14.753 9.28496 14.7899 9.27059 14.8481C9.26559 14.8682 9.26642 14.8896 9.26642 14.9104C9.26642 15.5217 9.26621 16.1332 9.26642 16.7445C9.26642 16.7676 9.26642 16.7918 9.27434 16.8132C9.29538 16.8711 9.34288 16.8997 9.41121 16.8949C9.48017 16.8899 9.51934 16.8534 9.53038 16.7936C9.53413 16.7732 9.53226 16.752 9.53226 16.7309C9.53226 16.4287 9.53246 16.1267 9.53246 15.8245ZM12.4708 13.6852V14.0349H13.26V13.6852H12.4708ZM15.6608 16.8932V15.9492H15.4064V16.8932H15.6608ZM10.1966 15.5932H9.80476V16.0599H10.1966V15.5932Z" fill="#F04747"/>
</g>
<defs>
<clipPath id="clip0_774_6767">
<rect width="8" height="5" fill="white" transform="translate(9 12.9688)"/>
</clipPath>
</defs>
</svg>
