<svg width="21" height="21" viewBox="0 0 21 21" fill="none" xmlns="http://www.w3.org/2000/svg">
<path d="M5 5L9 5" stroke="#797979" stroke-width="2" stroke-linecap="round"/>
<path d="M5 13L8 13" stroke="#797979" stroke-width="2" stroke-linecap="round"/>
<path d="M5 9L11 9" stroke="#797979" stroke-width="2" stroke-linecap="round"/>
<path d="M15 9V7C15 4.17157 15 2.75736 14.1213 1.87868C13.2426 1 11.8284 1 9 1H7C4.17157 1 2.75736 1 1.87868 1.87868C1 2.75736 1 4.17157 1 7V13C1 15.8284 1 17.2426 1.87868 18.1213C2.75736 19 4.17157 19 7 19H8" stroke="#797979" stroke-width="2"/>
<path d="M16.5 16.0001V11.0001H12.82C11 10.9998 10.5 11.0003 10 11.0002L10 17.0001H15.5C16.05 17.0001 16.5 16.5501 16.5 16.0001Z" stroke="#797979" stroke-linecap="round" stroke-linejoin="round"/>
<path d="M20 17V18.5C20 19.33 19.33 20 18.5 20H18C18 19.45 17.55 19 17 19C16.45 19 16 19.45 16 20H14C14 19.45 13.55 19 13 19C12.45 19 12 19.45 12 20H11.5C10.67 20 10 19.33 10 18.5V17H15.5C16.05 17 16.5 16.55 16.5 16V12.5H17.42C17.78 12.5 18.11 12.695 18.29 13.005L19.145 14.5H18.5C18.225 14.5 18 14.725 18 15V16.5C18 16.775 18.225 17 18.5 17H20Z" stroke="#797979" stroke-linecap="round" stroke-linejoin="round"/>
<path d="M20 16V17H18.5C18.225 17 18 16.775 18 16.5V15C18 14.725 18.225 14.5 18.5 14.5H19.145L20 16Z" stroke="#797979" stroke-linecap="round" stroke-linejoin="round"/>
</svg>
