<svg width="28" height="25" viewBox="0 0 28 25" fill="none" xmlns="http://www.w3.org/2000/svg">
<path fill-rule="evenodd" clip-rule="evenodd" d="M26 1.66667C26 0.930287 25.403 0.333333 24.6667 0.333333C23.9303 0.333333 23.3333 0.930287 23.3333 1.66667V15C23.3333 15.7364 23.9303 16.3333 24.6667 16.3333C25.403 16.3333 26 15.7364 26 15V1.66667ZM14 5.66667C14.7364 5.66667 15.3333 6.26362 15.3333 7V11C15.3333 11.7364 14.7364 12.3333 14 12.3333C13.2636 12.3333 12.6667 11.7364 12.6667 11V7C12.6667 6.26362 13.2636 5.66667 14 5.66667ZM4.66667 13.6667C4.66667 12.9303 4.06971 12.3333 3.33333 12.3333C2.59695 12.3333 2 12.9303 2 13.6667V16.3333C2 17.0697 2.59695 17.6667 3.33333 17.6667C4.06971 17.6667 4.66667 17.0697 4.66667 16.3333V13.6667ZM2 21.6667C1.26362 21.6667 0.666667 22.2636 0.666667 23C0.666667 23.7364 1.26362 24.3333 2 24.3333H26C26.7364 24.3333 27.3333 23.7364 27.3333 23C27.3333 22.2636 26.7364 21.6667 26 21.6667H2ZM10 8.33333C10 7.59695 9.40305 7 8.66667 7C7.93029 7 7.33333 7.59695 7.33333 8.33333V16.3333C7.33333 17.0697 7.93029 17.6667 8.66667 17.6667C9.40305 17.6667 10 17.0697 10 16.3333V8.33333ZM19.3333 8.33333C20.0697 8.33333 20.6667 8.93029 20.6667 9.66667V12.3333C20.6667 13.0697 20.0697 13.6667 19.3333 13.6667C18.597 13.6667 18 13.0697 18 12.3333V9.66667C18 8.93029 18.597 8.33333 19.3333 8.33333Z" fill="#253039"/>
</svg>
