<svg width="16" height="16" viewBox="0 0 16 16" fill="none" xmlns="http://www.w3.org/2000/svg">
<circle cx="8" cy="8" r="7" stroke="#CDD1D5" stroke-width="2"/>
<path fill-rule="evenodd" clip-rule="evenodd" d="M8.91123 5.16007C8.8885 5.24488 8.8885 5.34825 8.8885 5.55499V10.4437C8.8885 10.6504 8.8885 10.7538 8.91123 10.8386C8.97289 11.0686 9.15254 11.2483 9.38255 11.3099C9.46736 11.3327 9.57073 11.3327 9.77747 11.3327C9.98421 11.3327 10.0876 11.3327 10.1724 11.3099C10.4024 11.2483 10.5821 11.0686 10.6437 10.8386C10.6664 10.7538 10.6664 10.6504 10.6664 10.4437V5.55499C10.6664 5.34825 10.6664 5.24488 10.6437 5.16007C10.5821 4.93006 10.4024 4.7504 10.1724 4.68875C10.0876 4.66602 9.98421 4.66602 9.77747 4.66602C9.57073 4.66602 9.46736 4.66602 9.38255 4.68875C9.15254 4.7504 8.97289 4.93006 8.91123 5.16007ZM5.35607 5.16009C5.33333 5.2449 5.33333 5.34827 5.33333 5.55501V10.4437C5.33333 10.6505 5.33333 10.7538 5.35607 10.8386C5.41772 11.0687 5.59738 11.2483 5.82739 11.31C5.9122 11.3327 6.01557 11.3327 6.22231 11.3327C6.42905 11.3327 6.53242 11.3327 6.61723 11.31C6.84724 11.2483 7.02689 11.0687 7.08855 10.8386C7.11128 10.7538 7.11128 10.6505 7.11128 10.4437V5.55501C7.11128 5.34827 7.11128 5.2449 7.08855 5.16009C7.02689 4.93008 6.84724 4.75043 6.61723 4.68877C6.53242 4.66604 6.42905 4.66604 6.22231 4.66604C6.01557 4.66604 5.9122 4.66604 5.82739 4.68877C5.59738 4.75043 5.41772 4.93008 5.35607 5.16009Z" fill="#CDD1D5"/>
</svg>
