<svg width="16" height="16" viewBox="0 0 16 16" fill="none" xmlns="http://www.w3.org/2000/svg">
<circle cx="8" cy="8" r="7" stroke="#F04747" stroke-width="2"/>
<path fill-rule="evenodd" clip-rule="evenodd" d="M4.40338 8.66092C4.94122 9.21245 5.81324 9.21245 6.35108 8.66092C6.51382 8.49404 6.62732 8.29579 6.69157 8.08515L9.14646 8.08515V8.9521V9.41666H10.0525V9.08378H10.4449V9.28498V9.74954H11.351V9.28498L11.351 8.08515H11.5472C11.7974 8.08515 12.0002 7.87716 12.0002 7.62059C12.0002 7.36402 11.7974 7.15603 11.5472 7.15603L10.898 7.15603H10.2487L9.59948 7.15603L6.67794 7.15603C6.67307 7.15603 6.66822 7.1561 6.66339 7.15626C6.59632 6.97672 6.49222 6.80838 6.35108 6.66365C5.81324 6.11212 4.94122 6.11212 4.40338 6.66365C3.86554 7.21518 3.86554 8.10939 4.40338 8.66092Z" fill="#F04747"/>
</svg>
