<svg width="24" height="20" viewBox="0 0 24 20" fill="none" xmlns="http://www.w3.org/2000/svg">
<path fill-rule="evenodd" clip-rule="evenodd" d="M2.48278 0H1.65515L-3.8147e-06 4.8L0.827574 13.6H2.48278L3.72412 2.8L2.48278 0Z" fill="black"/>
<path fill-rule="evenodd" clip-rule="evenodd" d="M2.89655 15.2001H0.413819V13.6001H2.89655V15.2001Z" fill="black"/>
<path fill-rule="evenodd" clip-rule="evenodd" d="M2.60689 20.0001H4.9655L2.48277 15.2001H0.827563L0.248282 16.8401C0.0827661 17.3201 0.0827661 17.8801 0.248282 18.3601C0.579313 19.3201 1.53102 20.0001 2.60689 20.0001Z" fill="black"/>
<path fill-rule="evenodd" clip-rule="evenodd" d="M3.3517 2H12L17.3793 7.20002H13.9448L11.1724 4.39998L3.6 4.04001L3.72412 2.79999L3.3517 2Z" fill="black"/>
<path fill-rule="evenodd" clip-rule="evenodd" d="M21.7241 20H8.89655C7.65516 20 6.62067 19 6.62067 17.8C6.62067 16.6 7.65516 15.6 8.89655 15.6H21.7241C22.9655 15.6 24 16.6 24 17.8C24 19 22.9655 20 21.7241 20ZM9.51723 16.8C9.97243 16.9199 10.3449 17.3199 10.3449 17.8C10.3449 18.28 9.97243 18.6799 9.51723 18.8H21.1035C20.6483 18.6799 20.2759 18.3199 20.2759 17.8C20.2759 17.28 20.6483 16.8799 21.1035 16.8H9.51723Z" fill="black"/>
<mask id="mask0" mask-type="alpha" maskUnits="userSpaceOnUse" x="11" y="7" width="13" height="9">
<path fill-rule="evenodd" clip-rule="evenodd" d="M23.9972 7.19995H11.5862V15.5999H23.9972V7.19995Z" fill="white"/>
</mask>
<g mask="url(#mask0)">
<path fill-rule="evenodd" clip-rule="evenodd" d="M17.3794 15.5999H13.2415V14.3999H17.3794V15.5999Z" fill="black"/>
<path fill-rule="evenodd" clip-rule="evenodd" d="M22.7172 11.2C23.4207 11.2 24 11.76 24 12.44V12.8H21.931C21.2276 12.8 20.6896 12.24 20.6896 11.6V11.2H22.7172Z" fill="black"/>
</g>
<path fill-rule="evenodd" clip-rule="evenodd" d="M18.207 11.1999V7.99994C18.207 7.55991 17.8346 7.19995 17.3794 7.19995H14.1518C13.076 7.19995 12.1242 7.79993 11.7518 8.75993C11.6277 9.03991 11.5863 9.35995 11.5863 9.67995V14.3999H24.0001V12.4399C24.0001 11.7599 23.4208 11.1999 22.7173 11.1999H18.207ZM16.6286 7.63489H14.7251C14.1872 7.63489 13.4409 7.72686 12.9857 7.96684C12.2823 8.48684 12.0768 9.27488 12.0768 10.0749V13.1949L15.5113 11.9949C16.1734 11.7549 16.6286 11.1549 16.6286 10.4749V7.63489Z" fill="black"/>
</svg>
