<svg width="32" height="18" viewBox="0 0 32 18" fill="none" xmlns="http://www.w3.org/2000/svg">
<path fill-rule="evenodd" clip-rule="evenodd" d="M5.43163 8.50425C5.43163 9.06605 5.03809 9.53419 4.51438 9.64243C4.43958 9.65789 4.36213 9.66601 4.28279 9.66601L4.28274 9.66601H0.823696V13.4228H3.99762C4.04154 13.3179 4.09041 13.2145 4.14387 13.1142C4.79322 11.8839 6.05384 11.1193 7.43273 11.1193C8.81152 11.1193 10.0715 11.8839 10.7209 13.1142C10.7743 13.2145 10.8225 13.3179 10.8664 13.4228H22.7506C22.7945 13.3179 22.8426 13.2145 22.8961 13.1142C23.5455 11.8839 24.8062 11.1193 26.185 11.1193C27.5638 11.1193 28.8237 11.8839 29.4731 13.1142C29.5266 13.2145 29.5747 13.3179 29.6186 13.4228H31.1817V2.14178C31.1817 0.95873 30.2329 0 29.0629 0H2.94183C1.77184 0 0.823696 0.95873 0.823696 2.14178L0.823744 2.14178H4.28279C4.58122 2.14178 4.85275 2.25653 5.05661 2.44503C5.11779 2.50148 5.17291 2.56452 5.22089 2.63305C5.3543 2.82285 5.43163 3.05391 5.43163 3.3039V8.50425ZM22.0998 9.66601V2.14178H27.7251C28.2022 2.14178 28.6114 2.43618 28.7855 2.85452C28.8424 2.99285 28.874 3.14428 28.874 3.3039V8.50425C28.874 9.14628 28.36 9.66601 27.7251 9.66601H22.0998ZM21.0199 9.66601H14.7557V2.14178H21.0199V9.66601ZM7.16001 8.50425V3.3039C7.16001 2.6626 7.67463 2.14178 8.30885 2.14178H13.6758V9.66601H8.30885C7.70063 9.66601 7.20213 9.18787 7.1628 8.58215C7.16064 8.55649 7.16001 8.53018 7.16001 8.50425Z" fill="black"/>
<mask id="mask0" mask-type="alpha" maskUnits="userSpaceOnUse" x="0" y="13" width="32" height="3">
<path fill-rule="evenodd" clip-rule="evenodd" d="M32 13.4228H0V15.0893H32V13.4228Z" fill="white"/>
</mask>
<g mask="url(#mask0)">
<path fill-rule="evenodd" clip-rule="evenodd" d="M-4.50611e-05 14.2556V14.2564C-4.50611e-05 14.7164 0.368684 15.0893 0.823632 15.0893H3.71172C3.70821 15.0221 3.70578 14.9545 3.70578 14.887C3.70578 14.3822 3.80667 13.8828 3.99756 13.4228H0.823632C0.368684 13.4228 -4.50611e-05 13.7957 -4.50611e-05 14.2556Z" fill="black"/>
<path fill-rule="evenodd" clip-rule="evenodd" d="M29.9108 14.887C29.9108 14.9545 29.9086 15.0228 29.9051 15.0893H31.1817C31.6366 15.0893 32.0054 14.7164 32.0054 14.2564V14.2556C32.0054 13.7957 31.6366 13.4228 31.1817 13.4228H29.6186C29.8109 13.8841 29.9108 14.3844 29.9108 14.887Z" fill="black"/>
</g>
<path fill-rule="evenodd" clip-rule="evenodd" d="M11.1586 14.887C11.1586 14.9545 11.1565 15.0228 11.153 15.0893H22.4641C22.4606 15.0221 22.4585 14.9545 22.4585 14.887C22.4585 14.3822 22.559 13.8828 22.7506 13.4228H10.8664C11.0588 13.8841 11.1586 14.3844 11.1586 14.887Z" fill="black"/>
<path fill-rule="evenodd" clip-rule="evenodd" d="M7.4319 13.6098C6.73548 13.6098 6.16984 14.1828 6.16984 14.887C6.16984 15.5908 6.73548 16.1639 7.4319 16.1639C8.12868 16.1639 8.69469 15.5908 8.69469 14.887C8.69469 14.1828 8.12868 13.6098 7.4319 13.6098Z" fill="white"/>
<path fill-rule="evenodd" clip-rule="evenodd" d="M26.1849 13.6098C25.4889 13.6098 24.9221 14.1828 24.9221 14.887C24.9221 15.5908 25.4889 16.1639 26.1849 16.1639C26.881 16.1639 27.4477 15.5908 27.4477 14.887C27.4477 14.1828 26.881 13.6098 26.1849 13.6098Z" fill="white"/>
<path fill-rule="evenodd" clip-rule="evenodd" d="M4.35411 14.887C4.35411 14.9545 4.35618 15.0221 4.36041 15.0886C4.46346 16.7142 5.79897 18 7.43201 18C9.06568 18 10.4013 16.7142 10.5043 15.0886C10.5086 15.0221 10.5106 14.9545 10.5106 14.887C10.5106 14.3577 10.3802 13.8589 10.1492 13.4228C9.63133 12.442 8.60903 11.7744 7.43201 11.7744C6.24833 11.7744 5.22072 12.4502 4.70601 13.4402C4.48137 13.8721 4.35411 14.3641 4.35411 14.887ZM6.16994 14.887C6.16994 14.1828 6.73559 13.6098 7.43201 13.6098C8.12878 13.6098 8.69479 14.1828 8.69479 14.887C8.69479 15.5908 8.12878 16.1639 7.43201 16.1639C6.73559 16.1639 6.16994 15.5908 6.16994 14.887Z" fill="black"/>
<path fill-rule="evenodd" clip-rule="evenodd" d="M23.4678 13.4228C23.2365 13.8589 23.1064 14.3577 23.1064 14.887C23.1064 14.9545 23.1086 15.0221 23.1127 15.0893C23.2158 16.7142 24.5513 18 26.185 18C27.8181 18 29.1536 16.7142 29.2566 15.0893C29.2608 15.0221 29.2629 14.9545 29.2629 14.887C29.2629 14.3577 29.1318 13.8589 28.9016 13.4228C28.3841 12.442 27.3613 11.7744 26.185 11.7744C25.0076 11.7744 23.9853 12.442 23.4678 13.4228ZM24.9221 14.887C24.9221 14.1828 25.4889 13.6098 26.1849 13.6098C26.881 13.6098 27.4477 14.1828 27.4477 14.887C27.4477 15.5908 26.881 16.1639 26.1849 16.1639C25.4889 16.1639 24.9221 15.5908 24.9221 14.887Z" fill="black"/>
<path fill-rule="evenodd" clip-rule="evenodd" d="M0.824067 12.1054H0.896157C1.65161 12.1054 2.26406 11.4861 2.26406 10.7221H0.824067V12.1054Z" fill="white"/>
</svg>
