<svg width="32" height="15" viewBox="0 0 32 15" fill="none" xmlns="http://www.w3.org/2000/svg">
<mask id="mask0" mask-type="alpha" maskUnits="userSpaceOnUse" x="0" y="0" width="32" height="14">
<path fill-rule="evenodd" clip-rule="evenodd" d="M0 0H32V13.3932H0V0Z" fill="white"/>
</mask>
<g mask="url(#mask0)">
<path fill-rule="evenodd" clip-rule="evenodd" d="M31.5176 6.86901C31.4722 6.31856 31.4223 5.69402 31.3251 5.15591C31.2554 4.78028 31.1051 4.27987 30.598 4.27987C30.5455 4.27987 30.4956 4.28507 30.4458 4.29027C30.4132 4.29287 30.3805 4.29742 30.3307 4.29742C30.3307 4.29742 30.3134 4.28247 30.291 4.21878C30.1433 3.78466 29.5166 3.24395 28.7121 2.58432C28.5145 2.42185 28.2772 2.22623 28.1774 2.12485C28.2152 1.86295 28.2075 1.54581 28.0304 1.32484C27.9479 1.22086 27.7905 1.09868 27.5232 1.09868C27.4829 1.09868 27.4407 1.10128 27.348 1.10908C27.1536 1.10908 26.7635 1.02785 26.2263 0.916067C24.8399 0.626868 22.2569 0.0861645 18.3853 0.00232934C12.7468 -0.11205 8.31501 4.02317 8.13276 4.19863L8.00294 4.32081C7.77079 4.43454 7.03856 4.70619 4.80285 5.15331C1.63281 5.7876 1.02848 6.81312 0.915928 7.21215C0.661404 7.40257 0.251481 7.86203 0.186891 8.40014C0.134451 8.82906 0.0167819 9.00453 0.0167819 9.00453L-0.0382156 9.07537V12.109L-0.0330996 12.1623C0.138928 12.9695 0.960693 13.3932 2.34267 13.3932C2.78201 13.3932 3.11455 13.3477 3.10176 13.3477C3.11967 13.3477 3.29169 13.3451 3.58651 13.338C3.55645 13.2541 3.52895 13.1677 3.50401 13.0813C3.48163 12.9948 3.4618 12.911 3.4439 12.8226C3.4068 12.6166 3.38442 12.406 3.38442 12.1877C3.38442 10.3244 4.87575 8.80892 6.70921 8.80892C8.54268 8.80892 10.034 10.3244 10.034 12.1877C10.034 12.3579 10.0193 12.5204 9.99436 12.6829C9.98157 12.7693 9.96686 12.8577 9.94639 12.9415C9.92913 13.0306 9.90675 13.1196 9.87925 13.2028C14.0335 13.1144 19.3171 12.9948 23.4086 12.8882C23.3914 12.8044 23.3786 12.718 23.369 12.6296C23.3562 12.5458 23.3511 12.4593 23.346 12.3703C23.3434 12.3092 23.3364 12.2514 23.3364 12.1877C23.3364 10.3244 24.8277 8.80892 26.6612 8.80892C28.4697 8.80892 29.9412 10.2835 29.9834 12.1116C29.9834 12.137 29.9885 12.1623 29.9885 12.1877C29.9885 12.254 29.9808 12.317 29.9789 12.3833C29.9738 12.4743 29.9636 12.5659 29.9514 12.6575C30.7329 12.5276 31.32 12.109 31.6596 11.4312C32.2421 10.2738 31.9448 8.70753 31.7376 8.37479C31.625 8.19412 31.5675 7.49095 31.5176 6.86901Z" fill="black"/>
</g>
<path fill-rule="evenodd" clip-rule="evenodd" d="M4.17947 13.2817C4.61113 14.2923 5.60301 15 6.75987 15C7.95639 15 8.97576 14.241 9.38249 13.1699C9.4151 13.0835 9.4426 12.9971 9.46754 12.9087C9.49248 12.8223 9.51039 12.7358 9.52766 12.6468C9.55516 12.4817 9.57242 12.3147 9.57242 12.1418C9.57242 10.5626 8.31323 9.28363 6.75987 9.28363C5.20587 9.28363 3.94669 10.5626 3.94669 12.1418C3.94669 12.355 3.97163 12.5655 4.01447 12.7664C4.0343 12.8528 4.05668 12.9392 4.08418 13.0224C4.11168 13.1115 4.14174 13.1979 4.17947 13.2817Z" fill="black"/>
<path fill-rule="evenodd" clip-rule="evenodd" d="M23.9777 12.8301C24.2802 14.0765 25.3872 15 26.7058 15C28.0846 15 29.2313 13.9901 29.4711 12.6598C29.4864 12.5733 29.4986 12.4843 29.5062 12.3959C29.5139 12.3121 29.5209 12.2283 29.5209 12.1418C29.5209 12.1392 29.5184 12.1366 29.5184 12.1366C29.5165 10.56 28.2573 9.28363 26.7058 9.28363C25.1518 9.28363 23.8933 10.5626 23.8933 12.1418C23.8933 12.2003 23.8978 12.2562 23.9003 12.3121C23.9054 12.4005 23.9157 12.4869 23.9278 12.5707C23.9406 12.6598 23.9579 12.7462 23.9777 12.8301Z" fill="black"/>
<path fill-rule="evenodd" clip-rule="evenodd" d="M27.9115 12.1487C27.9115 11.4516 27.3459 10.8842 26.6494 10.8842C25.9527 10.8842 25.3867 11.4516 25.3867 12.1487C25.3867 12.8455 25.9527 13.4129 26.6494 13.4129C27.3459 13.4129 27.9115 12.8455 27.9115 12.1487Z" fill="white"/>
<path fill-rule="evenodd" clip-rule="evenodd" d="M7.96488 12.1487C7.96488 11.4516 7.39923 10.8842 6.70282 10.8842C6.00604 10.8842 5.44003 11.4516 5.44003 12.1487C5.44003 12.8455 6.00604 13.4129 6.70282 13.4129C7.39923 13.4129 7.96488 12.8455 7.96488 12.1487Z" fill="white"/>
</svg>
