<svg width="32" height="15" viewBox="0 0 32 15" fill="none" xmlns="http://www.w3.org/2000/svg">
<path fill-rule="evenodd" clip-rule="evenodd" d="M1.96681 10.9554L1.82411 11.262L1.35914 11.0522L1.31741 11.3888L0.810717 11.3337L0.874054 11.6666L0.375553 11.772L0.537994 12.0689L0.0961235 12.3244L0.341648 12.556L0 12.9365L0.304391 13.0806L0.0961235 13.549L0.429948 13.591L0.375553 14.1014L0.706024 14.0373L0.810717 14.5394L1.10542 14.3761L1.35914 14.8212L1.58902 14.5735L1.96681 14.9181L2.10987 14.6114L2.57484 14.8212L2.61657 14.485L3.1229 14.5394L3.05956 14.2069L3.55843 14.1014L3.39562 13.8046L3.83749 13.549L3.59234 13.3175L3.93399 12.9365L3.62922 12.7928L3.83749 12.3244L3.50404 12.2824L3.55843 11.772L3.22796 11.8362L3.1229 11.3337L2.82857 11.4973L2.57484 11.0522L2.34497 11.2995L1.96681 10.9554ZM1.96678 11.5964C1.23207 11.5964 0.636325 12.1965 0.636325 12.9365C0.636325 13.677 1.23207 14.2771 1.96678 14.2771C2.70186 14.2771 3.29761 13.677 3.29761 12.9365C3.29761 12.1965 2.70186 11.5964 1.96678 11.5964Z" fill="black"/>
<path fill-rule="evenodd" clip-rule="evenodd" d="M6.18261 8.40909L7.30592 9.48992L2.43007 12.3703L2.77693 14.2685L5.48777 14.2351L7.80181 11.5214L11.2563 12.6202H20.9089L31.9337 12.4701L32 9.55672L30.0164 8.60762L6.18261 8.40909Z" fill="black"/>
<path fill-rule="evenodd" clip-rule="evenodd" d="M7.30592 9.48996L2.43007 12.3703L2.77693 14.2685L5.48777 14.2351L7.51307 11.8599C7.45197 10.6958 7.30592 9.48996 7.30592 9.48996Z" fill="black"/>
<path fill-rule="evenodd" clip-rule="evenodd" d="M4.82195 0.959656L5.69414 7.01757L5.9676 5.32764L5.63713 1.08238L4.82195 0.959656Z" fill="black"/>
<path fill-rule="evenodd" clip-rule="evenodd" d="M13.818 0L4.68601 0.0165127H4.68589L5.69445 7.01753L4.82647 7.00927H4.82635L4.80176 7.61686L5.45451 7.70843L5.50406 7.75609L5.50413 7.75607L7.30593 9.48993L2.43008 12.3703L2.77695 14.2685L5.48778 14.2351L7.80183 11.5214L11.2563 12.6202H20.9089L31.9337 12.4701L32 9.55673L30.0164 8.60763L29.8182 4.86149H29.8181L20.248 4.79507L19.7357 3.06348L18.3803 2.41423H18.3801L16.909 2.39735H16.9089L15.6035 3.0304L15.5621 1.1405L13.8181 0H13.818ZM5.63698 1.08237L10.1328 1.14917L10.166 4.29559L8.31466 5.17789L5.96746 5.32801L5.63698 1.08237Z" fill="black"/>
<path fill-rule="evenodd" clip-rule="evenodd" d="M22.0681 10.0844C22.0565 10.0848 22.0446 10.0855 22.033 10.0863C22.0446 10.0855 22.0561 10.0848 22.0681 10.0844ZM22.0285 10.0867C21.692 10.107 21.3746 10.1959 21.0885 10.3396L21.1749 10.4905L20.916 10.6414L20.8295 10.4909C20.5568 10.6729 20.3225 10.9089 20.1414 11.1837L20.2912 11.2707L20.1414 11.5319L19.9916 11.4445C19.8489 11.7327 19.7606 12.0528 19.7401 12.3913H19.9126V12.6931H19.7401C19.7606 13.0316 19.8489 13.3517 19.9916 13.6395L20.1414 13.5525L20.2912 13.8137L20.1414 13.9007C20.3225 14.1755 20.5568 14.4111 20.8295 14.5935L20.916 14.443L21.1749 14.5935L21.0885 14.7448C21.3861 14.8941 21.7185 14.9846 22.0702 15C22.0564 14.9992 22.0422 14.9985 22.0285 14.9977V14.824H22.328V14.9977C22.3139 14.9985 22.3001 14.9992 22.2859 15C22.6376 14.9846 22.97 14.8941 23.2676 14.7448L23.1812 14.5935L23.4405 14.443L23.5266 14.5935C23.7997 14.4111 24.0336 14.1755 24.2147 13.9007L24.0649 13.8137L24.2147 13.5525L24.3645 13.6395C24.5076 13.3517 24.5955 13.0316 24.616 12.6931H24.4435V12.3913H24.616C24.5955 12.0528 24.5072 11.7327 24.3645 11.4445L24.2147 11.5319L24.0649 11.2707L24.2147 11.1837C24.0336 10.9089 23.7993 10.6729 23.5266 10.4909L23.4405 10.6414L23.1812 10.4905L23.2676 10.3396C22.9819 10.1959 22.6641 10.1066 22.3276 10.0867V10.2604H22.0285V10.0867ZM20.9284 10.4282C20.9176 10.4346 20.9068 10.441 20.8964 10.4477C20.9068 10.441 20.9176 10.4346 20.9284 10.4282ZM20.879 10.4582C20.8674 10.4657 20.8563 10.4729 20.8447 10.4804C20.8563 10.4729 20.8674 10.4657 20.879 10.4582ZM20.1287 11.2031C20.1228 11.2125 20.1168 11.2215 20.1112 11.2309C20.1168 11.2215 20.1228 11.2125 20.1287 11.2031ZM20.0986 11.2508C20.0922 11.2616 20.0859 11.2721 20.0792 11.283C20.0859 11.2721 20.0922 11.2616 20.0986 11.2508ZM20.0673 11.3034C20.0609 11.3142 20.055 11.3251 20.0486 11.3364C20.055 11.3251 20.0609 11.3142 20.0673 11.3034ZM20.0396 11.3525C20.0329 11.3649 20.0262 11.3776 20.0195 11.39C20.0262 11.3776 20.0329 11.3649 20.0396 11.3525ZM20.0105 11.4069C20.0049 11.4181 19.9993 11.4294 19.9937 11.4407C19.999 11.429 20.0049 11.4181 20.0105 11.4069ZM19.7401 12.3961C19.7394 12.4078 19.7387 12.4194 19.7383 12.4314C19.7387 12.4194 19.7394 12.4078 19.7401 12.3961ZM19.7383 12.6532C19.7387 12.6649 19.7394 12.6765 19.7401 12.6881C19.7394 12.6765 19.7387 12.6649 19.7383 12.6532ZM20.0218 13.6984C20.0277 13.7093 20.0337 13.7205 20.0397 13.7318C20.0337 13.7205 20.0277 13.7093 20.0218 13.6984ZM20.049 13.7483C20.055 13.7592 20.0609 13.7701 20.0673 13.7806C20.0609 13.7701 20.055 13.7592 20.049 13.7483ZM20.0792 13.8013C20.0859 13.8118 20.0922 13.8227 20.0986 13.8332C20.0922 13.8227 20.0859 13.8122 20.0792 13.8013ZM20.8447 14.604C20.8566 14.6115 20.8686 14.619 20.8801 14.6269C20.8686 14.619 20.8566 14.6115 20.8447 14.604ZM20.8964 14.6366C20.9068 14.6434 20.9176 14.6498 20.9284 14.6561C20.9176 14.6498 20.9068 14.6434 20.8964 14.6366ZM20.9484 14.6682C20.9577 14.6738 20.9674 14.6795 20.9767 14.6847C20.9674 14.6795 20.9577 14.6738 20.9484 14.6682ZM21.0012 14.6986C21.0109 14.7038 21.0205 14.7091 21.0302 14.7143C21.0205 14.7091 21.0109 14.7038 21.0012 14.6986ZM23.428 14.6561C23.4388 14.6498 23.4496 14.6434 23.4601 14.6366C23.4496 14.6434 23.4388 14.6498 23.428 14.6561ZM23.4771 14.6261C23.4887 14.6186 23.4999 14.6111 23.5114 14.604C23.4999 14.6115 23.4887 14.6186 23.4771 14.6261ZM24.2888 13.7806C24.2952 13.7701 24.3011 13.7592 24.3071 13.7483C24.3011 13.7592 24.2952 13.7701 24.2888 13.7806ZM24.3165 13.7319C24.3232 13.7195 24.3299 13.7071 24.3366 13.6947C24.3299 13.7071 24.3236 13.7195 24.3165 13.7319ZM24.3456 13.6775C24.3504 13.6677 24.3556 13.6579 24.3605 13.6478C24.3556 13.6579 24.3504 13.6677 24.3456 13.6775ZM24.6163 12.6881C24.6167 12.6765 24.6174 12.6649 24.6178 12.6532C24.6174 12.6649 24.6167 12.6765 24.6163 12.6881ZM24.6178 12.4311C24.6174 12.4194 24.6167 12.4078 24.6163 12.3961C24.6167 12.4078 24.6174 12.4194 24.6178 12.4311ZM24.3605 11.4362C24.3556 11.4264 24.3504 11.4166 24.3456 11.4069C24.3504 11.4166 24.3556 11.4264 24.3605 11.4362ZM24.3344 11.3859C24.3288 11.375 24.3228 11.3637 24.3169 11.3528C24.3228 11.3637 24.3288 11.375 24.3344 11.3859ZM24.2452 11.2317C24.2396 11.2219 24.2333 11.2129 24.2273 11.2031L24.2452 11.2317ZM23.5113 10.4803C23.5005 10.4736 23.4905 10.4668 23.4797 10.46C23.4901 10.4668 23.5005 10.4736 23.5113 10.4803ZM23.4601 10.4477C23.4496 10.441 23.4388 10.4346 23.428 10.4282C23.4388 10.4346 23.4496 10.441 23.4601 10.4477ZM23.4079 10.4162C23.3986 10.4106 23.3893 10.4049 23.3796 10.3997C23.3893 10.4049 23.3986 10.4106 23.4079 10.4162Z" fill="black"/>
<path fill-rule="evenodd" clip-rule="evenodd" d="M22.178 11.0343C21.3509 11.0343 20.6807 11.7094 20.6807 12.5422C20.6807 13.3749 21.3509 14.0501 22.178 14.0501C23.0048 14.0501 23.675 13.3749 23.675 12.5422C23.675 11.7094 23.0048 11.0343 22.178 11.0343Z" fill="white"/>
<path fill-rule="evenodd" clip-rule="evenodd" d="M14.3953 0.37796H29.7852L30.0661 2.73065L28.2975 2.76405L28.1652 1.43177L15.5742 1.71136L15.5619 1.14055L14.3953 0.37796Z" fill="black"/>
<path fill-rule="evenodd" clip-rule="evenodd" d="M16.3506 0.37796H29.7852L30.0661 2.73065L28.2975 2.76405L28.1652 1.43177L18.5793 1.64494L16.3506 0.37796Z" fill="black"/>
<path fill-rule="evenodd" clip-rule="evenodd" d="M9.69039 8.29501C9.6766 8.29539 9.66282 8.29614 9.64903 8.29689L9.69039 8.29501ZM9.63959 8.29765C9.18095 8.3258 8.74765 8.44702 8.35757 8.64292L8.47567 8.84895L8.1221 9.05423L8.00437 8.84895C7.63217 9.09777 7.31288 9.41939 7.06586 9.79393L7.27003 9.91252L7.06586 10.269L6.86132 10.1501C6.66684 10.5426 6.5465 10.9795 6.51855 11.4411H6.75402V11.8524H6.51855C6.5465 12.3144 6.66684 12.7508 6.86132 13.1438L7.06586 13.0248L7.27003 13.3809L7.06586 13.4999C7.31288 13.8744 7.63217 14.1961 8.00437 14.4449L8.1221 14.2392L8.47567 14.4449L8.35757 14.6509C8.74765 14.8468 9.18095 14.968 9.63959 14.9958V14.759H10.0479V14.9958C10.5062 14.968 10.9399 14.8468 11.3296 14.6509L11.2115 14.4449L11.5654 14.2392L11.6831 14.4449C12.055 14.1961 12.3743 13.8744 12.6213 13.4999L12.4171 13.3809L12.6213 13.0248L12.8258 13.1438C13.0203 12.7508 13.1406 12.3144 13.1686 11.8524H12.9331V11.4411H13.1686C13.1406 10.9791 13.0203 10.5426 12.8258 10.1501L12.6213 10.269L12.4171 9.91252L12.6213 9.79393C12.3746 9.41939 12.055 9.09777 11.6831 8.84895L11.5654 9.05423L11.2115 8.84895L11.3296 8.64292C10.9399 8.44702 10.5066 8.32542 10.0479 8.29765V8.53483H9.63959V8.29765ZM8.34635 8.6485C8.33294 8.65563 8.31952 8.66239 8.30611 8.66914C8.31952 8.66239 8.33294 8.65563 8.34635 8.6485ZM8.27801 8.6846C8.26348 8.69211 8.24894 8.70036 8.23404 8.70824C8.24894 8.70036 8.26348 8.69211 8.27801 8.6846ZM8.20929 8.72208C8.19327 8.73146 8.17762 8.74047 8.16197 8.74985C8.17762 8.74047 8.19327 8.73146 8.20929 8.72208ZM8.13906 8.76374C8.12453 8.77237 8.11 8.781 8.09547 8.79001C8.11 8.781 8.12453 8.77237 8.13906 8.76374ZM8.06865 8.80727C8.05598 8.81516 8.04331 8.82304 8.03102 8.83129C8.04331 8.82304 8.05598 8.81516 8.06865 8.80727ZM7.04854 9.82087C7.04071 9.83326 7.03251 9.84564 7.02506 9.8584C7.03251 9.84564 7.04071 9.83326 7.04854 9.82087ZM7.00777 9.88585C6.99882 9.90049 6.98988 9.91512 6.98131 9.92938C6.98988 9.91512 6.99882 9.90049 7.00777 9.88585ZM6.9674 9.95264C6.95808 9.9684 6.94914 9.98454 6.9402 10.0007C6.94914 9.98454 6.95808 9.9684 6.9674 9.95264ZM6.92664 10.0255C6.91845 10.0401 6.91062 10.0551 6.9028 10.0701C6.91062 10.0551 6.91845 10.0401 6.92664 10.0255ZM6.88794 10.0982C6.88086 10.1117 6.87415 10.1249 6.86745 10.1384C6.87415 10.1249 6.88086 10.1117 6.88794 10.0982ZM6.51822 11.4508C6.51747 11.4643 6.51673 11.4782 6.51598 11.492C6.51673 11.4782 6.51747 11.4643 6.51822 11.4508ZM6.51598 11.8013C6.51673 11.8152 6.51747 11.8291 6.51822 11.843L6.51598 11.8013ZM6.86745 13.155C6.87415 13.1689 6.88086 13.182 6.88794 13.1951C6.88086 13.182 6.87415 13.1689 6.86745 13.155ZM6.9028 13.2237C6.91062 13.2387 6.91845 13.2533 6.92664 13.268C6.91845 13.2533 6.91062 13.2387 6.9028 13.2237ZM6.94206 13.2964C6.94988 13.31 6.95733 13.3238 6.96516 13.337C6.95733 13.3238 6.94988 13.31 6.94206 13.2964ZM6.98424 13.3693C6.99169 13.3817 6.99915 13.3941 7.0066 13.4064C6.99915 13.3941 6.99169 13.3817 6.98424 13.3693ZM7.02428 13.435C7.03285 13.4481 7.04105 13.4612 7.04962 13.4744C7.04105 13.4612 7.03285 13.4481 7.02428 13.435ZM8.03102 14.4621C8.04331 14.4704 8.05561 14.4787 8.06827 14.4862C8.05561 14.4787 8.04331 14.4704 8.03102 14.4621ZM8.09547 14.5034C8.11 14.5124 8.12453 14.5214 8.13906 14.5301C8.12453 14.5214 8.11 14.5124 8.09547 14.5034ZM8.16197 14.5439C8.17762 14.5533 8.19327 14.5623 8.20929 14.5713C8.19327 14.5623 8.17762 14.5533 8.16197 14.5439ZM8.23336 14.5849C8.24826 14.5931 8.26316 14.6014 8.27844 14.6092C8.26316 14.6014 8.24826 14.5931 8.23336 14.5849ZM8.30172 14.622C8.31848 14.6306 8.33525 14.6392 8.35201 14.6479C8.33525 14.6392 8.31848 14.6306 8.30172 14.622ZM9.64614 14.9961C9.66216 14.9973 9.67856 14.9984 9.69495 14.9988C9.67856 14.9984 9.66216 14.9973 9.64614 14.9961ZM9.99282 14.9988C10.0092 14.9984 10.0252 14.9973 10.0416 14.9961C10.0252 14.9973 10.0092 14.9984 9.99282 14.9988ZM11.3413 14.6449C11.3547 14.6381 11.3681 14.6314 11.3811 14.6242C11.3681 14.6314 11.3547 14.6381 11.3413 14.6449ZM11.4093 14.6092C11.4238 14.6014 11.4388 14.5935 11.4533 14.5852C11.4388 14.5935 11.4238 14.6014 11.4093 14.6092ZM11.4781 14.5713C11.4941 14.5623 11.5101 14.5533 11.5258 14.5439C11.5101 14.5533 11.4941 14.5623 11.4781 14.5713ZM11.5483 14.5301C11.5632 14.5214 11.5773 14.5124 11.5919 14.5034C11.5773 14.5124 11.5632 14.5214 11.5483 14.5301ZM11.6192 14.4865C11.6322 14.4782 11.6453 14.47 11.6579 14.4613C11.6453 14.47 11.6322 14.4782 11.6192 14.4865ZM12.6362 13.477C12.6451 13.4631 12.6541 13.4492 12.663 13.435C12.6541 13.4492 12.6451 13.4631 12.6362 13.477ZM12.6798 13.4079C12.6888 13.3933 12.6973 13.3787 12.7063 13.364C12.6973 13.3787 12.6888 13.3933 12.6798 13.4079ZM12.7199 13.3408C12.7292 13.3251 12.7381 13.3093 12.7471 13.2932C12.7381 13.3093 12.7292 13.3251 12.7199 13.3408ZM12.7602 13.2691C12.7684 13.2541 12.7766 13.2391 12.7848 13.2237C12.7766 13.2391 12.7684 13.2541 12.7602 13.2691ZM12.7973 13.2C12.8059 13.1831 12.8148 13.1663 12.823 13.1494C12.8148 13.1663 12.8059 13.1831 12.7973 13.2ZM13.1692 11.846C13.1703 11.8298 13.171 11.8133 13.1718 11.7972C13.171 11.8133 13.1703 11.8298 13.1692 11.846ZM13.1718 11.4966C13.171 11.4801 13.1703 11.4639 13.1692 11.4474C13.1703 11.4635 13.171 11.4801 13.1718 11.4966ZM12.8203 10.1384C12.8133 10.1249 12.8065 10.1117 12.7998 10.0982C12.8065 10.1117 12.8133 10.1249 12.8203 10.1384ZM12.7848 10.0701C12.7766 10.0551 12.7688 10.0401 12.761 10.0255C12.7688 10.0401 12.7766 10.0551 12.7848 10.0701ZM12.7471 10.0007C12.7381 9.98454 12.7292 9.9684 12.7199 9.95264C12.7292 9.9684 12.7381 9.98454 12.7471 10.0007ZM12.7063 9.92938C12.6973 9.91512 12.6888 9.90049 12.6798 9.88585C12.6888 9.90049 12.6973 9.91512 12.7063 9.92938ZM12.663 9.85884C12.6536 9.8442 12.6447 9.82994 12.6354 9.81568C12.6447 9.82994 12.6536 9.8442 12.663 9.85884ZM11.6579 8.832C11.6456 8.82374 11.6329 8.81586 11.6206 8.80798C11.6333 8.81586 11.6456 8.82374 11.6579 8.832ZM11.5919 8.79001C11.5773 8.781 11.5632 8.77237 11.5483 8.76374C11.5632 8.77237 11.5773 8.781 11.5919 8.79001ZM11.5258 8.74985C11.5101 8.74047 11.4941 8.73146 11.4781 8.72208C11.4941 8.73146 11.5101 8.74047 11.5258 8.74985ZM11.4533 8.70824C11.4388 8.70036 11.4238 8.69211 11.4093 8.6846C11.4238 8.69211 11.4388 8.70036 11.4533 8.70824ZM11.3811 8.66914C11.3681 8.66239 11.3547 8.65563 11.3413 8.6485C11.3547 8.65563 11.3681 8.66239 11.3811 8.66914ZM10.0382 8.29689C10.0244 8.29614 10.011 8.29539 9.99686 8.29501C10.011 8.29539 10.0244 8.29614 10.0382 8.29689Z" fill="black"/>
<path fill-rule="evenodd" clip-rule="evenodd" d="M9.84389 9.59012C8.71611 9.59012 7.80182 10.5111 7.80182 11.6467C7.80182 12.7827 8.71611 13.7037 9.84389 13.7037C10.9717 13.7037 11.8856 12.7827 11.8856 11.6467C11.8856 10.5111 10.9717 9.59012 9.84389 9.59012Z" fill="white"/>
</svg>
