<svg width="32" height="15" viewBox="0 0 32 15" fill="none" xmlns="http://www.w3.org/2000/svg">
<path fill-rule="evenodd" clip-rule="evenodd" d="M19.8755 11.5846L19.9187 13.3447L25.797 13.2239L30.2247 11.3759L30.5709 9.63739L19.8755 11.5846Z" fill="black"/>
<path fill-rule="evenodd" clip-rule="evenodd" d="M10.9767 9.75555L10.9774 9.75822L8.70396 9.9343L0 14.027L11.4536 13.4988L11.0151 9.75822L10.9767 9.75555Z" fill="black"/>
<path fill-rule="evenodd" clip-rule="evenodd" d="M15.3294 0L25.3972 0.0442692L24.184 1.23288V1.93686L31.4802 2.02474L32 4.07111L30.7442 4.09307L30.4845 3.14711L22.8198 3.01497V3.54287L27.7348 4.66491L31.8484 4.68721L30.9175 7.89923L30.2248 11.3759L25.7971 13.2239L19.9188 13.3447L19.8756 11.5846L14.3002 12.0089L14.1817 13.5208L11.4536 13.4988L0 14.027L8.70396 9.93462L10.9774 9.7582L10.6741 8.04202L12.5469 7.87693L11.4648 2.90446L10.8801 2.92643L10.1658 1.62831L16.3578 1.27615L16.2822 0.946297L15.3294 0ZM31.1648 5.2211L28.1554 5.24307L28.3935 7.77341L30.342 7.72947L31.1648 5.2211ZM13.082 7.5254L11.8252 2.8981L16.0897 2.81988L16.0049 7.59131L13.082 7.5254Z" fill="black"/>
<path fill-rule="evenodd" clip-rule="evenodd" d="M17.1863 9.46625C17.5613 9.48921 17.9164 9.58974 18.2354 9.7515L18.1388 9.92159L18.4283 10.0913L18.5249 9.92159C18.8292 10.127 19.0909 10.3926 19.293 10.7021L19.1259 10.8003L19.293 11.0942L19.4604 10.9964C19.6199 11.3206 19.7181 11.6814 19.7411 12.0625H19.5485V12.4023H19.7411C19.7181 12.7838 19.6195 13.1446 19.4604 13.4688L19.293 13.3706L19.1259 13.6648L19.293 13.7627C19.0909 14.0722 18.8292 14.3379 18.5249 14.5432L18.4283 14.3735L18.1388 14.5436L18.2354 14.7133C17.9164 14.8754 17.5613 14.9756 17.1863 14.9986V14.8029H16.8519V14.9986C16.4765 14.9756 16.1218 14.8754 15.8024 14.7133L15.8991 14.5436L15.6095 14.3735L15.5132 14.5432C15.2086 14.3379 14.9472 14.0722 14.7451 13.7627L14.9119 13.6648L14.7448 13.3706L14.5778 13.4688C14.4183 13.1446 14.3197 12.7838 14.2971 12.4023H14.4897V12.0625H14.2971C14.3197 11.681 14.4183 11.3206 14.5778 10.9964L14.7448 11.0942L14.9119 10.8003L14.7451 10.7021C14.9472 10.3929 15.2086 10.127 15.5132 9.92159L15.6095 10.0913L15.8991 9.92159L15.8024 9.7515C16.1218 9.5894 16.4768 9.48888 16.8519 9.46625V9.66196H17.1863V9.46625ZM18.4146 9.85107C18.4268 9.85839 18.4386 9.86571 18.4503 9.87304C18.4386 9.86571 18.4264 9.85839 18.4146 9.85107ZM18.4681 9.88435C18.4812 9.89267 18.4946 9.90132 18.5077 9.90998C18.4946 9.90132 18.4812 9.89267 18.4681 9.88435ZM19.341 10.778C19.3492 10.7913 19.3571 10.8049 19.3649 10.8183C19.3571 10.8049 19.3492 10.7913 19.341 10.778ZM19.3759 10.8372C19.3828 10.8492 19.3896 10.8615 19.3965 10.8739C19.3896 10.8615 19.3828 10.8492 19.3759 10.8372ZM19.4065 10.8925C19.4134 10.9051 19.42 10.9174 19.4265 10.9298C19.42 10.9174 19.4134 10.9051 19.4065 10.8925ZM19.4389 10.9535C19.4454 10.9661 19.4516 10.9788 19.4582 10.9914C19.4516 10.9788 19.4454 10.9661 19.4389 10.9535ZM19.7434 12.3601C19.7428 12.3734 19.7421 12.3867 19.7411 12.3997C19.7421 12.3867 19.7428 12.3734 19.7434 12.3601ZM19.4582 13.4735C19.451 13.4878 19.4438 13.5021 19.4366 13.5161C19.4438 13.5021 19.451 13.4878 19.4582 13.4735ZM19.3962 13.5916C19.3887 13.6049 19.3812 13.6182 19.3736 13.6316C19.3812 13.6182 19.3887 13.6049 19.3962 13.5916ZM19.3626 13.6506C19.3554 13.6629 19.3482 13.6749 19.341 13.6868C19.3482 13.6749 19.3554 13.6629 19.3626 13.6506ZM19.3297 13.7051C19.3212 13.7184 19.313 13.7318 19.3045 13.7451C19.313 13.7318 19.3212 13.7184 19.3297 13.7051ZM18.5077 14.5549C18.4946 14.5639 18.4812 14.5722 18.4681 14.5809C18.4812 14.5722 18.4946 14.5639 18.5077 14.5549ZM18.4502 14.5918C18.4367 14.6001 18.4233 14.6085 18.4099 14.6165C18.4233 14.6085 18.4367 14.6001 18.4502 14.5918ZM18.3964 14.6248C18.383 14.6328 18.3692 14.6408 18.3555 14.6484C18.3692 14.6408 18.383 14.6328 18.3964 14.6248ZM18.3423 14.6564C18.3252 14.6661 18.3085 14.675 18.2915 14.684C18.3085 14.675 18.3252 14.6657 18.3423 14.6564ZM18.2823 14.6893C18.2682 14.6966 18.2545 14.704 18.24 14.711C18.2545 14.704 18.2682 14.6966 18.2823 14.6893ZM15.7979 14.711C15.7838 14.704 15.7697 14.6966 15.756 14.6893C15.7697 14.6966 15.7838 14.704 15.7979 14.711ZM15.6817 14.6485C15.6699 14.6415 15.6578 14.6345 15.646 14.6275C15.6578 14.6345 15.6699 14.6415 15.6817 14.6485ZM15.6236 14.6142C15.6101 14.6059 15.5967 14.5975 15.5836 14.5892C15.5967 14.5975 15.6101 14.6059 15.6236 14.6142ZM15.5655 14.5779C15.5537 14.5702 15.5419 14.5626 15.5305 14.5549C15.5419 14.5626 15.5537 14.5702 15.5655 14.5779ZM14.7336 13.7451C14.7251 13.7318 14.7166 13.7184 14.7084 13.7051C14.7166 13.7184 14.7251 13.7318 14.7336 13.7451ZM14.6974 13.6868C14.6899 13.6749 14.6827 13.6629 14.6755 13.6506C14.6827 13.6629 14.6899 13.6749 14.6974 13.6868ZM14.6642 13.6316C14.6576 13.6196 14.6507 13.6076 14.6438 13.5956L14.6642 13.6316ZM14.6312 13.5724C14.6247 13.56 14.6178 13.5477 14.6112 13.5351C14.6178 13.5477 14.6247 13.56 14.6312 13.5724ZM14.5992 13.5114C14.5926 13.4988 14.5864 13.4861 14.5802 13.4735C14.5864 13.4861 14.5926 13.4988 14.5992 13.5114ZM14.5824 10.9868C14.588 10.9758 14.5936 10.9645 14.5991 10.9535L14.5824 10.9868ZM14.6755 10.8143C14.6827 10.8023 14.6899 10.79 14.6974 10.778C14.6899 10.79 14.6827 10.8023 14.6755 10.8143ZM14.711 10.7558C14.7186 10.7438 14.7261 10.7318 14.7336 10.7198C14.7261 10.7318 14.7186 10.7438 14.711 10.7558ZM15.5305 9.90991C15.5419 9.90226 15.5537 9.8946 15.5655 9.88695C15.5537 9.8946 15.5419 9.90226 15.5305 9.90991ZM15.646 9.83737C15.6561 9.83138 15.6666 9.82539 15.6768 9.81939L15.646 9.83737ZM15.7604 9.77313C15.7726 9.7668 15.785 9.76048 15.7975 9.75382C15.785 9.76048 15.7726 9.7668 15.7604 9.77313Z" fill="black"/>
<path fill-rule="evenodd" clip-rule="evenodd" d="M17.019 10.5338C17.9423 10.5338 18.6907 11.2943 18.6907 12.2326C18.6907 13.1709 17.9423 13.9312 17.019 13.9312C16.096 13.9312 15.3476 13.1709 15.3476 12.2326C15.3476 11.2943 16.096 10.5338 17.019 10.5338Z" fill="white"/>
<path fill-rule="evenodd" clip-rule="evenodd" d="M28.1741 10.8506C28.4555 10.868 28.7217 10.9432 28.9612 11.0647L28.8885 11.1922L29.1056 11.3196L29.178 11.1922C29.4066 11.3463 29.6025 11.5456 29.7541 11.7776L29.629 11.8512L29.7541 12.0719L29.8796 11.9983C29.9991 12.2416 30.0732 12.5119 30.0902 12.7978H29.9458V13.0528H30.0902C30.0732 13.339 29.9991 13.6093 29.8796 13.8526L29.7541 13.7791L29.629 13.9998L29.7541 14.0733C29.6028 14.3053 29.4066 14.5047 29.178 14.6588L29.1056 14.5313L28.8885 14.6588L28.9612 14.7859C28.7217 14.9078 28.4555 14.9827 28.1741 15V14.8532H27.9232V15C27.6419 14.9827 27.3756 14.9078 27.1361 14.7859L27.2085 14.6588L26.9914 14.5313L26.9193 14.6588C26.6907 14.5047 26.4948 14.3053 26.3432 14.0733L26.4683 13.9998L26.3432 13.7791L26.2177 13.8526C26.0982 13.6093 26.0242 13.3387 26.0071 13.0528H26.1516V12.7978H26.0071C26.0242 12.5119 26.0982 12.2416 26.2177 11.9983L26.3432 12.0719L26.4683 11.8512L26.3432 11.7776C26.4948 11.5456 26.6907 11.3463 26.9193 11.1922L26.9914 11.3196L27.2085 11.1922L27.1361 11.0647C27.3756 10.9432 27.6415 10.8676 27.9232 10.8506V10.9974H28.1741V10.8506ZM29.0821 14.7198C29.0716 14.7257 29.0614 14.7317 29.0513 14.7374C29.0614 14.7317 29.0716 14.7257 29.0821 14.7198ZM29.0412 14.7434C29.0307 14.749 29.0205 14.7547 29.0101 14.7607C29.0205 14.7547 29.0307 14.749 29.0412 14.7434ZM27.0875 14.7607C27.077 14.7547 27.0668 14.749 27.0563 14.7434C27.0668 14.749 27.077 14.7547 27.0875 14.7607ZM27.0463 14.7373C27.0348 14.731 27.0237 14.7243 27.0122 14.7173C27.0237 14.7243 27.0348 14.731 27.0463 14.7373Z" fill="black"/>
<path fill-rule="evenodd" clip-rule="evenodd" d="M28.0484 11.6514C28.7409 11.6514 29.3023 12.2216 29.3023 12.9253C29.3023 13.6289 28.7409 14.1994 28.0484 14.1994C27.356 14.1994 26.7946 13.6289 26.7946 12.9253C26.7946 12.2216 27.356 11.6514 28.0484 11.6514Z" fill="white"/>
</svg>
