<svg width="32" height="16" viewBox="0 0 32 16" fill="none" xmlns="http://www.w3.org/2000/svg">
<path fill-rule="evenodd" clip-rule="evenodd" d="M0.210739 13.9377L3.16569 12.9991L2.17306 14.7513L0.210739 13.9377Z" fill="black"/>
<path fill-rule="evenodd" clip-rule="evenodd" d="M1.12897 8.90671L2.01083 9.04459L2.89307 9.1821L3.5286 10.7989L2.39963 12.14L1.51738 12.0022L0.63514 11.8643L0 10.2474L1.12897 8.90671ZM1.30189 9.34769L1.94352 9.44786L2.58515 9.54804L3.04728 10.7239L2.22615 11.699L1.58451 11.5989L0.943263 11.4987L0.481134 10.3228L0.891703 9.83526L1.30189 9.34769Z" fill="black"/>
<path fill-rule="evenodd" clip-rule="evenodd" d="M8.01356 7.96002L7.67097 11.0414L15.6837 9.16471L15.8472 8.12452L15.7208 5.13257L14.297 5.3344L10.0103 5.87704L9.19332 5.95874L8.37562 6.35463L8.01356 7.96002Z" fill="black"/>
<path fill-rule="evenodd" clip-rule="evenodd" d="M17.0725 0L31.9064 1.7307L32 9.21464L27.2576 11.0684L16.9789 10.9782L16.243 2.35245L17.3643 1.90037L17.0725 0Z" fill="black"/>
<path fill-rule="evenodd" clip-rule="evenodd" d="M7.32437 12.968L7.02074 13.5558L1.97476 13.6574C1.97476 13.6574 1.56572 13.4537 1.56572 13.0471C1.56572 12.6401 2.02135 12.4139 2.02135 12.4139L6.55327 11.9618L7.32437 12.968Z" fill="black"/>
<path fill-rule="evenodd" clip-rule="evenodd" d="M6.36664 11.4643L1.96305 11.383C1.34816 11.3719 1.10029 10.9789 1.10029 10.5882C1.10029 10.1132 1.35312 9.76908 1.81143 9.72325L5.44391 9.36173L6.63093 9.26636L6.81769 11.4144L6.36664 11.4643Z" fill="black"/>
<path fill-rule="evenodd" clip-rule="evenodd" d="M8.79656 0.181824L16.33 0.701922L16.0734 1.35768L15.7346 1.40278L14.8462 1.4342L14.3791 1.02721L10.3143 0.947739L10.0867 1.5584L9.40382 1.51589L8.84278 1.4597L8.79656 0.181824Z" fill="black"/>
<path fill-rule="evenodd" clip-rule="evenodd" d="M15.6409 3.3701L15.7345 1.40282L14.8463 1.43424L14.2971 5.33442L10.0104 5.87707L9.92331 1.54847L10.0766 1.55783L9.4037 1.51594L9.19326 5.95876L8.37556 6.35466L8.0135 7.96005L5.44391 9.36176L1.81143 9.72328C1.35312 9.76912 1.10029 10.1133 1.10029 10.5883C1.10029 10.979 1.34816 11.3719 1.96305 11.383L6.36664 11.4643L6.5534 11.9619L2.02149 12.414C2.02149 12.414 1.56585 12.6402 1.56585 13.0472C1.56585 13.4538 1.97489 13.6575 1.97489 13.6575L7.02087 13.5558L7.3245 12.9681L11.6991 11.4983L22.5556 11.5549L28.0924 12.6287L31.3395 9.99461L16.8791 4.00294L15.6409 3.3701ZM10.0866 1.55845H10.0868L10.3144 0.947784H10.3142L10.0866 1.55845Z" fill="black"/>
<path fill-rule="evenodd" clip-rule="evenodd" d="M28.2053 10.2574C28.2152 10.2578 28.2256 10.2582 28.2355 10.2589C28.2256 10.2582 28.2152 10.2578 28.2053 10.2574ZM28.2427 10.2593C28.5803 10.2792 28.8993 10.365 29.1861 10.5036L29.0994 10.6493L29.3599 10.7949L29.4465 10.6493C29.7204 10.8252 29.9557 11.0529 30.1374 11.318L29.987 11.4019L30.1374 11.654L30.2879 11.5697C30.4311 11.8477 30.5201 12.1567 30.5404 12.4835H30.367V12.7744H30.5404C30.5201 13.1012 30.4311 13.4098 30.2879 13.6878L30.1374 13.6035L29.987 13.8556L30.1374 13.9395C29.9557 14.2046 29.7204 14.4323 29.4465 14.6082L29.3599 14.4629L29.0994 14.6082L29.1861 14.7542C28.8993 14.8928 28.5803 14.9786 28.2427 14.9982V14.8304H27.9418V14.9982C27.6041 14.9786 27.2852 14.8928 26.998 14.7542L27.0847 14.6082L26.8246 14.4629L26.7379 14.6082C26.4641 14.4323 26.2288 14.2046 26.047 13.9395L26.1971 13.8556L26.047 13.6035L25.8966 13.6878C25.753 13.4098 25.6644 13.1012 25.6441 12.7744H25.8171V12.4831H25.6441C25.6644 12.1567 25.7533 11.8477 25.8966 11.5697L26.047 11.654L26.1971 11.4019L26.047 11.318C26.2288 11.0529 26.4641 10.8252 26.7379 10.6493L26.8246 10.7949L27.0847 10.6493L26.998 10.5036C27.2852 10.365 27.6041 10.2789 27.9418 10.2593V10.4267H28.2427V10.2593ZM29.1907 10.5054C29.2018 10.511 29.2129 10.5165 29.2239 10.522C29.2129 10.5165 29.2018 10.511 29.1907 10.5054ZM29.2448 10.5328C29.2559 10.5387 29.2669 10.5443 29.278 10.5502C29.2669 10.5443 29.2559 10.5387 29.2448 10.5328ZM29.2985 10.5613C29.3096 10.5675 29.3203 10.5735 29.3313 10.5794C29.3203 10.5735 29.3096 10.5675 29.2985 10.5613ZM29.3474 10.589C29.3596 10.5956 29.3714 10.603 29.3836 10.61C29.3714 10.603 29.3596 10.5956 29.3474 10.589ZM29.3955 10.6175C29.4073 10.6245 29.4192 10.6319 29.431 10.6393C29.4192 10.6319 29.4073 10.6245 29.3955 10.6175ZM30.1478 11.3331C30.1546 11.3431 30.1611 11.3534 30.168 11.3634C30.1611 11.3534 30.1546 11.3431 30.1478 11.3331ZM30.1779 11.3789C30.1852 11.3907 30.1928 11.4022 30.1997 11.4137C30.1928 11.4022 30.1852 11.3907 30.1779 11.3789ZM30.2097 11.4296C30.2166 11.441 30.2234 11.4525 30.2299 11.4643C30.2234 11.4525 30.2166 11.441 30.2097 11.4296ZM30.2399 11.481C30.246 11.4917 30.2517 11.5021 30.2578 11.5132C30.2517 11.5021 30.246 11.4917 30.2399 11.481ZM30.269 11.5331C30.2747 11.5438 30.2804 11.5549 30.2858 11.5659C30.2804 11.5549 30.2747 11.5438 30.269 11.5331ZM30.5424 12.7381C30.542 12.7477 30.5416 12.7577 30.5408 12.7673C30.5416 12.7577 30.542 12.7477 30.5424 12.7381ZM30.2858 13.6919C30.2804 13.7026 30.2747 13.7133 30.269 13.7244C30.2747 13.7133 30.2804 13.7026 30.2858 13.6919ZM30.2578 13.7444C30.2517 13.7551 30.246 13.7658 30.2399 13.7765C30.246 13.7658 30.2517 13.7551 30.2578 13.7444ZM30.228 13.7965C30.2219 13.8068 30.2158 13.8171 30.2097 13.8279C30.2158 13.8171 30.2219 13.8068 30.228 13.7965ZM30.1997 13.8434C30.1928 13.8552 30.1852 13.867 30.1779 13.8785C30.1852 13.867 30.1928 13.8552 30.1997 13.8434ZM30.1707 13.89C30.163 13.9014 30.1554 13.9129 30.1478 13.9247C30.1554 13.9129 30.163 13.9014 30.1707 13.89ZM29.4309 14.6182C29.4206 14.6249 29.4099 14.6315 29.3992 14.6378C29.4099 14.6315 29.4206 14.6249 29.4309 14.6182ZM29.3837 14.6474C29.3714 14.6544 29.3596 14.6618 29.3474 14.6685C29.3596 14.6618 29.3714 14.6544 29.3837 14.6474ZM29.3314 14.6781C29.3196 14.6847 29.3074 14.6914 29.2955 14.698C29.3074 14.6914 29.3196 14.6847 29.3314 14.6781ZM29.278 14.7073C29.2669 14.7132 29.2558 14.7188 29.2447 14.7247C29.2558 14.7188 29.2669 14.7132 29.278 14.7073ZM29.224 14.7354C29.2129 14.7406 29.2018 14.7465 29.1907 14.7517C29.2018 14.7465 29.2133 14.7409 29.224 14.7354ZM27.9793 15C27.969 14.9996 27.9591 14.9993 27.9488 14.9985C27.9591 14.9993 27.969 14.9996 27.9793 15ZM26.994 14.7517C26.9829 14.7465 26.9715 14.7406 26.9604 14.7354C26.9715 14.7406 26.9829 14.7465 26.994 14.7517ZM26.9395 14.7247C26.9284 14.7188 26.9173 14.7132 26.9063 14.7073C26.9173 14.7132 26.9284 14.7188 26.9395 14.7247ZM26.8857 14.6962C26.875 14.6903 26.8639 14.684 26.8532 14.6781C26.8639 14.684 26.875 14.6903 26.8857 14.6962ZM26.8374 14.6685C26.8252 14.6618 26.8129 14.6544 26.8011 14.6474C26.8129 14.6544 26.8252 14.6618 26.8374 14.6685ZM26.7893 14.6404C26.7774 14.633 26.7656 14.6256 26.7537 14.6182C26.7656 14.6256 26.7774 14.633 26.7893 14.6404ZM26.037 13.9247C26.0301 13.9143 26.0232 13.904 26.0167 13.894C26.0232 13.904 26.0301 13.9143 26.037 13.9247ZM26.0067 13.8785C25.9991 13.867 25.9919 13.8552 25.9846 13.8434C25.9919 13.8552 25.9991 13.867 26.0067 13.8785ZM25.975 13.8279C25.9682 13.8164 25.9613 13.8049 25.9544 13.7931C25.9613 13.8049 25.9682 13.8164 25.975 13.8279ZM25.9447 13.7765C25.9386 13.7658 25.9329 13.7551 25.9268 13.7444C25.9329 13.7551 25.9386 13.7658 25.9447 13.7765ZM25.9157 13.7244C25.9099 13.7133 25.9042 13.7026 25.8985 13.6919C25.9042 13.7026 25.9099 13.7137 25.9157 13.7244ZM25.6419 12.5197C25.6427 12.5097 25.6431 12.5001 25.6438 12.4898C25.6431 12.5001 25.6427 12.5097 25.6419 12.5197ZM25.8985 11.5659C25.9042 11.5549 25.9099 11.5438 25.9157 11.5331C25.9099 11.5438 25.9042 11.5549 25.8985 11.5659ZM25.9268 11.5132C25.9329 11.5021 25.9386 11.4917 25.9447 11.481C25.9386 11.4917 25.9329 11.5021 25.9268 11.5132ZM25.9846 11.4137C25.9919 11.4022 25.9991 11.3907 26.0067 11.3789C25.9991 11.3907 25.9919 11.4022 25.9846 11.4137ZM26.0167 11.3634C26.0232 11.3534 26.0301 11.3431 26.037 11.3331C26.0301 11.3431 26.0232 11.3534 26.0167 11.3634ZM26.7537 10.6392C26.764 10.6326 26.7747 10.6263 26.785 10.6196C26.7747 10.6263 26.764 10.6326 26.7537 10.6392ZM26.8011 10.61C26.8129 10.603 26.8251 10.5956 26.8374 10.589C26.8251 10.5956 26.8129 10.603 26.8011 10.61ZM26.8544 10.579C26.8647 10.5731 26.8754 10.5672 26.8857 10.5613C26.8754 10.5672 26.8647 10.5731 26.8544 10.579ZM26.9063 10.5502C26.9173 10.5443 26.9284 10.5387 26.9395 10.5328C26.9284 10.5387 26.9173 10.5443 26.9063 10.5502ZM26.9603 10.522C26.9714 10.5165 26.9829 10.511 26.9939 10.5054C26.9829 10.511 26.9714 10.5165 26.9603 10.522Z" fill="black"/>
<path fill-rule="evenodd" clip-rule="evenodd" d="M28.0925 11.1738C28.9228 11.1738 29.5958 11.8252 29.5958 12.6288C29.5958 13.4324 28.9228 14.0837 28.0925 14.0837C27.2622 14.0837 26.5889 13.4324 26.5889 12.6288C26.5889 11.8252 27.2622 11.1738 28.0925 11.1738Z" fill="white"/>
<path fill-rule="evenodd" clip-rule="evenodd" d="M11.8628 7.99738C11.8799 7.99811 11.8971 7.99885 11.9147 7.99996C11.8971 7.99922 11.8799 7.99811 11.8628 7.99738Z" fill="black"/>
<path fill-rule="evenodd" clip-rule="evenodd" d="M11.9213 8.00046C12.4194 8.02966 12.8903 8.15645 13.3142 8.36124L13.1863 8.576L13.5705 8.79077L13.6984 8.57637C14.1029 8.83587 14.4501 9.17188 14.7182 9.56334L14.4967 9.68717L14.7186 10.0594L14.9405 9.93521C15.152 10.3451 15.283 10.8013 15.3132 11.2833H15.0573V11.7132H15.3132C15.283 12.1952 15.152 12.6514 14.9405 13.0617L14.7186 12.9375L14.4967 13.3097L14.7182 13.4336C14.4501 13.8247 14.1029 14.1611 13.6984 14.4205L13.5705 14.2058L13.1863 14.4205L13.3142 14.6353C12.8907 14.8401 12.4194 14.9669 11.921 14.9961V14.7488H11.4772V14.9961C10.9791 14.9669 10.5078 14.8401 10.0843 14.6353L10.2122 14.4205L9.82802 14.2058L9.70007 14.4205C9.29561 14.1611 8.94844 13.8247 8.68033 13.4336L8.90185 13.3097L8.67995 12.9375L8.45805 13.0617C8.24647 12.6514 8.11547 12.1952 8.0853 11.7132H8.34119V11.2833H8.0853C8.11547 10.8013 8.24647 10.3451 8.45805 9.93521L8.67995 10.0594L8.90185 9.68717L8.68033 9.56334C8.94844 9.17188 9.29561 8.83587 9.70007 8.57637L9.82802 8.79077L10.2122 8.576L10.0843 8.36124C10.5078 8.15645 10.9788 8.02966 11.4775 8.00046V8.24812H11.9213V8.00046Z" fill="black"/>
<path fill-rule="evenodd" clip-rule="evenodd" d="M13.3207 8.36398C13.339 8.37285 13.3574 8.38209 13.3753 8.39133C13.3574 8.38209 13.339 8.37285 13.3207 8.36398Z" fill="black"/>
<path fill-rule="evenodd" clip-rule="evenodd" d="M13.3964 8.4021C13.4163 8.41208 13.4354 8.42206 13.4549 8.43278C13.4354 8.42206 13.4163 8.41208 13.3964 8.4021Z" fill="black"/>
<path fill-rule="evenodd" clip-rule="evenodd" d="M13.474 8.44315C13.4923 8.45276 13.5103 8.4631 13.5282 8.47308C13.5103 8.4631 13.4923 8.45276 13.474 8.44315Z" fill="black"/>
<path fill-rule="evenodd" clip-rule="evenodd" d="M13.5523 8.48672C13.568 8.49596 13.584 8.50521 13.5997 8.51481C13.584 8.50521 13.568 8.49596 13.5523 8.48672Z" fill="black"/>
<path fill-rule="evenodd" clip-rule="evenodd" d="M13.6292 8.53256C13.6448 8.54217 13.6601 8.55178 13.6758 8.56139C13.6601 8.55178 13.6448 8.54217 13.6292 8.53256Z" fill="black"/>
<path fill-rule="evenodd" clip-rule="evenodd" d="M14.7335 9.58536C14.7439 9.60051 14.7538 9.61567 14.7637 9.63082C14.7538 9.61567 14.7439 9.60051 14.7335 9.58536Z" fill="black"/>
<path fill-rule="evenodd" clip-rule="evenodd" d="M14.7817 9.659C14.7916 9.67415 14.8012 9.68967 14.8107 9.70483C14.8012 9.68967 14.7916 9.67452 14.7817 9.659Z" fill="black"/>
<path fill-rule="evenodd" clip-rule="evenodd" d="M14.825 9.72806C14.8353 9.74543 14.846 9.7628 14.8559 9.78054C14.846 9.7628 14.8353 9.74543 14.825 9.72806Z" fill="black"/>
<path fill-rule="evenodd" clip-rule="evenodd" d="M14.866 9.79797C14.877 9.81793 14.8881 9.83752 14.8992 9.85711C14.8881 9.83752 14.877 9.81793 14.866 9.79797Z" fill="black"/>
<path fill-rule="evenodd" clip-rule="evenodd" d="M14.9092 9.87488C14.9188 9.89299 14.9283 9.9111 14.9375 9.92921C14.9283 9.91073 14.9188 9.89299 14.9092 9.87488Z" fill="black"/>
<path fill-rule="evenodd" clip-rule="evenodd" d="M15.3135 11.2902C15.3147 11.3069 15.3154 11.3235 15.3162 11.3401C15.3154 11.3235 15.3147 11.3069 15.3135 11.2902Z" fill="black"/>
<path fill-rule="evenodd" clip-rule="evenodd" d="M15.3162 11.6562C15.3154 11.6732 15.3147 11.6898 15.3135 11.7064C15.3147 11.6898 15.3154 11.6732 15.3162 11.6562Z" fill="black"/>
<path fill-rule="evenodd" clip-rule="evenodd" d="M14.9375 13.0675C14.9283 13.0852 14.9192 13.103 14.9096 13.1207C14.9192 13.103 14.9283 13.0852 14.9375 13.0675Z" fill="black"/>
<path fill-rule="evenodd" clip-rule="evenodd" d="M14.8984 13.1407C14.8877 13.1599 14.8774 13.1788 14.8664 13.1976C14.8774 13.1788 14.8877 13.1599 14.8984 13.1407Z" fill="black"/>
<path fill-rule="evenodd" clip-rule="evenodd" d="M14.8559 13.2161C14.846 13.2334 14.8353 13.2512 14.825 13.2682C14.8353 13.2512 14.846 13.2334 14.8559 13.2161Z" fill="black"/>
<path fill-rule="evenodd" clip-rule="evenodd" d="M14.8107 13.2915C14.8012 13.3071 14.7916 13.3222 14.7817 13.3374C14.7916 13.3222 14.8012 13.3071 14.8107 13.2915Z" fill="black"/>
<path fill-rule="evenodd" clip-rule="evenodd" d="M14.7637 13.3658C14.7538 13.381 14.7439 13.3958 14.7335 13.4109C14.7439 13.3958 14.7538 13.381 14.7637 13.3658Z" fill="black"/>
<path fill-rule="evenodd" clip-rule="evenodd" d="M13.6757 14.4348C13.6601 14.4448 13.6448 14.4544 13.6292 14.464C13.6448 14.4544 13.6601 14.4448 13.6757 14.4348Z" fill="black"/>
<path fill-rule="evenodd" clip-rule="evenodd" d="M13.5997 14.4818C13.584 14.491 13.568 14.5003 13.5523 14.5095C13.568 14.5006 13.584 14.491 13.5997 14.4818Z" fill="black"/>
<path fill-rule="evenodd" clip-rule="evenodd" d="M13.5282 14.5232C13.5103 14.5336 13.4923 14.5436 13.474 14.5535C13.4923 14.5436 13.5103 14.5336 13.5282 14.5232Z" fill="black"/>
<path fill-rule="evenodd" clip-rule="evenodd" d="M13.4561 14.5631C13.4358 14.5742 13.4156 14.5849 13.395 14.5952C13.4156 14.5849 13.4358 14.5742 13.4561 14.5631Z" fill="black"/>
<path fill-rule="evenodd" clip-rule="evenodd" d="M13.3761 14.6045C13.3578 14.6141 13.3395 14.6234 13.3208 14.6322C13.3395 14.6234 13.3578 14.6141 13.3761 14.6045Z" fill="black"/>
<path fill-rule="evenodd" clip-rule="evenodd" d="M11.9147 14.9964C11.8971 14.9975 11.8799 14.9982 11.8628 14.999C11.8799 14.9982 11.8971 14.9975 11.9147 14.9964Z" fill="black"/>
<path fill-rule="evenodd" clip-rule="evenodd" d="M11.5362 14.999C11.5186 14.9982 11.5014 14.9975 11.4842 14.9964C11.5014 14.9975 11.5186 14.9982 11.5362 14.999Z" fill="black"/>
<path fill-rule="evenodd" clip-rule="evenodd" d="M10.0779 14.6322C10.0596 14.6234 10.0413 14.6145 10.0233 14.6053C10.0413 14.6145 10.0596 14.6234 10.0779 14.6322Z" fill="black"/>
<path fill-rule="evenodd" clip-rule="evenodd" d="M10.0022 14.5945C9.98238 14.5845 9.96291 14.5742 9.94381 14.5638C9.96291 14.5742 9.98238 14.5845 10.0022 14.5945Z" fill="black"/>
<path fill-rule="evenodd" clip-rule="evenodd" d="M9.92461 14.5535C9.90628 14.5436 9.88833 14.5336 9.87038 14.5232C9.88833 14.5336 9.90628 14.5436 9.92461 14.5535Z" fill="black"/>
<path fill-rule="evenodd" clip-rule="evenodd" d="M9.84645 14.5095C9.83079 14.5006 9.81475 14.491 9.79909 14.4818C9.81475 14.491 9.83079 14.5006 9.84645 14.5095Z" fill="black"/>
<path fill-rule="evenodd" clip-rule="evenodd" d="M9.76961 14.464C9.75395 14.4544 9.73829 14.4448 9.72301 14.4348C9.73829 14.4448 9.75395 14.4544 9.76961 14.464Z" fill="black"/>
<path fill-rule="evenodd" clip-rule="evenodd" d="M8.6652 13.4109C8.65489 13.3958 8.64496 13.381 8.63503 13.3658C8.64496 13.381 8.65489 13.3958 8.6652 13.4109Z" fill="black"/>
<path fill-rule="evenodd" clip-rule="evenodd" d="M8.61708 13.3374C8.60715 13.3222 8.5976 13.3071 8.58805 13.2915C8.5976 13.3071 8.60715 13.3222 8.61708 13.3374Z" fill="black"/>
<path fill-rule="evenodd" clip-rule="evenodd" d="M8.57387 13.2682C8.56318 13.2512 8.55287 13.2334 8.54294 13.2161C8.55287 13.2334 8.56318 13.2512 8.57387 13.2682Z" fill="black"/>
<path fill-rule="evenodd" clip-rule="evenodd" d="M8.53251 13.1983C8.52105 13.1787 8.51036 13.1591 8.49928 13.1392C8.51036 13.1591 8.52105 13.1787 8.53251 13.1983Z" fill="black"/>
<path fill-rule="evenodd" clip-rule="evenodd" d="M8.48956 13.1215C8.48001 13.1037 8.47046 13.0856 8.4613 13.0675C8.47046 13.0856 8.48001 13.1037 8.48956 13.1215Z" fill="black"/>
<path fill-rule="evenodd" clip-rule="evenodd" d="M8.08496 11.7064C8.08382 11.6898 8.08305 11.6732 8.08229 11.6562C8.08305 11.6732 8.08382 11.6898 8.08496 11.7064Z" fill="black"/>
<path fill-rule="evenodd" clip-rule="evenodd" d="M8.08229 11.3401C8.08305 11.3235 8.08382 11.3065 8.08496 11.2902C8.08382 11.3065 8.08305 11.3235 8.08229 11.3401Z" fill="black"/>
<path fill-rule="evenodd" clip-rule="evenodd" d="M8.4613 9.92921C8.47046 9.9111 8.48001 9.89299 8.48956 9.87488C8.48001 9.89299 8.47046 9.9111 8.4613 9.92921Z" fill="black"/>
<path fill-rule="evenodd" clip-rule="evenodd" d="M8.50007 9.85563C8.51076 9.83641 8.52146 9.81719 8.53253 9.79797C8.52146 9.81719 8.51076 9.83641 8.50007 9.85563Z" fill="black"/>
<path fill-rule="evenodd" clip-rule="evenodd" d="M8.54294 9.78054C8.55287 9.7628 8.56318 9.74543 8.57387 9.72806C8.56318 9.74543 8.55287 9.7628 8.54294 9.78054Z" fill="black"/>
<path fill-rule="evenodd" clip-rule="evenodd" d="M8.58884 9.70372C8.598 9.68893 8.60755 9.67415 8.6171 9.659C8.60755 9.67415 8.598 9.68893 8.58884 9.70372Z" fill="black"/>
<path fill-rule="evenodd" clip-rule="evenodd" d="M8.63503 9.63082C8.64496 9.61567 8.65489 9.60051 8.6652 9.58536C8.65489 9.60051 8.64496 9.61567 8.63503 9.63082Z" fill="black"/>
<path fill-rule="evenodd" clip-rule="evenodd" d="M9.72301 8.56139C9.73867 8.55178 9.75395 8.54217 9.76961 8.53256C9.75395 8.54217 9.73867 8.55178 9.72301 8.56139Z" fill="black"/>
<path fill-rule="evenodd" clip-rule="evenodd" d="M9.7991 8.51481C9.81438 8.50557 9.83004 8.4967 9.84532 8.48746C9.83004 8.4967 9.81438 8.50557 9.7991 8.51481Z" fill="black"/>
<path fill-rule="evenodd" clip-rule="evenodd" d="M9.87034 8.47308C9.88829 8.4631 9.90624 8.45276 9.92457 8.44315C9.90624 8.45276 9.88829 8.4631 9.87034 8.47308Z" fill="black"/>
<path fill-rule="evenodd" clip-rule="evenodd" d="M9.9427 8.43315C9.96256 8.42243 9.98242 8.41208 10.0023 8.4021C9.98242 8.41208 9.96256 8.42243 9.9427 8.43315Z" fill="black"/>
<path fill-rule="evenodd" clip-rule="evenodd" d="M10.0225 8.3917C10.0408 8.38246 10.0592 8.37322 10.0779 8.36398C10.0592 8.37322 10.0408 8.38246 10.0225 8.3917Z" fill="black"/>
<path fill-rule="evenodd" clip-rule="evenodd" d="M11.4842 7.99996C11.5018 7.99922 11.5189 7.99811 11.5361 7.99738C11.5189 7.99811 11.5018 7.99922 11.4842 7.99996Z" fill="black"/>
<path fill-rule="evenodd" clip-rule="evenodd" d="M11.6992 9.35028C12.9252 9.35028 13.9186 10.3121 13.9186 11.4983C13.9186 12.6845 12.9252 13.6464 11.6992 13.6464C10.4736 13.6464 9.48025 12.6845 9.48025 11.4983C9.48025 10.3121 10.4736 9.35028 11.6992 9.35028Z" fill="white"/>
<path fill-rule="evenodd" clip-rule="evenodd" d="M14.846 1.43419L15.7344 1.40277L15.6408 3.37005L15.5064 5.16322L14.2968 5.33437L14.846 1.43419Z" fill="black"/>
<path fill-rule="evenodd" clip-rule="evenodd" d="M10.0104 5.8771L9.19343 5.95879L9.40387 1.51596L9.92328 1.54849L10.0104 5.8771Z" fill="black"/>
</svg>
