<svg width="32" height="15" viewBox="0 0 32 15" fill="none" xmlns="http://www.w3.org/2000/svg">
<path fill-rule="evenodd" clip-rule="evenodd" d="M13.9696 0H27.3819C29.9324 0 32 1.89579 32 4.23438V5.49216C32 7.83075 29.9324 9.72654 27.3819 9.72654H13.9696C11.4191 9.72654 9.3515 7.83075 9.3515 5.49216V4.23438C9.35144 1.89579 11.419 0 13.9696 0Z" fill="black"/>
<path fill-rule="evenodd" clip-rule="evenodd" d="M0.135056 0.955811L1.00145 6.9898L1.27311 5.30655L0.94483 1.07805L0.135056 0.955811Z" fill="black"/>
<path fill-rule="evenodd" clip-rule="evenodd" d="M0.560334 6.76847L0.000116348 0.0164475L9.07159 0L10.804 1.136L10.8451 3.01849V4.77613H12.1419H14.1693H15.4587L24.9654 4.8423L25.1623 8.57364L27.1327 9.51899L27.0669 12.4209L16.1153 12.5704H7L5.37811 11.7821L4 11L3.5 10.5L3 10L2.60265 9.45246L0.763628 7.678H0V7L0.560334 6.76847ZM0.944824 1.07812L5.4108 1.14466L5.44374 4.27866L3.60472 5.15748L1.2731 5.307L0.944824 1.07812Z" fill="black"/>
<path fill-rule="evenodd" clip-rule="evenodd" d="M12.6337 7C12.6171 7.00045 12.6006 7.00134 12.584 7.00224L12.6337 7ZM12.572 7.00261C12.0207 7.0362 11.4998 7.18085 11.031 7.41463L11.1729 7.6605L10.7479 7.90548L10.6064 7.6605C10.159 7.95743 9.77521 8.34124 9.47829 8.78819L9.72371 8.92971L9.47829 9.35517L9.23243 9.21321C8.99866 9.68166 8.85401 10.203 8.82042 10.7538H9.10345V11.2447H8.82042C8.85401 11.796 8.99866 12.3168 9.23243 12.7857L9.47829 12.6438L9.72371 13.0688L9.47829 13.2107C9.77521 13.6577 10.159 14.0415 10.6064 14.3384L10.7479 14.093L11.1729 14.3384L11.031 14.5843C11.4998 14.8181 12.0207 14.9627 12.572 14.9959V14.7133H13.0628V14.9959C13.6137 14.9627 14.1349 14.8181 14.6034 14.5843L14.4614 14.3384L14.8869 14.093L15.0284 14.3384C15.4753 14.0415 15.8591 13.6577 16.156 13.2107L15.9106 13.0688L16.156 12.6438L16.4019 12.7857C16.6357 12.3168 16.7803 11.796 16.8139 11.2447H16.5309V10.7538H16.8139C16.7803 10.2025 16.6357 9.68166 16.4019 9.21321L16.156 9.35517L15.9106 8.92971L16.156 8.78819C15.8596 8.34124 15.4753 7.95743 15.0284 7.6605L14.8869 7.90548L14.4614 7.6605L14.6034 7.41463C14.1349 7.18085 13.6141 7.03575 13.0628 7.00261V7.28565H12.572V7.00261ZM11.0181 7.42188C11.002 7.43038 10.9859 7.43845 10.9697 7.44651C10.9859 7.43845 11.002 7.43038 11.0181 7.42188ZM10.936 7.4649C10.9185 7.47386 10.901 7.48371 10.8831 7.49312C10.901 7.48371 10.9185 7.47386 10.936 7.4649ZM10.8534 7.5097C10.8341 7.5209 10.8153 7.53165 10.7965 7.54285C10.8153 7.53165 10.8341 7.5209 10.8534 7.5097ZM10.7689 7.55939C10.7514 7.56969 10.734 7.57999 10.7165 7.59074C10.734 7.57999 10.7514 7.56969 10.7689 7.55939ZM10.6843 7.61139C10.6691 7.62079 10.6539 7.6302 10.6391 7.64005C10.6539 7.6302 10.6691 7.62079 10.6843 7.61139ZM9.45809 8.82098C9.44868 8.83576 9.43883 8.85054 9.42987 8.86577C9.43883 8.85054 9.44868 8.83576 9.45809 8.82098ZM9.40908 8.89856C9.39834 8.91603 9.38759 8.93349 9.37729 8.95051C9.38759 8.93349 9.39834 8.91603 9.40908 8.89856ZM9.36047 8.97821C9.34927 8.99702 9.33852 9.01628 9.32777 9.03554C9.33852 9.01628 9.34927 8.99702 9.36047 8.97821ZM9.31153 9.06512C9.30168 9.08259 9.29227 9.1005 9.28287 9.11842C9.29227 9.1005 9.30168 9.08259 9.31153 9.06512ZM9.26508 9.15192C9.25657 9.16804 9.24851 9.18371 9.24045 9.19984C9.24851 9.18371 9.25657 9.16804 9.26508 9.15192ZM8.82056 10.766C8.81966 10.7821 8.81877 10.7986 8.81787 10.8152C8.81877 10.7986 8.81966 10.7821 8.82056 10.766ZM8.81787 11.1843C8.81877 11.2009 8.81966 11.2174 8.82056 11.234L8.81787 11.1843ZM9.24045 12.7997C9.24851 12.8163 9.25657 12.8319 9.26508 12.8476C9.25657 12.8319 9.24851 12.8163 9.24045 12.7997ZM9.28287 12.8817C9.29227 12.8996 9.30168 12.9171 9.31153 12.9346C9.30168 12.9171 9.29227 12.8996 9.28287 12.8817ZM9.33002 12.9685C9.33942 12.9846 9.34838 13.0012 9.35779 13.0169C9.34838 13.0012 9.33942 12.9846 9.33002 12.9685ZM9.38071 13.0554C9.38967 13.0702 9.39863 13.085 9.40758 13.0998C9.39863 13.085 9.38967 13.0702 9.38071 13.0554ZM9.42893 13.1339C9.43923 13.1495 9.44908 13.1652 9.45938 13.1809C9.44908 13.1652 9.43923 13.1495 9.42893 13.1339ZM10.6391 14.3596C10.6539 14.3695 10.6687 14.3793 10.6839 14.3883C10.6687 14.3793 10.6539 14.3695 10.6391 14.3596ZM10.7165 14.4088C10.734 14.4196 10.7514 14.4303 10.7689 14.4406C10.7514 14.4303 10.734 14.4196 10.7165 14.4088ZM10.7965 14.4572C10.8153 14.4683 10.8341 14.4791 10.8534 14.4898C10.8341 14.4791 10.8153 14.4683 10.7965 14.4572ZM10.8822 14.5061C10.9001 14.516 10.918 14.5258 10.9364 14.5352C10.918 14.5258 10.9001 14.516 10.8822 14.5061ZM10.9644 14.5504C10.9846 14.5607 11.0047 14.571 11.0249 14.5813C11.0047 14.571 10.9846 14.5607 10.9644 14.5504ZM12.5804 14.9968C12.5997 14.9982 12.6194 14.9995 12.6391 15C12.6194 14.9995 12.5997 14.9982 12.5804 14.9968ZM12.9972 15C13.0169 14.9995 13.0361 14.9982 13.0559 14.9968C13.0361 14.9982 13.0169 14.9995 12.9972 15ZM14.618 14.5777C14.6341 14.5696 14.6502 14.5615 14.6659 14.553C14.6502 14.5615 14.6341 14.5696 14.618 14.5777ZM14.6998 14.5352C14.7172 14.5258 14.7352 14.5164 14.7526 14.5065C14.7352 14.5164 14.7172 14.5258 14.6998 14.5352ZM14.7825 14.4898C14.8018 14.4791 14.821 14.4683 14.8398 14.4572C14.821 14.4683 14.8018 14.4791 14.7825 14.4898ZM14.8669 14.4406C14.8848 14.4303 14.9018 14.4196 14.9193 14.4088C14.9018 14.4196 14.8848 14.4303 14.8669 14.4406ZM14.9521 14.3886C14.9677 14.3788 14.9834 14.3689 14.9986 14.3586C14.9834 14.3689 14.9677 14.3788 14.9521 14.3886ZM16.1745 13.184C16.1853 13.1674 16.196 13.1509 16.2068 13.1339C16.196 13.1509 16.1853 13.1674 16.1745 13.184ZM16.227 13.1016C16.2378 13.0841 16.2481 13.0667 16.2588 13.0492C16.2481 13.0667 16.2378 13.0841 16.227 13.1016ZM16.2752 13.0215C16.2864 13.0027 16.2972 12.9839 16.3079 12.9646C16.2972 12.9839 16.2864 13.0027 16.2752 13.0215ZM16.3235 12.9359C16.3334 12.918 16.3433 12.9001 16.3531 12.8817C16.3433 12.9001 16.3334 12.918 16.3235 12.9359ZM16.3682 12.8535C16.3785 12.8333 16.3893 12.8132 16.3991 12.793C16.3893 12.8132 16.3785 12.8333 16.3682 12.8535ZM16.8153 11.2375C16.8166 11.2183 16.8175 11.1986 16.8184 11.1793C16.8175 11.1986 16.8166 11.2183 16.8153 11.2375ZM16.8184 10.8206C16.8175 10.8009 16.8166 10.7816 16.8153 10.7619C16.8166 10.7812 16.8175 10.8009 16.8184 10.8206ZM16.3958 9.19984C16.3873 9.18371 16.3792 9.16804 16.3712 9.15192C16.3792 9.16804 16.3873 9.18371 16.3958 9.19984ZM16.3533 9.11842C16.3434 9.1005 16.334 9.08259 16.3246 9.06512C16.334 9.08259 16.3434 9.1005 16.3533 9.11842ZM16.3079 9.03554C16.2972 9.01628 16.2864 8.99702 16.2752 8.97821C16.2864 8.99702 16.2972 9.01628 16.3079 9.03554ZM16.2588 8.95051C16.2481 8.93349 16.2378 8.91603 16.227 8.89856C16.2378 8.91603 16.2481 8.93349 16.2588 8.95051ZM16.2067 8.86626C16.1955 8.8488 16.1848 8.83178 16.1736 8.81476C16.1848 8.83178 16.1955 8.8488 16.2067 8.86626ZM14.9986 7.64085C14.9838 7.63099 14.9686 7.62159 14.9538 7.61218C14.9691 7.62159 14.9838 7.63099 14.9986 7.64085ZM14.9193 7.59074C14.9018 7.57999 14.8848 7.56969 14.8669 7.55939C14.8848 7.56969 14.9018 7.57999 14.9193 7.59074ZM14.8398 7.54285C14.821 7.53165 14.8018 7.5209 14.7825 7.5097C14.8018 7.5209 14.821 7.53165 14.8398 7.54285ZM14.7526 7.49312C14.7352 7.48371 14.7172 7.47386 14.6998 7.4649C14.7172 7.47386 14.7352 7.48371 14.7526 7.49312ZM14.6659 7.44651C14.6502 7.43845 14.6341 7.43038 14.618 7.42188C14.6341 7.43038 14.6502 7.43845 14.6659 7.44651ZM13.0517 7.00224C13.0351 7.00134 13.019 7.00045 13.002 7C13.019 7.00045 13.0351 7.00134 13.0517 7.00224Z" fill="black"/>
<path fill-rule="evenodd" clip-rule="evenodd" d="M12.8181 8.56183C11.4625 8.56183 10.3635 9.66086 10.3635 11.0161C10.3635 12.3717 11.4625 13.4707 12.8181 13.4707C14.1738 13.4707 15.2723 12.3717 15.2723 11.0161C15.2723 9.66086 14.1738 8.56183 12.8181 8.56183Z" fill="white"/>
<path fill-rule="evenodd" clip-rule="evenodd" d="M24.8155 7C24.799 7.00045 24.7824 7.00134 24.7658 7.00224L24.8155 7ZM24.7538 7.00261C24.2026 7.0362 23.6818 7.18085 23.2129 7.41463L23.3549 7.6605L22.9299 7.90548L22.7884 7.6605C22.341 7.95743 21.9572 8.34124 21.6603 8.78819L21.9057 8.92971L21.6603 9.35517L21.4145 9.21321C21.1807 9.68166 21.0361 10.203 21.0025 10.7538H21.2855V11.2447H21.0025C21.0361 11.796 21.1807 12.3168 21.4145 12.7857L21.6603 12.6438L21.9057 13.0688L21.6603 13.2107C21.9572 13.6577 22.341 14.0415 22.7884 14.3384L22.9299 14.093L23.3549 14.3384L23.2129 14.5843C23.6818 14.8181 24.2026 14.9627 24.7538 14.9959V14.7133H25.2446V14.9959C25.7954 14.9627 26.3167 14.8181 26.7851 14.5843L26.6431 14.3384L27.0686 14.093L27.2101 14.3384C27.657 14.0415 28.0408 13.6577 28.3377 13.2107L28.0923 13.0688L28.3377 12.6438L28.5835 12.7857C28.8173 12.3168 28.9619 11.796 28.9955 11.2447H28.7125V10.7538H28.9955C28.9619 10.2025 28.8173 9.68166 28.5835 9.21321L28.3377 9.35517L28.0923 8.92971L28.3377 8.78819C28.0412 8.34124 27.657 7.95743 27.2101 7.6605L27.0686 7.90548L26.6431 7.6605L26.7851 7.41463C26.3167 7.18085 25.7959 7.03575 25.2446 7.00261V7.28565H24.7538V7.00261ZM23.2 7.42188C23.1839 7.43038 23.1677 7.43845 23.1516 7.44651C23.1677 7.43845 23.1839 7.43038 23.2 7.42188ZM23.1178 7.4649C23.1004 7.47386 23.0829 7.48371 23.065 7.49312C23.0829 7.48371 23.1004 7.47386 23.1178 7.4649ZM23.0354 7.5097C23.0161 7.5209 22.9973 7.53165 22.9785 7.54285C22.9973 7.53165 23.0161 7.5209 23.0354 7.5097ZM22.9509 7.55939C22.9334 7.56969 22.916 7.57999 22.8985 7.59074C22.916 7.57999 22.9334 7.56969 22.9509 7.55939ZM22.8662 7.61139C22.851 7.62079 22.8358 7.6302 22.821 7.64005C22.8358 7.6302 22.851 7.62079 22.8662 7.61139ZM21.6402 8.82098C21.6308 8.83576 21.6209 8.85054 21.612 8.86577C21.6209 8.85054 21.6308 8.83576 21.6402 8.82098ZM21.5912 8.89856C21.5804 8.91603 21.5697 8.93349 21.5594 8.95051C21.5697 8.93349 21.5804 8.91603 21.5912 8.89856ZM21.5427 8.97821C21.5315 8.99702 21.5207 9.01628 21.51 9.03554C21.5207 9.01628 21.5315 8.99702 21.5427 8.97821ZM21.4936 9.06512C21.4838 9.08259 21.4744 9.1005 21.465 9.11842C21.4744 9.1005 21.4838 9.08259 21.4936 9.06512ZM21.4472 9.15192C21.4387 9.16804 21.4306 9.18371 21.4225 9.19984C21.4306 9.18371 21.4387 9.16804 21.4472 9.15192ZM21.0027 10.766C21.0018 10.7821 21.0009 10.7986 21 10.8152C21.0009 10.7986 21.0018 10.7821 21.0027 10.766ZM21 11.1843C21.0009 11.2009 21.0018 11.2174 21.0027 11.234L21 11.1843ZM21.4225 12.7997C21.4306 12.8163 21.4387 12.8319 21.4472 12.8476C21.4387 12.8319 21.4306 12.8163 21.4225 12.7997ZM21.465 12.8817C21.4744 12.8996 21.4838 12.9171 21.4936 12.9346C21.4838 12.9171 21.4744 12.8996 21.465 12.8817ZM21.5121 12.9685C21.5215 12.9846 21.5305 13.0012 21.5399 13.0169C21.5305 13.0012 21.5215 12.9846 21.5121 12.9685ZM21.5629 13.0554C21.5719 13.0702 21.5808 13.085 21.5898 13.0998C21.5808 13.085 21.5719 13.0702 21.5629 13.0554ZM21.6109 13.1339C21.6212 13.1495 21.6311 13.1652 21.6413 13.1809C21.6311 13.1652 21.6212 13.1495 21.6109 13.1339ZM22.821 14.3596C22.8358 14.3695 22.8506 14.3793 22.8658 14.3883C22.8506 14.3793 22.8358 14.3695 22.821 14.3596ZM22.8985 14.4088C22.916 14.4196 22.9334 14.4303 22.9509 14.4406C22.9334 14.4303 22.916 14.4196 22.8985 14.4088ZM22.9785 14.4572C22.9973 14.4683 23.0161 14.4791 23.0354 14.4898C23.0161 14.4791 22.9973 14.4683 22.9785 14.4572ZM23.0643 14.5061C23.0822 14.516 23.1001 14.5258 23.1185 14.5352C23.1001 14.5258 23.0822 14.516 23.0643 14.5061ZM23.1463 14.5504C23.1665 14.5607 23.1866 14.571 23.2068 14.5813C23.1866 14.571 23.1665 14.5607 23.1463 14.5504ZM24.7623 14.9968C24.7815 14.9982 24.8012 14.9995 24.8209 15C24.8012 14.9995 24.7815 14.9982 24.7623 14.9968ZM25.179 15C25.1987 14.9995 25.218 14.9982 25.2377 14.9968C25.218 14.9982 25.1987 14.9995 25.179 15ZM26.7998 14.5777C26.8159 14.5696 26.832 14.5615 26.8477 14.553C26.832 14.5615 26.8159 14.5696 26.7998 14.5777ZM26.8815 14.5352C26.899 14.5258 26.9169 14.5164 26.9344 14.5065C26.9169 14.5164 26.899 14.5258 26.8815 14.5352ZM26.9642 14.4898C26.9835 14.4791 27.0028 14.4683 27.0216 14.4572C27.0028 14.4683 26.9835 14.4791 26.9642 14.4898ZM27.0486 14.4406C27.0665 14.4303 27.0835 14.4196 27.101 14.4088C27.0835 14.4196 27.0665 14.4303 27.0486 14.4406ZM27.1339 14.3886C27.1496 14.3788 27.1653 14.3689 27.1805 14.3586C27.1653 14.3689 27.1496 14.3788 27.1339 14.3886ZM28.3562 13.184C28.3669 13.1674 28.3777 13.1509 28.3884 13.1339C28.3777 13.1509 28.3669 13.1674 28.3562 13.184ZM28.4087 13.1016C28.4194 13.0841 28.4297 13.0667 28.4404 13.0492C28.4297 13.0667 28.4194 13.0841 28.4087 13.1016ZM28.4567 13.0215C28.4679 13.0027 28.4787 12.9839 28.4894 12.9646C28.4787 12.9839 28.4679 13.0027 28.4567 13.0215ZM28.5053 12.9359C28.5152 12.918 28.525 12.9001 28.5349 12.8817C28.525 12.9001 28.5152 12.918 28.5053 12.9359ZM28.5497 12.8535C28.56 12.8333 28.5708 12.8132 28.5806 12.793C28.5708 12.8132 28.56 12.8333 28.5497 12.8535ZM28.9969 11.2375C28.9982 11.2183 28.9991 11.1986 29 11.1793C28.9991 11.1986 28.9982 11.2183 28.9969 11.2375ZM29 10.8206C28.9991 10.8009 28.9982 10.7816 28.9969 10.7619C28.9982 10.7812 28.9991 10.8009 29 10.8206ZM28.5776 9.19984C28.5691 9.18371 28.561 9.16804 28.5529 9.15192C28.561 9.16804 28.5691 9.18371 28.5776 9.19984ZM28.5348 9.11842C28.5249 9.1005 28.5155 9.08259 28.5061 9.06512C28.5155 9.08259 28.5249 9.1005 28.5348 9.11842ZM28.4894 9.03554C28.4787 9.01628 28.4679 8.99702 28.4567 8.97821C28.4679 8.99702 28.4787 9.01628 28.4894 9.03554ZM28.4404 8.95051C28.4297 8.93349 28.4194 8.91603 28.4087 8.89856C28.4194 8.91603 28.4297 8.93349 28.4404 8.95051ZM28.3884 8.86626C28.3772 8.8488 28.3664 8.83178 28.3552 8.81476C28.3664 8.83178 28.3772 8.8488 28.3884 8.86626ZM27.1804 7.64085C27.1656 7.63099 27.1504 7.62159 27.1356 7.61218C27.1508 7.62159 27.1656 7.63099 27.1804 7.64085ZM27.101 7.59074C27.0835 7.57999 27.0665 7.56969 27.0486 7.55939C27.0665 7.56969 27.0835 7.57999 27.101 7.59074ZM27.0216 7.54285C27.0028 7.53165 26.9835 7.5209 26.9642 7.5097C26.9835 7.5209 27.0028 7.53165 27.0216 7.54285ZM26.9344 7.49312C26.9169 7.48371 26.899 7.47386 26.8815 7.4649C26.899 7.47386 26.9169 7.48371 26.9344 7.49312ZM26.8477 7.44651C26.832 7.43845 26.8159 7.43038 26.7998 7.42188C26.8159 7.43038 26.832 7.43845 26.8477 7.44651ZM25.2335 7.00224C25.2169 7.00134 25.2008 7.00045 25.1838 7C25.2008 7.00045 25.2169 7.00134 25.2335 7.00224Z" fill="black"/>
<path fill-rule="evenodd" clip-rule="evenodd" d="M25 8.56183C23.6445 8.56183 22.5456 9.66086 22.5456 11.0161C22.5456 12.3717 23.6445 13.4707 25 13.4707C26.3555 13.4707 27.454 12.3717 27.454 11.0161C27.454 9.66086 26.3555 8.56183 25 8.56183Z" fill="white"/>
</svg>
