<svg width="32" height="18" viewBox="0 0 32 18" fill="none" xmlns="http://www.w3.org/2000/svg">
<path fill-rule="evenodd" clip-rule="evenodd" d="M25.3911 1.02155L26.0788 8.36849L24.5008 8.38968L24.1359 1.02155H25.3911ZM18.3435 6.21742C18.3616 6.19152 18.4566 6.22482 18.5553 6.29175C18.6537 6.35869 18.72 6.4337 18.7019 6.45959C18.6889 6.47776 18.6394 6.46666 18.5782 6.43672C18.5502 6.42327 18.5205 6.40645 18.4897 6.3856C18.4433 6.35432 18.4047 6.32102 18.3783 6.29209C18.3486 6.25913 18.3343 6.23121 18.3435 6.21742ZM31.7926 8.69201C31.7926 8.50433 31.6375 8.35196 31.4469 8.35196H27.8723C27.6813 8.35196 27.5266 8.50433 27.5266 8.69201L22.512 11.0324H17.7964L18.5538 8.30958C18.5572 8.30992 18.5603 8.31059 18.5637 8.31059C18.6925 8.31059 18.7974 8.20767 18.7974 8.08086C18.7974 7.95406 18.6925 7.85113 18.5637 7.85113C18.4349 7.85113 18.3303 7.95406 18.3303 8.08086C18.3303 8.15856 18.3696 8.22717 18.4301 8.26855L17.6614 11.0324H16.2802L17.2654 9.45183C17.344 9.32604 17.3567 9.17905 17.3129 9.04989L18.0119 7.92917C18.0926 7.80001 18.0751 7.63822 17.9798 7.52924L18.5319 6.64363V6.64296C18.9077 6.86999 19.2398 6.97157 19.3098 6.871C19.3891 6.75698 19.1014 6.42634 18.6669 6.13237C18.2323 5.83806 17.8155 5.69242 17.7359 5.80645C17.6679 5.90298 17.8664 6.15659 18.194 6.41087C18.1892 6.4176 18.1841 6.42332 18.1797 6.43038L17.6276 7.31667C17.4855 7.28202 17.331 7.33954 17.2504 7.4687L16.5521 8.5901C16.4154 8.61028 16.2877 8.68831 16.2094 8.81377L15.7274 9.58738L18.3389 0.996275C18.3788 1.01242 18.4226 1.0215 18.4687 1.0215H23.7381L24.103 8.39569L23.0337 8.40981C23.048 8.40107 23.0624 8.39199 23.076 8.38257C23.1697 8.3819 23.2496 8.30487 23.3193 8.16932C23.3623 8.11349 23.3852 8.06068 23.3859 8.01359C23.4993 7.70213 23.5824 7.22014 23.6555 6.66986C23.7856 5.68469 23.8321 4.85491 23.5243 4.81488C23.2165 4.77553 22.7252 5.53972 22.595 6.5249C22.5311 7.00823 22.5663 7.45491 22.6548 7.78891C22.3108 7.78218 21.8789 7.79833 21.4348 7.79362C20.4321 7.7842 19.6299 8.15284 19.6176 8.45724L19.4919 8.45892C19.2992 8.45892 19.1431 8.65468 19.1431 8.89551V10.8854H22.3282L27.2984 8.67351C27.2984 8.56924 27.352 8.47742 27.434 8.41856C27.3892 8.37719 27.338 8.35196 27.2826 8.35196L26.7644 8.35902C26.7644 8.34826 26.7637 8.33783 26.763 8.32707L26.076 0.989548C26.1938 0.935395 26.2758 0.817672 26.2758 0.680777V0.340388C26.2758 0.152704 26.1211 0 25.9301 0H18.4687C18.2777 0 18.123 0.152704 18.123 0.340388V0.408668C18.0926 0.466857 18.0649 0.533455 18.0427 0.606107L17.4171 2.66391C17.4165 2.66391 17.4158 2.66391 17.4154 2.66391V2.3992C17.4154 2.37767 17.4086 2.35749 17.3973 2.34067C17.4007 2.33058 17.4045 2.32049 17.4072 2.30973C17.5043 1.97271 17.3956 1.64779 17.1664 1.58388C16.9361 1.52031 16.9002 1.8052 16.8036 2.14223C16.7076 2.47959 16.5866 2.74093 16.8165 2.80484C16.9276 2.83545 17.0458 2.79912 17.1503 2.71672V2.80047C17.1503 2.80551 17.1691 2.81056 17.1992 2.81426V3.07863C17.1992 3.12135 17.2248 3.15801 17.262 3.17516L14.8733 11.0324H13.9427C13.711 11.0324 13.5231 11.1982 13.5231 11.4023V12.0986C13.8402 11.9893 14.1808 11.9291 14.5354 11.9291C14.5778 11.9291 14.6198 11.9304 14.6622 11.9321C14.765 11.9368 14.8661 11.9455 14.9659 11.9597C15.9419 12.0949 16.7704 12.6822 17.2248 13.4998C17.3201 13.6714 17.399 13.8527 17.4595 14.042C17.55 14.3276 17.5992 14.631 17.5992 14.9461C17.5992 15.3548 17.5162 15.745 17.3662 16.1008H25.6154C25.5618 15.8775 25.5328 15.6454 25.5328 15.4056C25.5328 13.7396 26.9041 12.3895 28.5962 12.3895C30.2887 12.3895 31.6604 13.7396 31.6604 15.4056C31.6604 15.4103 31.6601 15.4154 31.6601 15.4194C31.8483 15.4164 32 15.2657 32 15.0797L31.7926 8.69201Z" fill="black"/>
<path fill-rule="evenodd" clip-rule="evenodd" d="M10.6358 10.4763H11.1616V8.79324H10.6358V10.4763ZM13.5632 0.884943H13.9544C13.9937 0.884943 14.0258 0.91656 14.0258 0.954904V4.1378C14.0258 4.17649 13.9937 4.20743 13.9544 4.20743H13.5632C13.5393 4.20743 13.5188 4.19566 13.5058 4.17783C13.4976 4.16673 13.4914 4.15328 13.4914 4.1378V0.954904C13.4914 0.939769 13.4976 0.926314 13.5058 0.914542C13.5188 0.897388 13.5393 0.884943 13.5632 0.884943ZM13.5057 12.1043V4.58213H14.0824C14.3324 4.58213 14.5357 4.54379 14.5357 4.4967V0.596359C14.5357 0.548933 14.3324 0.510925 14.0824 0.510925H11.4763C11.4504 0.510925 11.4254 0.514289 11.4019 0.52068C11.2591 0.535143 11.1617 0.563733 11.1617 0.596359V6.20873H10.6359V5.9975C10.6359 5.8707 10.5874 5.76744 10.5269 5.76744H9.93384C9.87337 5.76744 9.82452 5.8707 9.82452 5.9975V14.9946L1.62108 15.26C1.51927 15.26 1.43693 15.2828 1.43693 15.3108V15.3155C1.43693 15.3437 1.51927 15.3663 1.62108 15.3663H9.82452V15.8203L0.218307 16.0823C0.0977088 16.0823 0 16.1056 0 16.1335V16.1382C0 16.1664 0.0977088 16.189 0.218307 16.189H9.82452V16.5038C9.82452 16.6309 9.87337 16.7342 9.93384 16.7342H10.5269C10.5874 16.7342 10.6359 16.6309 10.6359 16.5038V15.9999H11.1617V16.3935C11.1617 16.5815 11.3024 16.7342 11.4763 16.7342H12.0681C11.6933 16.2334 11.4716 15.6155 11.4716 14.9462C11.4716 13.6354 12.3205 12.5207 13.5057 12.1043Z" fill="black"/>
<path fill-rule="evenodd" clip-rule="evenodd" d="M14.5012 16.4148C14.1678 16.4148 13.86 16.3051 13.6133 16.1211C13.5634 16.0838 13.5163 16.0438 13.4715 16.0007C13.3075 15.8423 13.1808 15.6462 13.1063 15.4262C13.0571 15.2819 13.0298 15.1272 13.0298 14.9664C13.0298 14.5605 13.1992 14.1945 13.4715 13.9315C13.4934 13.9103 13.5166 13.8894 13.5405 13.8696C13.7978 13.6503 14.1336 13.5174 14.5012 13.5174C14.9669 13.5174 15.3813 13.7303 15.6508 14.0623C15.685 14.1047 15.7168 14.1488 15.7461 14.1945C15.8896 14.4182 15.9727 14.6822 15.9727 14.9664C15.9727 15.4377 15.7434 15.8568 15.3891 16.1211C15.1428 16.3051 14.835 16.4148 14.5012 16.4148ZM17.1815 14.6449C17.1743 14.5995 17.1651 14.5389 17.1555 14.4781C17.148 14.4169 17.1278 14.3583 17.1176 14.3136C17.1056 14.2685 17.0981 14.2389 17.0981 14.2389C17.0981 14.2389 17.0479 14.2221 16.9806 14.2036C16.9656 14.1558 16.9485 14.1091 16.9307 14.0623C16.9075 14.0018 16.8819 13.9423 16.8542 13.8844C16.8908 13.8272 16.9174 13.7815 16.9174 13.7815C16.9174 13.7815 16.9041 13.7539 16.8832 13.7125C16.8774 13.7001 16.8696 13.6876 16.8617 13.6742C16.8422 13.6409 16.8187 13.6046 16.7961 13.5672C16.7643 13.5144 16.7309 13.4623 16.7018 13.4263C16.6738 13.3893 16.655 13.3647 16.655 13.3647C16.655 13.3647 16.601 13.3678 16.5327 13.3742C16.4603 13.285 16.3821 13.2006 16.2983 13.1216C16.3113 13.0553 16.3195 13.0032 16.3195 13.0032C16.3195 13.0032 16.2963 12.982 16.2618 12.951C16.2283 12.9187 16.1774 12.8828 16.1279 12.8458C16.0777 12.8098 16.0295 12.7711 15.9888 12.7472C15.9495 12.7233 15.9225 12.7068 15.9225 12.7068C15.9225 12.7068 15.8734 12.729 15.8122 12.76C15.7128 12.7018 15.6089 12.6503 15.501 12.6066C15.4979 12.5874 15.4945 12.5699 15.4914 12.5548C15.4825 12.5144 15.4764 12.4879 15.4764 12.4879C15.4764 12.4879 15.4473 12.4774 15.4036 12.4616C15.3592 12.4458 15.3014 12.423 15.24 12.4098C15.1795 12.3944 15.1194 12.3792 15.0739 12.3675C15.051 12.3611 15.0319 12.358 15.0182 12.3564C15.0046 12.3543 14.997 12.3533 14.997 12.3533C14.997 12.3533 14.9601 12.391 14.9144 12.4421C14.8009 12.4243 14.6848 12.4139 14.5673 12.4108C14.5311 12.352 14.5013 12.3066 14.5013 12.3066C14.5013 12.3066 14.3766 12.3126 14.2526 12.3184C14.1904 12.3227 14.1289 12.3355 14.0825 12.3416C14.0364 12.3483 14.0053 12.3533 14.0053 12.3533C14.0053 12.3533 13.9947 12.3786 13.9786 12.4156C13.9725 12.43 13.966 12.4472 13.9591 12.4653C13.8444 12.4896 13.733 12.5212 13.624 12.5592C13.57 12.5185 13.5259 12.4879 13.5259 12.4879C13.5259 12.4879 13.5116 12.4933 13.4891 12.501C13.4839 12.5033 13.4781 12.5054 13.4716 12.5077C13.4655 12.5097 13.46 12.5121 13.4528 12.5144C13.4105 12.5346 13.3541 12.5609 13.2981 12.5871C13.2697 12.6006 13.2417 12.614 13.2154 12.6268C13.1905 12.6416 13.1669 12.6554 13.1474 12.6675C13.1071 12.691 13.0805 12.7068 13.0805 12.7068C13.0805 12.7068 13.0781 12.76 13.0784 12.8279C12.9814 12.8908 12.8891 12.9598 12.8017 13.0344C12.7354 13.0156 12.6828 13.0032 12.6831 13.0032C12.6831 13.0032 12.5881 13.0825 12.5072 13.176C12.4197 13.2645 12.348 13.3647 12.348 13.3647C12.348 13.3647 12.3657 13.4149 12.3907 13.4778C12.3234 13.5703 12.2615 13.6671 12.2069 13.7684C12.1884 13.77 12.1703 13.7717 12.1543 13.7734C12.1129 13.7781 12.0849 13.7815 12.0849 13.7815C12.0849 13.7815 12.0712 13.8091 12.0514 13.8508C12.0303 13.8918 12.0036 13.9473 11.9841 14.0058C11.9626 14.0637 11.9414 14.1215 11.9257 14.1649C11.9117 14.209 11.9045 14.2389 11.9045 14.2389C11.9049 14.2389 11.9397 14.2786 11.9862 14.3281C11.9571 14.4377 11.9366 14.5507 11.9226 14.6661C11.9056 14.6742 11.8888 14.6819 11.8741 14.689C11.8355 14.7081 11.8126 14.7213 11.8126 14.7213C11.8126 14.7213 11.8061 14.8437 11.8 14.9665C11.8061 15.0885 11.8126 15.211 11.8126 15.211C11.8126 15.211 11.8355 15.2244 11.8741 15.2433C11.8888 15.25 11.9056 15.2581 11.9226 15.2665C11.9366 15.3815 11.9571 15.4942 11.9862 15.6042C11.9397 15.6536 11.9049 15.6933 11.9045 15.6933C11.9045 15.6933 11.9117 15.7236 11.9257 15.7676C11.9414 15.811 11.9626 15.8685 11.9841 15.9264C12.0036 15.9849 12.0303 16.0404 12.0514 16.0818C12.0712 16.1232 12.0849 16.1511 12.0849 16.1511C12.0849 16.1511 12.1129 16.1541 12.1543 16.1588C12.1703 16.1605 12.1884 16.1622 12.2069 16.1639C12.2622 16.2651 12.3234 16.362 12.3907 16.4545C12.3657 16.5174 12.348 16.5672 12.348 16.5672C12.348 16.5672 12.4194 16.6667 12.5055 16.7545C12.5062 16.7548 12.5065 16.7555 12.5072 16.7562C12.5881 16.8497 12.6831 16.9297 12.6831 16.9297C12.6828 16.9297 12.7354 16.9166 12.8017 16.8981C12.8891 16.9725 12.9814 17.0417 13.0784 17.1043C13.0781 17.1729 13.0805 17.2254 13.0805 17.2254C13.0805 17.2254 13.1071 17.2412 13.1474 17.2654C13.1669 17.2769 13.1905 17.291 13.2154 17.3054C13.2417 17.3182 13.2697 17.3313 13.2981 17.3445C13.3541 17.3717 13.4105 17.3976 13.4528 17.4178C13.4966 17.4336 13.5259 17.4444 13.5259 17.4444C13.5259 17.4444 13.57 17.4141 13.624 17.3727C13.733 17.4111 13.8444 17.4427 13.9591 17.4669C13.966 17.4847 13.9725 17.5022 13.9786 17.5163C13.9947 17.5543 14.0053 17.5792 14.0053 17.5792C14.0053 17.5792 14.0364 17.5839 14.0825 17.591C14.1289 17.5971 14.1904 17.6092 14.2526 17.6135C14.3766 17.6196 14.5013 17.6257 14.5013 17.6257C14.5013 17.6257 14.5311 17.5806 14.5673 17.521C14.6848 17.518 14.8009 17.5079 14.914 17.4898C14.9598 17.5409 14.997 17.5792 14.997 17.5792C14.997 17.5792 15.0046 17.5776 15.0182 17.5759C15.0319 17.5742 15.051 17.5708 15.0739 17.5648C15.1194 17.5533 15.1795 17.5379 15.24 17.5227C15.3014 17.5093 15.3592 17.4864 15.4036 17.4709C15.4473 17.4551 15.4764 17.4444 15.4764 17.4444C15.4764 17.4444 15.4825 17.4178 15.4914 17.3774C15.4945 17.3626 15.4979 17.3445 15.501 17.326C15.6089 17.2816 15.7128 17.2304 15.8122 17.1729C15.8734 17.2032 15.9225 17.2254 15.9225 17.2254C15.9225 17.2254 15.9495 17.2092 15.9888 17.185C16.0295 17.1615 16.0777 17.1225 16.1279 17.0865C16.1774 17.0498 16.2283 17.0135 16.2618 16.9812C16.2963 16.9503 16.3195 16.9297 16.3195 16.9297C16.3195 16.9297 16.3113 16.8766 16.2983 16.8107C16.3821 16.7313 16.4603 16.6472 16.5327 16.5581C16.601 16.5645 16.655 16.5672 16.655 16.5672C16.655 16.5672 16.6738 16.5429 16.7018 16.5059C16.7309 16.4703 16.7643 16.4181 16.7961 16.3653C16.8279 16.3125 16.8617 16.2607 16.8832 16.2204C16.9041 16.1787 16.9174 16.1511 16.9174 16.1511C16.9174 16.1511 16.9106 16.139 16.8996 16.1211C16.8884 16.1026 16.8726 16.0771 16.8542 16.0478C16.9034 15.9449 16.9461 15.8386 16.9806 15.7286C17.0479 15.7105 17.0981 15.6933 17.0981 15.6933C17.0981 15.6933 17.1056 15.6634 17.1176 15.619C17.1278 15.5742 17.148 15.5157 17.1555 15.4545C17.1651 15.3933 17.1743 15.3331 17.1815 15.2873C17.1893 15.2416 17.1904 15.211 17.1904 15.211C17.1904 15.211 17.1473 15.178 17.0916 15.1377C17.0957 15.0808 17.0981 15.0236 17.0981 14.9665C17.0981 14.9086 17.0957 14.8518 17.0916 14.7946C17.1473 14.7546 17.1904 14.7213 17.1904 14.7213C17.1904 14.7213 17.1893 14.6906 17.1815 14.6449Z" fill="black"/>
<path fill-rule="evenodd" clip-rule="evenodd" d="M14.4783 14.0787C13.9936 14.0787 13.6 14.4655 13.6 14.9434C13.6 15.0141 13.6102 15.0837 13.6266 15.15C13.7206 15.5273 14.066 15.8075 14.4783 15.8075C14.9635 15.8075 15.3567 15.4207 15.3567 14.9434C15.3567 14.7484 15.2908 14.5694 15.1797 14.4255C15.0198 14.2152 14.7657 14.0787 14.4783 14.0787Z" fill="white"/>
<path fill-rule="evenodd" clip-rule="evenodd" d="M28.6209 16.7888C28.0073 16.7888 27.4815 16.4188 27.2608 15.8924C27.1894 15.7219 27.1505 15.5359 27.1505 15.3405C27.1505 14.5406 27.8088 13.8918 28.6209 13.8918C29.434 13.8918 30.0927 14.5406 30.0927 15.3405C30.0927 15.4205 30.0859 15.4986 30.0732 15.5753C29.9595 16.2638 29.353 16.7888 28.6209 16.7888ZM31.3015 15.0193C31.2946 14.9739 31.2847 14.9133 31.2752 14.8525C31.2683 14.7909 31.2478 14.7327 31.2376 14.688C31.226 14.6432 31.2185 14.613 31.2185 14.613C31.2185 14.613 31.1682 14.5965 31.1009 14.5787C31.0661 14.4683 31.0234 14.3621 30.9745 14.2591C31.0107 14.2016 31.0377 14.1559 31.0377 14.1559C31.0377 14.1559 31.0241 14.128 31.0039 14.0869C30.982 14.0462 30.9479 13.9944 30.9161 13.9413C30.884 13.8885 30.8512 13.8367 30.8218 13.801C30.7935 13.764 30.775 13.7391 30.775 13.7391C30.775 13.7391 30.7214 13.7422 30.6524 13.7486C30.5803 13.6594 30.5024 13.575 30.4187 13.4963C30.4313 13.4297 30.4395 13.3769 30.4395 13.3769C30.4395 13.3769 30.4166 13.3567 30.3814 13.3254C30.3486 13.2935 30.2981 13.2568 30.2482 13.2201C30.1976 13.1845 30.1491 13.1451 30.1088 13.1216C30.0692 13.0977 30.0425 13.0816 30.0425 13.0816C30.0425 13.0816 29.9937 13.1038 29.9322 13.1337C29.8328 13.0765 29.7293 13.0251 29.6213 12.9807C29.6179 12.9622 29.6148 12.9443 29.6114 12.9292C29.6025 12.8892 29.5967 12.8623 29.5967 12.8623C29.5967 12.8623 29.567 12.8518 29.5236 12.8357C29.4792 12.8202 29.4211 12.7973 29.3603 12.7839C29.2998 12.7688 29.2393 12.754 29.1936 12.7422C29.171 12.7358 29.1519 12.7324 29.1382 12.7307C29.1249 12.7287 29.1174 12.7277 29.1174 12.7277C29.1174 12.7277 29.0801 12.7657 29.034 12.8165C28.9206 12.7987 28.8048 12.7886 28.6873 12.7856C28.6507 12.7264 28.621 12.681 28.621 12.681C28.621 12.681 28.4973 12.6874 28.3723 12.6931C28.3104 12.6975 28.2489 12.7099 28.2028 12.7156C28.1563 12.7227 28.1256 12.7277 28.1256 12.7277C28.1256 12.7277 28.1147 12.7526 28.0989 12.7903C28.0928 12.8047 28.0863 12.8219 28.0795 12.8404C27.9647 12.8639 27.8526 12.8952 27.744 12.9339C27.6897 12.8929 27.6459 12.8623 27.6459 12.8623C27.6459 12.8623 27.6169 12.873 27.5728 12.8892C27.5308 12.909 27.4744 12.9353 27.4181 12.9618C27.3897 12.9753 27.3617 12.9887 27.3357 13.0008C27.3104 13.0156 27.2872 13.0301 27.2671 13.0415C27.2267 13.0658 27.2004 13.0816 27.2004 13.0816C27.2004 13.0816 27.1977 13.1344 27.1987 13.202C27.1014 13.2652 27.0091 13.3342 26.9217 13.4085C26.8557 13.39 26.8035 13.3769 26.8035 13.3769C26.8035 13.3769 26.7081 13.4569 26.6272 13.5504C26.5404 13.6389 26.468 13.7391 26.468 13.7391C26.468 13.7391 26.4854 13.7892 26.5107 13.8521C26.443 13.9446 26.3819 14.0415 26.3272 14.1428C26.3084 14.1444 26.2903 14.1461 26.2743 14.1478C26.2329 14.1528 26.2052 14.1559 26.2052 14.1559C26.2052 14.1559 26.1916 14.1838 26.1718 14.2248C26.1506 14.2662 26.1239 14.3217 26.1041 14.3806C26.0829 14.4384 26.0614 14.4959 26.0454 14.5393C26.0313 14.5837 26.0245 14.613 26.0245 14.613C26.0249 14.613 26.0594 14.653 26.1058 14.7021C26.0771 14.8124 26.0566 14.9254 26.043 15.0401C26.0255 15.0486 26.0085 15.057 25.9941 15.0637C25.9555 15.0825 25.9326 15.0956 25.9326 15.0956C25.9326 15.0956 25.9265 15.2181 25.92 15.3405C25.9265 15.4633 25.9326 15.5857 25.9326 15.5857C25.9326 15.5857 25.9555 15.5992 25.9941 15.6177C26.0088 15.6251 26.0255 15.6328 26.043 15.6409C26.0566 15.7562 26.0771 15.8689 26.1058 15.9789C26.0891 15.9967 26.0734 16.0135 26.0607 16.0277C26.0389 16.0512 26.0249 16.0677 26.0245 16.0677C26.0245 16.0677 26.0313 16.098 26.0454 16.142C26.0614 16.1854 26.0829 16.2433 26.1041 16.3008C26.1239 16.3593 26.1506 16.4148 26.1718 16.4565C26.1916 16.4982 26.2052 16.5255 26.2052 16.5255C26.2052 16.5255 26.2329 16.5285 26.2743 16.5332C26.2903 16.5349 26.3084 16.5369 26.3272 16.5386C26.3819 16.6395 26.443 16.7367 26.5107 16.8289C26.4854 16.8921 26.468 16.9419 26.468 16.9419C26.468 16.9419 26.5404 17.0421 26.6272 17.1302C26.7081 17.2244 26.8035 17.3038 26.8035 17.3038C26.8035 17.3038 26.8557 17.291 26.9217 17.2725C27.0091 17.3468 27.1014 17.4158 27.1987 17.4787C27.1977 17.5473 27.2004 17.5998 27.2004 17.5998C27.2004 17.5998 27.2267 17.6159 27.2671 17.6395C27.2872 17.6512 27.3104 17.665 27.3357 17.6798C27.3617 17.693 27.3897 17.7061 27.4181 17.7195C27.4744 17.7458 27.5308 17.7723 27.5728 17.7922C27.6169 17.8083 27.6459 17.8187 27.6459 17.8187C27.6459 17.8187 27.6897 17.7881 27.7443 17.7471C27.853 17.7854 27.9647 17.8171 28.0795 17.8409C28.0863 17.8591 28.0928 17.8763 28.0989 17.8911C28.1147 17.9284 28.1256 17.954 28.1256 17.954C28.1256 17.954 28.1563 17.9587 28.2028 17.9654C28.2489 17.9715 28.3104 17.9839 28.3723 17.9876C28.4973 17.994 28.621 18 28.621 18C28.621 18 28.6514 17.9546 28.6873 17.8954C28.8048 17.8927 28.9206 17.8827 29.034 17.8645C29.0801 17.9149 29.1174 17.954 29.1174 17.954C29.1174 17.954 29.1249 17.9523 29.1382 17.9499C29.1519 17.9486 29.171 17.9452 29.1936 17.9395C29.2393 17.9274 29.2998 17.9126 29.3603 17.8971C29.4211 17.8837 29.4792 17.8608 29.5236 17.8453C29.567 17.8292 29.5967 17.8187 29.5967 17.8187C29.5967 17.8187 29.6025 17.7922 29.6114 17.7518C29.6148 17.7367 29.6179 17.7189 29.6213 17.7004C29.7289 17.6563 29.8324 17.6045 29.9318 17.5473C29.9937 17.5776 30.0425 17.5998 30.0425 17.5998C30.0425 17.5998 30.0692 17.5836 30.1088 17.5598C30.1491 17.5359 30.1976 17.4965 30.2482 17.4609C30.2981 17.4239 30.3486 17.3879 30.3814 17.3556C30.4166 17.3246 30.4395 17.3038 30.4395 17.3038C30.4395 17.3038 30.4313 17.2513 30.4187 17.1851C30.5024 17.106 30.5803 17.0219 30.6524 16.9328C30.7214 16.9392 30.775 16.9419 30.775 16.9419C30.775 16.9419 30.7935 16.9173 30.8218 16.8803C30.8512 16.8443 30.884 16.7925 30.9161 16.7397C30.9479 16.6869 30.982 16.6355 31.0039 16.5944C31.0241 16.5531 31.0377 16.5255 31.0377 16.5255C31.0377 16.5255 31.0107 16.4794 30.9745 16.4226C31.0234 16.3193 31.0657 16.213 31.1009 16.103C31.1682 16.0849 31.2185 16.0677 31.2185 16.0677C31.2185 16.0677 31.226 16.0378 31.2376 15.9937C31.2478 15.9486 31.2683 15.8898 31.2752 15.8289C31.2847 15.768 31.2946 15.7071 31.3015 15.6617C31.3093 15.6163 31.3104 15.5857 31.3104 15.5857C31.3104 15.5857 31.2677 15.5524 31.2116 15.512C31.2133 15.4902 31.2147 15.4687 31.2157 15.4468C31.2171 15.4115 31.2185 15.3762 31.2185 15.3405C31.2185 15.2827 31.2157 15.2255 31.2116 15.169C31.2677 15.1289 31.3104 15.0956 31.3104 15.0956C31.3104 15.0956 31.3093 15.065 31.3015 15.0193Z" fill="black"/>
<path fill-rule="evenodd" clip-rule="evenodd" d="M28.611 14.4626C28.1265 14.4626 27.7333 14.8501 27.7333 15.327C27.7333 15.5049 27.788 15.6704 27.8816 15.808C28.0391 16.0391 28.3073 16.1918 28.611 16.1918C28.9871 16.1918 29.3066 15.9597 29.4319 15.6331C29.4685 15.5379 29.4893 15.4346 29.4893 15.327C29.4893 14.8501 29.0964 14.4626 28.611 14.4626Z" fill="white"/>
</svg>
