<svg width="32" height="26" viewBox="0 0 32 26" fill="none" xmlns="http://www.w3.org/2000/svg">
<path fill-rule="evenodd" clip-rule="evenodd" d="M16.6725 22.4618H18.5866V22.6227H16.6291C16.6449 22.5698 16.658 22.516 16.6725 22.4618ZM24.3598 18.992C24.9509 18.5066 25.6553 18.1564 26.4271 17.9866C26.7678 17.9124 27.1217 17.8711 27.4845 17.8711C27.7475 17.8711 28.0073 17.8924 28.2595 17.932C29.9332 18.1978 31.3285 19.3075 32 20.8155C31.6873 19.4155 30.78 18.2369 29.5531 17.5533V17.4089C29.6688 17.5395 29.8378 17.6222 30.0281 17.6222C30.3764 17.6222 30.254 17.3449 30.254 17.0022C30.254 16.6595 30.3764 16.3818 30.0281 16.3818C29.7212 16.3818 29.4655 16.5978 29.409 16.8831C29.3593 16.9004 29.3231 16.9471 29.3231 17.0022C29.3231 17.0471 29.3475 17.0871 29.3846 17.1093V17.4626C29.2423 17.3906 29.0963 17.3249 28.9467 17.2662C28.9856 17.156 29.0082 17.0382 29.0082 16.9146C29.0082 16.3222 28.8265 15.34 28.2242 15.34L25.3002 15.8422C24.6987 15.8422 23.8745 16.6058 23.8741 17.1973C23.8284 17.2778 23.7815 17.3529 23.734 17.4209C23.4204 17.8671 23.0698 18.0591 22.7801 18.1342C22.6504 18.168 22.5334 18.1786 22.4367 18.1786C22.4173 18.1786 22.3987 18.1769 22.3789 18.176C22.3648 18.3711 22.3255 18.5586 22.2645 18.7369C21.9636 19.6093 21.124 20.2386 20.1376 20.2386H19.0477C19.0134 20.2386 18.9795 20.2369 18.9447 20.2346C18.153 20.1751 17.3216 19.4498 16.886 19.0093C16.7798 18.9018 16.6311 18.744 16.4757 18.5551C16.4205 18.488 16.3641 18.4178 16.3094 18.3435C16.102 18.0671 15.9023 17.7462 15.7884 17.4209H15.0342C14.2303 16.752 13.2118 16.328 12.0957 16.264V15.5609C12.1378 15.5351 12.1658 15.4902 12.1658 15.4378C12.1658 15.3751 12.1246 15.3218 12.0673 15.3022C12.0026 14.9751 11.7103 14.7275 11.3587 14.7275C10.9597 14.7275 11.0998 15.0458 11.0998 15.4378C11.0998 15.8306 10.9597 16.1484 11.3587 16.1484C11.5756 16.1484 11.7704 16.0538 11.9028 15.904V16.2564C11.868 16.2555 11.8336 16.2546 11.7989 16.2546C11.0605 16.2546 10.3592 16.412 9.72749 16.6946V17.5133C10.2404 17.3493 10.9069 17.2129 11.427 17.2129C12.6728 17.2129 13.811 17.6764 14.6804 18.4418C15.4495 19.1178 16.008 20.0293 16.2452 21.0653C16.261 21.1351 16.2755 21.2058 16.2881 21.2764C16.3424 21.572 16.3717 21.8769 16.3717 22.1875C16.3717 22.28 16.3686 22.3711 16.3641 22.4618C16.3609 22.516 16.3568 22.5693 16.3523 22.6226C16.3482 22.6702 16.3433 22.7182 16.3379 22.7658C16.3324 22.8151 16.3261 22.8635 16.3193 22.9124C16.3125 22.9591 16.3044 23.0062 16.2972 23.0529C16.2967 23.0533 16.2967 23.0546 16.2963 23.0551H18.6677C18.6885 23.0551 18.7079 23.0489 18.7242 23.0386C18.7617 23.0293 18.7897 22.9973 18.7897 22.9586V22.4618H22.5546C22.6608 21.064 23.3422 19.8289 24.3598 18.992Z" fill="black"/>
<path fill-rule="evenodd" clip-rule="evenodd" d="M11.3415 24.0974C10.6994 24.0974 10.1228 23.8209 9.72743 23.3823C9.69806 23.3498 9.67095 23.3169 9.64338 23.2832C9.3569 22.9227 9.18474 22.4694 9.18474 21.9765C9.18474 21.5183 9.3334 21.0943 9.58374 20.748C9.62892 20.6867 9.67637 20.6276 9.72743 20.5707C10.1228 20.1325 10.6994 19.8552 11.3415 19.8552C12.5317 19.8552 13.4974 20.8049 13.4974 21.9765C13.4974 23.1476 12.5317 24.0974 11.3415 24.0974ZM15.3541 21.7387C15.3943 21.7098 15.4205 21.6903 15.4205 21.6903C15.4205 21.6903 15.4178 21.6543 15.4138 21.6005C15.4106 21.5467 15.3988 21.4761 15.3907 21.4045C15.3812 21.333 15.3659 21.2632 15.3573 21.2094C15.3487 21.1565 15.3392 21.1214 15.3392 21.1214C15.3392 21.1214 15.2122 21.0747 15.0875 21.0361C15.0785 21.0334 15.0694 21.0307 15.0604 21.0281C15.0396 20.9498 15.0166 20.8734 14.9904 20.7974C14.9971 20.7903 15.0026 20.7832 15.0093 20.7756C15.0514 20.7263 15.0934 20.6747 15.1246 20.6356C15.1562 20.597 15.1743 20.5703 15.1743 20.5703C15.1743 20.5703 15.1612 20.537 15.1413 20.4867C15.1309 20.4614 15.1196 20.4321 15.1065 20.4014C15.0929 20.3707 15.0767 20.3378 15.0622 20.305C15.0333 20.2387 14.9989 20.1752 14.9745 20.1276C14.9492 20.0796 14.9321 20.0472 14.9321 20.0472C14.9321 20.0472 14.8828 20.0441 14.8155 20.041C14.7707 20.0387 14.7183 20.037 14.6655 20.0361C14.656 20.0361 14.6465 20.0361 14.6374 20.0361C14.595 19.9672 14.5507 19.8996 14.5046 19.8338C14.5091 19.825 14.5123 19.8165 14.5163 19.8081C14.5688 19.6903 14.6153 19.5654 14.6153 19.5654C14.6153 19.5654 14.5936 19.5365 14.5597 19.4947C14.543 19.4734 14.5231 19.4485 14.5019 19.4218C14.4793 19.3965 14.4553 19.3694 14.4323 19.3423C14.4079 19.3152 14.3849 19.2881 14.3609 19.2627C14.3379 19.2387 14.3153 19.2156 14.2972 19.1965C14.2588 19.1574 14.2335 19.1316 14.2335 19.1316C14.2335 19.1316 14.1011 19.1596 13.9746 19.1943C13.966 19.197 13.9569 19.1996 13.947 19.2018C13.8873 19.1472 13.8259 19.0947 13.7626 19.0441C13.764 19.0352 13.7653 19.0258 13.7667 19.0165C13.783 18.8885 13.7929 18.7556 13.7929 18.7556C13.7929 18.7556 13.7635 18.7352 13.7188 18.7032C13.6745 18.6716 13.6149 18.6303 13.553 18.5925C13.5222 18.573 13.4915 18.5534 13.4626 18.5356C13.4332 18.5187 13.4048 18.5032 13.3813 18.4894C13.3343 18.4627 13.3026 18.445 13.3026 18.445C13.3026 18.445 13.2728 18.4601 13.229 18.485C13.1851 18.5094 13.1278 18.5427 13.0717 18.5765C13.0636 18.5818 13.0559 18.5867 13.0478 18.5912C12.975 18.5552 12.9009 18.5218 12.825 18.4907C12.8237 18.4818 12.8223 18.4721 12.8209 18.4636C12.7997 18.3365 12.7712 18.2058 12.7712 18.2058C12.7712 18.2058 12.7626 18.2032 12.7477 18.197C12.7328 18.1925 12.7111 18.1854 12.6849 18.1761C12.633 18.1592 12.5647 18.1343 12.4938 18.1161C12.4233 18.0965 12.3533 18.0761 12.2995 18.065C12.2462 18.053 12.2109 18.045 12.2109 18.045C12.2109 18.045 12.187 18.0681 12.1513 18.1023C12.1174 18.1383 12.0713 18.1867 12.0275 18.2352C12.0216 18.2423 12.0148 18.249 12.0085 18.2561C11.929 18.2423 11.8481 18.2307 11.7663 18.2214C11.7622 18.213 11.7591 18.205 11.7545 18.1961C11.6981 18.0787 11.633 17.9641 11.633 17.9641C11.633 17.9641 11.5959 17.9614 11.5417 17.9578C11.487 17.9565 11.4143 17.9547 11.3415 17.9525C11.2688 17.9547 11.1956 17.9565 11.1414 17.9578C11.0862 17.9614 11.0501 17.9641 11.0501 17.9641C11.0501 17.9641 10.9846 18.0787 10.929 18.1961C10.9236 18.205 10.9199 18.213 10.9163 18.2214C10.835 18.2307 10.7541 18.2423 10.6741 18.2561C10.6678 18.249 10.6615 18.2423 10.6556 18.2352C10.6118 18.1867 10.5657 18.1383 10.5313 18.1023C10.4956 18.0681 10.4721 18.045 10.4721 18.045C10.4721 18.045 10.4369 18.053 10.3831 18.065C10.3298 18.0761 10.2593 18.0965 10.1888 18.1161C10.1183 18.1343 10.0496 18.1592 9.99768 18.1761C9.97192 18.1854 9.95068 18.1925 9.93532 18.197C9.91996 18.2032 9.91182 18.2058 9.91182 18.2058C9.91182 18.2058 9.882 18.3365 9.86166 18.4636C9.86031 18.4721 9.85895 18.4818 9.85805 18.4907C9.81332 18.5085 9.76994 18.5285 9.72746 18.5485C9.69628 18.5623 9.66555 18.5765 9.63483 18.5912C9.62715 18.5867 9.61856 18.5818 9.61133 18.5765C9.58422 18.5605 9.55801 18.5445 9.53271 18.5298C9.50379 18.5134 9.47713 18.4978 9.45408 18.485C9.4098 18.4601 9.37997 18.445 9.37997 18.445C9.37997 18.445 9.3488 18.4627 9.30135 18.4894C9.2774 18.5032 9.24984 18.5187 9.22047 18.5356C9.19155 18.5534 9.16082 18.573 9.12964 18.5925C9.06819 18.6303 9.00854 18.6716 8.96426 18.7032C8.91952 18.7352 8.89015 18.7556 8.89015 18.7556C8.89015 18.7556 8.89964 18.8885 8.91636 19.0165C8.91726 19.0258 8.91862 19.0352 8.91952 19.0441C8.85626 19.0947 8.79526 19.1472 8.73516 19.2018C8.72612 19.1996 8.71709 19.197 8.70805 19.1943C8.58107 19.1596 8.44868 19.1316 8.44868 19.1316C8.44868 19.1316 8.42428 19.1574 8.38632 19.1965C8.36734 19.2156 8.34475 19.2387 8.3217 19.2627C8.29821 19.2881 8.27471 19.3152 8.25076 19.3423C8.22636 19.3694 8.20331 19.3965 8.18117 19.4218C8.15993 19.4485 8.1405 19.4734 8.12288 19.4947C8.0899 19.5365 8.0664 19.5654 8.0664 19.5654C8.0664 19.5654 8.1143 19.6903 8.16626 19.8081C8.16988 19.817 8.17439 19.825 8.17846 19.8338C8.13147 19.8996 8.08764 19.9672 8.04561 20.0361C8.03567 20.0361 8.02663 20.0361 8.01714 20.0361C7.8861 20.0383 7.751 20.0472 7.751 20.0472C7.751 20.0472 7.73382 20.0796 7.70852 20.1276C7.68367 20.1752 7.65023 20.2387 7.61995 20.305C7.60595 20.3378 7.59058 20.3707 7.57657 20.4014C7.56347 20.4321 7.55217 20.4614 7.54178 20.4867C7.52145 20.537 7.50834 20.5703 7.50834 20.5703C7.50834 20.5703 7.52687 20.597 7.5585 20.6356C7.58968 20.6747 7.63125 20.7263 7.67418 20.7756C7.6796 20.7832 7.68638 20.7903 7.69225 20.7974C7.6665 20.8734 7.64255 20.9498 7.62221 21.0281C7.61318 21.0307 7.60414 21.0334 7.5951 21.0361C7.46993 21.0747 7.34432 21.1214 7.34432 21.1214C7.34432 21.1214 7.33483 21.1565 7.32624 21.2094C7.31675 21.2632 7.30139 21.333 7.29235 21.4045C7.28377 21.4761 7.27247 21.5467 7.26885 21.6005C7.26433 21.6543 7.26253 21.6903 7.26253 21.6903C7.26253 21.6903 7.28828 21.7098 7.32895 21.7387C7.36826 21.7672 7.42384 21.8054 7.47897 21.8405C7.48756 21.8463 7.49524 21.8512 7.50292 21.8565C7.50202 21.8965 7.49976 21.9361 7.49976 21.9765C7.49976 22.0165 7.50202 22.0565 7.50292 22.097C7.49524 22.1018 7.48756 22.1067 7.47897 22.1116C7.42384 22.1481 7.36826 22.1854 7.32895 22.2143C7.28828 22.2436 7.26253 22.2627 7.26253 22.2627C7.26253 22.2627 7.26433 22.2992 7.26885 22.3525C7.27247 22.4058 7.28377 22.4774 7.29235 22.5485C7.30139 22.6196 7.31675 22.6903 7.32624 22.7432C7.33483 22.797 7.34432 22.8312 7.34432 22.8312C7.34432 22.8312 7.46993 22.8783 7.5951 22.9165C7.60414 22.9201 7.61318 22.9227 7.62221 22.925C7.64255 23.0027 7.6665 23.0792 7.69225 23.1552C7.68638 23.1627 7.6796 23.1698 7.67418 23.177C7.63125 23.2267 7.58968 23.2774 7.5585 23.317C7.52687 23.3565 7.50834 23.3827 7.50834 23.3827C7.50834 23.3827 7.52145 23.4161 7.54178 23.4663C7.55217 23.4912 7.56347 23.521 7.57657 23.5516C7.59058 23.5823 7.60595 23.6152 7.61995 23.6481C7.65023 23.7143 7.68367 23.7774 7.70852 23.8254C7.73382 23.8734 7.751 23.9054 7.751 23.9054C7.751 23.9054 7.8861 23.9147 8.01714 23.9165C8.02663 23.917 8.03567 23.917 8.04561 23.917C8.08764 23.9858 8.13147 24.0534 8.17846 24.1192C8.17439 24.1276 8.16988 24.1356 8.16626 24.1445C8.1143 24.2627 8.0664 24.3881 8.0664 24.3881C8.0664 24.3881 8.0899 24.4161 8.12288 24.4583C8.1405 24.4796 8.15993 24.5045 8.18117 24.5307C8.20331 24.5561 8.22636 24.5836 8.25076 24.6107C8.27471 24.6374 8.29821 24.665 8.3217 24.6898C8.34475 24.7143 8.36734 24.737 8.38632 24.7565C8.42428 24.7952 8.44868 24.8214 8.44868 24.8214C8.44868 24.8214 8.58107 24.793 8.70805 24.7583C8.71709 24.7561 8.72612 24.7534 8.73516 24.7512C8.79526 24.8054 8.85626 24.8578 8.91952 24.9085C8.91862 24.9183 8.91726 24.9272 8.91636 24.9365C8.89964 25.0641 8.89015 25.1974 8.89015 25.1974C8.89015 25.1974 8.91952 25.2183 8.96426 25.2494C9.00854 25.2814 9.06819 25.3223 9.12964 25.3605C9.16082 25.3796 9.19155 25.3987 9.22047 25.4169C9.24984 25.4338 9.2774 25.4498 9.30135 25.4627C9.3488 25.4898 9.37997 25.5076 9.37997 25.5076C9.37997 25.5076 9.4098 25.4929 9.45408 25.4681C9.49791 25.4436 9.5553 25.4098 9.61133 25.3761C9.61901 25.3712 9.62715 25.3667 9.63483 25.3614C9.65426 25.3712 9.67369 25.3805 9.69221 25.3894C9.70442 25.3947 9.71616 25.3996 9.72746 25.4049C9.76994 25.4245 9.81332 25.4441 9.85805 25.4623C9.85895 25.4712 9.86031 25.4801 9.86166 25.4894C9.882 25.6165 9.91182 25.7467 9.91182 25.7467C9.91182 25.7467 9.91996 25.7503 9.93532 25.7556C9.95068 25.7609 9.97192 25.7681 9.99768 25.7765C10.0496 25.7938 10.1183 25.8183 10.1888 25.8374C10.2593 25.8561 10.3298 25.8769 10.3831 25.8881C10.4369 25.9001 10.4721 25.9081 10.4721 25.9081C10.4721 25.9081 10.4956 25.8849 10.5313 25.8498C10.5657 25.8143 10.6118 25.7663 10.6556 25.7174C10.6615 25.7107 10.6678 25.7041 10.6741 25.6965C10.7541 25.7103 10.835 25.7223 10.9163 25.7307C10.9199 25.7396 10.9236 25.7481 10.929 25.7569C10.9846 25.8738 11.0501 25.9885 11.0501 25.9885C11.0501 25.9885 11.0862 25.9912 11.1414 25.9947C11.1956 25.9965 11.2688 25.9978 11.3415 26.0001C11.4143 25.9978 11.487 25.9965 11.5417 25.9947C11.5959 25.9912 11.633 25.9885 11.633 25.9885C11.633 25.9885 11.6981 25.8738 11.7545 25.7569C11.7591 25.7481 11.7622 25.7396 11.7663 25.7307C11.8481 25.7223 11.929 25.7103 12.0085 25.6965C12.0148 25.7041 12.0216 25.7107 12.0275 25.7174C12.0713 25.7663 12.1174 25.8143 12.1513 25.8498C12.187 25.8849 12.2109 25.9081 12.2109 25.9081C12.2109 25.9081 12.2462 25.9001 12.2995 25.8881C12.3533 25.8769 12.4233 25.8561 12.4938 25.8374C12.5647 25.8183 12.633 25.7938 12.6849 25.7765C12.7111 25.7681 12.7328 25.7609 12.7477 25.7556C12.7626 25.7503 12.7712 25.7467 12.7712 25.7467C12.7712 25.7467 12.7997 25.6165 12.8209 25.4894C12.8223 25.4801 12.8237 25.4712 12.825 25.4623C12.9009 25.4307 12.975 25.3969 13.0478 25.3614C13.0559 25.3667 13.0636 25.3712 13.0717 25.3761C13.1278 25.4098 13.1851 25.4436 13.229 25.4681C13.2728 25.4929 13.3026 25.5076 13.3026 25.5076C13.3026 25.5076 13.3343 25.4898 13.3813 25.4627C13.4048 25.4498 13.4332 25.4338 13.4626 25.4169C13.4915 25.3987 13.5222 25.3796 13.553 25.3605C13.6149 25.3223 13.6745 25.2814 13.7188 25.2494C13.7635 25.2183 13.7929 25.1974 13.7929 25.1974C13.7929 25.1974 13.783 25.0641 13.7667 24.9365C13.7653 24.9272 13.764 24.9183 13.7626 24.909C13.8259 24.8578 13.8873 24.8058 13.947 24.7512C13.9569 24.7534 13.966 24.7561 13.9746 24.7583C14.1011 24.793 14.2335 24.8214 14.2335 24.8214C14.2335 24.8214 14.2588 24.7952 14.2972 24.7565C14.3153 24.737 14.3379 24.7143 14.3609 24.6898C14.3849 24.665 14.4079 24.6374 14.4323 24.6107C14.4553 24.5836 14.4793 24.5561 14.5019 24.5307C14.5231 24.5045 14.543 24.4796 14.5597 24.4583C14.5936 24.4161 14.6153 24.3881 14.6153 24.3881C14.6153 24.3881 14.5688 24.2627 14.5163 24.1445C14.5123 24.1356 14.5091 24.1276 14.5046 24.1192C14.5507 24.0534 14.595 23.9858 14.6374 23.917C14.6465 23.917 14.656 23.917 14.6655 23.9165C14.7965 23.9147 14.9321 23.9054 14.9321 23.9054C14.9321 23.9054 14.9492 23.8734 14.9745 23.8254C14.9989 23.7774 15.0333 23.7143 15.0622 23.6481C15.0767 23.6152 15.0929 23.5823 15.1065 23.5516C15.1196 23.521 15.1309 23.4912 15.1413 23.4663C15.1612 23.4161 15.1743 23.3827 15.1743 23.3827C15.1743 23.3827 15.1562 23.3565 15.1246 23.317C15.0934 23.2774 15.0514 23.2267 15.0093 23.177C15.0026 23.1698 14.9971 23.1627 14.9904 23.1552C15.0166 23.0801 15.0396 23.0027 15.0604 22.925C15.0694 22.9227 15.0785 22.9201 15.0875 22.9165C15.2122 22.8783 15.3392 22.8312 15.3392 22.8312C15.3392 22.8312 15.3487 22.797 15.3573 22.7432C15.3659 22.6903 15.3812 22.6196 15.3907 22.5485C15.3939 22.5196 15.3975 22.4903 15.4011 22.4618C15.407 22.4223 15.4115 22.3841 15.4138 22.3525C15.4178 22.2992 15.4205 22.2627 15.4205 22.2627C15.4205 22.2627 15.3943 22.2436 15.3541 22.2143C15.3143 22.1854 15.2592 22.1481 15.2041 22.1116C15.1955 22.1067 15.1883 22.1018 15.1801 22.097C15.181 22.0565 15.1824 22.0165 15.1824 21.9765C15.1824 21.9361 15.181 21.8965 15.1801 21.8561C15.1883 21.8512 15.1955 21.8463 15.2041 21.8405C15.2592 21.8054 15.3143 21.7672 15.3541 21.7387Z" fill="black"/>
<path fill-rule="evenodd" clip-rule="evenodd" d="M11.3412 21.3303C10.9783 21.3303 10.6842 21.6192 10.6842 21.9765C10.6842 22.3334 10.9783 22.6228 11.3412 22.6228C11.7036 22.6228 11.9978 22.3334 11.9978 21.9765C11.9978 21.6192 11.7036 21.3303 11.3412 21.3303Z" fill="black"/>
<path fill-rule="evenodd" clip-rule="evenodd" d="M10.4947 21.6906C10.4947 21.6315 10.4463 21.5835 10.3862 21.5835C10.3261 21.5835 10.2773 21.6315 10.2773 21.6906C10.2773 21.7497 10.3261 21.7982 10.3867 21.7982C10.4463 21.7982 10.4947 21.7502 10.4947 21.6906Z" fill="black"/>
<path fill-rule="evenodd" clip-rule="evenodd" d="M11.6311 21.1617C11.6912 21.1617 11.7409 21.1137 11.7409 21.0546C11.7409 20.9951 11.6912 20.9475 11.6311 20.9475C11.5714 20.9475 11.5222 20.9951 11.5222 21.0546C11.5222 21.1137 11.5714 21.1617 11.6311 21.1617Z" fill="black"/>
<path fill-rule="evenodd" clip-rule="evenodd" d="M12.2865 21.6021C12.3285 21.5603 12.3285 21.4923 12.2865 21.4505C12.244 21.4087 12.1749 21.4087 12.1329 21.4505C12.0899 21.4923 12.0899 21.5603 12.1329 21.6021C12.1749 21.6439 12.244 21.6439 12.2865 21.6021Z" fill="black"/>
<path fill-rule="evenodd" clip-rule="evenodd" d="M12.2779 22.1552C12.2179 22.1552 12.17 22.2027 12.17 22.2618C12.17 22.3214 12.2179 22.3685 12.2779 22.3685C12.3385 22.3685 12.3873 22.3214 12.3868 22.2618C12.3868 22.2027 12.3385 22.1552 12.2779 22.1552Z" fill="black"/>
<path fill-rule="evenodd" clip-rule="evenodd" d="M11.7217 22.7547C11.6792 22.796 11.6792 22.8635 11.7217 22.9053C11.7642 22.9471 11.8333 22.9475 11.8753 22.9053C11.9178 22.8635 11.9178 22.796 11.8753 22.7547C11.8333 22.712 11.7642 22.712 11.7217 22.7547Z" fill="black"/>
<path fill-rule="evenodd" clip-rule="evenodd" d="M11.0508 22.7906C10.9907 22.7906 10.9423 22.8391 10.9423 22.8978C10.9423 22.9573 10.9907 23.0053 11.0508 23.0053C11.1113 23.0053 11.1597 22.9573 11.1597 22.8978C11.1597 22.8391 11.1113 22.7906 11.0508 22.7906Z" fill="black"/>
<path fill-rule="evenodd" clip-rule="evenodd" d="M10.3965 22.3505C10.3535 22.3923 10.3535 22.4603 10.3965 22.5021C10.4394 22.5434 10.5076 22.5434 10.5496 22.5021C10.593 22.4603 10.593 22.3923 10.5496 22.3505C10.5076 22.3088 10.4394 22.3088 10.3965 22.3505Z" fill="black"/>
<path fill-rule="evenodd" clip-rule="evenodd" d="M10.9611 21.1987C11.0036 21.1565 11.0036 21.0894 10.9611 21.0476C10.9187 21.005 10.8495 21.005 10.8066 21.0476C10.7646 21.0894 10.7646 21.1565 10.8066 21.1987C10.8495 21.2396 10.9187 21.2396 10.9611 21.1987Z" fill="black"/>
<path fill-rule="evenodd" clip-rule="evenodd" d="M25.7699 23.3476C25.5588 23.0969 25.4097 22.7947 25.3442 22.4618C25.3207 22.3409 25.3081 22.2164 25.3081 22.0884C25.3081 20.9978 26.2073 20.1138 27.3157 20.1138C28.4246 20.1138 29.3229 20.9978 29.3229 22.0884C29.3229 23.1782 28.4246 24.0627 27.3157 24.0627C26.6939 24.0627 26.1381 23.7844 25.7699 23.3476ZM31.0509 21.8662C31.0884 21.8391 31.1132 21.8213 31.1132 21.8213C31.1132 21.8213 31.1105 21.7876 31.1064 21.7373C31.1037 21.688 31.0933 21.6222 31.0848 21.5551C31.0766 21.4885 31.0622 21.4236 31.054 21.3738C31.0459 21.3245 31.0364 21.292 31.0364 21.292C31.0364 21.292 30.9194 21.2485 30.8037 21.2125C30.7951 21.2102 30.7861 21.2076 30.7779 21.2049C30.759 21.1325 30.7364 21.0609 30.7129 20.9902C30.7187 20.9836 30.7242 20.9773 30.73 20.9698C30.7698 20.924 30.8087 20.876 30.8371 20.84C30.8665 20.8031 30.8841 20.7787 30.8841 20.7787C30.8841 20.7787 30.8719 20.7471 30.8534 20.7009C30.8435 20.6778 30.8326 20.6502 30.8204 20.6213C30.8073 20.5929 30.7938 20.5627 30.7797 20.5316C30.7526 20.4702 30.7206 20.4111 30.6975 20.3662C30.6745 20.3222 30.6582 20.2925 30.6582 20.2925C30.6582 20.2925 30.5326 20.2831 30.4106 20.2818C30.4015 20.2818 30.3929 20.2818 30.3844 20.2818C30.3446 20.2174 30.3035 20.1547 30.2606 20.0934C30.2646 20.0854 30.2678 20.0778 30.2705 20.0694C30.3202 19.9596 30.364 19.8427 30.364 19.8427C30.364 19.8427 30.3432 19.8165 30.3116 19.7769C30.2953 19.7578 30.2782 19.7347 30.2578 19.7098C30.2366 19.6862 30.2145 19.6609 30.1932 19.6356C30.1706 19.6102 30.1485 19.5849 30.1268 19.5622C30.1051 19.5391 30.0843 19.5182 30.0667 19.4996C30.0319 19.4636 30.0084 19.4396 30.0084 19.4396C30.0084 19.4396 29.8851 19.4658 29.7676 19.4978C29.759 19.5 29.7504 19.5027 29.7418 19.5049C29.6862 19.4538 29.6288 19.4054 29.5701 19.3578C29.571 19.3498 29.5728 19.3409 29.5733 19.332C29.5891 19.2134 29.5986 19.0898 29.5986 19.0898C29.5986 19.0898 29.571 19.0698 29.529 19.0409C29.4874 19.0116 29.4323 18.9725 29.3744 18.9378C29.346 18.92 29.3171 18.9018 29.2904 18.8849C29.2628 18.8689 29.2366 18.8547 29.2149 18.8418C29.1707 18.8169 29.1408 18.8 29.1408 18.8C29.1408 18.8 29.1133 18.8147 29.0726 18.8378C29.0315 18.86 28.9782 18.8911 28.9266 18.9227C28.9185 18.9271 28.9117 18.932 28.9045 18.9365C28.8367 18.9036 28.7667 18.872 28.6971 18.8431C28.6957 18.8342 28.6939 18.8258 28.693 18.8174C28.6736 18.6991 28.6465 18.5778 28.6465 18.5778C28.6465 18.5778 28.6388 18.5751 28.6252 18.5698C28.6112 18.5649 28.5909 18.5582 28.567 18.5502C28.5186 18.5342 28.4544 18.5107 28.3889 18.4938C28.3229 18.476 28.2574 18.4565 28.2077 18.4467C28.1585 18.4351 28.1246 18.4276 28.1246 18.4276C28.1246 18.4276 28.1029 18.4494 28.0699 18.4814C28.0374 18.5147 27.9949 18.56 27.9542 18.6049C27.9484 18.6111 27.9429 18.6182 27.9371 18.6245C27.862 18.6116 27.787 18.6005 27.7111 18.5925C27.708 18.5845 27.7043 18.5765 27.6998 18.5685C27.6474 18.4596 27.5869 18.3525 27.5869 18.3525C27.5869 18.3525 27.5534 18.3502 27.5019 18.3467C27.4508 18.3458 27.3831 18.344 27.3157 18.3418C27.2475 18.344 27.1797 18.3458 27.1287 18.3467C27.0781 18.3502 27.0446 18.3525 27.0446 18.3525C27.0446 18.3525 26.9832 18.4596 26.9312 18.5685C26.9271 18.5765 26.9231 18.5845 26.9195 18.5925C26.8435 18.6005 26.7681 18.6116 26.694 18.6245C26.6885 18.6182 26.6827 18.6111 26.6768 18.6049C26.6361 18.56 26.5937 18.5147 26.5611 18.4814C26.5281 18.4494 26.506 18.4276 26.506 18.4276C26.506 18.4276 26.4735 18.4351 26.4238 18.4467C26.3736 18.4565 26.3081 18.476 26.243 18.4938C26.1775 18.5107 26.1129 18.5342 26.0645 18.5502C26.0406 18.5582 26.0202 18.5649 26.0062 18.5698C25.9922 18.5751 25.9841 18.5778 25.9841 18.5778C25.9841 18.5778 25.9579 18.6991 25.938 18.8174C25.9366 18.8258 25.9353 18.8342 25.9344 18.8431C25.8639 18.872 25.7948 18.9036 25.7274 18.9365C25.7197 18.932 25.7125 18.9271 25.7044 18.9227C25.6524 18.8911 25.5991 18.86 25.5584 18.8378C25.5178 18.8147 25.4897 18.8005 25.4897 18.8005C25.4897 18.8005 25.4608 18.8169 25.4156 18.8418C25.3939 18.8547 25.3682 18.8689 25.3406 18.8849C25.314 18.9018 25.285 18.92 25.257 18.9378C25.1992 18.9725 25.1436 19.0116 25.102 19.0409C25.06 19.0698 25.0329 19.0898 25.0329 19.0898C25.0329 19.0898 25.0419 19.2134 25.0578 19.332C25.0587 19.3409 25.0596 19.3498 25.0614 19.3578C25.0017 19.4054 24.9448 19.4538 24.8897 19.5049C24.8806 19.5027 24.872 19.5 24.8639 19.4978C24.7464 19.4658 24.6226 19.4396 24.6226 19.4396C24.6226 19.4396 24.6 19.4636 24.5643 19.4996C24.5462 19.5182 24.5264 19.5391 24.5038 19.5622C24.4825 19.5849 24.4608 19.6102 24.4378 19.6356C24.4157 19.6609 24.3944 19.6862 24.3736 19.7098C24.3687 19.716 24.3641 19.7214 24.3596 19.7271C24.3452 19.7449 24.3316 19.7622 24.3199 19.7769C24.2878 19.8165 24.267 19.8427 24.267 19.8427C24.267 19.8427 24.3108 19.9596 24.3596 20.0694C24.3632 20.0778 24.3669 20.0849 24.3705 20.0934C24.3669 20.0982 24.3632 20.1027 24.3596 20.108C24.3203 20.1645 24.2828 20.2227 24.2467 20.2818C24.2381 20.2818 24.2295 20.2818 24.2209 20.2818C24.0984 20.2831 23.9733 20.2925 23.9733 20.2925C23.9733 20.2925 23.957 20.3222 23.9335 20.3662C23.9105 20.4111 23.8784 20.4702 23.8517 20.5316C23.8377 20.5627 23.8242 20.5929 23.8106 20.6213C23.798 20.6502 23.788 20.6778 23.7781 20.7009C23.7586 20.7471 23.7469 20.7787 23.7469 20.7787C23.7469 20.7787 23.7645 20.8031 23.7934 20.84C23.8224 20.876 23.8617 20.924 23.9005 20.9698C23.906 20.9773 23.9118 20.9836 23.9182 20.9902C23.8942 21.0609 23.8721 21.1325 23.8526 21.2049C23.8449 21.2076 23.8359 21.2102 23.8282 21.2125C23.7121 21.2485 23.5942 21.292 23.5942 21.292C23.5942 21.292 23.5856 21.3245 23.5765 21.3738C23.5684 21.4236 23.5539 21.4885 23.5463 21.5551C23.5381 21.6222 23.5277 21.688 23.5241 21.7373C23.5201 21.7876 23.5182 21.8213 23.5182 21.8213C23.5182 21.8213 23.5422 21.8391 23.5797 21.8662C23.6163 21.8933 23.6683 21.9289 23.7198 21.9613C23.727 21.9667 23.7347 21.9711 23.7419 21.9765C23.7406 22.0133 23.7392 22.0511 23.7392 22.0885C23.7392 22.1253 23.7406 22.1627 23.7419 22.2C23.7347 22.2049 23.727 22.2093 23.7198 22.2142C23.6683 22.2476 23.6163 22.2822 23.5797 22.3093C23.5422 22.3369 23.5182 22.3551 23.5182 22.3551C23.5182 22.3551 23.5201 22.388 23.5241 22.4382C23.5246 22.4453 23.5255 22.4542 23.5264 22.4618C23.5309 22.5089 23.539 22.5645 23.5463 22.6209C23.5539 22.6871 23.5684 22.7529 23.5765 22.8018C23.5856 22.8511 23.5942 22.884 23.5942 22.884C23.5942 22.884 23.7121 22.9276 23.8282 22.9631C23.8359 22.9667 23.8449 22.9685 23.8526 22.9711C23.8721 23.044 23.8942 23.1151 23.9182 23.1858C23.9118 23.1925 23.906 23.1991 23.9005 23.2058C23.8617 23.2525 23.8224 23.2996 23.7934 23.336C23.7645 23.3729 23.7469 23.3973 23.7469 23.3973C23.7469 23.3973 23.7586 23.4285 23.7781 23.4751C23.788 23.4982 23.798 23.5258 23.8106 23.5547C23.8242 23.5831 23.8377 23.6138 23.8517 23.644C23.8784 23.7053 23.9105 23.7649 23.9335 23.8093C23.957 23.8542 23.9733 23.884 23.9733 23.884C23.9733 23.884 24.0984 23.8929 24.2209 23.8942C24.2295 23.8947 24.2381 23.8947 24.2467 23.8947C24.286 23.9587 24.3275 24.0213 24.3705 24.0827C24.3669 24.0911 24.3632 24.0987 24.3596 24.1067C24.3108 24.2165 24.267 24.3329 24.267 24.3329C24.267 24.3329 24.2878 24.3591 24.3199 24.3987C24.3352 24.4187 24.3538 24.4418 24.3736 24.4658C24.3944 24.4898 24.4157 24.5147 24.4378 24.5405C24.4608 24.5658 24.4825 24.5911 24.5038 24.6142C24.5264 24.6369 24.5462 24.6582 24.5643 24.6765C24.6 24.7125 24.6226 24.7365 24.6226 24.7365C24.6226 24.7365 24.7464 24.7102 24.8639 24.6787C24.872 24.676 24.8811 24.6738 24.8897 24.6711C24.9448 24.7218 25.0017 24.7711 25.0614 24.8178C25.0596 24.8262 25.0587 24.8347 25.0578 24.844C25.0419 24.9627 25.0329 25.0867 25.0329 25.0867C25.0329 25.0867 25.06 25.1058 25.102 25.1351C25.1436 25.1645 25.1992 25.2031 25.257 25.2387C25.285 25.256 25.314 25.2738 25.3406 25.2911C25.3682 25.3067 25.3939 25.3218 25.4156 25.3342C25.4608 25.3591 25.4897 25.3756 25.4897 25.3756C25.4897 25.3756 25.5178 25.3613 25.5584 25.3387C25.5991 25.316 25.6524 25.2849 25.7044 25.2533C25.7125 25.2485 25.7197 25.244 25.7274 25.2396C25.7414 25.2462 25.7554 25.2538 25.7699 25.2605C25.8237 25.2862 25.8788 25.3107 25.9344 25.3333C25.9353 25.3418 25.9366 25.3502 25.938 25.3587C25.9579 25.4769 25.9841 25.5978 25.9841 25.5978C25.9841 25.5978 25.9922 25.6009 26.0062 25.6062C26.0202 25.6107 26.0406 25.6178 26.0645 25.6258C26.1129 25.6413 26.1775 25.6649 26.243 25.6818C26.3081 25.7005 26.3736 25.7196 26.4238 25.7293C26.4735 25.7405 26.506 25.748 26.506 25.748C26.506 25.748 26.5281 25.7267 26.5611 25.6942C26.5937 25.6613 26.6361 25.616 26.6768 25.5716C26.6827 25.5645 26.6885 25.5582 26.6944 25.5516C26.7685 25.5645 26.8435 25.5756 26.9195 25.5836C26.9231 25.5911 26.9271 25.5991 26.9312 25.6076C26.9832 25.7165 27.0446 25.8236 27.0446 25.8236C27.0446 25.8236 27.0781 25.8258 27.1287 25.8293C27.1797 25.8307 27.2475 25.832 27.3157 25.8338C27.3831 25.832 27.4508 25.8307 27.5019 25.8293C27.5534 25.8258 27.5869 25.8236 27.5869 25.8236C27.5869 25.8236 27.6474 25.7165 27.6998 25.6076C27.7043 25.5991 27.708 25.5911 27.7111 25.5836C27.787 25.5756 27.862 25.5645 27.9371 25.5516C27.942 25.5582 27.9484 25.5645 27.9542 25.5716C27.9949 25.616 28.0374 25.6613 28.0699 25.6942C28.1029 25.7267 28.1246 25.748 28.1246 25.748C28.1246 25.748 28.1585 25.7405 28.2077 25.7293C28.2574 25.7196 28.3229 25.7005 28.3889 25.6818C28.4544 25.6649 28.5186 25.6413 28.567 25.6258C28.5909 25.6178 28.6112 25.6107 28.6252 25.6062C28.6388 25.6009 28.6465 25.5978 28.6465 25.5978C28.6465 25.5978 28.6736 25.4769 28.693 25.3587C28.6939 25.3502 28.6957 25.3418 28.6971 25.3333C28.7667 25.304 28.8367 25.2725 28.9045 25.2396C28.9117 25.244 28.9185 25.2485 28.9266 25.2533C28.9782 25.2849 29.0315 25.316 29.0726 25.3387C29.1133 25.3613 29.1408 25.3756 29.1408 25.3756C29.1408 25.3756 29.1707 25.3591 29.2149 25.3342C29.2366 25.3218 29.2628 25.3067 29.2904 25.2911C29.3171 25.2738 29.346 25.256 29.3744 25.2387C29.4323 25.2031 29.4874 25.1645 29.529 25.1351C29.571 25.1058 29.5986 25.0867 29.5986 25.0867C29.5986 25.0867 29.5891 24.9627 29.5733 24.844C29.5728 24.8347 29.571 24.8262 29.5701 24.8178C29.6288 24.7711 29.6862 24.7218 29.7418 24.6711C29.7504 24.6738 29.759 24.676 29.7676 24.6787C29.8851 24.7102 30.0084 24.7365 30.0084 24.7365C30.0084 24.7365 30.0319 24.7125 30.0667 24.6765C30.0843 24.6582 30.1051 24.6369 30.1268 24.6142C30.1485 24.5911 30.1706 24.5658 30.1932 24.5405C30.2145 24.5147 30.2366 24.4898 30.2578 24.4658C30.2782 24.4418 30.2953 24.4187 30.3116 24.3987C30.3432 24.3591 30.364 24.3329 30.364 24.3329C30.364 24.3329 30.3202 24.2165 30.2705 24.1067C30.2678 24.0987 30.2646 24.0911 30.2606 24.0827C30.3035 24.0213 30.3446 23.9587 30.3844 23.8947C30.3929 23.8947 30.4015 23.8947 30.4106 23.8942C30.5326 23.8929 30.6582 23.884 30.6582 23.884C30.6582 23.884 30.6745 23.8542 30.6975 23.8093C30.7206 23.7649 30.7526 23.7053 30.7797 23.644C30.7938 23.6138 30.8073 23.5831 30.8204 23.5547C30.8326 23.5258 30.8435 23.4982 30.8534 23.4751C30.8719 23.4285 30.8841 23.3973 30.8841 23.3973C30.8841 23.3973 30.8665 23.3729 30.8371 23.336C30.8087 23.2996 30.7698 23.2525 30.73 23.2058C30.7242 23.1991 30.7192 23.1925 30.7129 23.1858C30.7364 23.1151 30.759 23.044 30.7779 22.9711C30.7861 22.9685 30.7951 22.9667 30.8037 22.9631C30.9194 22.9276 31.0364 22.884 31.0364 22.884C31.0364 22.884 31.0459 22.8511 31.054 22.8018C31.0622 22.7529 31.0766 22.6871 31.0848 22.6209C31.0933 22.5542 31.1037 22.488 31.1064 22.4382C31.1105 22.388 31.1132 22.3551 31.1132 22.3551C31.1132 22.3551 31.0884 22.3369 31.0509 22.3093C31.0143 22.2822 30.9628 22.2476 30.9112 22.2142C30.904 22.2093 30.8963 22.2049 30.8891 22.2C30.8905 22.1627 30.8918 22.1253 30.8918 22.0885C30.8918 22.0511 30.8905 22.0133 30.8891 21.9765C30.8963 21.9711 30.904 21.9667 30.9112 21.9613C30.9628 21.9289 31.0143 21.8933 31.0509 21.8662Z" fill="black"/>
<path fill-rule="evenodd" clip-rule="evenodd" d="M27.3156 22.6892C27.6527 22.6892 27.9275 22.4199 27.9275 22.0883C27.9275 21.7559 27.6527 21.4866 27.3156 21.4866C26.9772 21.4866 26.7043 21.7559 26.7043 22.0883C26.7043 22.4199 26.9772 22.6892 27.3156 22.6892Z" fill="black"/>
<path fill-rule="evenodd" clip-rule="evenodd" d="M26.426 21.9217C26.482 21.9217 26.5272 21.8773 26.5272 21.8222C26.5272 21.7671 26.482 21.7222 26.426 21.7222C26.3704 21.7222 26.3248 21.7671 26.3248 21.8222C26.3257 21.8773 26.3704 21.9217 26.426 21.9217Z" fill="black"/>
<path fill-rule="evenodd" clip-rule="evenodd" d="M27.5861 21.3293C27.6412 21.3293 27.6873 21.2849 27.6873 21.2298C27.6873 21.1746 27.6412 21.1298 27.5861 21.1298C27.5301 21.1298 27.4844 21.1746 27.4844 21.2298C27.4844 21.2849 27.5301 21.3293 27.5861 21.3293Z" fill="black"/>
<path fill-rule="evenodd" clip-rule="evenodd" d="M28.195 21.7391C28.2352 21.7004 28.2352 21.6373 28.195 21.5982C28.1557 21.5595 28.0915 21.5595 28.0517 21.5982C28.012 21.6373 28.012 21.7004 28.0517 21.7391C28.0915 21.7787 28.1557 21.7787 28.195 21.7391Z" fill="black"/>
<path fill-rule="evenodd" clip-rule="evenodd" d="M28.0868 22.3537C28.0868 22.4084 28.1324 22.4533 28.188 22.4533C28.244 22.4533 28.2892 22.4084 28.2892 22.3537C28.2892 22.2982 28.244 22.2542 28.188 22.2542C28.1324 22.2542 28.0868 22.2982 28.0868 22.3537Z" fill="black"/>
<path fill-rule="evenodd" clip-rule="evenodd" d="M27.6698 22.8124C27.6309 22.8511 27.6309 22.9142 27.6698 22.9533C27.7096 22.9915 27.7737 22.9915 27.813 22.9533C27.8533 22.9142 27.8533 22.8511 27.8135 22.8124C27.7737 22.7733 27.7096 22.7733 27.6698 22.8124Z" fill="black"/>
<path fill-rule="evenodd" clip-rule="evenodd" d="M27.0455 22.8467C26.9895 22.8467 26.9439 22.8911 26.9439 22.9458C26.9439 23.0009 26.9895 23.0458 27.0455 23.0458C27.1016 23.0453 27.1468 23.0009 27.1468 22.9458C27.1468 22.8911 27.102 22.8467 27.0455 22.8467Z" fill="black"/>
<path fill-rule="evenodd" clip-rule="evenodd" d="M26.4358 22.4364C26.396 22.4755 26.396 22.5382 26.4358 22.5773C26.4751 22.6164 26.5393 22.6164 26.5795 22.5773C26.6188 22.5382 26.6188 22.4755 26.5795 22.4364C26.5393 22.3973 26.4751 22.3973 26.4358 22.4364Z" fill="black"/>
<path fill-rule="evenodd" clip-rule="evenodd" d="M26.9612 21.363C27.001 21.3248 27.001 21.2617 26.9612 21.2226C26.9214 21.1839 26.8577 21.1839 26.818 21.2226C26.7791 21.2617 26.7782 21.3248 26.8184 21.363C26.8577 21.4026 26.9214 21.4026 26.9612 21.363Z" fill="black"/>
<path fill-rule="evenodd" clip-rule="evenodd" d="M5.66554 5.30311H5.94525V4.40711H5.66554V5.30311ZM6.84464 0.201355C6.84464 0.180466 6.87129 0.162688 6.90473 0.162688H7.23324C7.26623 0.162688 7.29379 0.180466 7.29379 0.201355V1.96491C7.29379 1.98624 7.26623 2.00402 7.23324 2.00402H6.90473C6.87129 2.00402 6.84464 1.98624 6.84464 1.96491V0.201355ZM22.2602 11.2515C22.9516 11.2515 23.5119 12.6129 23.5119 14.2915C23.5119 15.9706 22.9516 17.332 22.2602 17.332C22.2426 17.332 22.2259 17.3306 22.2092 17.3293C21.5743 17.2618 21.6742 15.928 21.6742 14.2915C21.6742 13.0044 21.6123 11.9053 21.8951 11.4613C21.9814 11.3262 22.0985 11.2515 22.2602 11.2515ZM20.049 11.1009C20.4566 11.1009 20.824 11.2769 21.0865 11.5591C21.1981 11.6791 21.2898 11.8182 21.359 11.9715C21.4453 12.1653 21.495 12.3809 21.495 12.6084V17.8848C21.495 18.7177 20.847 19.392 20.049 19.392H19.0011C18.2036 19.392 16.4874 17.5871 16.4874 16.7542L17.378 12.5577C17.378 12.3511 17.4295 12.1569 17.5181 11.9817C17.787 11.4529 18.4015 11.1009 19.0011 11.1009H20.049ZM7.55205 6.02666L12.9229 7.34977L13.8854 8.43866C13.9198 8.47688 14.0589 8.41866 14.2573 8.29466L17.0214 11.4195C16.8122 11.7213 16.6798 12.0778 16.6639 12.4782L15.7724 16.6813V16.7542C15.7724 17.5693 16.5767 18.5026 16.9229 18.8666C17.3598 19.3253 18.2116 20.0955 19.001 20.0955H20.0489C21.1916 20.0955 22.1288 19.1831 22.2038 18.0333C22.2228 18.0338 22.2413 18.0355 22.2603 18.0355C22.634 18.0355 23.3321 17.8631 23.8084 16.7058C24.0786 16.0493 24.2273 15.192 24.2273 14.2915C24.2273 13.3911 24.0786 12.5338 23.8084 11.8778C23.3321 10.7209 22.634 10.548 22.2603 10.548C21.9512 10.548 21.6751 10.6604 21.4605 10.872C21.4488 10.8835 21.4388 10.8955 21.4271 10.9071C21.0534 10.5889 20.573 10.3969 20.0489 10.3969H19.001C18.9237 10.3969 18.846 10.4018 18.7687 10.4098L15.7543 7.00132C15.8822 6.84888 15.9446 6.73866 15.9129 6.70355L14.8244 5.47244C14.7851 5.42799 14.6043 5.51288 14.3526 5.68133L7.58006 4.01333C7.54075 4.00355 7.50189 3.99866 7.46213 3.99555C7.38757 3.81688 7.29539 3.69822 7.19417 3.66533V2.16666H7.50099C7.63474 2.16666 7.74228 2.14622 7.74228 2.12089V0.0453333C7.74228 0.0204444 7.63474 0 7.50099 0H6.11285C6.09975 0 6.08664 0.00177778 6.07399 0.00577777C5.99808 0.0133333 5.94521 0.028 5.94521 0.0453333V3.032H5.7979V4.27955C5.7979 4.29955 5.78073 4.31644 5.75949 4.31644H5.55118C5.52994 4.31644 5.51323 4.29955 5.51323 4.27955V2.79689H5.29136C5.25882 2.79689 5.23307 2.852 5.23307 2.91955V7.70755L0.863969 7.84843C0.809745 7.84843 0.765914 7.86088 0.765914 7.87555V7.87821C0.765914 7.89288 0.809745 7.90532 0.863969 7.90532H5.23307V8.14621L0.11613 8.28621C0.0519647 8.28621 0 8.29821 0 8.31332V8.31555C0 8.33066 0.0519647 8.34266 0.11613 8.34266H5.23307V8.51021C5.23307 8.57821 5.25882 8.63288 5.29136 8.63288H5.60721C5.63975 8.63288 5.6655 8.57821 5.6655 8.51021V8.24221H5.94521V8.45199C5.94521 8.55199 6.02022 8.63288 6.11285 8.63288H7.02653C7.11916 8.63288 7.19417 8.55199 7.19417 8.45199V6.63555C7.34103 6.58755 7.46936 6.35866 7.55205 6.02666Z" fill="black"/>
<path d="M12.7 19.5731L12 16.8683L15.2 18.0978L18.35 22.4255H14.8L12.7 19.5731Z" fill="black"/>
<path d="M21.75 22.4746L23 18.9829L24.3 17.5567L28.95 17.1141L28.7 19.4747L25.8 19.9665L24.5 22.4746H21.75Z" fill="black"/>
</svg>
