<svg width="32" height="18" viewBox="0 0 32 18" fill="none" xmlns="http://www.w3.org/2000/svg">
<path fill-rule="evenodd" clip-rule="evenodd" d="M19.9542 0H23.7392C24.429 0 24.9883 0.636675 24.9883 1.33536H18.7051V1.26505C18.7051 0.566363 19.2644 0 19.9542 0Z" fill="black"/>
<path fill-rule="evenodd" clip-rule="evenodd" d="M30.5586 9.91858V13.2758H28.7119V11.0271C29.4093 10.8539 30.04 10.3878 30.5586 9.91858Z" fill="black"/>
<path fill-rule="evenodd" clip-rule="evenodd" d="M13.8516 10.9426V13.2758H12.0261V9.79187C12.5256 10.3105 13.1504 10.7247 13.8516 10.9426Z" fill="black"/>
<path fill-rule="evenodd" clip-rule="evenodd" d="M31.1203 14.6964H0.787552C0.352627 14.6964 2.28882e-05 14.3391 2.28882e-05 13.8984V12.851H31.1203C31.4137 12.851 31.6516 13.092 31.6516 13.3894V14.1581C31.6516 14.4554 31.4137 14.6964 31.1203 14.6964Z" fill="black"/>
<path fill-rule="evenodd" clip-rule="evenodd" d="M9.70039 13.4215H9.53674e-07V6.38835C9.53674e-07 6.36105 0.00775242 6.33432 0.0223789 6.31132L3.16756 1.37077C3.23644 1.26252 3.3549 1.19714 3.48204 1.19714H9.32622C9.53287 1.19714 9.70039 1.36684 9.70039 1.57613V13.4215ZM1.67733 6.80496C1.6627 6.82789 1.65495 6.85469 1.65495 6.88199C1.65495 6.96047 1.71783 7.02413 1.79528 7.02426H7.76998C7.92206 7.02426 8.04539 6.89935 8.04539 6.74529V3.15239C8.04539 2.99834 7.92206 2.87342 7.76998 2.87342H4.33027C4.23669 2.87342 4.14949 2.9215 4.0988 3.00119L1.67733 6.80496Z" fill="black"/>
<mask id="mask0" mask-type="alpha" maskUnits="userSpaceOnUse" x="1" y="1" width="31" height="11">
<path fill-rule="evenodd" clip-rule="evenodd" d="M32 1.26508H1.65499V11.3305H32V1.26508Z" fill="white"/>
</mask>
<g mask="url(#mask0)">
<path fill-rule="evenodd" clip-rule="evenodd" d="M15.1215 1.26508H27.6797C30.0678 1.26508 32.0037 3.22692 32.0037 5.64699V6.94859C32.0037 9.36867 30.0678 11.3305 27.6797 11.3305H15.1216C12.7335 11.3305 10.7976 9.36867 10.7976 6.94859V5.64699C10.7975 3.22692 12.7334 1.26508 15.1215 1.26508Z" fill="black"/>
</g>
<path fill-rule="evenodd" clip-rule="evenodd" d="M5.88129 11.8822C4.21321 11.8822 2.86093 13.2517 2.86093 14.9411C2.86093 16.6305 4.21321 18 5.88129 18C7.54936 18 8.90164 16.6305 8.90164 14.9411C8.90164 13.2517 7.54936 11.8822 5.88129 11.8822Z" fill="black"/>
<path fill-rule="evenodd" clip-rule="evenodd" d="M25.4761 11.8822C23.808 11.8822 22.4557 13.2517 22.4557 14.9411C22.4557 16.6305 23.808 18 25.4761 18C27.1442 18 28.4965 16.6305 28.4965 14.9411C28.4965 13.2517 27.1442 11.8822 25.4761 11.8822Z" fill="black"/>
<path fill-rule="evenodd" clip-rule="evenodd" d="M5.88128 13.6666C5.18601 13.6666 4.62239 14.2372 4.62239 14.9411C4.62239 15.645 5.18601 16.2156 5.88128 16.2156C6.57655 16.2156 7.14018 15.645 7.14018 14.9411C7.14018 14.2372 6.57655 13.6666 5.88128 13.6666Z" fill="white"/>
<path fill-rule="evenodd" clip-rule="evenodd" d="M25.4761 13.6666C24.7808 13.6666 24.2172 14.2372 24.2172 14.9411C24.2172 15.645 24.7808 16.2156 25.4761 16.2156C26.1714 16.2156 26.735 15.645 26.735 14.9411C26.735 14.2372 26.1714 13.6666 25.4761 13.6666Z" fill="white"/>
</svg>
