<svg width="32" height="18" viewBox="0 0 32 18" fill="none" xmlns="http://www.w3.org/2000/svg">
<mask id="mask0" mask-type="alpha" maskUnits="userSpaceOnUse" x="1" y="12" width="12" height="6">
<path fill-rule="evenodd" clip-rule="evenodd" d="M12.19 12.0032H1.52239V18H12.19V12.0032Z" fill="white"/>
</mask>
<g mask="url(#mask0)">
<path fill-rule="evenodd" clip-rule="evenodd" d="M4.57163 12.0032C5.48009 12.0032 6.29705 12.3976 6.85735 13.0229C7.41537 12.3976 8.23233 12.0032 9.14307 12.0032C10.8228 12.0032 12.19 13.3493 12.19 15.0043C12.19 16.6591 10.8228 18.0042 9.14307 18.0042C8.23233 18.0042 7.4153 17.6097 6.85735 16.9855C6.29705 17.6097 5.48009 18.0042 4.57163 18.0042C2.89079 18.0042 1.52239 16.6591 1.52239 15.0043C1.52239 13.3493 2.89072 12.0032 4.57163 12.0032Z" fill="black"/>
</g>
<path fill-rule="evenodd" clip-rule="evenodd" d="M5.33272 0H8.37961C8.80148 0 9.14307 0.336249 9.14307 0.750566V5.25164C9.14307 5.66588 8.80155 6.00213 8.37961 6.00213H5.33272C4.912 6.00213 4.57163 5.66588 4.57163 5.25164V0.750566C4.57163 0.336249 4.912 0 5.33272 0Z" fill="black"/>
<path fill-rule="evenodd" clip-rule="evenodd" d="M26.6662 14.9713H31.2377C31.6585 14.9713 32 14.635 32 14.2207V0.750565C32 0.336249 31.6585 0 31.2377 0H26.6662C26.2454 0 25.9044 0.336249 25.9044 0.750565V14.2207C25.9045 14.635 26.2455 14.9713 26.6662 14.9713Z" fill="black"/>
<path fill-rule="evenodd" clip-rule="evenodd" d="M3.80813 4.50107H18.8909C20.9914 4.50107 22.7001 6.18457 22.7001 8.25263V11.2526C22.7001 13.3218 20.9914 15.0043 18.8909 15.0043H3.80813C1.70763 15.0043 1.90735e-06 13.3218 1.90735e-06 11.2526V8.25263C1.90735e-06 6.18457 1.70763 4.50107 3.80813 4.50107Z" fill="black"/>
<mask id="mask1" mask-type="alpha" maskUnits="userSpaceOnUse" x="12" y="0" width="20" height="18">
<path fill-rule="evenodd" clip-rule="evenodd" d="M31.2377 0H12.9512V18H31.2377V0Z" fill="white"/>
</mask>
<g mask="url(#mask1)">
<path fill-rule="evenodd" clip-rule="evenodd" d="M17.5232 0H26.6662C27.087 0 27.4285 0.336249 27.4285 0.750565V14.2207C27.4285 14.635 27.087 14.9713 26.6662 14.9713H17.5232C17.1024 14.9713 16.7615 14.635 16.7615 14.2207V0.750565C16.7615 0.336249 17.1024 0 17.5232 0Z" fill="black"/>
<path fill-rule="evenodd" clip-rule="evenodd" d="M15.9998 12.0032C17.68 12.0032 19.0473 13.3493 19.0473 15.0043C19.0473 16.6591 17.6801 18.0042 15.9998 18.0042C14.3194 18.0042 12.9512 16.6591 12.9512 15.0043C12.9512 13.3493 14.3194 12.0032 15.9998 12.0032Z" fill="black"/>
<path fill-rule="evenodd" clip-rule="evenodd" d="M22.0947 12.0032C23.7755 12.0032 25.1427 13.3493 25.1427 15.0043C25.1427 16.6591 23.7755 18.0042 22.0947 18.0042C20.4144 18.0042 19.0472 16.6591 19.0472 15.0043C19.0472 13.3493 20.4144 12.0032 22.0947 12.0032Z" fill="black"/>
<path fill-rule="evenodd" clip-rule="evenodd" d="M28.1902 12.0032C29.8705 12.0032 31.2377 13.3493 31.2377 15.0043C31.2377 16.6591 29.8705 18.0042 28.1902 18.0042C26.51 18.0042 25.1427 16.6591 25.1427 15.0043C25.1427 13.3493 26.51 12.0032 28.1902 12.0032Z" fill="black"/>
</g>
<path fill-rule="evenodd" clip-rule="evenodd" d="M15.9998 15.7536H28.1902C28.611 15.7536 28.952 15.4185 28.952 15.0043C28.952 14.59 28.611 14.2537 28.1902 14.2537H15.9998C15.5785 14.2537 15.2369 14.59 15.2369 15.0043C15.2369 15.4186 15.5785 15.7536 15.9998 15.7536Z" fill="white"/>
<path fill-rule="evenodd" clip-rule="evenodd" d="M8.60285 14.4735C8.30598 14.7669 8.30598 15.2416 8.60285 15.5351C8.902 15.8273 9.38416 15.8273 9.68103 15.5351C9.9779 15.2416 9.9779 14.7669 9.68103 14.4735C9.38416 14.1812 8.902 14.1812 8.60285 14.4735Z" fill="white"/>
<path fill-rule="evenodd" clip-rule="evenodd" d="M4.03145 14.4735C3.73459 14.7669 3.73459 15.2416 4.03145 15.5351C4.33061 15.8273 4.81277 15.8273 5.10963 15.5351C5.40643 15.2416 5.40643 14.7669 5.10963 14.4735C4.81277 14.1812 4.33061 14.1812 4.03145 14.4735Z" fill="white"/>
<path fill-rule="evenodd" clip-rule="evenodd" d="M31.2377 4.50107C30.8169 4.50107 30.4759 4.16588 30.4759 3.75163C30.4759 3.33739 30.8169 3.00107 31.2377 3.00107H32V4.50107H31.2377Z" fill="white"/>
<path fill-rule="evenodd" clip-rule="evenodd" d="M31.2377 7.50214C30.8169 7.50214 30.4759 7.16695 30.4759 6.75158C30.4759 6.33726 30.8169 6.00214 31.2377 6.00214H32V7.50214H31.2377Z" fill="white"/>
<path fill-rule="evenodd" clip-rule="evenodd" d="M31.2377 10.5032C30.8169 10.5032 30.4759 10.167 30.4759 9.75264C30.4759 9.33832 30.8169 9.00208 31.2377 9.00208H32V10.5032H31.2377Z" fill="white"/>
<path fill-rule="evenodd" clip-rule="evenodd" d="M16.7615 0.750566C16.7615 0.336249 17.1024 0 17.5232 0H26.6662C27.087 0 27.4285 0.336249 27.4285 0.750566V4.50107H16.7615V0.750566Z" fill="black"/>
</svg>
