<svg width="32" height="18" viewBox="0 0 32 18" fill="none" xmlns="http://www.w3.org/2000/svg">
<path d="M14.6397 0.602199L14.9616 0.294556L16.0102 1.42965L17.5884 1.09019L17.6819 1.53574L16.1037 1.8646L15.1277 5.07895L14.702 4.95165L15.678 1.7373L14.6397 0.602199Z" fill="black"/>
<path d="M18.4297 1.73728C18.5231 1.73728 18.6166 1.67363 18.6477 1.57815C18.6789 1.46146 18.6166 1.33416 18.492 1.30234L14.0896 0.00811015C13.9754 -0.0237151 13.8508 0.0399354 13.8197 0.167236C13.7885 0.283929 13.8508 0.411229 13.9754 0.443055L18.3778 1.73728C18.3881 1.72667 18.4089 1.73728 18.4297 1.73728Z" fill="black"/>
<path d="M29.3628 2.96783L25.0954 14.1491H17.1006V7.16876L20.9008 2.96783H29.3628Z" fill="black"/>
<path d="M29.3627 2.96785H31.6158L29.9027 1.49329H20.9422L16.3218 6.53228V14.1491H17.1006V7.16878L20.9007 2.96785H29.3627Z" fill="black"/>
<path d="M16.3219 11.0302H12.8644V14.1491H16.3219V11.0302Z" fill="black"/>
<path d="M1.33937 8.24023V9.47081L2.96949 12.5897L8.79428 14.1491H12.8644V8.24023H1.33937Z" fill="black"/>
<path d="M12.8644 4.11365H4.13237V8.24032H12.8644V4.11365Z" fill="black"/>
<path d="M1.3393 8.24032H4.13229V4.11365C4.13229 4.11365 1.38083 4.27277 1.3393 8.24032Z" fill="black"/>
<path d="M11.6495 5.22742H11.0473V7.48701H11.6495V5.22742Z" fill="white"/>
<path d="M10.3309 5.22742H9.72873V7.48701H10.3309V5.22742Z" fill="white"/>
<path d="M9.01219 5.22742H8.40998V7.48701H9.01219V5.22742Z" fill="white"/>
<path d="M7.68333 5.22742H7.08113V7.48701H7.68333V5.22742Z" fill="white"/>
<path d="M12.8644 9.82092L15.5432 6.17163L14.5984 2.9679L12.8644 4.1136V9.82092Z" fill="black"/>
<path d="M25.0123 18C21.1531 18 18.0246 14.8035 18.0246 10.8605C18.0246 6.91751 21.1531 3.72107 25.0123 3.72107C28.8715 3.72107 32 6.91751 32 10.8605C32 14.8035 28.8715 18 25.0123 18Z" fill="black"/>
<path d="M25.0124 15.1039C22.7186 15.1039 20.8592 13.204 20.8592 10.8605C20.8592 8.51694 22.7186 6.61713 25.0124 6.61713C27.3061 6.61713 29.1655 8.51694 29.1655 10.8605C29.1655 13.204 27.3061 15.1039 25.0124 15.1039Z" fill="white"/>
<path d="M25.0124 12.0486C24.3702 12.0486 23.8495 11.5167 23.8495 10.8605C23.8495 10.2043 24.3702 9.67236 25.0124 9.67236C25.6547 9.67236 26.1753 10.2043 26.1753 10.8605C26.1753 11.5167 25.6547 12.0486 25.0124 12.0486Z" fill="black"/>
<path d="M3.84167 18C1.71997 18 9.53674e-07 16.2427 9.53674e-07 14.0749C9.53674e-07 11.9071 1.71997 10.1498 3.84167 10.1498C5.96336 10.1498 7.68333 11.9071 7.68333 14.0749C7.68333 16.2427 5.96336 18 3.84167 18Z" fill="black"/>
<path d="M3.8416 16.4087C2.58005 16.4087 1.55736 15.3638 1.55736 14.0749C1.55736 12.7859 2.58005 11.741 3.8416 11.741C5.10315 11.741 6.12583 12.7859 6.12583 14.0749C6.12583 15.3638 5.10315 16.4087 3.8416 16.4087Z" fill="white"/>
<path d="M3.84158 14.7326C3.48606 14.7326 3.19784 14.4381 3.19784 14.0749C3.19784 13.7116 3.48606 13.4172 3.84158 13.4172C4.19711 13.4172 4.48532 13.7116 4.48532 14.0749C4.48532 14.4381 4.19711 14.7326 3.84158 14.7326Z" fill="black"/>
<path fill-rule="evenodd" clip-rule="evenodd" d="M4.55812 14.0749C4.55812 14.478 4.23625 14.8069 3.8417 14.8069C3.44715 14.8069 3.12528 14.478 3.12528 14.0749C3.12528 13.6718 3.44715 13.3429 3.8417 13.3429C4.23625 13.3429 4.55812 13.6718 4.55812 14.0749ZM4.41271 14.0748C4.41271 13.746 4.15314 13.4914 3.84165 13.4914C3.53016 13.4914 3.27059 13.746 3.27059 14.0748C3.27059 14.4037 3.53016 14.6583 3.84165 14.6583C4.16352 14.6583 4.41271 14.4037 4.41271 14.0748Z" fill="black"/>
</svg>
