<svg width="32" height="24" viewBox="0 0 32 24" fill="none" xmlns="http://www.w3.org/2000/svg">
<path fill-rule="evenodd" clip-rule="evenodd" d="M8.84064 12.0929C8.72359 12.2207 8.65197 12.3891 8.65197 12.574C8.65197 12.617 8.65648 12.6588 8.66384 12.6994C8.31844 12.7529 7.98776 12.816 7.68696 12.89C7.06122 12.6797 6.39046 12.5644 5.69229 12.5644C3.59939 12.5644 1.75122 13.5882 0.633562 15.1531C0.236181 13.4149 0.397835 11.2528 0.671213 10.4488C1.75122 9.82817 5.33951 8.58408 8.84064 8.06433V12.0929Z" fill="black"/>
<path fill-rule="evenodd" clip-rule="evenodd" d="M15.0432 13.7795L16.582 13.7896C17.1619 12.4434 18.0938 11.3943 19.2311 10.6048C19.9342 10.1164 20.7162 9.7285 21.5429 9.42903L21.2499 1.75985H15.9829L14.8595 7.88225L14.8198 13.7779L15.0432 13.7795ZM25.55 8.65564C25.6781 8.64921 25.8021 8.64438 25.9228 8.64077L24.5244 1.75985H21.6638L21.9511 9.28995C23.1068 8.91813 24.3362 8.71433 25.55 8.65564ZM12.0113 12.3928C12.3588 12.3731 12.6714 12.3562 12.9289 12.3393C12.6714 12.3562 12.3588 12.3731 12.0113 12.3928ZM14.4058 13.7755L14.4267 10.6735L14.4058 13.7755ZM8.0966 13.0415C8.30654 13.0093 8.52918 12.9788 8.75999 12.9495C8.88931 13.1569 9.12136 13.2959 9.38696 13.2959C9.71109 13.2959 9.98569 13.0897 10.0835 12.8039C10.1081 12.7316 10.122 12.6544 10.122 12.574C10.122 12.5575 10.1212 12.5415 10.1199 12.5254C10.1085 12.3602 10.0401 12.2094 9.93372 12.0929V7.92684C10.9364 7.82394 11.9088 7.79459 12.7866 7.87097C12.7858 7.85891 12.7858 7.84725 12.7878 7.83559L13.9141 1.6947C13.8506 1.64044 13.8093 1.55683 13.8093 1.46076C13.8093 1.29515 13.9317 1.16169 14.0823 1.16169H25.0665C25.1246 0.50608 25.5073 0 25.9709 0C26.4747 0 26.3822 0.597327 26.3822 1.33534C26.3822 2.07256 26.4747 2.66988 25.9709 2.66988C25.5691 2.66988 25.2273 2.28922 25.1062 1.75982H24.9462L26.3434 8.63511C27.9001 8.63431 28.8308 8.90081 29.5527 9.41694V9.37755C29.5015 9.37152 29.4688 9.36308 29.4688 9.35383V9.144C29.4688 9.13436 29.5015 9.12632 29.5527 9.12029V8.66807C29.5527 8.63109 29.5642 8.59652 29.583 8.56839C29.5777 8.5503 29.5711 8.53301 29.5658 8.51452C29.4005 7.9381 29.5858 7.38257 29.9795 7.27324C30.3736 7.1643 30.4354 7.65189 30.6008 8.22792C30.7661 8.80474 30.9732 9.25214 30.5787 9.36107C30.3892 9.41333 30.1854 9.35223 30.007 9.21073V9.35383C30.007 9.36308 29.9746 9.37152 29.9231 9.37755V9.71842C30.6049 10.3439 31.1443 11.2322 32 12.365V13.3345C30.3311 11.3239 27.7896 10.0404 24.9446 10.0404C20.3585 10.0404 17.6253 12.5572 17 16.8941L15.9374 16.7436C15.9632 16.1286 16.0442 15.5534 16.1739 15.0168C16.2431 14.7322 16.3262 14.458 16.4219 14.1948L15.0407 14.1859L13.3755 14.1747C13.3755 15.4393 13.3755 16.9563 13.3755 17.1926C13.1627 17.1926 12.3638 17.1926 11.6923 17.1926C11.2269 15.3162 9.87519 13.7811 8.0966 13.0415Z" fill="black"/>
<ellipse cx="5.81335" cy="18.6026" rx="4.10667" ry="4.03493" fill="white"/>
<path fill-rule="evenodd" clip-rule="evenodd" d="M5.69236 21.3373C7.3535 21.3373 8.70157 20.0148 8.70157 18.3824C8.70157 16.7496 7.3535 15.426 5.69236 15.426C4.03081 15.426 2.68316 16.7496 2.68316 18.3824C2.68316 20.0148 4.03081 21.3373 5.69236 21.3373ZM0.302444 18.5714C0.313494 18.5637 0.324134 18.5565 0.335184 18.55C0.333138 18.4942 0.33191 18.4383 0.33191 18.3824C0.33191 18.3253 0.333138 18.2699 0.335184 18.2136C0.324134 18.2068 0.313494 18.2003 0.302444 18.1931C0.225506 18.1433 0.148157 18.0906 0.093318 18.0512C0.0372515 18.0098 9.53674e-06 17.9829 9.53674e-06 17.9829C9.53674e-06 17.9829 0.00410175 17.933 0.0094223 17.8579C0.0147429 17.7831 0.0307035 17.6842 0.0421619 17.5853C0.0548487 17.4856 0.0761299 17.3872 0.0888166 17.3136C0.101503 17.2388 0.114599 17.1906 0.114599 17.1906C0.114599 17.1906 0.290985 17.1251 0.464506 17.0716C0.477193 17.0676 0.489881 17.064 0.502567 17.0604C0.530805 16.951 0.563545 16.8441 0.598741 16.738C0.590555 16.7283 0.581961 16.7187 0.574185 16.7086C0.515253 16.6399 0.457141 16.5679 0.41376 16.5133C0.36997 16.459 0.343369 16.4224 0.343369 16.4224C0.343369 16.4224 0.361786 16.3762 0.390023 16.3059C0.404347 16.2713 0.420308 16.2299 0.439133 16.1873C0.458777 16.1443 0.47924 16.0984 0.500521 16.0526C0.540627 15.9606 0.588099 15.8725 0.623296 15.8054C0.658081 15.7387 0.682227 15.6941 0.682227 15.6941C0.682227 15.6941 0.870891 15.6812 1.05383 15.6784C1.06651 15.678 1.0792 15.678 1.0927 15.678C1.15123 15.5819 1.21302 15.4878 1.27768 15.3958C1.27236 15.3841 1.26745 15.3729 1.26254 15.3604C1.18888 15.196 1.12299 15.022 1.12299 15.022C1.12299 15.022 1.1545 14.9826 1.20115 14.9235C1.2253 14.8937 1.25272 14.8596 1.28219 14.8226C1.3137 14.7876 1.34644 14.7494 1.37959 14.7112C1.41355 14.6739 1.44589 14.6357 1.47822 14.6011C1.51136 14.5669 1.54206 14.5352 1.56825 14.5082C1.62063 14.4536 1.65624 14.4178 1.65624 14.4178C1.65624 14.4178 1.84081 14.4568 2.01761 14.505C2.02988 14.5086 2.04216 14.5119 2.05485 14.5155C2.13874 14.4395 2.22469 14.3664 2.31349 14.2956C2.31145 14.2831 2.3094 14.2699 2.30817 14.2574C2.28485 14.0797 2.27134 13.8944 2.27134 13.8944C2.27134 13.8944 2.31267 13.8647 2.37447 13.8213C2.43709 13.7775 2.51975 13.7192 2.60651 13.6669C2.64949 13.64 2.69205 13.6127 2.73256 13.5873C2.77349 13.564 2.81237 13.5423 2.84593 13.5234C2.91181 13.486 2.95601 13.4607 2.95601 13.4607C2.95601 13.4607 2.99694 13.4824 3.05833 13.5166C3.1193 13.5512 3.19993 13.5978 3.27768 13.6448C3.28873 13.6508 3.29978 13.6581 3.31083 13.6649C3.41273 13.6151 3.51587 13.568 3.62145 13.5246C3.6235 13.5122 3.62554 13.4993 3.62718 13.4864C3.65665 13.3096 3.69716 13.1287 3.69716 13.1287C3.69716 13.1287 3.70862 13.1239 3.7299 13.1158C3.75077 13.1086 3.78106 13.0985 3.81748 13.0865C3.88992 13.0636 3.98527 13.0286 4.08431 13.0029C4.18253 12.9751 4.27993 12.9466 4.35523 12.9317C4.42972 12.9144 4.47924 12.9036 4.47924 12.9036C4.47924 12.9036 4.51239 12.9357 4.56068 12.984C4.60979 13.0338 4.67404 13.1014 4.73502 13.1685C4.7432 13.1785 4.7518 13.187 4.75998 13.197C4.87212 13.1777 4.98466 13.162 5.09884 13.1492C5.10498 13.1375 5.10989 13.1263 5.11603 13.1142C5.1946 12.951 5.28546 12.791 5.28546 12.791C5.28546 12.791 5.3362 12.7874 5.41273 12.7822C5.48885 12.7802 5.59035 12.7778 5.69225 12.7758C5.79374 12.7778 5.89565 12.7802 5.97177 12.7822C6.04789 12.7874 6.09904 12.791 6.09904 12.791C6.09904 12.791 6.1899 12.951 6.26847 13.1142C6.27379 13.1263 6.27993 13.1375 6.28484 13.1492C6.39943 13.162 6.51198 13.1777 6.62411 13.197C6.63229 13.187 6.64048 13.1785 6.64948 13.1685C6.71046 13.1014 6.7743 13.0338 6.823 12.984C6.87211 12.9357 6.90485 12.9036 6.90485 12.9036C6.90485 12.9036 6.95478 12.9144 7.02927 12.9317C7.10375 12.9466 7.20197 12.9751 7.29978 13.0029C7.39882 13.0286 7.49458 13.0636 7.56743 13.0865C7.60303 13.0985 7.63373 13.1086 7.65501 13.1158C7.67547 13.1239 7.68734 13.1287 7.68734 13.1287C7.68734 13.1287 7.72785 13.3096 7.75691 13.4864C7.75896 13.4993 7.76059 13.5122 7.76305 13.5246C7.86823 13.568 7.97177 13.6151 8.07326 13.6649C8.08472 13.6581 8.09536 13.6508 8.10682 13.6448C8.18498 13.5978 8.26479 13.5512 8.32577 13.5166C8.38756 13.4824 8.42808 13.4607 8.42808 13.4607C8.42808 13.4607 8.47269 13.486 8.53858 13.5234C8.57172 13.5423 8.61019 13.564 8.65194 13.5873C8.69245 13.6127 8.73501 13.64 8.77799 13.6669C8.86475 13.7192 8.94741 13.7775 9.01003 13.8213C9.07183 13.8647 9.11316 13.8944 9.11316 13.8944C9.11316 13.8944 9.09925 14.0797 9.07633 14.2574C9.07469 14.2699 9.07264 14.2831 9.07101 14.2956C9.15981 14.3664 9.24576 14.4395 9.32924 14.5155C9.34152 14.5119 9.35421 14.5086 9.36689 14.505C9.54328 14.4568 9.72826 14.4178 9.72826 14.4178C9.72826 14.4178 9.76305 14.4536 9.81584 14.5082C9.84244 14.5352 9.87314 14.5669 9.90588 14.6011C9.93862 14.6357 9.97136 14.6739 10.0045 14.7112C10.0377 14.7494 10.0704 14.7876 10.1019 14.8226C10.1318 14.8596 10.1588 14.8937 10.1829 14.9235C10.23 14.9826 10.2611 15.022 10.2611 15.022C10.2611 15.022 10.1956 15.196 10.122 15.3604C10.117 15.3729 10.1113 15.3841 10.1064 15.3958C10.1711 15.4878 10.2325 15.5819 10.2914 15.678C10.3041 15.678 10.3176 15.678 10.3307 15.6784C10.5132 15.6812 10.7023 15.6941 10.7023 15.6941C10.7023 15.6941 10.726 15.7387 10.7608 15.8054C10.796 15.8725 10.8435 15.9606 10.8836 16.0526C10.9049 16.0984 10.9257 16.1443 10.9454 16.1873C10.9642 16.2299 10.9797 16.2713 10.9941 16.3059C11.0223 16.3762 11.0407 16.4224 11.0407 16.4224C11.0407 16.4224 11.0141 16.459 10.9703 16.5133C10.9278 16.5679 10.8688 16.6399 10.8099 16.7086C10.8017 16.7187 10.7935 16.7287 10.7849 16.738C10.8205 16.8441 10.8529 16.951 10.8819 17.0604C10.8942 17.064 10.9069 17.0676 10.92 17.0716C11.0935 17.1251 11.2699 17.1906 11.2699 17.1906C11.2699 17.1906 11.283 17.2388 11.2957 17.3136C11.308 17.3872 11.3297 17.4856 11.3419 17.5853C11.3538 17.6842 11.3698 17.7831 11.3743 17.8579C11.3808 17.933 11.3845 17.9829 11.3845 17.9829C11.3845 17.9829 11.3468 18.0098 11.2912 18.0512C11.2359 18.0906 11.1586 18.1433 11.0816 18.1931C11.0706 18.2003 11.06 18.2068 11.0493 18.2136C11.051 18.2699 11.0522 18.3253 11.0522 18.3824C11.0522 18.4383 11.051 18.4942 11.0493 18.55C11.06 18.5565 11.0706 18.5637 11.0816 18.5714C11.1586 18.6208 11.2359 18.6731 11.2912 18.7132C11.3468 18.7543 11.3845 18.7808 11.3845 18.7808C11.3845 18.7808 11.3808 18.831 11.3743 18.9058C11.3698 18.981 11.3538 19.0798 11.3419 19.1791C11.3297 19.2788 11.308 19.3769 11.2957 19.4509C11.283 19.5248 11.2699 19.5735 11.2699 19.5735C11.2699 19.5735 11.0935 19.639 10.92 19.6928C10.9069 19.6961 10.8942 19.7001 10.8819 19.7041C10.8529 19.8122 10.8205 19.92 10.7849 20.0261C10.7935 20.0357 10.8017 20.0454 10.8099 20.055C10.8688 20.1242 10.9278 20.1957 10.9703 20.25C11.0141 20.305 11.0407 20.3416 11.0407 20.3416C11.0407 20.3416 11.0223 20.3879 10.9941 20.4582C10.9797 20.4928 10.9642 20.5342 10.9454 20.5772C10.9257 20.6198 10.9049 20.666 10.8836 20.711C10.8435 20.8031 10.796 20.8919 10.7608 20.9587C10.726 21.0254 10.7023 21.07 10.7023 21.07C10.7023 21.07 10.5132 21.0833 10.3307 21.0857C10.3176 21.0857 10.3041 21.0857 10.2914 21.0857C10.2325 21.1821 10.1711 21.2762 10.1064 21.3683C10.1113 21.3799 10.117 21.3916 10.122 21.4032C10.1956 21.568 10.2611 21.7421 10.2611 21.7421C10.2611 21.7421 10.23 21.7815 10.1829 21.8402C10.1588 21.8703 10.1318 21.9045 10.1019 21.9411C10.0704 21.9768 10.0377 22.0146 10.0045 22.0528C9.97136 22.0902 9.93862 22.1284 9.90588 22.163C9.87314 22.1971 9.84244 22.2285 9.81584 22.2562C9.76305 22.3097 9.72826 22.3462 9.72826 22.3462C9.72826 22.3462 9.54328 22.3069 9.36689 22.2586C9.35421 22.2554 9.34152 22.2522 9.32924 22.2486C9.24576 22.3241 9.15981 22.3977 9.07101 22.468C9.07264 22.4813 9.07469 22.4934 9.07633 22.5066C9.09925 22.6843 9.11316 22.87 9.11316 22.87C9.11316 22.87 9.07183 22.899 9.01003 22.9432C8.94741 22.9862 8.86475 23.0445 8.77799 23.0975C8.73501 23.1241 8.69245 23.151 8.65194 23.1767C8.61019 23.1996 8.57172 23.2221 8.53858 23.2406C8.47269 23.278 8.42808 23.3025 8.42808 23.3025C8.42808 23.3025 8.38756 23.2812 8.32577 23.2471C8.26479 23.2137 8.18498 23.1667 8.10682 23.1192C8.09536 23.1132 8.08472 23.106 8.07326 23.0991C7.97177 23.149 7.86823 23.1956 7.76305 23.2394C7.76059 23.2519 7.75896 23.2643 7.75691 23.2776C7.72785 23.4541 7.68734 23.635 7.68734 23.635C7.68734 23.635 7.67547 23.6402 7.65501 23.6482C7.63373 23.6547 7.60303 23.6655 7.56743 23.6776C7.49458 23.7005 7.39882 23.7363 7.29978 23.7616C7.20197 23.7889 7.10375 23.8171 7.02927 23.8323C6.95478 23.8492 6.90485 23.8609 6.90485 23.8609C6.90485 23.8609 6.87211 23.8287 6.823 23.7797C6.7743 23.7302 6.71046 23.6635 6.64948 23.596C6.64048 23.5859 6.63229 23.5767 6.62411 23.5674C6.51238 23.5867 6.39943 23.602 6.28566 23.6141C6.27993 23.6265 6.27379 23.6382 6.26847 23.6494C6.1899 23.813 6.09904 23.9726 6.09904 23.9726C6.09904 23.9726 6.04789 23.9766 5.97177 23.9819C5.89565 23.9839 5.79374 23.9859 5.69225 23.9887C5.59035 23.9859 5.48885 23.9839 5.41273 23.9819C5.3362 23.9766 5.28546 23.9726 5.28546 23.9726C5.28546 23.9726 5.1946 23.813 5.11603 23.6494C5.10989 23.6382 5.10498 23.6265 5.09884 23.6141C4.98466 23.602 4.87212 23.5867 4.75998 23.5674C4.7518 23.5767 4.7432 23.5859 4.73502 23.596C4.67404 23.6635 4.60979 23.7302 4.56068 23.7797C4.51239 23.8287 4.47924 23.8609 4.47924 23.8609C4.47924 23.8609 4.42972 23.8492 4.35523 23.8323C4.27993 23.8171 4.18253 23.7889 4.08431 23.7616C3.98527 23.7363 3.88992 23.7005 3.81748 23.6776C3.78106 23.6655 3.75077 23.6547 3.7299 23.6482C3.70862 23.6402 3.69716 23.635 3.69716 23.635C3.69716 23.635 3.65665 23.4541 3.62718 23.2776C3.62554 23.2643 3.6235 23.2519 3.62145 23.2394C3.51587 23.1956 3.41233 23.149 3.31042 23.0991C3.29937 23.106 3.28873 23.1132 3.27768 23.1192C3.19993 23.1667 3.1193 23.2137 3.05833 23.2471C2.99694 23.2812 2.95601 23.3025 2.95601 23.3025C2.95601 23.3025 2.91181 23.278 2.84593 23.2406C2.81237 23.2221 2.77349 23.1996 2.73256 23.1767C2.69205 23.151 2.64949 23.1241 2.60651 23.0975C2.51975 23.0445 2.43709 22.9862 2.37447 22.9432C2.31267 22.899 2.27134 22.87 2.27134 22.87C2.27134 22.87 2.28485 22.6843 2.30817 22.5066C2.3094 22.4934 2.31145 22.4813 2.31349 22.468C2.22469 22.3977 2.13874 22.3241 2.05485 22.2486C2.04216 22.2522 2.02988 22.2554 2.01761 22.2586C1.84081 22.3069 1.65624 22.3462 1.65624 22.3462C1.65624 22.3462 1.62063 22.3097 1.56825 22.2562C1.54206 22.2285 1.51136 22.1971 1.47822 22.163C1.44589 22.1284 1.41355 22.0902 1.37959 22.0528C1.34644 22.0146 1.3137 21.9768 1.28219 21.9411C1.25272 21.9045 1.2253 21.8703 1.20115 21.8402C1.1545 21.7815 1.12299 21.7421 1.12299 21.7421C1.12299 21.7421 1.18888 21.568 1.26254 21.4032C1.26745 21.3916 1.27236 21.3799 1.27768 21.3683C1.21302 21.2762 1.15123 21.1821 1.0927 21.0857C1.0792 21.0857 1.06651 21.0857 1.05383 21.0857C0.870891 21.0833 0.682227 21.07 0.682227 21.07C0.682227 21.07 0.658081 21.0254 0.623296 20.9587C0.588099 20.8919 0.540627 20.8031 0.500521 20.711C0.47924 20.666 0.458777 20.6198 0.439133 20.5772C0.420308 20.5342 0.404347 20.4928 0.390023 20.4582C0.361786 20.3879 0.343369 20.3416 0.343369 20.3416C0.343369 20.3416 0.36997 20.305 0.41376 20.25C0.457141 20.1957 0.515253 20.1242 0.574185 20.055C0.581961 20.0458 0.590555 20.0357 0.598741 20.0261C0.563545 19.92 0.530805 19.8122 0.502567 19.7041C0.489881 19.7001 0.477193 19.6961 0.464506 19.6928C0.290985 19.639 0.114599 19.5735 0.114599 19.5735C0.114599 19.5735 0.101503 19.5248 0.0888166 19.4509C0.0761299 19.3769 0.0548487 19.2788 0.0421619 19.1791C0.0307035 19.0798 0.0147429 18.981 0.0094223 18.9058C0.00410175 18.831 9.53674e-06 18.7808 9.53674e-06 18.7808C9.53674e-06 18.7808 0.0372515 18.7543 0.093318 18.7132C0.148157 18.6731 0.225506 18.6208 0.302444 18.5714Z" fill="black"/>
<path fill-rule="evenodd" clip-rule="evenodd" d="M5.69225 17.4816C6.19808 17.4816 6.60896 17.8852 6.60896 18.3824C6.60896 18.8793 6.19808 19.2825 5.69225 19.2825C5.18601 19.2825 4.77553 18.8793 4.77553 18.3824C4.77553 17.8852 5.18601 17.4816 5.69225 17.4816Z" fill="black"/>
<path fill-rule="evenodd" clip-rule="evenodd" d="M4.35891 17.8353C4.44322 17.8353 4.51115 17.9017 4.51115 17.9841C4.51115 18.0665 4.44322 18.1336 4.35973 18.1336C4.27543 18.1336 4.20749 18.0665 4.20749 17.9841C4.20749 17.9017 4.27543 17.8353 4.35891 17.8353Z" fill="black"/>
<path fill-rule="evenodd" clip-rule="evenodd" d="M6.09754 17.2468C6.01324 17.2468 5.9453 17.1801 5.9453 17.0977C5.9453 17.0153 6.01324 16.9482 6.09754 16.9482C6.18062 16.9482 6.24896 17.0153 6.24896 17.0977C6.24896 17.1801 6.18062 17.2468 6.09754 17.2468Z" fill="black"/>
<path fill-rule="evenodd" clip-rule="evenodd" d="M7.0105 17.6497C7.06984 17.708 7.06984 17.8024 7.0105 17.8607C6.95075 17.9186 6.85499 17.9186 6.79606 17.8607C6.73671 17.8024 6.73671 17.708 6.79606 17.6497C6.85499 17.591 6.95075 17.591 7.0105 17.6497Z" fill="black"/>
<path fill-rule="evenodd" clip-rule="evenodd" d="M6.99995 18.6305C7.08385 18.6305 7.15178 18.6972 7.15219 18.7796C7.15219 18.8624 7.08385 18.9288 6.99995 18.9288C6.91605 18.9288 6.84812 18.8624 6.84812 18.7796C6.84812 18.6972 6.91605 18.6305 6.99995 18.6305Z" fill="black"/>
<path fill-rule="evenodd" clip-rule="evenodd" d="M6.43785 19.4658C6.49719 19.5245 6.49719 19.6185 6.43744 19.6768C6.3785 19.7351 6.28274 19.7351 6.22299 19.6768C6.16406 19.6185 6.16406 19.5245 6.22299 19.4658C6.28274 19.4079 6.3785 19.4079 6.43785 19.4658Z" fill="black"/>
<path fill-rule="evenodd" clip-rule="evenodd" d="M5.28734 19.5172C5.37083 19.5172 5.43877 19.5839 5.43877 19.6663C5.43877 19.7483 5.37083 19.8151 5.28734 19.8151C5.20304 19.8151 5.1351 19.7483 5.1351 19.6663C5.1351 19.5839 5.20304 19.5172 5.28734 19.5172Z" fill="black"/>
<path fill-rule="evenodd" clip-rule="evenodd" d="M4.58858 18.9038C4.64792 18.9617 4.64792 19.0566 4.58899 19.1144C4.52923 19.1731 4.43306 19.1727 4.37372 19.1144C4.31479 19.0566 4.3152 18.9617 4.37372 18.9038C4.43306 18.8451 4.52923 18.8451 4.58858 18.9038Z" fill="black"/>
<path fill-rule="evenodd" clip-rule="evenodd" d="M4.94648 17.298C4.88672 17.2397 4.88754 17.1456 4.94648 17.0869C5.00582 17.029 5.10199 17.029 5.16092 17.0869C5.22067 17.1456 5.22067 17.2397 5.16092 17.298C5.10199 17.3563 5.00582 17.3563 4.94648 17.298Z" fill="black"/>
<ellipse cx="24.9067" cy="17.0306" rx="4.10667" ry="4.03493" fill="white"/>
<path fill-rule="evenodd" clip-rule="evenodd" d="M24.862 20.4643C26.7483 20.4643 28.2789 18.9621 28.2789 17.109C28.2789 15.2556 26.7483 13.753 24.862 13.753C22.9762 13.753 21.446 15.2556 21.446 17.109C21.446 18.9621 22.9762 20.4643 24.862 20.4643ZM17.9559 16.7758C17.8978 16.7356 17.8593 16.7087 17.8593 16.7087C17.8593 16.7087 17.8626 16.6588 17.8683 16.5841C17.8753 16.5097 17.8794 16.4092 17.8949 16.3099C17.9084 16.2107 17.9195 16.111 17.9318 16.0366C17.9453 15.9622 17.9534 15.9128 17.9534 15.9128C17.9534 15.9128 18.1311 15.8408 18.3066 15.7797C18.4765 15.7215 18.6447 15.6724 18.6631 15.6668C18.6631 15.6664 18.6635 15.6656 18.6639 15.6648C18.6606 15.6616 18.6279 15.6318 18.58 15.5872C18.5293 15.539 18.4613 15.4742 18.3975 15.4079C18.2677 15.2749 18.1409 15.133 18.1409 15.133C18.1409 15.133 18.1441 15.1209 18.1507 15.0992C18.1564 15.0783 18.165 15.0486 18.1781 15.0128C18.2027 14.9408 18.2358 14.8464 18.2682 14.7519C18.3054 14.6578 18.343 14.565 18.3709 14.4946C18.3979 14.4243 18.42 14.3793 18.42 14.3793C18.42 14.3793 18.6103 14.3503 18.7969 14.3306C18.8898 14.3206 18.9823 14.3126 19.0539 14.3085C19.1169 14.3045 19.1615 14.3025 19.1693 14.3017C19.1697 14.3013 19.1697 14.3005 19.1697 14.3005C19.1603 14.2868 19.0633 14.1421 18.9704 13.9886C18.8755 13.8302 18.7871 13.6638 18.7871 13.6638C18.7871 13.6638 18.8129 13.62 18.8509 13.5552C18.8906 13.4905 18.9471 13.4069 19.0015 13.3221C19.0547 13.2365 19.1169 13.1577 19.1611 13.0958C19.2053 13.0343 19.2348 12.9937 19.2348 12.9937C19.2348 12.9937 19.2827 12.9973 19.3543 13.0041C19.4255 13.011 19.5205 13.021 19.6138 13.0323C19.7075 13.0447 19.7996 13.0576 19.8679 13.0681C19.9338 13.0793 19.9788 13.0873 19.9829 13.0882C19.9833 13.0882 19.9837 13.0877 19.9837 13.0873C19.9809 13.0793 19.9187 12.9133 19.8638 12.7396C19.8343 12.65 19.8086 12.5612 19.7906 12.4936C19.7726 12.4261 19.7603 12.3811 19.7603 12.3811C19.7603 12.3811 19.7955 12.3445 19.8483 12.2906C19.8998 12.2352 19.9751 12.1676 20.0488 12.0981C20.1216 12.0274 20.1982 11.9614 20.2567 11.9124C20.314 11.8634 20.3529 11.8308 20.3529 11.8308C20.3529 11.8308 20.3979 11.8453 20.4658 11.8666C20.5333 11.8899 20.6238 11.9212 20.7122 11.9542C20.8006 11.9864 20.8873 12.0205 20.9524 12.0466C21.0154 12.0728 21.0576 12.0905 21.0584 12.0909C21.0584 12.0885 21.0371 11.9096 21.024 11.7247C21.0175 11.6326 21.0118 11.5382 21.0093 11.4686C21.0081 11.3987 21.0068 11.3524 21.0068 11.3524C21.0068 11.3524 21.0498 11.3251 21.1145 11.2849C21.1464 11.2644 21.184 11.2407 21.2242 11.2154C21.2659 11.1917 21.3101 11.1675 21.3539 11.1414C21.4427 11.0916 21.5303 11.0409 21.5998 11.008C21.6678 10.9742 21.7136 10.9513 21.7136 10.9513C21.7136 10.9513 21.7537 10.9758 21.8147 11.0116C21.8745 11.0478 21.9551 11.0988 22.0336 11.1515C22.1875 11.2532 22.3324 11.3589 22.3389 11.3637H22.3394C22.3398 11.3593 22.3451 11.3155 22.3529 11.2499C22.3623 11.182 22.3758 11.0912 22.3913 11.0003C22.4065 10.9083 22.4237 10.8166 22.438 10.7475C22.4527 10.6779 22.4617 10.6325 22.4617 10.6325C22.4617 10.6325 22.5104 10.616 22.5829 10.5915C22.6561 10.569 22.7511 10.5324 22.8497 10.5067C22.9479 10.4798 23.0465 10.4524 23.1202 10.4319C23.1951 10.4155 23.2446 10.4038 23.2446 10.4038C23.2446 10.4038 23.3817 10.5348 23.5086 10.6695C23.6305 10.8001 23.7431 10.9332 23.7545 10.9473C23.7558 10.9469 23.7562 10.9469 23.757 10.9469C23.7603 10.938 23.775 10.8978 23.7963 10.8407C23.8217 10.776 23.8556 10.6884 23.8925 10.6044C23.9649 10.4356 24.0484 10.2651 24.0484 10.2651C24.0484 10.2651 24.0987 10.2575 24.1748 10.2506C24.251 10.245 24.3533 10.2378 24.4548 10.2301C24.5563 10.2229 24.6586 10.2233 24.7347 10.2205C24.8108 10.2185 24.862 10.2173 24.862 10.2173C24.862 10.2173 24.9643 10.3785 25.0568 10.5401C25.1026 10.6201 25.1472 10.7009 25.1795 10.7616C25.2102 10.8206 25.2307 10.8604 25.2319 10.8637C25.2323 10.8637 25.2323 10.8637 25.2327 10.8637C25.236 10.858 25.3359 10.7097 25.4447 10.5614C25.5556 10.4086 25.6756 10.2651 25.6756 10.2647C25.6756 10.2647 25.7267 10.2716 25.802 10.2808C25.8405 10.2856 25.8847 10.2912 25.9317 10.2973C25.9792 10.3057 26.0291 10.3146 26.0799 10.323C26.1802 10.3411 26.2808 10.3568 26.3549 10.3757C26.4298 10.3925 26.4797 10.4034 26.4797 10.4034C26.4797 10.4034 26.4945 10.448 26.5174 10.5139C26.5399 10.5803 26.5685 10.6687 26.5943 10.7587C26.6451 10.9336 26.6864 11.1048 26.6889 11.1149C26.6893 11.1149 26.6897 11.1149 26.6901 11.1149C26.6917 11.1129 26.7245 11.0827 26.7744 11.0361C26.826 10.9887 26.8951 10.9296 26.9671 10.8685C27.1096 10.7483 27.2622 10.6325 27.2622 10.6325C27.2622 10.6325 27.4529 10.7025 27.6412 10.7812C27.7341 10.8218 27.8274 10.8637 27.897 10.8946C27.9653 10.9288 28.0111 10.9513 28.0111 10.9513C28.0111 10.9513 28.0296 11.139 28.039 11.3223C28.0472 11.498 28.0463 11.6704 28.0459 11.6897C28.0467 11.6897 28.0472 11.6901 28.0476 11.6909C28.0557 11.6861 28.0938 11.6644 28.1474 11.6342C28.2088 11.6005 28.2923 11.555 28.3754 11.514C28.5419 11.43 28.7175 11.3524 28.7175 11.3524C28.7175 11.3524 28.7281 11.3585 28.747 11.3709C28.7654 11.3826 28.7924 11.3995 28.8235 11.4216C28.8853 11.465 28.9688 11.5233 29.0519 11.5812C29.1321 11.6427 29.2127 11.705 29.2733 11.7512C29.3334 11.797 29.3707 11.8308 29.3707 11.8308C29.3707 11.8308 29.3449 12.0185 29.3101 12.199C29.2941 12.289 29.2745 12.3795 29.2581 12.4474C29.2438 12.5077 29.234 12.5503 29.2319 12.558C29.2323 12.5588 29.2327 12.5592 29.2332 12.5592C29.2503 12.5539 29.4194 12.5041 29.5941 12.4611C29.7758 12.4169 29.9637 12.3807 29.9637 12.3807C29.9637 12.3807 29.9989 12.4169 30.0517 12.4715C30.1016 12.5282 30.1691 12.6042 30.2354 12.6798C30.3029 12.7549 30.3627 12.8361 30.4118 12.8944C30.4584 12.9535 30.4891 12.9933 30.4891 12.9933C30.4891 12.9933 30.4196 13.1698 30.3426 13.3386C30.305 13.4234 30.2669 13.5058 30.2354 13.5681C30.2055 13.6268 30.1855 13.6666 30.1834 13.6702C30.1834 13.6706 30.1838 13.671 30.1838 13.6714C30.1941 13.6706 30.3733 13.6598 30.5583 13.6573C30.6537 13.6557 30.747 13.6573 30.8182 13.6589C30.8894 13.6618 30.9369 13.663 30.9369 13.663C30.9369 13.663 31.0412 13.835 31.1312 14.0159C31.1791 14.1039 31.2209 14.1956 31.2524 14.2647C31.2835 14.3326 31.3048 14.3789 31.3048 14.3789C31.3048 14.3789 31.2778 14.4171 31.2372 14.4745C31.1955 14.532 31.139 14.608 31.0817 14.6816C31.0244 14.7555 30.9663 14.8275 30.9225 14.8801C30.8787 14.9336 30.8493 14.9678 30.8489 14.9686C30.8497 14.9686 31.0306 14.9995 31.2147 15.0405C31.3072 15.0614 31.4005 15.0831 31.4701 15.1012C31.538 15.1197 31.5835 15.1322 31.5835 15.1322C31.5835 15.1322 31.5982 15.1804 31.6191 15.2528C31.6297 15.2889 31.6416 15.3307 31.6543 15.3766C31.6649 15.422 31.6768 15.471 31.6886 15.5197C31.7382 15.7142 31.7705 15.9124 31.7709 15.9124C31.7709 15.9124 31.7353 15.9437 31.6821 15.9908C31.6297 16.0366 31.5589 16.0965 31.484 16.156C31.3424 16.2697 31.1996 16.3739 31.1885 16.3815C31.1885 16.3819 31.1885 16.3823 31.1885 16.3831C31.2012 16.3879 31.3678 16.4567 31.5278 16.5358C31.6968 16.617 31.8659 16.7087 31.8659 16.7087C31.8659 16.7087 31.8704 16.7585 31.8712 16.8329C31.8732 16.9081 31.8757 17.0082 31.8781 17.1082C31.8757 17.2083 31.8732 17.3084 31.8712 17.3836C31.8704 17.4588 31.8659 17.509 31.8659 17.509C31.8659 17.509 31.6968 17.5999 31.5282 17.6815C31.3678 17.7606 31.2004 17.8294 31.189 17.8346C31.1885 17.835 31.1885 17.835 31.1885 17.8354C31.1992 17.8426 31.3424 17.9468 31.4844 18.0605C31.5589 18.12 31.6297 18.1795 31.6825 18.2261C31.7357 18.2728 31.7709 18.3045 31.7709 18.3045C31.7709 18.3045 31.739 18.5027 31.6886 18.6972C31.6772 18.7459 31.6653 18.7945 31.6543 18.8403C31.6416 18.8858 31.6297 18.9276 31.6191 18.9641C31.5982 19.0369 31.5839 19.0851 31.5839 19.0851C31.5839 19.0851 31.538 19.0972 31.4701 19.1153C31.4009 19.1334 31.3072 19.1559 31.2156 19.176C31.0306 19.2166 30.8501 19.2483 30.8489 19.2483C30.8493 19.2487 30.8787 19.2841 30.9229 19.3364C30.9667 19.3898 31.0248 19.4618 31.0821 19.5349C31.1394 19.6089 31.1955 19.6845 31.2377 19.7428C31.2782 19.7998 31.3052 19.8384 31.3052 19.8384C31.3052 19.8384 31.2839 19.8838 31.2528 19.9522C31.2209 20.0209 31.1791 20.113 31.1317 20.2014C31.0416 20.3815 30.9373 20.5539 30.9373 20.5539C30.9373 20.5539 30.8898 20.5555 30.8186 20.558C30.7474 20.5596 30.6541 20.5616 30.5587 20.5596C30.3737 20.5567 30.1941 20.5467 30.1842 20.5455C30.1838 20.5459 30.1838 20.5463 30.1834 20.5467C30.1855 20.5507 30.2059 20.5901 30.2358 20.6492C30.2669 20.7107 30.3054 20.7935 30.3434 20.8783C30.4196 21.0467 30.4895 21.2236 30.4895 21.2236C30.4895 21.2236 30.4589 21.2638 30.4118 21.3225C30.3635 21.3808 30.3029 21.462 30.2358 21.5376C30.1691 21.6127 30.102 21.6887 30.0521 21.7458C29.9993 21.7996 29.9641 21.8362 29.9641 21.8362C29.9641 21.8362 29.7758 21.7996 29.5945 21.7566C29.4185 21.7124 29.2495 21.6622 29.2336 21.6577C29.2332 21.6585 29.2327 21.6589 29.2323 21.6589C29.234 21.6662 29.2442 21.7084 29.2589 21.7695C29.2745 21.837 29.2941 21.9279 29.3105 22.0179C29.3449 22.1992 29.3715 22.3861 29.3715 22.3861C29.3715 22.3861 29.3342 22.4203 29.2733 22.4661C29.2127 22.5119 29.1329 22.5738 29.0523 22.6353C28.9688 22.6936 28.8861 22.7519 28.8239 22.7953C28.7928 22.8174 28.7658 22.8347 28.7474 22.846C28.7285 22.8584 28.7175 22.8649 28.7175 22.8649C28.7175 22.8649 28.5428 22.7865 28.3758 22.7029C28.2927 22.6619 28.2092 22.6164 28.1482 22.5823C28.0942 22.5525 28.0566 22.5308 28.048 22.5268C28.0472 22.5272 28.0472 22.5272 28.0463 22.5276C28.0463 22.5473 28.0472 22.7193 28.039 22.895C28.03 23.0783 28.0115 23.2656 28.0115 23.2656C28.0115 23.2656 27.9657 23.2885 27.8974 23.3227C27.8278 23.3537 27.7349 23.3951 27.6416 23.4361C27.4537 23.5144 27.263 23.5852 27.263 23.5852C27.263 23.5852 27.1104 23.4682 26.9676 23.348C26.8959 23.2881 26.8268 23.2282 26.7752 23.1812C26.7253 23.135 26.6921 23.1044 26.6901 23.1028C26.6901 23.1032 26.6897 23.1032 26.6893 23.1032C26.6868 23.1133 26.6459 23.2845 26.5943 23.4586C26.5689 23.549 26.5407 23.637 26.5182 23.7026C26.4953 23.7693 26.4801 23.8135 26.4801 23.8135C26.4801 23.8135 26.4302 23.8252 26.3557 23.8416C26.2812 23.8609 26.181 23.8762 26.0799 23.8943C26.0296 23.9031 25.9796 23.9116 25.9326 23.92C25.8855 23.9261 25.8405 23.9317 25.8028 23.9361C25.7271 23.9458 25.6764 23.9518 25.6764 23.9518C25.6764 23.9518 25.5565 23.8087 25.4456 23.6559C25.3359 23.508 25.2368 23.3593 25.2332 23.3541H25.2327C25.2315 23.3569 25.2106 23.3967 25.18 23.4562C25.148 23.516 25.1034 23.5972 25.0568 23.6776C24.9651 23.8388 24.8628 24 24.8628 24C24.8628 24 24.8116 23.9984 24.7355 23.9968C24.659 23.994 24.5571 23.9944 24.4552 23.9872C24.3537 23.9803 24.2518 23.9723 24.1757 23.9667C24.1376 23.9642 24.1061 23.9586 24.0836 23.9566C24.0615 23.9538 24.0492 23.9518 24.0492 23.9518C24.0492 23.9518 23.9657 23.7817 23.8929 23.6129C23.856 23.5297 23.8217 23.4413 23.7971 23.377C23.7758 23.3199 23.7607 23.2793 23.7574 23.2704C23.757 23.2704 23.7562 23.2704 23.7558 23.2704C23.7423 23.2853 23.6305 23.418 23.5094 23.5478C23.3825 23.6817 23.2446 23.8139 23.2446 23.8139C23.2446 23.8139 23.1959 23.8022 23.121 23.7854C23.0474 23.7649 22.9491 23.7379 22.8505 23.7106C22.7519 23.6849 22.6565 23.6483 22.5837 23.6262C22.5108 23.6017 22.4625 23.5852 22.4625 23.5852C22.4625 23.5852 22.4527 23.5398 22.4384 23.4702C22.4245 23.4007 22.4073 23.309 22.3913 23.2174C22.3762 23.1265 22.3623 23.0357 22.3537 22.9682C22.3455 22.9014 22.3398 22.8572 22.3394 22.854C22.334 22.858 22.1892 22.9637 22.0341 23.0662C21.9555 23.1193 21.8757 23.1699 21.8151 23.2061C21.7541 23.2423 21.714 23.2664 21.714 23.2664C21.714 23.2664 21.6682 23.2439 21.6003 23.2089C21.5311 23.1764 21.4431 23.1253 21.3551 23.0759C21.3105 23.0506 21.2663 23.026 21.225 23.0019C21.1849 22.977 21.1468 22.9533 21.1145 22.9332C21.0502 22.8926 21.0077 22.8649 21.0077 22.8649C21.0077 22.8649 21.0085 22.8186 21.0101 22.7491C21.0126 22.6791 21.0179 22.5843 21.024 22.4926C21.0379 22.3069 21.0592 22.1264 21.0592 22.1264C21.0592 22.1264 21.0163 22.1445 20.9524 22.1711C20.8878 22.1972 20.8014 22.2314 20.7126 22.2635C20.6238 22.2965 20.5342 22.3274 20.4662 22.3507C20.3987 22.3724 20.3537 22.3865 20.3537 22.3865C20.3537 22.3865 20.3148 22.3544 20.2571 22.3049C20.1982 22.2563 20.122 22.1904 20.0492 22.1196C19.9755 22.0501 19.9002 21.9825 19.8487 21.9271C19.7963 21.8728 19.7607 21.8366 19.7607 21.8366C19.7607 21.8366 19.773 21.7916 19.7914 21.7237C19.809 21.6569 19.8348 21.5673 19.8642 21.4781C19.9195 21.304 19.9813 21.1368 19.9837 21.13C19.9837 21.1296 19.9837 21.1296 19.9837 21.1296C19.98 21.1304 19.935 21.1376 19.8687 21.1492C19.8 21.1601 19.7075 21.173 19.6142 21.1854C19.5205 21.1967 19.4263 21.2071 19.3547 21.2136C19.2831 21.2204 19.2352 21.224 19.2352 21.224C19.2352 21.224 19.2057 21.1838 19.1611 21.1219C19.1178 21.0604 19.0551 20.9812 19.0015 20.896C18.9471 20.8108 18.891 20.7272 18.8513 20.6629C18.8129 20.5981 18.7875 20.5543 18.7875 20.5543C18.7875 20.5543 18.8759 20.3875 18.9712 20.2291C19.0646 20.0748 19.1615 19.9301 19.1697 19.9176C19.1697 19.9172 19.1697 19.9164 19.1697 19.916C19.1624 19.9156 19.1186 19.9128 19.0543 19.91C18.9827 19.9052 18.8898 19.8975 18.7973 19.8871C18.6103 19.8674 18.42 19.8392 18.42 19.8392C18.42 19.8392 18.3979 19.7934 18.3709 19.7231C18.343 19.6531 18.3058 19.5603 18.2686 19.4662C18.2358 19.3713 18.2031 19.2765 18.1781 19.2049C18.1658 19.17 18.1564 19.1394 18.1507 19.1181C18.1441 19.0976 18.1409 19.0851 18.1409 19.0851C18.1409 19.0851 18.2682 18.9428 18.3975 18.8102C18.4613 18.7435 18.5293 18.6787 18.58 18.6305C18.6283 18.5859 18.6606 18.5561 18.6639 18.5529C18.6635 18.5521 18.6635 18.5517 18.6631 18.5513C18.6455 18.5457 18.4773 18.4963 18.3074 18.438C18.1311 18.3765 17.9534 18.3049 17.9534 18.3049C17.9534 18.3049 17.9453 18.2559 17.9318 18.1815C17.9195 18.1071 17.9084 18.0071 17.8949 17.9078C17.8794 17.8085 17.8753 17.7088 17.8687 17.634C17.863 17.5589 17.8593 17.509 17.8593 17.509C17.8593 17.509 17.8978 17.4825 17.9559 17.4415C18.0156 17.4021 18.0946 17.3502 18.1748 17.2996C18.3336 17.1995 18.4928 17.1091 18.4928 17.1091C18.4928 17.1091 18.3336 17.0186 18.1748 16.9181C18.0946 16.8679 18.0156 16.816 17.9559 16.7758Z" fill="black"/>
<path fill-rule="evenodd" clip-rule="evenodd" d="M24.8621 16.236C25.3527 16.236 25.7509 16.6271 25.7509 17.109C25.7509 17.5906 25.3527 17.9813 24.8621 17.9813C24.3718 17.9813 23.9736 17.5906 23.9736 17.109C23.9736 16.6271 24.3718 16.236 24.8621 16.236Z" fill="black"/>
<path fill-rule="evenodd" clip-rule="evenodd" d="M23.5702 16.5788C23.6516 16.5788 23.7175 16.6431 23.7175 16.7231C23.7175 16.8031 23.6516 16.8674 23.5702 16.8678C23.4891 16.8678 23.4237 16.8031 23.4232 16.7231C23.4232 16.6431 23.4891 16.5788 23.5702 16.5788Z" fill="black"/>
<path fill-rule="evenodd" clip-rule="evenodd" d="M25.2548 16.0084C25.1737 16.0084 25.1078 15.9433 25.1078 15.8637C25.1078 15.7837 25.1737 15.7198 25.2548 15.7198C25.3358 15.7198 25.4017 15.7837 25.4017 15.8637C25.4017 15.9433 25.3358 16.0084 25.2548 16.0084Z" fill="black"/>
<path fill-rule="evenodd" clip-rule="evenodd" d="M26.1402 16.3988C26.1979 16.455 26.1979 16.5467 26.1402 16.6034C26.0829 16.6597 25.99 16.6597 25.9319 16.6034C25.875 16.5467 25.875 16.455 25.9319 16.3988C25.99 16.3425 26.0829 16.3425 26.1402 16.3988Z" fill="black"/>
<path fill-rule="evenodd" clip-rule="evenodd" d="M26.1296 17.3499C26.2107 17.3499 26.277 17.4142 26.277 17.4938C26.277 17.5738 26.2107 17.6389 26.1296 17.6389C26.0478 17.6389 25.9831 17.5738 25.9831 17.4938C25.9831 17.4142 26.0478 17.3499 26.1296 17.3499Z" fill="black"/>
<path fill-rule="evenodd" clip-rule="evenodd" d="M25.5848 18.1585C25.6421 18.2152 25.6421 18.3069 25.5848 18.3635C25.5271 18.4202 25.4338 18.4202 25.3769 18.3635C25.3192 18.3069 25.3192 18.2152 25.3769 18.1585C25.4338 18.1027 25.5271 18.1027 25.5848 18.1585Z" fill="black"/>
<path fill-rule="evenodd" clip-rule="evenodd" d="M24.4698 18.2084C24.5516 18.2084 24.6171 18.2736 24.6171 18.3535C24.6171 18.4331 24.5516 18.4975 24.4698 18.4979C24.3883 18.4979 24.3228 18.4335 24.3228 18.3535C24.3228 18.2732 24.3883 18.2084 24.4698 18.2084Z" fill="black"/>
<path fill-rule="evenodd" clip-rule="evenodd" d="M23.7929 17.6143C23.8502 17.6706 23.8502 17.7618 23.7929 17.8185C23.7356 17.8748 23.6423 17.8748 23.5846 17.8185C23.5268 17.7618 23.5268 17.6706 23.5846 17.6143C23.6423 17.5572 23.7352 17.5572 23.7929 17.6143Z" fill="black"/>
<path fill-rule="evenodd" clip-rule="evenodd" d="M24.1401 16.0579C24.0828 16.0013 24.0828 15.9104 24.1397 15.8537C24.1974 15.7975 24.2903 15.7975 24.348 15.8537C24.4053 15.9104 24.4053 16.0013 24.348 16.0579C24.2903 16.1146 24.1974 16.1146 24.1401 16.0579Z" fill="black"/>
<path fill-rule="evenodd" clip-rule="evenodd" d="M9.9019 3.32947C9.87039 3.33711 9.83028 3.34515 9.7824 3.35118C9.79263 3.43358 9.79836 3.5192 9.79836 3.60925V11.7069C9.79836 11.7962 9.79263 11.883 9.7824 11.9654C9.77176 12.047 9.75662 12.1238 9.7382 12.1941C9.69032 12.3726 9.61747 12.5113 9.53112 12.5852C9.48651 12.6234 9.43781 12.6455 9.38707 12.6455C9.35146 12.6455 9.31668 12.6335 9.28353 12.6138C9.17958 12.5519 9.09159 12.3991 9.03675 12.1941C9.01751 12.1238 9.00278 12.047 8.99255 11.9654C8.98232 11.883 8.97659 11.7962 8.97659 11.7069V3.60925C8.97659 3.5192 8.98232 3.43358 8.99255 3.35118C8.94426 3.34515 8.90374 3.33711 8.87305 3.32947C8.83213 3.31822 8.8088 3.30576 8.8088 3.29249V2.59347C8.8088 2.57096 8.87305 2.55086 8.97659 2.53639V2.19954C8.97659 2.1718 9.16034 2.14929 9.38707 2.14929C9.6142 2.14929 9.79836 2.1718 9.79836 2.19954V2.53639C9.9019 2.55086 9.96574 2.57096 9.96574 2.59347V3.29249C9.96574 3.30576 9.94242 3.31822 9.9019 3.32947Z" fill="black"/>
<rect width="7.1" height="2.16087" transform="matrix(-1 0 0 1 21.8 8.05414)" fill="black"/>
<rect width="5.9" height="1.8662" transform="matrix(-1 0 0 1 20 9.52747)" fill="black"/>
<path d="M18.8 10.3132H13V17.1887H17.5L18.8 10.3132Z" fill="black"/>
<rect width="1.17488" height="7.95612" transform="matrix(-0.999349 0.0360802 0.0373969 0.999301 21.8257 1.54987)" fill="black"/>
<rect width="0.699467" height="7.569" transform="matrix(-0.978944 0.204131 0.211264 0.977429 24.5078 1.58289)" fill="black"/>
</svg>
