<svg width="31" height="15" viewBox="0 0 31 15" fill="none" xmlns="http://www.w3.org/2000/svg">
<path d="M29.6484 13.2243H31L28.4719 7.70315H12.2337L11.4753 5.31616H9.5014V7.63523V9.94459H1.3823V11.1866L28.5789 11.2254L29.6484 13.2243Z" fill="black"/>
<path d="M18.4956 15.0001C16.7235 15.0001 15.2869 13.5664 15.2869 11.798C15.2869 10.0296 16.7235 8.59595 18.4956 8.59595C20.2678 8.59595 21.7044 10.0296 21.7044 11.798C21.7044 13.5664 20.2678 15.0001 18.4956 15.0001Z" fill="black"/>
<path d="M18.4957 13.2049C17.717 13.2049 17.0858 12.575 17.0858 11.798C17.0858 11.0209 17.717 10.391 18.4957 10.391C19.2743 10.391 19.9056 11.0209 19.9056 11.798C19.9056 12.575 19.2743 13.2049 18.4957 13.2049Z" fill="white"/>
<path d="M25.6618 15.0001C23.8896 15.0001 22.453 13.5664 22.453 11.798C22.453 10.0296 23.8896 8.59595 25.6618 8.59595C27.4339 8.59595 28.8705 10.0296 28.8705 11.798C28.8705 13.5664 27.4339 15.0001 25.6618 15.0001Z" fill="black"/>
<path d="M25.6618 13.2049C24.8831 13.2049 24.2519 12.575 24.2519 11.798C24.2519 11.0209 24.8831 10.391 25.6618 10.391C26.4404 10.391 27.0717 11.0209 27.0717 11.798C27.0717 12.575 26.4404 13.2049 25.6618 13.2049Z" fill="white"/>
<path fill-rule="evenodd" clip-rule="evenodd" d="M9.54024 0.959473L9.50134 5.31621V9.94463H1.38225L0.847454 9.59532V5.73345L4.68823 0.959473H9.54024ZM8.7333 1.6678H5.38842V5.3162H8.7333V1.6678ZM1.80047 5.3162L4.81474 1.6678V5.3162H1.80047Z" fill="black"/>
<path d="M12.3601 11.2545H3.57004C3.57004 11.2545 4.02705 7.89719 7.9845 7.70312C7.97478 7.70313 11.5919 7.70312 12.3601 11.2545Z" fill="black"/>
<path d="M3.61874 11.5458C3.78404 11.5458 3.92989 11.4294 3.95906 11.2547C4.49385 8.09146 7.67343 8.04294 7.80956 8.04294C7.84845 8.04294 7.87762 8.04294 7.91651 8.04294C11.3683 8.04294 11.9809 11.1286 12.0101 11.2644C12.049 11.4488 12.224 11.5749 12.4088 11.5458C12.5935 11.507 12.7199 11.3323 12.6907 11.148C12.681 11.1091 11.9226 7.28609 7.80956 7.36372C7.77066 7.36372 3.91044 7.41223 3.28814 11.1577C3.25897 11.342 3.38538 11.5264 3.57012 11.5555C3.57985 11.5458 3.59929 11.5458 3.61874 11.5458Z" fill="black"/>
<path d="M7.97485 15.0001C6.20271 15.0001 4.7661 13.5664 4.7661 11.798C4.7661 10.0296 6.20271 8.59595 7.97485 8.59595C9.74699 8.59595 11.1836 10.0296 11.1836 11.798C11.1836 13.5664 9.74699 15.0001 7.97485 15.0001Z" fill="black"/>
<path d="M7.97486 13.2049C7.19619 13.2049 6.56496 12.575 6.56496 11.798C6.56496 11.0209 7.19619 10.391 7.97486 10.391C8.75353 10.391 9.38477 11.0209 9.38477 11.798C9.38477 12.575 8.75353 13.2049 7.97486 13.2049Z" fill="white"/>
<path d="M9.84746 2H30.8475V8H9.84746V2Z" fill="black"/>
</svg>
