<svg width="32" height="16" viewBox="0 0 32 16" fill="none" xmlns="http://www.w3.org/2000/svg">
<path fill-rule="evenodd" clip-rule="evenodd" d="M-3.33786e-06 12.8073C-3.33786e-06 13.1675 0.306849 13.4595 0.685578 13.4595H2.1529C2.14947 13.4036 2.14756 13.3474 2.14756 13.2909C2.14756 12.8972 2.22278 12.5162 2.37115 12.155H0.685578C0.306849 12.155 -3.33786e-06 12.4473 -3.33786e-06 12.8073Z" fill="black"/>
<path fill-rule="evenodd" clip-rule="evenodd" d="M11.3167 0.952393H3.83909C3.33635 0.952393 2.88391 1.24319 2.69518 1.68806L0.784181 6.18942C0.719228 6.3431 0.685637 6.50719 0.685637 6.6728V12.2397H2.37121C2.40449 12.1585 2.44118 12.0789 2.4813 11.9997C3.03849 10.9106 4.17396 10.2344 5.44379 10.2344C7.26119 10.2344 8.73909 11.6448 8.73909 13.3793C8.73909 13.4359 8.73718 13.4924 8.73408 13.5484H11.3167V0.952393ZM9.91661 2.28535V6.67777H2.08731L3.95166 2.28535H9.91661Z" fill="black"/>
<path fill-rule="evenodd" clip-rule="evenodd" d="M8.16014 13.5391C8.1642 13.483 8.16603 13.4266 8.16603 13.3699C8.16603 11.9352 6.94722 10.7719 5.44384 10.7719C4.36839 10.7719 3.43868 11.3669 2.99651 12.2304C2.8202 12.5747 2.7207 12.9616 2.7207 13.3699C2.7207 13.4266 2.72293 13.483 2.72667 13.5385C2.81773 14.8955 3.99897 15.9688 5.44384 15.9688C6.88816 15.9688 8.0694 14.8955 8.16014 13.5391ZM4.32661 13.365C4.32661 12.7775 4.82784 12.2991 5.44377 12.2991C6.05947 12.2991 6.5607 12.7775 6.5607 13.365C6.5607 13.9529 6.05947 14.4313 5.44377 14.4313C4.82784 14.4313 4.32661 13.9529 4.32661 13.365Z" fill="black"/>
<path fill-rule="evenodd" clip-rule="evenodd" d="M5.44377 12.2993C4.82784 12.2993 4.32661 12.7761 4.32661 13.3618C4.32661 13.9478 4.82784 14.4247 5.44377 14.4247C6.05947 14.4247 6.5607 13.9478 6.5607 13.3618C6.5607 12.7761 6.05947 12.2993 5.44377 12.2993Z" fill="white"/>
<path fill-rule="evenodd" clip-rule="evenodd" d="M21.69 13.3699C21.69 13.4266 21.6918 13.483 21.6959 13.5391C21.787 14.8955 22.9682 15.9688 24.4122 15.9688C25.8571 15.9688 27.0383 14.8955 27.1294 13.5391C27.1335 13.483 27.1353 13.4266 27.1353 13.3699C27.1353 12.9616 27.0365 12.5752 26.8595 12.231C26.4183 11.3669 25.488 10.7719 24.4122 10.7719C22.9088 10.7719 21.69 11.9352 21.69 13.3699ZM23.2954 13.365C23.2954 12.7775 23.7966 12.2991 24.4123 12.2991C25.0282 12.2991 25.5294 12.7775 25.5294 13.365C25.5294 13.9529 25.0282 14.4313 24.4123 14.4313C23.7966 14.4313 23.2954 13.9529 23.2954 13.365Z" fill="black"/>
<rect x="10.7664" y="12.1549" width="18.6417" height="1.32912" fill="black"/>
<mask id="mask0" mask-type="alpha" maskUnits="userSpaceOnUse" x="23" y="12" width="7" height="3">
<path fill-rule="evenodd" clip-rule="evenodd" d="M29.9065 12.2258H23.2953V14.4246H29.9065V12.2258Z" fill="white"/>
</mask>
<g mask="url(#mask0)">
<path fill-rule="evenodd" clip-rule="evenodd" d="M24.4122 12.2995C23.7966 12.2995 23.2953 12.7763 23.2953 13.362C23.2953 13.9481 23.7966 14.4249 24.4122 14.4249C25.0281 14.4249 25.5294 13.9481 25.5294 13.362C25.5294 12.7763 25.0281 12.2995 24.4122 12.2995Z" fill="white"/>
</g>
<path fill-rule="evenodd" clip-rule="evenodd" d="M1.60941 10.6209H2.06463C2.34076 10.6209 2.56459 10.4079 2.56459 10.1452V9.03976C2.56459 8.77706 2.34076 8.56412 2.06463 8.56412H1.60941V10.6209Z" fill="white"/>
<rect x="10.8661" y="6.74354" width="21.1339" height="3.89242" fill="black"/>
<rect x="10.8661" y="10.636" width="18.542" height="1.70887" fill="black"/>
</svg>
