<svg width="44" height="14" viewBox="0 0 44 14" fill="none" xmlns="http://www.w3.org/2000/svg">
<path d="M2.06885 11.1927L3.4567 12.0807C3.4567 12.0807 3.74029 11.3569 4.80565 11.5721C5.87101 11.7873 10.2191 12.1249 10.2191 12.1249C10.2191 12.1249 11.7854 12.5648 12.5098 12.0554C13.2339 11.546 29.2876 11.5697 29.2876 11.5697L31.5969 12.1514C31.5969 12.1514 32.3526 11.888 32.8872 11.868C33.4219 11.8479 38.0087 11.7471 38.0087 11.7471L38.8161 11.6066L40.7242 9.9198L36.892 4.69556L8.76424 5.7172L3.04476 7.33538L2.06885 11.1927Z" fill="#050505"/>
<path d="M41.9939 10.4273H43.636C43.636 10.4273 43.8534 10.4156 43.8169 10.8303C43.7804 11.245 43.4391 11.19 43.4391 11.19H41.8511L41.9939 10.4273Z" fill="white"/>
<path d="M5.30933 5.43957L4.544 5.34082C4.544 5.34082 3.26405 5.54194 2.54405 6.16095C1.82405 6.77996 1.52161 7.99068 1.56453 8.16369C1.60785 8.33671 3.94113 7.41422 3.99849 7.33514C4.05625 7.25565 5.30893 5.43957 5.30893 5.43957H5.30933Z" fill="#CFCFCF"/>
<path d="M12.1527 4.26279C12.1527 4.26279 12.4632 4.08857 12.687 4.01391C12.9108 3.93924 13.6934 3.82724 13.6437 3.88946C13.5939 3.95168 13.2835 4.08857 13.3453 4.26239C13.4074 4.43662 12.1523 4.26239 12.1523 4.26239L12.1527 4.26279Z" fill="#5C5F66"/>
<path d="M13.0103 4.27519C13.0103 4.27519 18.1449 1.39331 19.8845 0.783936L20.5528 0.818057L16.6885 2.94445L14.2653 4.54857L13.0103 4.27479V4.27519Z" fill="#616161"/>
<path d="M41.6896 4.08485C41.6896 4.08485 42.3089 3.89738 42.4096 4.31568C42.5102 4.73357 42.5102 5.13741 42.6831 5.56975C42.856 6.00209 42.9711 6.26142 42.8271 6.5641C42.6831 6.86678 40.2925 6.27587 40.2925 6.27587C40.2925 6.27587 40.278 4.11376 41.6896 4.08485Z" fill="#AE222F"/>
<path d="M11.7453 12.3122C13.0967 12.1914 28.6069 12.1568 31.2234 12.152L31.2086 11.4238L11.7417 11.7614C11.7425 11.9742 11.7437 12.1572 11.7449 12.3122H11.7453Z" fill="#9D9E9B"/>
<path d="M43.0915 7.26753C43.0915 7.12623 42.8898 6.29888 42.8898 6.29888C42.8898 6.29888 42.6274 6.28924 41.8713 6.26877C41.1152 6.2487 40.964 5.55302 40.7923 5.21983C40.6211 4.88664 42.0025 4.37321 42.1637 4.13114C42.325 3.88908 39.8144 3.65906 39.2801 3.59844C38.7458 3.53783 37.2136 2.62416 35.1968 1.63544C33.1804 0.646708 30.6293 0 25.7694 0C20.9095 0 19.573 0.872313 19.573 0.872313H20.1534C16.3119 2.65869 14.1335 4.15603 14.1335 4.15603C13.73 4.27726 12.4797 4.12994 12.4797 4.12994C6.64189 4.72526 4.54406 5.34146 4.54406 5.34146C4.54406 5.34146 5.07674 5.58473 4.96603 5.74611C4.85493 5.90748 3.23844 7.08007 2.73464 7.52405C2.23044 7.96803 1.53852 7.94194 1.53852 7.94194C1.01065 8.1824 0.915986 8.60952 0.936042 8.89213C0.956098 9.17474 1.16789 10.5268 1.17791 10.7086C1.18794 10.8901 0.905557 10.87 0.99661 11.2032C1.08726 11.5364 1.88387 11.9298 1.88387 11.9298L3.19311 12.0558C3.11409 11.6668 2.89027 10.3722 3.21758 9.55289C3.60666 8.57982 4.60182 6.60678 7.3667 6.60678C9.60171 6.60678 11.7408 8.0696 11.7408 11.1502C11.7408 11.3786 11.7408 11.5809 11.7417 11.762L31.2085 11.4244L31.1985 10.931C31.1985 10.931 31.7949 6.54174 35.6268 6.73243C38.9171 6.89581 39.5076 9.83269 39.1173 11.5805C39.8377 11.5183 41.6226 11.3666 41.8713 11.3746C42.1838 11.3846 42.315 11.1225 42.315 11.1225C44.0594 10.6179 43.4541 10.0426 43.4541 10.0426C43.8372 9.2759 43.8071 8.7713 43.8576 8.05474C43.9082 7.33819 43.0911 7.26753 43.0911 7.26753H43.0915Z" fill="#A7A8A3"/>
<path d="M35.6265 6.73211C31.7947 6.54143 31.1982 10.9307 31.1982 10.9307L31.2227 12.1523C31.465 12.1519 31.5969 12.1515 31.5969 12.1515C31.5364 11.3341 31.5669 7.25397 35.6602 7.20901C39.3405 7.16847 38.8162 11.6063 38.8162 11.6063C38.8162 11.6063 38.9321 11.5959 39.117 11.5802C39.5073 9.83237 38.9169 6.89549 35.6265 6.73211Z" fill="#9D9E9B"/>
<path d="M7.36683 6.60587C4.60235 6.60587 3.60678 8.57891 3.2177 9.55198C2.89039 10.3713 3.11422 11.6659 3.19324 12.0549L3.45677 12.0802C3.05365 9.84021 3.99105 6.67171 7.7519 6.98442C11.5127 7.29714 11.5833 11.505 11.5833 11.8482C11.5833 12.1914 11.664 12.3223 11.664 12.3223C11.6788 12.3187 11.7065 12.315 11.745 12.3118C11.7422 12.0252 11.7406 11.6459 11.7406 11.1489C11.7406 8.06829 9.60143 6.60547 7.36643 6.60547L7.36683 6.60587Z" fill="#9D9E9B"/>
<path d="M14.8066 4.69523C14.8066 4.69523 19.8206 1.23167 20.5522 1.10442C20.5522 1.10442 23.8582 0.18032 26.5529 0.436835C29.2475 0.693351 34.2282 1.10241 34.371 2.66639C34.5138 4.23077 34.2819 3.94495 34.2819 3.94495L14.8066 4.69523Z" fill="#616161"/>
<path d="M25.1965 0.585938L24.4468 4.36703L26.0532 4.28875L26.3212 0.585938H25.1965Z" fill="#313D49"/>
<path d="M7.43789 13.9207C9.19031 13.877 10.5755 12.4197 10.5317 10.6659C10.488 8.91212 9.03189 7.52587 7.27947 7.56965C5.52706 7.61343 4.14191 9.07067 4.18565 10.8245C4.2294 12.5783 5.68548 13.9645 7.43789 13.9207Z" fill="#27262C"/>
<path d="M4.96875 10.7457C4.96875 12.0708 6.04213 13.1455 7.36661 13.1455C8.69109 13.1455 9.76407 12.0712 9.76407 10.7457C9.76407 9.42018 8.69069 8.34595 7.36661 8.34595C6.04253 8.34595 4.96875 9.42018 4.96875 10.7457Z" fill="#C3BFBE"/>
<path d="M6.53484 9.13696L7.08959 9.76801C7.08959 9.76801 7.18545 9.91935 7.31662 9.91935C7.44778 9.91935 7.54365 9.81337 7.54365 9.81337L8.12406 9.13696C8.12406 9.13696 8.20468 9.04102 8.12406 8.97559C8.04343 8.90975 7.76025 8.81421 7.36716 8.81421C6.97406 8.81421 6.39365 8.92019 6.53484 9.13736V9.13696Z" fill="#27262C"/>
<path d="M6.53496 12.3547L7.0897 11.7236C7.0897 11.7236 7.18556 11.5723 7.31673 11.5723C7.44789 11.5723 7.54376 11.6782 7.54376 11.6782L8.12377 12.3547C8.12377 12.3547 8.2048 12.4506 8.12377 12.516C8.04315 12.5819 7.75996 12.6778 7.36687 12.6778C6.97378 12.6778 6.39336 12.5718 6.53496 12.3547Z" fill="#27262C"/>
<path d="M8.99417 9.94342L8.36362 10.4986C8.36362 10.4986 8.2124 10.5945 8.2124 10.7258C8.2124 10.8571 8.3183 10.953 8.3183 10.953L8.99417 11.5335C8.99417 11.5335 9.09004 11.6142 9.15542 11.5335C9.2208 11.4528 9.31707 11.1694 9.31707 10.776C9.31707 10.3826 9.21118 9.80172 8.99417 9.94342Z" fill="#27262C"/>
<path d="M5.77895 9.94342L6.4095 10.4986C6.4095 10.4986 6.56072 10.5945 6.56072 10.7258C6.56072 10.8571 6.45483 10.953 6.45483 10.953L5.77895 11.5335C5.77895 11.5335 5.68309 11.6142 5.6173 11.5335C5.55192 11.4528 5.45605 11.1694 5.45605 10.776C5.45605 10.3826 5.56195 9.80172 5.77895 9.94342Z" fill="#27262C"/>
<path d="M38.452 10.7454C38.452 12.4996 37.0309 13.9219 35.278 13.9219C33.5251 13.9219 32.104 12.4996 32.104 10.7454C32.104 8.99112 33.5251 7.56885 35.278 7.56885C37.0309 7.56885 38.452 8.99112 38.452 10.7454Z" fill="#27262C"/>
<path d="M32.8877 10.7452C32.8877 12.0704 33.9611 13.145 35.2856 13.145C36.61 13.145 37.683 12.0708 37.683 10.7452C37.683 9.41969 36.6096 8.34546 35.2856 8.34546C33.9615 8.34546 32.8877 9.41969 32.8877 10.7452Z" fill="#C3BFBE"/>
<path d="M34.4534 9.13647L35.0082 9.76752C35.0082 9.76752 35.104 9.91886 35.2352 9.91886C35.3664 9.91886 35.4622 9.81289 35.4622 9.81289L36.0422 9.13647C36.0422 9.13647 36.1229 9.04053 36.0422 8.9751C35.9616 8.90926 35.6784 8.81372 35.2853 8.81372C34.8922 8.81372 34.3118 8.9197 34.4534 9.13687V9.13647Z" fill="#27262C"/>
<path d="M34.4534 12.3542L35.0082 11.7231C35.0082 11.7231 35.104 11.5718 35.2352 11.5718C35.3664 11.5718 35.4622 11.6778 35.4622 11.6778L36.0422 12.3542C36.0422 12.3542 36.1233 12.4501 36.0422 12.5155C35.9616 12.5814 35.6784 12.6773 35.2853 12.6773C34.8922 12.6773 34.3118 12.5713 34.4534 12.3542Z" fill="#27262C"/>
<path d="M36.9125 9.94342L36.282 10.4986C36.282 10.4986 36.1304 10.5945 36.1304 10.7258C36.1304 10.8571 36.2363 10.953 36.2363 10.953L36.9121 11.5335C36.9121 11.5335 37.008 11.6142 37.0734 11.5335C37.1392 11.4528 37.235 11.1694 37.235 10.776C37.235 10.3826 37.1291 9.80172 36.9121 9.94342H36.9125Z" fill="#27262C"/>
<path d="M33.6978 9.94342L34.3284 10.4986C34.3284 10.4986 34.4796 10.5945 34.4796 10.7258C34.4796 10.8571 34.3737 10.953 34.3737 10.953L33.6978 11.5335C33.6978 11.5335 33.6019 11.6142 33.5362 11.5335C33.4708 11.4528 33.3745 11.1694 33.3745 10.776C33.3745 10.3826 33.4804 9.80172 33.6974 9.94342H33.6978Z" fill="#27262C"/>
<path d="M32.5875 1.25468C32.5875 1.25468 29.9774 0.289641 25.7802 0.403648C25.7802 0.403648 22.252 0.379562 20.5801 0.960435C20.5801 0.960435 17.9965 1.9327 14.3608 4.83787H14.932L15.1254 4.8182L34.6725 4.04263C34.6636 3.86119 34.6989 3.52157 34.6452 3.12295C34.5349 2.30363 34.2485 1.66174 32.5875 1.25428V1.25468ZM34.0916 3.87162L25.2667 4.2012L15.0363 4.66726C16.0247 3.978 19.7273 1.51883 20.8296 1.10696C22.1152 0.626844 26.0413 0.597941 26.4649 0.619217C26.8884 0.640493 31.3653 0.767747 33.374 1.80665C33.374 1.80665 34.6757 2.14025 34.0912 3.87162H34.0916Z" fill="#7D7D7D"/>
<path d="M13.7216 11.1926L13.7188 11.1597C13.7156 11.1231 13.3887 7.50381 13.6113 6.40027C13.8283 5.32483 13.9819 5.06109 14.7075 4.51996L14.744 4.49266C17.6822 2.30084 19.8867 1.00622 21.1193 0.748901C22.2244 0.518077 24.2681 0.363525 26.2051 0.363525C27.6471 0.363525 29.6915 0.445819 31.2402 0.839223C34.1399 1.57505 34.5013 2.01422 34.6353 2.83996C34.7632 3.62998 34.7363 6.32359 34.5117 6.82498L34.5045 6.84104L34.4873 6.84506C34.4576 6.85188 31.5375 7.5592 31.2671 10.9686L31.2647 11.0011L13.722 11.1926H13.7216ZM26.2051 0.43498C24.2725 0.43498 22.2344 0.58913 21.1338 0.819151C19.9288 1.07045 17.675 2.39558 14.7865 4.55007L14.7496 4.57736C14.0429 5.10444 13.8933 5.36176 13.6807 6.41432C13.4713 7.45202 13.7541 10.7538 13.7862 11.1203L31.1981 10.93C31.4765 7.63548 34.2037 6.84506 34.4528 6.77962C34.6613 6.25937 34.6866 3.6063 34.5643 2.8508C34.4355 2.05717 34.0809 1.63366 31.2222 0.907868C29.6807 0.516471 27.6426 0.434579 26.2047 0.434579L26.2051 0.43498Z" fill="#1D1D1D"/>
<path d="M4.80547 7.72388L3.00727 7.73231C3.00727 7.73231 2.93347 8.08035 3.36266 8.10725C3.79185 8.13414 4.36304 8.14458 4.36304 8.14458C4.36304 8.14458 4.62417 7.85515 4.80507 7.72388H4.80547Z" fill="#BC4926"/>
<path d="M31.8232 8.29037C31.8256 8.41481 27.869 8.48627 22.9883 8.5786C18.1075 8.67093 14.1509 8.75001 14.1489 8.62557C14.1465 8.50112 18.1171 8.36905 22.9979 8.27672C27.8787 8.18399 31.8212 8.16593 31.8236 8.29077L31.8232 8.29037Z" fill="#9D9E9B"/>
<path d="M24.9257 11.0394C24.6317 8.90178 25.2374 4.14922 25.2434 4.10145L25.7095 0.39502L25.7805 0.403851L25.3144 4.11028C25.3084 4.15805 24.7039 8.90097 24.9963 11.0294L24.9257 11.039V11.0394Z" fill="#1D1D1D"/>
<path d="M22.0768 5.63705C22.0768 5.63705 22.0584 5.36047 22.5373 5.23883C23.0162 5.1172 23.1526 5.10596 23.3106 5.10596C23.4687 5.10596 24.467 5.17219 24.4743 5.54071C24.4815 5.90922 23.7342 6.03086 23.443 6.05294C23.1522 6.07502 22.058 6.10833 22.0764 5.63625L22.0768 5.63705Z" fill="#9D9E9B"/>
<path d="M31.5027 5.42245C31.5027 5.42245 31.4842 5.14587 31.9632 5.02423C32.4417 4.9026 32.5781 4.89136 32.7365 4.89136C32.8949 4.89136 33.8929 4.95759 33.9005 5.32611C33.9078 5.69462 33.1601 5.81626 32.8693 5.83834C32.5785 5.86042 31.4842 5.89373 31.5027 5.42165V5.42245Z" fill="#9D9E9B"/>
<path d="M24.0718 5.51573C24.0738 5.60444 24.0036 5.67831 23.915 5.68032L22.5945 5.71123C22.5059 5.71323 22.432 5.64298 22.43 5.55427L22.4292 5.51854C22.4272 5.42982 22.4974 5.35636 22.5861 5.35395L23.9065 5.32304C23.9952 5.32103 24.069 5.39128 24.071 5.48L24.0718 5.51573Z" fill="#DCE4F1"/>
<path d="M33.4971 5.30162C33.4991 5.39033 33.4289 5.4642 33.3403 5.4662L32.0198 5.49711C31.9311 5.49912 31.8577 5.42887 31.8553 5.34015L31.8545 5.30443C31.8525 5.21571 31.9227 5.14225 32.0114 5.13984L33.3318 5.10893C33.4205 5.10692 33.4943 5.17717 33.4963 5.26589L33.4971 5.30162Z" fill="#DCE4F1"/>
</svg>
