<svg width="32" height="20" viewBox="0 0 32 20" fill="none" xmlns="http://www.w3.org/2000/svg">
<path fill-rule="evenodd" clip-rule="evenodd" d="M0 9.64158V15.2632C0 15.8445 0.493999 16.3158 1.10345 16.3158H16V16.3157H30.8966C31.506 16.3157 32 15.8445 32 15.2631V7.36835H16V0H5.51724L3.86207 7.36842L0.668692 8.67421C0.263035 8.84007 6.86646e-05 9.22059 0 9.64158ZM13.7931 3.15796C13.7931 2.57658 13.2991 2.10533 12.6897 2.10533H5.04442L3.86207 7.36849H12.6897C13.2991 7.36849 13.7931 6.89724 13.7931 6.31586V3.15796Z" fill="black"/>
<path d="M24.8276 12.6315C22.6946 12.6315 20.9655 14.2809 20.9655 16.3157C20.9655 18.3504 22.6946 19.9999 24.8276 19.9999C26.9606 19.9999 28.6897 18.3504 28.6897 16.3157C28.6897 14.2809 26.9606 12.6315 24.8276 12.6315Z" fill="black"/>
<path d="M24.8276 13.9474C23.4564 13.9474 22.3448 15.0077 22.3448 16.3158C22.3448 17.6239 23.4564 18.6842 24.8276 18.6842C26.1988 18.6842 27.3103 17.6239 27.3103 16.3158C27.3103 15.0077 26.1988 13.9474 24.8276 13.9474Z" fill="white"/>
<path d="M7.17242 12.6315C5.03945 12.6315 3.31035 14.2809 3.31035 16.3157C3.31035 18.3504 5.03945 19.9999 7.17242 19.9999C9.30538 19.9999 11.0345 18.3504 11.0345 16.3157C11.0345 14.2809 9.30538 12.6315 7.17242 12.6315Z" fill="black"/>
<path d="M7.17242 13.9474C5.80121 13.9474 4.68966 15.0077 4.68966 16.3158C4.68966 17.6239 5.80121 18.6842 7.17242 18.6842C8.54362 18.6842 9.65517 17.6239 9.65517 16.3158C9.65517 15.0077 8.54362 13.9474 7.17242 13.9474Z" fill="white"/>
<path d="M6 0.5L4 9" stroke="black"/>
</svg>
